<svg xmlns="http://www.w3.org/2000/svg" width="1800" height="1900" viewBox="0 0 1800 1900" role="img" aria-label="준비에서 한 경기의 끝까지"><defs><marker id="arr" markerWidth="8" markerHeight="8" refX="7" refY="4" orient="auto"><path d="M0 0 L8 4 L0 8Z" fill="#087e82"/></marker><marker id="back" markerWidth="8" markerHeight="8" refX="7" refY="4" orient="auto"><path d="M0 0 L8 4 L0 8Z" fill="#b5761d"/></marker></defs><g font-family="Malgun Gothic, 맑은 고딕, sans-serif"><rect x="0" y="0" width="1800" height="1900" rx="0" fill="#f7f5ef" stroke="none" stroke-width="2" /><text x="60" y="48" font-size="18" fill="#087e82" font-weight="700">DIGIT DUEL   /   UI·UX SYSTEM FLOW   /   v0.4.11</text><text x="60" y="99" font-size="36" fill="#172b3c" font-weight="700">01  준비에서 한 경기의 끝까지</text><text x="60" y="139" font-size="19" fill="#586c79" font-weight="400">읽는 방향: 위 → 아래. UI 행동과 시스템 판정을 분리하고 상세 상점·전투는 02·03 시트로 연결합니다.</text><text x="60" y="1847" font-size="17" fill="#586c79" font-weight="400">범례  ━ 화면   ┄ 모달/복귀선   ◆ 조건   ● 시작·종료   녹색 시스템   * 원문 제안·충돌판단</text><text x="60" y="1877" font-size="16" fill="#586c79" font-weight="400">Earth · 2026-09-16 · GDD23 직접 조회 기준 / 밝은 문서 + 어두운 게임 UI / 시각 배치는 설계 제안</text><rect x="50" y="172" width="525" height="1530" rx="12" fill="#edf3f2" stroke="none" stroke-width="2" /><rect x="600" y="172" width="540" height="1530" rx="12" fill="#eff0e9" stroke="none" stroke-width="2" /><text x="72" y="207" font-size="20" fill="#087e82" font-weight="700">플레이어 UI</text><text x="623" y="207" font-size="20" fill="#087e82" font-weight="700">시스템 판정 · 공개 경계</text><rect x="185" y="225" width="245" height="42" rx="21" fill="#087e82" stroke="none" stroke-width="2" /><text text-anchor="middle" x="307.5" y="253" font-size="18" fill="#fff" font-weight="700">시작 · 모드/대전 준비</text><rect x="75" y="295" width="475" height="150" rx="12" fill="#fff" stroke="#087e82" stroke-width="2" stroke-dasharray="7 4"/><text x="93" y="322" font-size="15" fill="#087e82" font-weight="700">S01 / 모달</text><text x="93" y="353" font-size="23" fill="#172b3c" font-weight="700">경기 시작 상점*</text><text x="93" y="377" font-size="17.5" fill="#586c79" font-weight="400">하수인 6종 필수 · 시작 10코인</text><text x="93" y="401" font-size="17.5" fill="#586c79" font-weight="400">왕·동료 3명 무료 속성 선택*</text><text x="93" y="425" font-size="17.5" fill="#586c79" font-weight="400">상품 5행 → 구매 즉시 무료 보충*</text><polyline points="310,267 310,295" fill="none" stroke="#087e82" stroke-width="2.5"  marker-end="url(#arr)"/><rect x="321" y="267" width="46" height="26" rx="3" fill="#f7f5ef" stroke="none" stroke-width="2" /><text x="325" y="286" font-size="17" fill="#087e82" font-weight="600">시작</text><path d="M 862.5 302 L 1075 367 L 862.5 432 L 650 367 Z" fill="#fff4da" stroke="#b5761d" stroke-width="2"/><text text-anchor="middle" x="862.5" y="360" font-size="15" fill="#b5761d" font-weight="700">D01</text><text text-anchor="middle" x="862.5" y="389" font-size="19" fill="#172b3c" font-weight="700">필드 6칸을 채웠나?</text><polyline points="550,365 650,365" fill="none" stroke="#087e82" stroke-width="2.5"  marker-end="url(#arr)"/><rect x="571" y="326" width="46" height="26" rx="3" fill="#f7f5ef" stroke="none" stroke-width="2" /><text x="575" y="345" font-size="17" fill="#087e82" font-weight="600">완료 / 마감</text><rect x="640" y="485" width="460" height="120" rx="12" fill="#e7f0ed" stroke="#a1bbb4" stroke-width="2" /><text x="658" y="512" font-size="15" fill="#087e82" font-weight="700">Y01 / 시스템</text><text x="658" y="543" font-size="23" fill="#172b3c" font-weight="700">빈칸 자동 구매*</text><text x="658" y="567" font-size="17.5" fill="#586c79" font-weight="400">만료 시 ①부터 자동 구매·무료 보충</text><text x="658" y="591" font-size="17.5" fill="#586c79" font-weight="400">미선택 속성: 최다 → 동률 고정순</text><polyline points="860,432 860,485" fill="none" stroke="#087e82" stroke-width="2.5"  marker-end="url(#arr)"/><rect x="871" y="439" width="208" height="26" rx="3" fill="#f7f5ef" stroke="none" stroke-width="2" /><text x="875" y="458" font-size="17" fill="#087e82" font-weight="600">아니오 + 시간 초과</text><polyline points="1075,367 1115,367 1115,465 310,465 310,445" fill="none" stroke="#b5761d" stroke-width="2.5" stroke-dasharray="6 4" marker-end="url(#back)"/><rect x="86" y="468" width="226" height="26" rx="3" fill="#f7f5ef" stroke="none" stroke-width="2" /><text x="90" y="487" font-size="17" fill="#b5761d" font-weight="600">아니오 + 시간 남음: S01</text><rect x="75" y="620" width="475" height="130" rx="12" fill="#fff" stroke="#087e82" stroke-width="2" /><text x="93" y="647" font-size="15" fill="#087e82" font-weight="700">S02 / 화면</text><text x="93" y="678" font-size="23" fill="#172b3c" font-weight="700">배치 화면</text><text x="93" y="702" font-size="17.5" fill="#586c79" font-weight="400">기존 비공개 배치 절차 유지</text><text x="93" y="726" font-size="17.5" fill="#586c79" font-weight="400">양측 준비 완료 → 보드 진입</text><polyline points="650,367 590,367 590,588 310,588 310,620" fill="none" stroke="#087e82" stroke-width="2.5"  marker-end="url(#arr)"/><rect x="476" y="561" width="28" height="26" rx="3" fill="#f7f5ef" stroke="none" stroke-width="2" /><text x="480" y="580" font-size="17" fill="#087e82" font-weight="600">예</text><polyline points="860,605 860,650 550,650" fill="none" stroke="#087e82" stroke-width="2.5"  marker-end="url(#arr)"/><rect x="656" y="622" width="154" height="26" rx="3" fill="#f7f5ef" stroke="none" stroke-width="2" /><text x="660" y="641" font-size="17" fill="#087e82" font-weight="600">자동 보완 완료</text><rect x="75" y="815" width="475" height="150" rx="12" fill="#fff" stroke="#087e82" stroke-width="2" /><text x="93" y="842" font-size="15" fill="#087e82" font-weight="700">S03 / 화면</text><text x="93" y="873" font-size="23" fill="#172b3c" font-weight="700">보드 · 내 차례</text><text x="93" y="897" font-size="17.5" fill="#586c79" font-weight="400">말 선택 → 이동 / 탐색 / 회복</text><text x="93" y="921" font-size="17.5" fill="#586c79" font-weight="400">상점·가방 아이콘 · 턴 안내</text><text x="93" y="945" font-size="17.5" fill="#586c79" font-weight="400">선택 전투가 남으면 종료 선택</text><polyline points="310,750 310,815" fill="none" stroke="#087e82" stroke-width="2.5"  marker-end="url(#arr)"/><rect x="324" y="766" width="100" height="26" rx="3" fill="#f7f5ef" stroke="none" stroke-width="2" /><text x="328" y="785" font-size="17" fill="#087e82" font-weight="600">배치 확정</text><rect x="640" y="805" width="460" height="170" rx="12" fill="#e7f0ed" stroke="#a1bbb4" stroke-width="2" /><text x="658" y="832" font-size="15" fill="#087e82" font-weight="700">Y02 / 시스템</text><text x="658" y="863" font-size="23" fill="#172b3c" font-weight="700">행동 · 접촉 처리</text><text x="658" y="887" font-size="17.5" fill="#586c79" font-weight="400">수풀: 구역별 1 / 2 / 3 / 4코인</text><text x="658" y="911" font-size="17.5" fill="#586c79" font-weight="400">조우 전투 → 시트 03 / B01</text><text x="658" y="935" font-size="17.5" fill="#586c79" font-weight="400">폭탄·함정·이동은 GDD13 현행</text><text x="658" y="959" font-size="17.5" fill="#586c79" font-weight="400">행동·전투·연출 종료 후 판정</text><polyline points="550,880 640,880" fill="none" stroke="#087e82" stroke-width="2.5"  marker-end="url(#arr)"/><rect x="567" y="845" width="46" height="26" rx="3" fill="#f7f5ef" stroke="none" stroke-width="2" /><text x="571" y="864" font-size="17" fill="#087e82" font-weight="600">행동</text><path d="M 862.5 1035 L 1075 1105 L 862.5 1175 L 650 1105 Z" fill="#fff4da" stroke="#b5761d" stroke-width="2"/><text text-anchor="middle" x="862.5" y="1098" font-size="15" fill="#b5761d" font-weight="700">D02</text><text text-anchor="middle" x="862.5" y="1127" font-size="19" fill="#172b3c" font-weight="700">경기 승패가 확정됐나?</text><polyline points="860,975 860,1035" fill="none" stroke="#087e82" stroke-width="2.5"  marker-end="url(#arr)"/><rect x="873" y="991" width="46" height="26" rx="3" fill="#f7f5ef" stroke="none" stroke-width="2" /><text x="877" y="1010" font-size="17" fill="#087e82" font-weight="600">해결</text><rect x="75" y="1040" width="475" height="135" rx="12" fill="#fff" stroke="#087e82" stroke-width="2" /><text x="93" y="1067" font-size="15" fill="#087e82" font-weight="700">S04 / 화면</text><text x="93" y="1098" font-size="23" fill="#172b3c" font-weight="700">승패 결과 · 전체 말 공개</text><text x="93" y="1122" font-size="17.5" fill="#586c79" font-weight="400">왕 제거 / 왕 끝줄 도달</text><text x="93" y="1146" font-size="17.5" fill="#586c79" font-weight="400">하수인 6 + 동료 2 전멸 등 현행</text><text x="93" y="1170" font-size="17.5" fill="#586c79" font-weight="400">가방 생존 말은 전멸 패배를 못 막음</text><polyline points="650,1105 550,1105" fill="none" stroke="#087e82" stroke-width="2.5"  marker-end="url(#arr)"/><rect x="581" y="1071" width="28" height="26" rx="3" fill="#f7f5ef" stroke="none" stroke-width="2" /><text x="585" y="1090" font-size="17" fill="#087e82" font-weight="600">예</text><rect x="175" y="1210" width="275" height="42" rx="21" fill="#087e82" stroke="none" stroke-width="2" /><text text-anchor="middle" x="312.5" y="1238" font-size="18" fill="#fff" font-weight="700">종료 · 경기 결과</text><polyline points="310,1175 310,1210" fill="none" stroke="#087e82" stroke-width="2.5"  marker-end="url(#arr)"/><rect x="326" y="1181" width="100" height="26" rx="3" fill="#f7f5ef" stroke="none" stroke-width="2" /><text x="330" y="1200" font-size="17" fill="#087e82" font-weight="600">결과 표시</text><path d="M 862.5 1225 L 1075 1295 L 862.5 1365 L 650 1295 Z" fill="#fff4da" stroke="#b5761d" stroke-width="2"/><text text-anchor="middle" x="862.5" y="1288" font-size="15" fill="#b5761d" font-weight="700">D03</text><text text-anchor="middle" x="862.5" y="1317" font-size="19" fill="#172b3c" font-weight="700">20 / 40 / 60 / 80턴?</text><polyline points="860,1175 860,1225" fill="none" stroke="#087e82" stroke-width="2.5"  marker-end="url(#arr)"/><rect x="876" y="1188" width="64" height="26" rx="3" fill="#f7f5ef" stroke="none" stroke-width="2" /><text x="880" y="1207" font-size="17" fill="#087e82" font-weight="600">아니오</text><rect x="640" y="1420" width="460" height="180" rx="12" fill="#fff" stroke="#087e82" stroke-width="2" stroke-dasharray="7 4"/><text x="658" y="1447" font-size="15" fill="#087e82" font-weight="700">S05 / 모달</text><text x="658" y="1478" font-size="23" fill="#172b3c" font-weight="700">정기 상점 → 시트 02</text><text x="658" y="1502" font-size="17.5" fill="#586c79" font-weight="400">직전 양측 코인 +2 / +3 / +4 / +5</text><text x="658" y="1526" font-size="17.5" fill="#586c79" font-weight="400">이동·탐색·전투 일시 정지</text><text x="658" y="1550" font-size="17.5" fill="#586c79" font-weight="400">완료·시간 초과 → 양측 닫힘</text><text x="658" y="1574" font-size="17.5" fill="#586c79" font-weight="400">다음 보드 턴 S03으로 복귀</text><polyline points="860,1365 860,1420" fill="none" stroke="#087e82" stroke-width="2.5"  marker-end="url(#arr)"/><rect x="876" y="1376" width="28" height="26" rx="3" fill="#f7f5ef" stroke="none" stroke-width="2" /><text x="880" y="1395" font-size="17" fill="#087e82" font-weight="600">예</text><polyline points="1075,1295 1120,1295 1120,1660 560,1660 560,1306 525,1306" fill="none" stroke="#b5761d" stroke-width="2.5" stroke-dasharray="6 4" marker-end="url(#back)"/><rect x="446" y="1628" width="262" height="26" rx="3" fill="#f7f5ef" stroke="none" stroke-width="2" /><text x="450" y="1647" font-size="17" fill="#b5761d" font-weight="600">아니오 → 다음 턴 S03</text><polyline points="640,1540 580,1540 580,990 310,990 310,965" fill="none" stroke="#b5761d" stroke-width="2.5" stroke-dasharray="6 4" marker-end="url(#back)"/><rect x="78" y="1000" width="208" height="26" rx="3" fill="#f7f5ef" stroke="none" stroke-width="2" /><text x="82" y="1019" font-size="17" fill="#b5761d" font-weight="600">양측 닫힘 → S03</text><text x="72" y="1375" font-size="20" fill="#586c79" font-weight="400">비상점 턴은 다음 플레이어에게 인계.</text><text x="72" y="1410" font-size="20" fill="#586c79" font-weight="400">65턴부터 버닝 타임 유지.</text><text x="72" y="1445" font-size="20" fill="#586c79" font-weight="400">80턴 상점 뒤 추가 상점 없음.</text><text x="72" y="1480" font-size="20" fill="#586c79" font-weight="400">왕 승리·몰수는 상점보다 먼저 처리.</text><rect x="1190" y="185" width="550" height="535" rx="16" fill="#17212e" stroke="#52657a" stroke-width="2" /><text x="1210" y="215" font-size="20" fill="#f4f6fa" font-weight="700">S01 · 초기 구성 / 소유자 전용</text><text x="1210" y="252" font-size="18" fill="#f4f6fa" font-weight="400">10코인    아이템 0 · 버프 0 · 볼 0</text><rect x="1210" y="273" width="390" height="35" rx="6" fill="#253448" stroke="#63768b" stroke-width="2" /><text x="1219" y="296.5" font-size="16" fill="#f4f6fa" font-weight="400">상품 1 · 미보유 종 · ★1</text><rect x="1615" y="273" width="103" height="34" rx="6" fill="#246e78" stroke="none" stroke-width="2" /><text x="1627" y="296" font-size="16" fill="#fff" font-weight="600">1코인</text><rect x="1210" y="315" width="390" height="35" rx="6" fill="#253448" stroke="#63768b" stroke-width="2" /><text x="1219" y="338.5" font-size="16" fill="#f4f6fa" font-weight="400">상품 2 · 미보유 종 · ★1</text><rect x="1615" y="315" width="103" height="34" rx="6" fill="#246e78" stroke="none" stroke-width="2" /><text x="1627" y="338" font-size="16" fill="#fff" font-weight="600">1코인</text><rect x="1210" y="357" width="390" height="35" rx="6" fill="#253448" stroke="#63768b" stroke-width="2" /><text x="1219" y="380.5" font-size="16" fill="#f4f6fa" font-weight="400">상품 3 · 미보유 종 · ★1</text><rect x="1615" y="357" width="103" height="34" rx="6" fill="#246e78" stroke="none" stroke-width="2" /><text x="1627" y="380" font-size="16" fill="#fff" font-weight="600">1코인</text><rect x="1210" y="399" width="390" height="35" rx="6" fill="#253448" stroke="#63768b" stroke-width="2" /><text x="1219" y="422.5" font-size="16" fill="#f4f6fa" font-weight="400">상품 4 · 미보유 종 · ★1</text><rect x="1615" y="399" width="103" height="34" rx="6" fill="#246e78" stroke="none" stroke-width="2" /><text x="1627" y="422" font-size="16" fill="#fff" font-weight="600">1코인</text><rect x="1210" y="441" width="390" height="35" rx="6" fill="#253448" stroke="#63768b" stroke-width="2" /><text x="1219" y="464.5" font-size="16" fill="#f4f6fa" font-weight="400">상품 5 · 미보유 종 · ★1</text><rect x="1615" y="441" width="103" height="34" rx="6" fill="#246e78" stroke="none" stroke-width="2" /><text x="1627" y="464" font-size="16" fill="#fff" font-weight="600">1코인</text><text x="1210" y="513" font-size="17" fill="#f4f6fa" font-weight="400">필드 하수인 6칸</text><rect x="1210" y="525" width="76" height="40" rx="6" fill="#253448" stroke="#63768b" stroke-width="2" /><text x="1219" y="551" font-size="16" fill="#f4f6fa" font-weight="400">1</text><rect x="1295" y="525" width="76" height="40" rx="6" fill="#253448" stroke="#63768b" stroke-width="2" /><text x="1304" y="551" font-size="16" fill="#f4f6fa" font-weight="400">2</text><rect x="1380" y="525" width="76" height="40" rx="6" fill="#253448" stroke="#63768b" stroke-width="2" /><text x="1389" y="551" font-size="16" fill="#f4f6fa" font-weight="400">3</text><rect x="1465" y="525" width="76" height="40" rx="6" fill="#253448" stroke="#63768b" stroke-width="2" /><text x="1474" y="551" font-size="16" fill="#f4f6fa" font-weight="400">4</text><rect x="1550" y="525" width="76" height="40" rx="6" fill="#253448" stroke="#63768b" stroke-width="2" /><text x="1559" y="551" font-size="16" fill="#f4f6fa" font-weight="400">5</text><rect x="1635" y="525" width="76" height="40" rx="6" fill="#253448" stroke="#63768b" stroke-width="2" /><text x="1644" y="551" font-size="16" fill="#f4f6fa" font-weight="400">6</text><text x="1210" y="590" font-size="17" fill="#f4f6fa" font-weight="400">왕 / 동료A / 동료B   속성 무료 선택*</text><rect x="1210" y="606" width="155" height="34" rx="6" fill="#246e78" stroke="none" stroke-width="2" /><text x="1222" y="629" font-size="16" fill="#fff" font-weight="600">왕: 불</text><rect x="1375" y="606" width="155" height="34" rx="6" fill="#246e78" stroke="none" stroke-width="2" /><text x="1387" y="629" font-size="16" fill="#fff" font-weight="600">동료A: 물</text><rect x="1540" y="606" width="178" height="34" rx="6" fill="#246e78" stroke="none" stroke-width="2" /><text x="1552" y="629" font-size="16" fill="#fff" font-weight="600">동료B: 번개</text><rect x="1210" y="661" width="220" height="34" rx="6" fill="#246e78" stroke="none" stroke-width="2" /><text x="1222" y="684" font-size="16" fill="#fff" font-weight="600">새로 고침 1코인</text><rect x="1490" y="661" width="228" height="34" rx="6" fill="#344151" stroke="none" stroke-width="2" /><text x="1502" y="684" font-size="16" fill="#a6b0bf" font-weight="600">완료 · 6칸 필요</text><rect x="1190" y="755" width="550" height="480" rx="16" fill="#17212e" stroke="#52657a" stroke-width="2" /><text x="1210" y="785" font-size="20" fill="#f4f6fa" font-weight="700">S03 · 보드 화면 / 배치 축소 예시</text><text x="1210" y="818" font-size="17" fill="#f4f6fa" font-weight="400">내 차례 · 20턴       [상대는 대기]</text><rect x="1210" y="838" width="46" height="39" rx="6" fill="#253448" stroke="#63768b" stroke-width="2" /><text x="1219" y="863.5" font-size="16" fill="#f4f6fa" font-weight="400">?</text><rect x="1263" y="838" width="46" height="39" rx="6" fill="#253448" stroke="#63768b" stroke-width="2" /><text x="1272" y="863.5" font-size="16" fill="#f4f6fa" font-weight="400">?</text><rect x="1316" y="838" width="46" height="39" rx="6" fill="#253448" stroke="#63768b" stroke-width="2" /><text x="1325" y="863.5" font-size="16" fill="#f4f6fa" font-weight="400">?</text><rect x="1369" y="838" width="46" height="39" rx="6" fill="#253448" stroke="#63768b" stroke-width="2" /><text x="1378" y="863.5" font-size="16" fill="#f4f6fa" font-weight="400">?</text><rect x="1422" y="838" width="46" height="39" rx="6" fill="#253448" stroke="#63768b" stroke-width="2" /><text x="1431" y="863.5" font-size="16" fill="#f4f6fa" font-weight="400">?</text><rect x="1475" y="838" width="46" height="39" rx="6" fill="#253448" stroke="#63768b" stroke-width="2" /><text x="1484" y="863.5" font-size="16" fill="#f4f6fa" font-weight="400">?</text><rect x="1210" y="883" width="46" height="39" rx="6" fill="#253448" stroke="#63768b" stroke-width="2" /><text x="1219" y="908.5" font-size="16" fill="#f4f6fa" font-weight="400">?</text><rect x="1263" y="883" width="46" height="39" rx="6" fill="#253448" stroke="#63768b" stroke-width="2" /><text x="1272" y="908.5" font-size="16" fill="#f4f6fa" font-weight="400">?</text><rect x="1316" y="883" width="46" height="39" rx="6" fill="#253448" stroke="#63768b" stroke-width="2" /><text x="1325" y="908.5" font-size="16" fill="#f4f6fa" font-weight="400">?</text><rect x="1369" y="883" width="46" height="39" rx="6" fill="#253448" stroke="#63768b" stroke-width="2" /><text x="1378" y="908.5" font-size="16" fill="#f4f6fa" font-weight="400">?</text><rect x="1422" y="883" width="46" height="39" rx="6" fill="#253448" stroke="#63768b" stroke-width="2" /><text x="1431" y="908.5" font-size="16" fill="#f4f6fa" font-weight="400">?</text><rect x="1475" y="883" width="46" height="39" rx="6" fill="#253448" stroke="#63768b" stroke-width="2" /><text x="1484" y="908.5" font-size="16" fill="#f4f6fa" font-weight="400">?</text><rect x="1210" y="928" width="46" height="39" rx="6" fill="#253448" stroke="#63768b" stroke-width="2" /><text x="1219" y="953.5" font-size="16" fill="#f4f6fa" font-weight="400"></text><rect x="1263" y="928" width="46" height="39" rx="6" fill="#253448" stroke="#63768b" stroke-width="2" /><text x="1272" y="953.5" font-size="16" fill="#f4f6fa" font-weight="400"></text><rect x="1316" y="928" width="46" height="39" rx="6" fill="#253448" stroke="#63768b" stroke-width="2" /><text x="1325" y="953.5" font-size="16" fill="#f4f6fa" font-weight="400"></text><rect x="1369" y="928" width="46" height="39" rx="6" fill="#253448" stroke="#63768b" stroke-width="2" /><text x="1378" y="953.5" font-size="16" fill="#f4f6fa" font-weight="400"></text><rect x="1422" y="928" width="46" height="39" rx="6" fill="#253448" stroke="#63768b" stroke-width="2" /><text x="1431" y="953.5" font-size="16" fill="#f4f6fa" font-weight="400"></text><rect x="1475" y="928" width="46" height="39" rx="6" fill="#253448" stroke="#63768b" stroke-width="2" /><text x="1484" y="953.5" font-size="16" fill="#f4f6fa" font-weight="400"></text><rect x="1210" y="973" width="46" height="39" rx="6" fill="#253448" stroke="#63768b" stroke-width="2" /><text x="1219" y="998.5" font-size="16" fill="#f4f6fa" font-weight="400"></text><rect x="1263" y="973" width="46" height="39" rx="6" fill="#253448" stroke="#63768b" stroke-width="2" /><text x="1272" y="998.5" font-size="16" fill="#f4f6fa" font-weight="400"></text><rect x="1316" y="973" width="46" height="39" rx="6" fill="#253448" stroke="#63768b" stroke-width="2" /><text x="1325" y="998.5" font-size="16" fill="#f4f6fa" font-weight="400"></text><rect x="1369" y="973" width="46" height="39" rx="6" fill="#253448" stroke="#63768b" stroke-width="2" /><text x="1378" y="998.5" font-size="16" fill="#f4f6fa" font-weight="400"></text><rect x="1422" y="973" width="46" height="39" rx="6" fill="#253448" stroke="#63768b" stroke-width="2" /><text x="1431" y="998.5" font-size="16" fill="#f4f6fa" font-weight="400"></text><rect x="1475" y="973" width="46" height="39" rx="6" fill="#253448" stroke="#63768b" stroke-width="2" /><text x="1484" y="998.5" font-size="16" fill="#f4f6fa" font-weight="400"></text><rect x="1210" y="1018" width="46" height="39" rx="6" fill="#253448" stroke="#63768b" stroke-width="2" /><text x="1219" y="1043.5" font-size="16" fill="#f4f6fa" font-weight="400">●</text><rect x="1263" y="1018" width="46" height="39" rx="6" fill="#253448" stroke="#63768b" stroke-width="2" /><text x="1272" y="1043.5" font-size="16" fill="#f4f6fa" font-weight="400">●</text><rect x="1316" y="1018" width="46" height="39" rx="6" fill="#253448" stroke="#63768b" stroke-width="2" /><text x="1325" y="1043.5" font-size="16" fill="#f4f6fa" font-weight="400">●</text><rect x="1369" y="1018" width="46" height="39" rx="6" fill="#253448" stroke="#63768b" stroke-width="2" /><text x="1378" y="1043.5" font-size="16" fill="#f4f6fa" font-weight="400">●</text><rect x="1422" y="1018" width="46" height="39" rx="6" fill="#253448" stroke="#63768b" stroke-width="2" /><text x="1431" y="1043.5" font-size="16" fill="#f4f6fa" font-weight="400">●</text><rect x="1475" y="1018" width="46" height="39" rx="6" fill="#253448" stroke="#63768b" stroke-width="2" /><text x="1484" y="1043.5" font-size="16" fill="#f4f6fa" font-weight="400">●</text><rect x="1210" y="1063" width="46" height="39" rx="6" fill="#253448" stroke="#63768b" stroke-width="2" /><text x="1219" y="1088.5" font-size="16" fill="#f4f6fa" font-weight="400">●</text><rect x="1263" y="1063" width="46" height="39" rx="6" fill="#253448" stroke="#63768b" stroke-width="2" /><text x="1272" y="1088.5" font-size="16" fill="#f4f6fa" font-weight="400">●</text><rect x="1316" y="1063" width="46" height="39" rx="6" fill="#253448" stroke="#63768b" stroke-width="2" /><text x="1325" y="1088.5" font-size="16" fill="#f4f6fa" font-weight="400">●</text><rect x="1369" y="1063" width="46" height="39" rx="6" fill="#253448" stroke="#63768b" stroke-width="2" /><text x="1378" y="1088.5" font-size="16" fill="#f4f6fa" font-weight="400">●</text><rect x="1422" y="1063" width="46" height="39" rx="6" fill="#253448" stroke="#63768b" stroke-width="2" /><text x="1431" y="1088.5" font-size="16" fill="#f4f6fa" font-weight="400">●</text><rect x="1475" y="1063" width="46" height="39" rx="6" fill="#253448" stroke="#63768b" stroke-width="2" /><text x="1484" y="1088.5" font-size="16" fill="#f4f6fa" font-weight="400">●</text><rect x="1560" y="838" width="157" height="34" rx="6" fill="#246e78" stroke="none" stroke-width="2" /><text x="1572" y="861" font-size="16" fill="#fff" font-weight="600">상점</text><rect x="1560" y="887" width="157" height="34" rx="6" fill="#246e78" stroke="none" stroke-width="2" /><text x="1572" y="910" font-size="16" fill="#fff" font-weight="600">가방</text><rect x="1560" y="981" width="157" height="34" rx="6" fill="#246e78" stroke="none" stroke-width="2" /><text x="1572" y="1004" font-size="16" fill="#fff" font-weight="600">이동</text><rect x="1560" y="1030" width="157" height="34" rx="6" fill="#246e78" stroke="none" stroke-width="2" /><text x="1572" y="1053" font-size="16" fill="#fff" font-weight="600">탐색</text><rect x="1560" y="1079" width="157" height="34" rx="6" fill="#246e78" stroke="none" stroke-width="2" /><text x="1572" y="1102" font-size="16" fill="#fff" font-weight="600">회복</text><text x="1210" y="1152" font-size="17" fill="#f4f6fa" font-weight="400">상점 닫힌 시간: 구매·교체 잠금</text><text x="1210" y="1194" font-size="15" fill="#b8c5d4" font-weight="400">보드 도형은 배치 개념도 · 정확한 격자 복제 아님</text><rect x="1190" y="1270" width="550" height="228" rx="12" fill="#fff" stroke=" #d7ded9" stroke-width="2" /><text x="1208" y="1300" font-size="21" fill="#172b3c" font-weight="700">시간과 인계</text><text x="1208" y="1332" font-size="18" fill="#586c79" font-weight="400">온라인/PVE: 동시 90초</text><text x="1208" y="1360" font-size="18" fill="#586c79" font-weight="400">핫시트: 1인 60초씩 순차*</text><text x="1208" y="1388" font-size="18" fill="#586c79" font-weight="400">첫 오픈 P1 → 가림 → P2</text><text x="1208" y="1416" font-size="18" fill="#586c79" font-weight="400">다음 오픈은 선이용자 교대*</text><text x="1208" y="1444" font-size="18" fill="#586c79" font-weight="400">초기 속성 미선택 동률 순서*</text><text x="1208" y="1472" font-size="18" fill="#586c79" font-weight="400">불 → 물 → 번개 → 땅 → 풀</text><rect x="1190" y="1540" width="550" height="200" rx="12" fill="#fff" stroke=" #d7ded9" stroke-width="2" /><text x="1208" y="1570" font-size="21" fill="#172b3c" font-weight="700">원문 연결 / 상세 범위</text><text x="1208" y="1602" font-size="18" fill="#586c79" font-weight="400">GDD23: 등급 규칙 · 상점 운영</text><text x="1208" y="1630" font-size="18" fill="#586c79" font-weight="400">GDD23: 시스템 개편 및 예외</text><text x="1208" y="1658" font-size="18" fill="#586c79" font-weight="400">GDD13: 4장 이동·전투·승패</text><text x="1208" y="1686" font-size="18" fill="#586c79" font-weight="400">시작 자동 구매: 진열 순번 ①부터*</text><text x="1208" y="1714" font-size="18" fill="#586c79" font-weight="400">상품 ① → ⑤ 위에서부터 · Mercury 확인</text><rect x="75" y="1285" width="450" height="42" rx="21" fill="#087e82" stroke="none" stroke-width="2" /><text text-anchor="middle" x="300" y="1313" font-size="18" fill="#fff" font-weight="700">연결 S03 · 다음 플레이어 턴</text></g></svg>
