<svg xmlns="http://www.w3.org/2000/svg" width="1800" height="2360" viewBox="0 0 1800 2360" role="img" aria-label="조우 · 비공개 출전 · 전투 결과"><defs><marker id="arr" markerWidth="8" markerHeight="8" refX="7" refY="4" orient="auto"><path d="M0 0 L8 4 L0 8Z" fill="#087e82"/></marker><marker id="back" markerWidth="8" markerHeight="8" refX="7" refY="4" orient="auto"><path d="M0 0 L8 4 L0 8Z" fill="#b5761d"/></marker></defs><g font-family="Malgun Gothic, 맑은 고딕, sans-serif"><rect x="0" y="0" width="1800" height="2360" rx="0" fill="#f7f5ef" stroke="none" stroke-width="2" /><text x="60" y="48" font-size="18" fill="#087e82" font-weight="700">DIGIT DUEL   /   UI·UX SYSTEM FLOW   /   v0.4.11</text><text x="60" y="99" font-size="36" fill="#172b3c" font-weight="700">03  조우 · 비공개 출전 · 전투 결과</text><text x="60" y="139" font-size="19" fill="#586c79" font-weight="400">보드 S03에서 진입. 소유자의 선택 화면과 상대의 대기를 분리하고 경기 종료를 가방 정리보다 먼저 판정합니다.</text><text x="60" y="2307" font-size="17" fill="#586c79" font-weight="400">범례  ━ 화면   ┄ 모달/복귀선   ◆ 조건   ● 시작·종료   녹색 시스템   * 원문 제안·충돌판단</text><text x="60" y="2337" font-size="16" fill="#586c79" font-weight="400">Earth · 2026-09-16 · GDD23 직접 조회 기준 / 밝은 문서 + 어두운 게임 UI / 시각 배치는 설계 제안</text><rect x="50" y="178" width="500" height="2040" rx="12" fill="#edf3f2" stroke="none" stroke-width="2" /><rect x="570" y="178" width="540" height="2040" rx="12" fill="#eff0e9" stroke="none" stroke-width="2" /><text x="70" y="213" font-size="20" fill="#087e82" font-weight="700">플레이어 UI / 선택</text><text x="590" y="213" font-size="20" fill="#087e82" font-weight="700">시스템 판정 / 전이</text><rect x="130" y="238" width="340" height="42" rx="21" fill="#087e82" stroke="none" stroke-width="2" /><text text-anchor="middle" x="300" y="266" font-size="18" fill="#fff" font-weight="700">시작 B01 · 보드 조우</text><path d="M 832.5 236 L 1045 301 L 832.5 366 L 620 301 Z" fill="#fff4da" stroke="#b5761d" stroke-width="2"/><text text-anchor="middle" x="832.5" y="294" font-size="15" fill="#b5761d" font-weight="700">D21</text><text text-anchor="middle" x="832.5" y="323" font-size="19" fill="#172b3c" font-weight="700">왕·동료 출전인가?</text><polyline points="470,260 620,300" fill="none" stroke="#087e82" stroke-width="2.5"  marker-end="url(#arr)"/><rect x="510" y="251" width="46" height="26" rx="3" fill="#f7f5ef" stroke="none" stroke-width="2" /><text x="514" y="270" font-size="17" fill="#087e82" font-weight="600">조우</text><rect x="75" y="365" width="450" height="150" rx="12" fill="#fff" stroke="#087e82" stroke-width="2" stroke-dasharray="7 4"/><text x="93" y="392" font-size="15" fill="#087e82" font-weight="700">B02 / 모달</text><text x="93" y="423" font-size="23" fill="#172b3c" font-weight="700">본체 / 가방 대리 선택</text><text x="93" y="447" font-size="17.5" fill="#586c79" font-weight="400">가방 말 3칸 중 1개 또는 본체</text><text x="93" y="471" font-size="17.5" fill="#586c79" font-weight="400">일반·전설·포획 모두 대리 가능</text><text x="93" y="495" font-size="17.5" fill="#586c79" font-weight="400">확정 전 상대에게 정체 숨김</text><polyline points="620,303 585,303 585,339 300,339 300,365" fill="none" stroke="#087e82" stroke-width="2.5"  marker-end="url(#arr)"/><rect x="404" y="311" width="28" height="26" rx="3" fill="#f7f5ef" stroke="none" stroke-width="2" /><text x="408" y="330" font-size="17" fill="#087e82" font-weight="600">예</text><rect x="610" y="416" width="460" height="130" rx="12" fill="#e7f0ed" stroke="#a1bbb4" stroke-width="2" /><text x="628" y="443" font-size="15" fill="#087e82" font-weight="700">Y21 / 시스템</text><text x="628" y="474" font-size="23" fill="#172b3c" font-weight="700">순차 블라인드 확정</text><text x="628" y="496" font-size="17.5" fill="#586c79" font-weight="400">현행 선택 순서 유지</text><text x="628" y="516" font-size="17.5" fill="#586c79" font-weight="400">양측 선택 완료 후 참전자 공개</text><text x="628" y="536" font-size="17.5" fill="#586c79" font-weight="400">일반 하수인은 본인 참전</text><polyline points="525,450 610,450" fill="none" stroke="#087e82" stroke-width="2.5"  marker-end="url(#arr)"/><rect x="534" y="412" width="46" height="26" rx="3" fill="#f7f5ef" stroke="none" stroke-width="2" /><text x="538" y="431" font-size="17" fill="#087e82" font-weight="600">확정</text><polyline points="1045,300 1085,300 1085,394 850,394 850,416" fill="none" stroke="#087e82" stroke-width="2.5"  marker-end="url(#arr)"/><rect x="914" y="366" width="64" height="26" rx="3" fill="#f7f5ef" stroke="none" stroke-width="2" /><text x="918" y="385" font-size="17" fill="#087e82" font-weight="600">아니오</text><rect x="75" y="585" width="450" height="145" rx="12" fill="#fff" stroke="#087e82" stroke-width="2" /><text x="93" y="612" font-size="15" fill="#087e82" font-weight="700">B03 / 오버레이</text><text x="93" y="643" font-size="23" fill="#172b3c" font-weight="700">인계 / 상대 선택 대기</text><text x="93" y="667" font-size="17.5" fill="#586c79" font-weight="400">핫시트: “상대에게 넘기세요”</text><text x="93" y="691" font-size="17.5" fill="#586c79" font-weight="400">온라인: “상대가 선택 중입니다”</text><text x="93" y="715" font-size="17.5" fill="#586c79" font-weight="400">가방 개수·후보·선택 정체 숨김</text><polyline points="610,505 570,505 570,562 300,562 300,585" fill="none" stroke="#087e82" stroke-width="2.5"  marker-end="url(#arr)"/><rect x="69" y="533" width="172" height="26" rx="3" fill="#f7f5ef" stroke="none" stroke-width="2" /><text x="73" y="552" font-size="17" fill="#087e82" font-weight="600">다음 선택자 필요</text><rect x="610" y="600" width="460" height="130" rx="12" fill="#e7f0ed" stroke="#a1bbb4" stroke-width="2" /><text x="628" y="627" font-size="15" fill="#087e82" font-weight="700">Y22 / 시스템</text><text x="628" y="658" font-size="23" fill="#172b3c" font-weight="700">전투 시작 스냅샷</text><text x="628" y="680" font-size="17.5" fill="#586c79" font-weight="400">필드 칸으로 시너지 고정</text><text x="628" y="700" font-size="17.5" fill="#586c79" font-weight="400">대리도 자기 속성·타입 효과 수혜</text><text x="628" y="720" font-size="17.5" fill="#586c79" font-weight="400">모든 스킬 쿨타임 0으로 시작</text><polyline points="525,655 610,655" fill="none" stroke="#087e82" stroke-width="2.5"  marker-end="url(#arr)"/><rect x="525" y="614" width="100" height="26" rx="3" fill="#f7f5ef" stroke="none" stroke-width="2" /><text x="529" y="633" font-size="17" fill="#087e82" font-weight="600">양측 완료</text><rect x="75" y="800" width="450" height="150" rx="12" fill="#fff" stroke="#087e82" stroke-width="2" /><text x="93" y="827" font-size="15" fill="#087e82" font-weight="700">B04 / 화면</text><text x="93" y="858" font-size="23" fill="#172b3c" font-weight="700">전투 HUD / 스킬 선택</text><text x="93" y="882" font-size="17.5" fill="#586c79" font-weight="400">싸우기 · 가방 · 포획 · 도망</text><text x="93" y="906" font-size="17.5" fill="#586c79" font-weight="400">내 시너지 칩 → 효과 수치 열람</text><text x="93" y="930" font-size="17.5" fill="#586c79" font-weight="400">잠긴 슬롯은 회색 / 기본기 항상 가능</text><polyline points="840,730 840,767 300,767 300,800" fill="none" stroke="#087e82" stroke-width="2.5"  marker-end="url(#arr)"/><rect x="451" y="739" width="316" height="26" rx="3" fill="#f7f5ef" stroke="none" stroke-width="2" /><text x="455" y="758" font-size="17" fill="#087e82" font-weight="600">3 → 2 → 1 / 전투 개시</text><rect x="610" y="800" width="460" height="150" rx="12" fill="#e7f0ed" stroke="#a1bbb4" stroke-width="2" /><text x="628" y="827" font-size="15" fill="#087e82" font-weight="700">Y23 / 시스템</text><text x="628" y="858" font-size="23" fill="#172b3c" font-weight="700">공격 · 라운드 · 결판</text><text x="628" y="882" font-size="17.5" fill="#586c79" font-weight="400">선택한 스킬 조건·쿨 검사</text><text x="628" y="906" font-size="17.5" fill="#586c79" font-weight="400">내 행동 후 상대 행동 / 라운드 진행</text><text x="628" y="930" font-size="17.5" fill="#586c79" font-weight="400">결판 전이면 B04로 돌아감</text><polyline points="525,870 610,870" fill="none" stroke="#087e82" stroke-width="2.5"  marker-end="url(#arr)"/><rect x="540" y="833" width="46" height="26" rx="3" fill="#f7f5ef" stroke="none" stroke-width="2" /><text x="544" y="852" font-size="17" fill="#087e82" font-weight="600">스킬</text><path d="M 832.5 1010 L 1045 1075 L 832.5 1140 L 620 1075 Z" fill="#fff4da" stroke="#b5761d" stroke-width="2"/><text text-anchor="middle" x="832.5" y="1068" font-size="15" fill="#b5761d" font-weight="700">D22</text><text text-anchor="middle" x="832.5" y="1097" font-size="19" fill="#172b3c" font-weight="700">도망 성공인가?</text><polyline points="300,950 300,975 832,975 832,1010" fill="none" stroke="#087e82" stroke-width="2.5"  marker-end="url(#arr)"/><rect x="321" y="976" width="424" height="26" rx="3" fill="#f7f5ef" stroke="none" stroke-width="2" /><text x="325" y="995" font-size="17" fill="#087e82" font-weight="600">도망 선택 / 기본 30%, 수호자 70%</text><rect x="75" y="1040" width="450" height="140" rx="12" fill="#fff" stroke="#087e82" stroke-width="2" /><text x="93" y="1067" font-size="15" fill="#087e82" font-weight="700">B05 / 화면</text><text x="93" y="1098" font-size="23" fill="#172b3c" font-weight="700">보드 · 후방 교환 선택</text><text x="93" y="1122" font-size="17.5" fill="#586c79" font-weight="400">성공: 후방 말 선택 또는 생략</text><text x="93" y="1146" font-size="17.5" fill="#586c79" font-weight="400">선택 후 현행 교환·밀기 처리</text><text x="93" y="1170" font-size="17.5" fill="#586c79" font-weight="400">상대 대기 → S03 복귀 / 재판정</text><polyline points="620,1074 525,1074" fill="none" stroke="#087e82" stroke-width="2.5"  marker-end="url(#arr)"/><rect x="547" y="1037" width="46" height="26" rx="3" fill="#f7f5ef" stroke="none" stroke-width="2" /><text x="551" y="1056" font-size="17" fill="#087e82" font-weight="600">성공</text><polyline points="1045,1075 1090,1075 1090,970 1070,970 1070,920" fill="none" stroke="#b5761d" stroke-width="2.5" stroke-dasharray="6 4" marker-end="url(#back)"/><rect x="845" y="943" width="154" height="26" rx="3" fill="#f7f5ef" stroke="none" stroke-width="2" /><text x="849" y="962" font-size="17" fill="#b5761d" font-weight="600">실패 → Y23</text><text x="610" y="1190" font-size="18" fill="#586c79" font-weight="400">실패: 상대 기본 공격 1회 + 정상 차례 유지</text><text x="610" y="1220" font-size="18" fill="#586c79" font-weight="400">도망 불가 효과 중에는 도망 비활성 → B04</text><path d="M 832.5 1270 L 1045 1335 L 832.5 1400 L 620 1335 Z" fill="#fff4da" stroke="#b5761d" stroke-width="2"/><text text-anchor="middle" x="832.5" y="1328" font-size="15" fill="#b5761d" font-weight="700">D23</text><text text-anchor="middle" x="832.5" y="1357" font-size="19" fill="#172b3c" font-weight="700">포획 조건을 충족하나?</text><rect x="75" y="1260" width="450" height="150" rx="12" fill="#fff" stroke="#087e82" stroke-width="2" /><text x="93" y="1287" font-size="15" fill="#087e82" font-weight="700">B06 / 화면</text><text x="93" y="1318" font-size="23" fill="#172b3c" font-weight="700">포획 버튼</text><text x="93" y="1342" font-size="17.5" fill="#586c79" font-weight="400">볼 보유 · 라운드당 1회</text><text x="93" y="1366" font-size="17.5" fill="#586c79" font-weight="400">상대 일반 하수인 HP 30% 미만</text><text x="93" y="1390" font-size="17.5" fill="#586c79" font-weight="400">왕·동료·전설·보유 동종 제외*</text><polyline points="525,1335 620,1335" fill="none" stroke="#087e82" stroke-width="2.5"  marker-end="url(#arr)"/><rect x="544" y="1299" width="46" height="26" rx="3" fill="#f7f5ef" stroke="none" stroke-width="2" /><text x="548" y="1318" font-size="17" fill="#087e82" font-weight="600">누름</text><rect x="610" y="1470" width="460" height="140" rx="12" fill="#e7f0ed" stroke="#a1bbb4" stroke-width="2" /><text x="628" y="1497" font-size="15" fill="#087e82" font-weight="700">Y24 / 시스템</text><text x="628" y="1528" font-size="23" fill="#172b3c" font-weight="700">볼 소모 → 성공률 70%</text><text x="628" y="1552" font-size="17.5" fill="#586c79" font-weight="400">실패 → B04 전투로 복귀</text><text x="628" y="1576" font-size="17.5" fill="#586c79" font-weight="400">성공 → 전투 즉시 종료</text><text x="628" y="1600" font-size="17.5" fill="#586c79" font-weight="400">가방 정리 전 경기 승패 먼저 검사*</text><polyline points="832,1400 832,1470" fill="none" stroke="#087e82" stroke-width="2.5"  marker-end="url(#arr)"/><rect x="847" y="1419" width="28" height="26" rx="3" fill="#f7f5ef" stroke="none" stroke-width="2" /><text x="851" y="1438" font-size="17" fill="#087e82" font-weight="600">예</text><polyline points="620,1334 575,1334 575,1430 300,1430 300,1410" fill="none" stroke="#b5761d" stroke-width="2.5" stroke-dasharray="6 4" marker-end="url(#back)"/><rect x="84" y="1430" width="244" height="26" rx="3" fill="#f7f5ef" stroke="none" stroke-width="2" /><text x="88" y="1449" font-size="17" fill="#b5761d" font-weight="600">아니오 → B06 비활성</text><path d="M 832.5 1670 L 1045 1735 L 832.5 1800 L 620 1735 Z" fill="#fff4da" stroke="#b5761d" stroke-width="2"/><text text-anchor="middle" x="832.5" y="1728" font-size="15" fill="#b5761d" font-weight="700">D24</text><text text-anchor="middle" x="832.5" y="1757" font-size="19" fill="#172b3c" font-weight="700">경기가 끝났나?</text><polyline points="840,1610 840,1670" fill="none" stroke="#087e82" stroke-width="2.5"  marker-end="url(#arr)"/><rect x="871" y="1629" width="100" height="26" rx="3" fill="#f7f5ef" stroke="none" stroke-width="2" /><text x="875" y="1648" font-size="17" fill="#087e82" font-weight="600">포획 성공</text><rect x="75" y="1660" width="450" height="155" rx="12" fill="#fff" stroke="#087e82" stroke-width="2" /><text x="93" y="1687" font-size="15" fill="#087e82" font-weight="700">B07 / 화면</text><text x="93" y="1718" font-size="23" fill="#172b3c" font-weight="700">전투 결과 / 복귀</text><text x="93" y="1742" font-size="17.5" fill="#586c79" font-weight="400">승리 3코인 · 패배 1코인</text><text x="93" y="1766" font-size="17.5" fill="#586c79" font-weight="400">도망 0코인 · 포획 승패 동일*</text><text x="93" y="1790" font-size="17.5" fill="#586c79" font-weight="400">HP만 유지 / 상태·버프·쿨 초기화</text><polyline points="610,910 559,910 559,1630 300,1630 300,1660" fill="none" stroke="#087e82" stroke-width="2.5"  marker-end="url(#arr)"/><rect x="303" y="1601" width="46" height="26" rx="3" fill="#f7f5ef" stroke="none" stroke-width="2" /><text x="307" y="1620" font-size="17" fill="#087e82" font-weight="600">결판</text><rect x="75" y="1870" width="450" height="42" rx="21" fill="#087e82" stroke="none" stroke-width="2" /><text text-anchor="middle" x="300" y="1898" font-size="18" fill="#fff" font-weight="700">S04 경기 결과 · 가방초과 창 생략</text><polyline points="620,1735 557,1735 557,1845 300,1845 300,1870" fill="none" stroke="#087e82" stroke-width="2.5"  marker-end="url(#arr)"/><rect x="324" y="1815" width="208" height="26" rx="3" fill="#f7f5ef" stroke="none" stroke-width="2" /><text x="328" y="1834" font-size="17" fill="#087e82" font-weight="600">예: 경기 종료 우선</text><rect x="610" y="1870" width="460" height="175" rx="12" fill="#e7f0ed" stroke="#a1bbb4" stroke-width="2" /><text x="628" y="1897" font-size="15" fill="#087e82" font-weight="700">Y25 / 시스템</text><text x="628" y="1928" font-size="23" fill="#172b3c" font-weight="700">가방 수용 / 대리 결과</text><text x="628" y="1952" font-size="17.5" fill="#586c79" font-weight="400">포획+빈칸 → 등급·스킬 승계*</text><text x="628" y="1976" font-size="17.5" fill="#586c79" font-weight="400">HP 70% / 누적 지불액 0*</text><text x="628" y="2000" font-size="17.5" fill="#586c79" font-weight="400">대리 승리 → HP 유지해 가방 복귀</text><text x="628" y="2024" font-size="17.5" fill="#586c79" font-weight="400">대리 패배 손실은 D24에서 선반영</text><polyline points="832,1800 832,1870" fill="none" stroke="#087e82" stroke-width="2.5"  marker-end="url(#arr)"/><rect x="846" y="1821" width="64" height="26" rx="3" fill="#f7f5ef" stroke="none" stroke-width="2" /><text x="850" y="1840" font-size="17" fill="#087e82" font-weight="600">아니오</text><rect x="75" y="2010" width="450" height="150" rx="12" fill="#fff" stroke="#087e82" stroke-width="2" stroke-dasharray="7 4"/><text x="93" y="2037" font-size="15" fill="#087e82" font-weight="700">B08 / 모달</text><text x="93" y="2068" font-size="23" fill="#172b3c" font-weight="700">가방 초과 · 소유자 선택*</text><text x="93" y="2092" font-size="17.5" fill="#586c79" font-weight="400">기존 3 + 포획 1 중 1마리 내보냄</text><text x="93" y="2116" font-size="17.5" fill="#586c79" font-weight="400">선택한 말 자동 판매 / 원장 환급</text><text x="93" y="2140" font-size="17.5" fill="#586c79" font-weight="400">20초 무응답 → 포획한 말만 내보냄</text><polyline points="610,1970 557,1970 557,2080 525,2080" fill="none" stroke="#087e82" stroke-width="2.5"  marker-end="url(#arr)"/><rect x="68" y="1943" width="154" height="26" rx="3" fill="#f7f5ef" stroke="none" stroke-width="2" /><text x="72" y="1962" font-size="17" fill="#087e82" font-weight="600">포획+가방 가득</text><rect x="615" y="2100" width="455" height="42" rx="21" fill="#087e82" stroke="none" stroke-width="2" /><text text-anchor="middle" x="842.5" y="2128" font-size="18" fill="#fff" font-weight="700">S03 복귀 · 다음 턴/상점은 시트 01</text><polyline points="525,2140 615,2140" fill="none" stroke="#087e82" stroke-width="2.5"  marker-end="url(#arr)"/><rect x="543" y="2101" width="46" height="26" rx="3" fill="#f7f5ef" stroke="none" stroke-width="2" /><text x="547" y="2120" font-size="17" fill="#087e82" font-weight="600">처리</text><polyline points="840,2045 840,2100" fill="none" stroke="#087e82" stroke-width="2.5"  marker-end="url(#arr)"/><rect x="854" y="2055" width="154" height="26" rx="3" fill="#f7f5ef" stroke="none" stroke-width="2" /><text x="858" y="2074" font-size="17" fill="#087e82" font-weight="600">빈칸 / 비포획</text><rect x="1170" y="190" width="570" height="380" rx="16" fill="#17212e" stroke="#52657a" stroke-width="2" /><text x="1190" y="220" font-size="20" fill="#f4f6fa" font-weight="700">B02 · 출전 선택 / 소유자 전용</text><text x="1190" y="254" font-size="21" fill="#f4f6fa" font-weight="700">왕을 직접 출전시키겠습니까?</text><rect x="1190" y="277" width="525" height="34" rx="6" fill="#246e78" stroke="none" stroke-width="2" /><text x="1202" y="300" font-size="16" fill="#fff" font-weight="600">본체 출전 · 왕</text><text x="1190" y="350" font-size="18" fill="#f4f6fa" font-weight="400">가방 대리 · 한 마리 선택</text><rect x="1190" y="373" width="165" height="76" rx="6" fill="#253448" stroke="#63768b" stroke-width="2" /><text x="1199" y="417" font-size="16" fill="#f4f6fa" font-weight="400">가방 1 · HP</text><rect x="1367" y="373" width="165" height="76" rx="6" fill="#253448" stroke="#63768b" stroke-width="2" /><text x="1376" y="417" font-size="16" fill="#f4f6fa" font-weight="400">가방 2 · HP</text><rect x="1544" y="373" width="165" height="76" rx="6" fill="#253448" stroke="#63768b" stroke-width="2" /><text x="1553" y="417" font-size="16" fill="#f4f6fa" font-weight="400">가방 3 · HP</text><rect x="1190" y="487" width="525" height="34" rx="6" fill="#246e78" stroke="none" stroke-width="2" /><text x="1202" y="510" font-size="16" fill="#fff" font-weight="600">선택 확정</text><text x="1190" y="547" font-size="17" fill="#b9c9d7" font-weight="400">확정 뒤 상대 선택 동안 이 화면은 가립니다.</text><rect x="1170" y="610" width="570" height="605" rx="16" fill="#17212e" stroke="#52657a" stroke-width="2" /><text x="1190" y="640" font-size="20" fill="#f4f6fa" font-weight="700">B04 · 전투 HUD / 싸우기 펼침</text><text x="1190" y="675" font-size="20" fill="#f4f6fa" font-weight="700">상대 전투원      HP ███████</text><text x="1190" y="713" font-size="17" fill="#b9c9d7" font-weight="400">발동한 상태 아이콘 · 사용된 기술 로그</text><rect x="1200" y="737" width="510" height="120" rx="12" fill="#1d2a3d" stroke="none" stroke-width="2" /><text x="1370" y="807" font-size="25" fill="#8397ac" font-weight="700">전투 장면</text><text x="1190" y="900" font-size="20" fill="#f4f6fa" font-weight="700">내 전투원      HP █████   방어막 ▰</text><rect x="1190" y="920" width="156" height="34" rx="6" fill="#246e78" stroke="none" stroke-width="2" /><text x="1202" y="943" font-size="16" fill="#fff" font-weight="600">왕국: 불 (4)</text><rect x="1356" y="920" width="171" height="34" rx="6" fill="#246e78" stroke="none" stroke-width="2" /><text x="1368" y="943" font-size="16" fill="#fff" font-weight="600">타입: 공격 (2)</text><rect x="1537" y="920" width="180" height="34" rx="6" fill="#246e78" stroke="none" stroke-width="2" /><text x="1549" y="943" font-size="16" fill="#fff" font-weight="600">패시브 / 복수</text><text x="1190" y="985" font-size="18" fill="#f4f6fa" font-weight="400">라운드 2 · 내 행동</text><rect x="1190" y="1004" width="120" height="34" rx="6" fill="#246e78" stroke="none" stroke-width="2" /><text x="1202" y="1027" font-size="16" fill="#fff" font-weight="600">싸우기</text><rect x="1324" y="1004" width="120" height="34" rx="6" fill="#246e78" stroke="none" stroke-width="2" /><text x="1336" y="1027" font-size="16" fill="#fff" font-weight="600">가방</text><rect x="1458" y="1004" width="120" height="34" rx="6" fill="#246e78" stroke="none" stroke-width="2" /><text x="1470" y="1027" font-size="16" fill="#fff" font-weight="600">포획</text><rect x="1592" y="1004" width="120" height="34" rx="6" fill="#246e78" stroke="none" stroke-width="2" /><text x="1604" y="1027" font-size="16" fill="#fff" font-weight="600">도망</text><rect x="1190" y="1060" width="250" height="34" rx="6" fill="#246e78" stroke="none" stroke-width="2" /><text x="1202" y="1083" font-size="16" fill="#fff" font-weight="600">1차 기본기 · 쿨 0</text><rect x="1460" y="1060" width="250" height="34" rx="6" fill="#344151" stroke="none" stroke-width="2" /><text x="1472" y="1083" font-size="16" fill="#a6b0bf" font-weight="600">2차 스킬 · 쿨 2</text><rect x="1190" y="1110" width="250" height="34" rx="6" fill="#344151" stroke="none" stroke-width="2" /><text x="1202" y="1133" font-size="16" fill="#a6b0bf" font-weight="600">3차 · 미해금</text><rect x="1460" y="1110" width="250" height="34" rx="6" fill="#344151" stroke="none" stroke-width="2" /><text x="1472" y="1133" font-size="16" fill="#a6b0bf" font-weight="600">4차 · 미해금</text><text x="1190" y="1188" font-size="17" fill="#b9c9d7" font-weight="400">칩 클릭: 효과 상세 / 닫기: HUD 복귀</text><rect x="1170" y="1250" width="570" height="370" rx="16" fill="#17212e" stroke="#52657a" stroke-width="2" /><text x="1190" y="1280" font-size="20" fill="#f4f6fa" font-weight="700">B08 · 가방 초과 / 소유자 전용</text><text x="1190" y="1315" font-size="20" fill="#f4f6fa" font-weight="700">가방이 가득 찼습니다.   남은 시간 20초*</text><rect x="1190" y="1350" width="121" height="82" rx="6" fill="#253448" stroke="#63768b" stroke-width="2" /><text x="1199" y="1397" font-size="16" fill="#f4f6fa" font-weight="400">기존 1</text><rect x="1322" y="1350" width="121" height="82" rx="6" fill="#253448" stroke="#63768b" stroke-width="2" /><text x="1331" y="1397" font-size="16" fill="#f4f6fa" font-weight="400">기존 2</text><rect x="1454" y="1350" width="121" height="82" rx="6" fill="#253448" stroke="#63768b" stroke-width="2" /><text x="1463" y="1397" font-size="16" fill="#f4f6fa" font-weight="400">기존 3</text><rect x="1586" y="1350" width="121" height="82" rx="6" fill="#253448" stroke="#63768b" stroke-width="2" /><text x="1595" y="1397" font-size="16" fill="#f4f6fa" font-weight="400">포획한 말</text><text x="1190" y="1475" font-size="17" fill="#f4f6fa" font-weight="400">선택한 말 판매가 표시 · 포획한 말은 0코인</text><rect x="1190" y="1500" width="522" height="34" rx="6" fill="#246e78" stroke="none" stroke-width="2" /><text x="1202" y="1523" font-size="16" fill="#fff" font-weight="600">선택한 말 내보내기</text><text x="1190" y="1575" font-size="17" fill="#b9c9d7" font-weight="400">시간 초과: 포획한 말 내보내기 / 기존 3마리 유지</text><rect x="1170" y="1660" width="570" height="200" rx="12" fill="#fff" stroke=" #d7ded9" stroke-width="2" /><text x="1188" y="1690" font-size="21" fill="#172b3c" font-weight="700">공개 정보 경계</text><text x="1188" y="1722" font-size="18" fill="#586c79" font-weight="400">상대의 시너지 칩·정확 집계·등급,</text><text x="1188" y="1750" font-size="18" fill="#586c79" font-weight="400">가방 내용/개수·재화·미사용 스킬 비공개.</text><text x="1188" y="1778" font-size="18" fill="#586c79" font-weight="400">효과 발동만 상태 아이콘·로그로 공개.</text><text x="1188" y="1806" font-size="18" fill="#586c79" font-weight="400">포획 창은 소유자만 보고 상대는 대기.</text><text x="1188" y="1834" font-size="18" fill="#586c79" font-weight="400">핫시트 소유자 변경은 B03 가림을 경유.</text><rect x="1170" y="1890" width="570" height="228" rx="12" fill="#fff" stroke=" #d7ded9" stroke-width="2" /><text x="1188" y="1920" font-size="21" fill="#172b3c" font-weight="700">예외 / GDD23와 GDD13 연결</text><text x="1188" y="1952" font-size="18" fill="#586c79" font-weight="400">대리 패배: 왕이면 즉시 경기 패배,</text><text x="1188" y="1980" font-size="18" fill="#586c79" font-weight="400">동료면 그 동료도 함께 제거.</text><text x="1188" y="2008" font-size="18" fill="#586c79" font-weight="400">연결 끊김 → 기존 재연결/몰수 처리.</text><text x="1188" y="2036" font-size="18" fill="#586c79" font-weight="400">재연결 시 확정 상태 복구, 재선택 강요 없음.</text><text x="1188" y="2064" font-size="18" fill="#586c79" font-weight="400">출전·일반 전투 선택의 신규 제한시간은</text><text x="1188" y="2092" font-size="18" fill="#586c79" font-weight="400">기획에 정의되지 않아 추가하지 않음.</text><polyline points="525,1700 585,1700 585,1710 700,1710" fill="none" stroke="#087e82" stroke-width="2.5"  marker-end="url(#arr)"/><rect x="73" y="1627" width="208" height="26" rx="3" fill="#f7f5ef" stroke="none" stroke-width="2" /><text x="77" y="1646" font-size="17" fill="#087e82" font-weight="600">일반 전투 결과 검사</text><polyline points="840,546 840,600" fill="none" stroke="#087e82" stroke-width="2.5"  marker-end="url(#arr)"/><rect x="862" y="556" width="100" height="26" rx="3" fill="#f7f5ef" stroke="none" stroke-width="2" /><text x="866" y="575" font-size="17" fill="#087e82" font-weight="600">선택 완료</text><polyline points="75,910 60,910 60,1238 300,1238 300,1260" fill="none" stroke="#087e82" stroke-width="2.5"  marker-end="url(#arr)"/><rect x="81" y="1205" width="100" height="26" rx="3" fill="#f7f5ef" stroke="none" stroke-width="2" /><text x="85" y="1224" font-size="17" fill="#087e82" font-weight="600">포획 선택</text><rect x="75" y="1510" width="450" height="42" rx="21" fill="#087e82" stroke="none" stroke-width="2" /><text text-anchor="middle" x="300" y="1538" font-size="18" fill="#fff" font-weight="700">연결 B04 · 포획 실패 후 전투 계속</text><polyline points="610,1530 525,1530" fill="none" stroke="#b5761d" stroke-width="2.5" stroke-dasharray="6 4" marker-end="url(#back)"/><rect x="533" y="1493" width="46" height="26" rx="3" fill="#f7f5ef" stroke="none" stroke-width="2" /><text x="537" y="1512" font-size="17" fill="#b5761d" font-weight="600">실패</text><polyline points="75,645 35,645 35,487 75,487" fill="none" stroke="#b5761d" stroke-width="2.5" stroke-dasharray="6 4" marker-end="url(#back)"/><rect x="73" y="559" width="280" height="26" rx="3" fill="#f7f5ef" stroke="none" stroke-width="2" /><text x="77" y="578" font-size="17" fill="#b5761d" font-weight="600">인계 후 다음 소유자 B02</text></g></svg>
