<svg xmlns="http://www.w3.org/2000/svg" width="32" height="32" viewBox="0 0 32 32">
  <path d="M7 13h18v9H7z" fill="#87633e" stroke="#171e2b" stroke-width="1.5" stroke-linejoin="round"/>
  <path d="M3 14C3 7 8 3 16 3s13 4 13 11h-4l-1-4-3 3-2-5-3 4-3-4-2 5-3-3-1 4Z" fill="#d7e1e5" stroke="#171e2b" stroke-width="1.5" stroke-linejoin="round"/>
  <path d="M3 19c0 7 5 10 13 10s13-3 13-10h-4l-1 4-3-3-2 5-3-4-3 4-2-5-3 3-1-4Z" fill="#a9bec8" stroke="#171e2b" stroke-width="1.5" stroke-linejoin="round"/>
  <path d="M7 8c4-4 14-4 18 0M8 26c5 2 11 2 16 0" fill="none" stroke="#f3f5eb" stroke-width="1.25" stroke-linecap="round"/>
  <path d="M16 16h12" fill="none" stroke="#171e2b" stroke-width="3" stroke-linecap="round"/>
  <circle cx="15" cy="16.5" r="4" fill="#c99b58" stroke="#171e2b" stroke-width="1.5"/>
  <path d="M13 15h3" fill="none" stroke="#f0cf8b" stroke-width="1.5" stroke-linecap="round"/>
  <path d="M22 14v5m3-5v5m3-5v5" fill="none" stroke="#d7e1e5" stroke-width="1.5" stroke-linecap="round"/>
  <circle cx="4" cy="16.5" r="2" fill="#a9bec8" stroke="#171e2b" stroke-width="1.5"/>
</svg>
