# Blender 5.2.1 LTS
# www.blender.org
mtllib unknown.mtl
o unknown
v 0.200000 0.000000 0.000000
v 0.173205 0.000000 -0.100000
v 0.100000 0.000000 -0.173205
v 0.000000 0.000000 -0.200000
v -0.100000 0.000000 -0.173205
v -0.173205 0.000000 -0.100000
v -0.200000 0.000000 -0.000000
v -0.173205 0.000000 0.100000
v -0.100000 0.000000 0.173205
v -0.000000 0.000000 0.200000
v 0.100000 0.000000 0.173205
v 0.173205 0.000000 0.100000
v 0.220000 0.012000 0.000000
v 0.190526 0.012000 -0.110000
v 0.110000 0.012000 -0.190526
v 0.000000 0.012000 -0.220000
v -0.110000 0.012000 -0.190526
v -0.190526 0.012000 -0.110000
v -0.220000 0.012000 -0.000000
v -0.190526 0.012000 0.110000
v -0.110000 0.012000 0.190526
v -0.000000 0.012000 0.220000
v 0.110000 0.012000 0.190526
v 0.190526 0.012000 0.110000
v 0.220000 0.040000 0.000000
v 0.190526 0.040000 -0.110000
v 0.110000 0.040000 -0.190526
v 0.000000 0.040000 -0.220000
v -0.110000 0.040000 -0.190526
v -0.190526 0.040000 -0.110000
v -0.220000 0.040000 -0.000000
v -0.190526 0.040000 0.110000
v -0.110000 0.040000 0.190526
v -0.000000 0.040000 0.220000
v 0.110000 0.040000 0.190526
v 0.190526 0.040000 0.110000
v 0.200000 0.060000 0.000000
v 0.173205 0.060000 -0.100000
v 0.100000 0.060000 -0.173205
v 0.000000 0.060000 -0.200000
v -0.100000 0.060000 -0.173205
v -0.173205 0.060000 -0.100000
v -0.200000 0.060000 -0.000000
v -0.173205 0.060000 0.100000
v -0.100000 0.060000 0.173205
v -0.000000 0.060000 0.200000
v 0.100000 0.060000 0.173205
v 0.173205 0.060000 0.100000
v 0.170000 0.065000 0.000000
v 0.147224 0.065000 -0.085000
v 0.085000 0.065000 -0.147224
v 0.000000 0.065000 -0.170000
v -0.085000 0.065000 -0.147224
v -0.147224 0.065000 -0.085000
v -0.170000 0.065000 -0.000000
v -0.147224 0.065000 0.085000
v -0.085000 0.065000 0.147224
v -0.000000 0.065000 0.170000
v 0.085000 0.065000 0.147224
v 0.147224 0.065000 0.085000
v 0.170000 0.078000 0.000000
v 0.147224 0.078000 -0.085000
v 0.085000 0.078000 -0.147224
v 0.000000 0.078000 -0.170000
v -0.085000 0.078000 -0.147224
v -0.147224 0.078000 -0.085000
v -0.170000 0.078000 -0.000000
v -0.147224 0.078000 0.085000
v -0.085000 0.078000 0.147224
v -0.000000 0.078000 0.170000
v 0.085000 0.078000 0.147224
v 0.147224 0.078000 0.085000
v 0.192000 0.078000 0.000000
v 0.166277 0.078000 -0.096000
v 0.096000 0.078000 -0.166277
v 0.000000 0.078000 -0.192000
v -0.096000 0.078000 -0.166277
v -0.166277 0.078000 -0.096000
v -0.192000 0.078000 -0.000000
v -0.166277 0.078000 0.096000
v -0.096000 0.078000 0.166277
v -0.000000 0.078000 0.192000
v 0.096000 0.078000 0.166277
v 0.166277 0.078000 0.096000
v 0.170000 0.285000 0.000000
v 0.147224 0.285000 -0.085000
v 0.085000 0.285000 -0.147224
v 0.000000 0.285000 -0.170000
v -0.085000 0.285000 -0.147224
v -0.147224 0.285000 -0.085000
v -0.170000 0.285000 -0.000000
v -0.147224 0.285000 0.085000
v -0.085000 0.285000 0.147224
v -0.000000 0.285000 0.170000
v 0.085000 0.285000 0.147224
v 0.147224 0.285000 0.085000
v 0.132000 0.345000 0.000000
v 0.114315 0.345000 -0.066000
v 0.066000 0.345000 -0.114315
v 0.000000 0.345000 -0.132000
v -0.066000 0.345000 -0.114315
v -0.114315 0.345000 -0.066000
v -0.132000 0.345000 -0.000000
v -0.114315 0.345000 0.066000
v -0.066000 0.345000 0.114315
v -0.000000 0.345000 0.132000
v 0.066000 0.345000 0.114315
v 0.114315 0.345000 0.066000
v 0.080000 0.390000 0.000000
v 0.069282 0.390000 -0.040000
v 0.040000 0.390000 -0.069282
v 0.000000 0.390000 -0.080000
v -0.040000 0.390000 -0.069282
v -0.069282 0.390000 -0.040000
v -0.080000 0.390000 -0.000000
v -0.069282 0.390000 0.040000
v -0.040000 0.390000 0.069282
v -0.000000 0.390000 0.080000
v 0.040000 0.390000 0.069282
v 0.069282 0.390000 0.040000
v 0.055000 0.420000 0.000000
v 0.047631 0.420000 -0.027500
v 0.027500 0.420000 -0.047631
v 0.000000 0.420000 -0.055000
v -0.027500 0.420000 -0.047631
v -0.047631 0.420000 -0.027500
v -0.055000 0.420000 -0.000000
v -0.047631 0.420000 0.027500
v -0.027500 0.420000 0.047631
v -0.000000 0.420000 0.055000
v 0.027500 0.420000 0.047631
v 0.047631 0.420000 0.027500
vn 0.5097 -0.8495 -0.1366
vn 0.3731 -0.8495 -0.3731
vn 0.1366 -0.8495 -0.5097
vn -0.1366 -0.8495 -0.5097
vn -0.3731 -0.8495 -0.3731
vn -0.5097 -0.8495 -0.1366
vn -0.5097 -0.8495 0.1366
vn -0.3731 -0.8495 0.3731
vn -0.1366 -0.8495 0.5097
vn 0.1366 -0.8495 0.5097
vn 0.3731 -0.8495 0.3731
vn 0.5097 -0.8495 0.1366
vn 0.9659 -0.0000 -0.2588
vn 0.7071 -0.0000 -0.7071
vn 0.2588 -0.0000 -0.9659
vn -0.2588 -0.0000 -0.9659
vn -0.7071 -0.0000 -0.7071
vn -0.9659 -0.0000 -0.2588
vn -0.9659 -0.0000 0.2588
vn -0.7071 -0.0000 0.7071
vn -0.2588 -0.0000 0.9659
vn 0.2588 -0.0000 0.9659
vn 0.7071 -0.0000 0.7071
vn 0.9659 -0.0000 0.2588
vn 0.6947 0.6947 -0.1862
vn 0.5086 0.6947 -0.5086
vn 0.1862 0.6947 -0.6947
vn -0.1862 0.6947 -0.6947
vn -0.5086 0.6947 -0.5086
vn -0.6947 0.6947 -0.1862
vn -0.6947 0.6947 0.1862
vn -0.5086 0.6947 0.5086
vn -0.1862 0.6947 0.6947
vn 0.1862 0.6947 0.6947
vn 0.5086 0.6947 0.5086
vn 0.6947 0.6947 0.1862
vn 0.1642 0.9854 -0.0440
vn 0.1202 0.9854 -0.1202
vn 0.0440 0.9854 -0.1642
vn -0.0440 0.9854 -0.1642
vn -0.1202 0.9854 -0.1202
vn -0.1642 0.9854 -0.0440
vn -0.1642 0.9854 0.0440
vn -0.1202 0.9854 0.1202
vn -0.0440 0.9854 0.1642
vn 0.0440 0.9854 0.1642
vn 0.1202 0.9854 0.1202
vn 0.1642 0.9854 0.0440
vn -0.0000 -1.0000 -0.0000
vn 0.9609 0.1021 -0.2575
vn 0.7034 0.1021 -0.7034
vn 0.2575 0.1021 -0.9609
vn -0.2575 0.1021 -0.9609
vn -0.7034 0.1021 -0.7034
vn -0.9609 0.1021 -0.2575
vn -0.9609 0.1021 0.2575
vn -0.7034 0.1021 0.7034
vn -0.2575 0.1021 0.9609
vn 0.2575 0.1021 0.9609
vn 0.7034 0.1021 0.7034
vn 0.9609 0.1021 0.2575
vn 0.8240 0.5218 -0.2208
vn 0.6032 0.5218 -0.6032
vn 0.2208 0.5218 -0.8240
vn -0.2208 0.5218 -0.8240
vn -0.6032 0.5218 -0.6032
vn -0.8240 0.5218 -0.2208
vn -0.8240 0.5218 0.2208
vn -0.6032 0.5218 0.6032
vn -0.2208 0.5218 0.8240
vn 0.2208 0.5218 0.8240
vn 0.6032 0.5218 0.6032
vn 0.8240 0.5218 0.2208
vn 0.6445 0.7448 -0.1727
vn 0.4718 0.7448 -0.4718
vn 0.1727 0.7448 -0.6445
vn -0.1727 0.7448 -0.6445
vn -0.4718 0.7448 -0.4718
vn -0.6445 0.7448 -0.1727
vn -0.6445 0.7448 0.1727
vn -0.4718 0.7448 0.4718
vn -0.1727 0.7448 0.6445
vn 0.1727 0.7448 0.6445
vn 0.4718 0.7448 0.4718
vn 0.6445 0.7448 0.1727
vn 0.7524 0.6270 -0.2016
vn 0.5508 0.6270 -0.5508
vn 0.2016 0.6270 -0.7524
vn -0.2016 0.6270 -0.7524
vn -0.5508 0.6270 -0.5508
vn -0.7524 0.6270 -0.2016
vn -0.7524 0.6270 0.2016
vn -0.5508 0.6270 0.5508
vn -0.2016 0.6270 0.7524
vn 0.2016 0.6270 0.7524
vn 0.5508 0.6270 0.5508
vn 0.7524 0.6270 0.2016
vn -0.0000 1.0000 -0.0000
vt 0.083333 0.000000
vt 0.000000 0.028571
vt 0.000000 0.000000
vt 0.166667 0.028571
vt 0.083333 0.028571
vt 0.250000 0.000000
vt 0.166667 0.000000
vt 0.333333 0.000000
vt 0.250000 0.028571
vt 0.416667 0.028571
vt 0.333333 0.028571
vt 0.500000 0.000000
vt 0.416667 0.000000
vt 0.583333 0.000000
vt 0.500000 0.028571
vt 0.666667 0.028571
vt 0.583333 0.028571
vt 0.750000 0.000000
vt 0.666667 0.000000
vt 0.833333 0.000000
vt 0.750000 0.028571
vt 0.916667 0.028571
vt 0.833333 0.028571
vt 1.000000 0.000000
vt 0.916667 0.000000
vt 0.000000 0.095238
vt 0.083333 0.095238
vt 0.166667 0.095238
vt 0.250000 0.095238
vt 0.333333 0.095238
vt 0.416667 0.095238
vt 0.500000 0.095238
vt 0.583333 0.095238
vt 0.666667 0.095238
vt 0.750000 0.095238
vt 0.833333 0.095238
vt 1.000000 0.028571
vt 0.916667 0.095238
vt 0.000000 0.142857
vt 0.083333 0.142857
vt 0.166667 0.142857
vt 0.250000 0.142857
vt 0.333333 0.142857
vt 0.416667 0.142857
vt 0.500000 0.142857
vt 0.583333 0.142857
vt 0.666667 0.142857
vt 0.750000 0.142857
vt 0.833333 0.142857
vt 1.000000 0.095238
vt 0.916667 0.142857
vt 0.000000 0.154762
vt 0.083333 0.154762
vt 0.166667 0.154762
vt 0.250000 0.154762
vt 0.333333 0.154762
vt 0.416667 0.154762
vt 0.500000 0.154762
vt 0.583333 0.154762
vt 0.666667 0.154762
vt 0.750000 0.154762
vt 0.833333 0.154762
vt 1.000000 0.142857
vt 0.916667 0.154762
vt 0.000000 0.185714
vt 0.083333 0.185714
vt 0.166667 0.185714
vt 0.250000 0.185714
vt 0.333333 0.185714
vt 0.416667 0.185714
vt 0.500000 0.185714
vt 0.583333 0.185714
vt 0.666667 0.185714
vt 0.750000 0.185714
vt 0.833333 0.185714
vt 1.000000 0.154762
vt 0.916667 0.185714
vt 1.000000 0.185714
vt 0.000000 0.678571
vt 0.083333 0.678571
vt 0.166667 0.678571
vt 0.250000 0.678571
vt 0.333333 0.678571
vt 0.416667 0.678571
vt 0.500000 0.678571
vt 0.583333 0.678571
vt 0.666667 0.678571
vt 0.750000 0.678571
vt 0.833333 0.678571
vt 0.916667 0.678571
vt 0.000000 0.821429
vt 0.083333 0.821429
vt 0.166667 0.821429
vt 0.250000 0.821429
vt 0.333333 0.821429
vt 0.416667 0.821429
vt 0.500000 0.821429
vt 0.583333 0.821429
vt 0.666667 0.821429
vt 0.750000 0.821429
vt 0.833333 0.821429
vt 1.000000 0.678571
vt 0.916667 0.821429
vt 0.000000 0.928571
vt 0.083333 0.928571
vt 0.166667 0.928571
vt 0.250000 0.928571
vt 0.333333 0.928571
vt 0.416667 0.928571
vt 0.500000 0.928571
vt 0.583333 0.928571
vt 0.666667 0.928571
vt 0.750000 0.928571
vt 0.833333 0.928571
vt 1.000000 0.821429
vt 0.916667 0.928571
vt 0.000000 1.000000
vt 0.083333 1.000000
vt 0.166667 1.000000
vt 0.250000 1.000000
vt 0.333333 1.000000
vt 0.416667 1.000000
vt 0.500000 1.000000
vt 0.583333 1.000000
vt 0.666667 1.000000
vt 0.750000 1.000000
vt 0.833333 1.000000
vt 1.000000 0.928571
vt 0.916667 1.000000
vt 0.300000 0.153590
vt 0.300000 0.846410
vt 0.900000 0.500000
vt 0.500000 0.610000
vt 0.404737 0.445000
vt 0.595263 0.445000
vt 1.000000 1.000000
vt 0.846410 0.300000
vt 0.700000 0.153590
vt 0.500000 0.100000
vt 0.153590 0.300000
vt 0.100000 0.500000
vt 0.153590 0.700000
vt 0.500000 0.900000
vt 0.700000 0.846410
vt 0.846410 0.700000
vt 0.610000 0.500000
vt 0.595263 0.555000
vt 0.555000 0.595263
vt 0.445000 0.595263
vt 0.404737 0.555000
vt 0.390000 0.500000
vt 0.445000 0.404737
vt 0.500000 0.390000
vt 0.555000 0.404737
s 0
usemtl Unknown_White_Tintable
f 2/1/1 13/2/1 1/3/1
f 2/1/2 15/4/2 14/5/2
f 4/6/3 15/4/3 3/7/3
f 5/8/4 16/9/4 4/6/4
f 5/8/5 18/10/5 17/11/5
f 7/12/6 18/10/6 6/13/6
f 8/14/7 19/15/7 7/12/7
f 8/14/8 21/16/8 20/17/8
f 10/18/9 21/16/9 9/19/9
f 11/20/10 22/21/10 10/18/10
f 11/20/11 24/22/11 23/23/11
f 1/24/12 24/22/12 12/25/12
f 14/5/13 25/26/13 13/2/13
f 15/4/14 26/27/14 14/5/14
f 16/9/15 27/28/15 15/4/15
f 17/11/16 28/29/16 16/9/16
f 18/10/17 29/30/17 17/11/17
f 19/15/18 30/31/18 18/10/18
f 20/17/19 31/32/19 19/15/19
f 21/16/20 32/33/20 20/17/20
f 22/21/21 33/34/21 21/16/21
f 23/23/22 34/35/22 22/21/22
f 24/22/23 35/36/23 23/23/23
f 13/37/24 36/38/24 24/22/24
f 26/27/25 37/39/25 25/26/25
f 27/28/26 38/40/26 26/27/26
f 28/29/27 39/41/27 27/28/27
f 29/30/28 40/42/28 28/29/28
f 30/31/29 41/43/29 29/30/29
f 31/32/30 42/44/30 30/31/30
f 32/33/31 43/45/31 31/32/31
f 33/34/32 44/46/32 32/33/32
f 34/35/33 45/47/33 33/34/33
f 35/36/34 46/48/34 34/35/34
f 36/38/35 47/49/35 35/36/35
f 25/50/36 48/51/36 36/38/36
f 38/40/37 49/52/37 37/39/37
f 39/41/38 50/53/38 38/40/38
f 40/42/39 51/54/39 39/41/39
f 41/43/40 52/55/40 40/42/40
f 42/44/41 53/56/41 41/43/41
f 43/45/42 54/57/42 42/44/42
f 44/46/43 55/58/43 43/45/43
f 45/47/44 56/59/44 44/46/44
f 46/48/45 57/60/45 45/47/45
f 47/49/46 58/61/46 46/48/46
f 48/51/47 59/62/47 47/49/47
f 37/63/48 60/64/48 48/51/48
f 50/53/13 61/65/13 49/52/13
f 51/54/14 62/66/14 50/53/14
f 52/55/15 63/67/15 51/54/15
f 53/56/16 64/68/16 52/55/16
f 54/57/17 65/69/17 53/56/17
f 55/58/18 66/70/18 54/57/18
f 56/59/19 67/71/19 55/58/19
f 57/60/20 68/72/20 56/59/20
f 58/61/21 69/73/21 57/60/21
f 59/62/22 70/74/22 58/61/22
f 60/64/23 71/75/23 59/62/23
f 49/76/24 72/77/24 60/64/24
f 62/66/49 73/65/49 61/65/49
f 63/67/49 74/66/49 62/66/49
f 64/68/49 75/67/49 63/67/49
f 65/69/49 76/68/49 64/68/49
f 66/70/49 77/69/49 65/69/49
f 67/71/49 78/70/49 66/70/49
f 68/72/49 79/71/49 67/71/49
f 69/73/49 80/72/49 68/72/49
f 70/74/49 81/73/49 69/73/49
f 71/75/49 82/74/49 70/74/49
f 72/77/49 83/75/49 71/75/49
f 61/78/49 84/77/49 72/77/49
f 74/66/50 85/79/50 73/65/50
f 75/67/51 86/80/51 74/66/51
f 76/68/52 87/81/52 75/67/52
f 77/69/53 88/82/53 76/68/53
f 78/70/54 89/83/54 77/69/54
f 79/71/55 90/84/55 78/70/55
f 80/72/56 91/85/56 79/71/56
f 81/73/57 92/86/57 80/72/57
f 82/74/58 93/87/58 81/73/58
f 83/75/59 94/88/59 82/74/59
f 84/77/60 95/89/60 83/75/60
f 73/78/61 96/90/61 84/77/61
f 86/80/62 97/91/62 85/79/62
f 87/81/63 98/92/63 86/80/63
f 88/82/64 99/93/64 87/81/64
f 89/83/65 100/94/65 88/82/65
f 90/84/66 101/95/66 89/83/66
f 91/85/67 102/96/67 90/84/67
f 92/86/68 103/97/68 91/85/68
f 93/87/69 104/98/69 92/86/69
f 94/88/70 105/99/70 93/87/70
f 95/89/71 106/100/71 94/88/71
f 96/90/72 107/101/72 95/89/72
f 85/102/73 108/103/73 96/90/73
f 98/92/74 109/104/74 97/91/74
f 99/93/75 110/105/75 98/92/75
f 100/94/76 111/106/76 99/93/76
f 101/95/77 112/107/77 100/94/77
f 102/96/78 113/108/78 101/95/78
f 103/97/79 114/109/79 102/96/79
f 104/98/80 115/110/80 103/97/80
f 105/99/81 116/111/81 104/98/81
f 106/100/82 117/112/82 105/99/82
f 107/101/83 118/113/83 106/100/83
f 108/103/84 119/114/84 107/101/84
f 97/115/85 120/116/85 108/103/85
f 110/105/86 121/117/86 109/104/86
f 111/106/87 122/118/87 110/105/87
f 112/107/88 123/119/88 111/106/88
f 113/108/89 124/120/89 112/107/89
f 114/109/90 125/121/90 113/108/90
f 115/110/91 126/122/91 114/109/91
f 116/111/92 127/123/92 115/110/92
f 117/112/93 128/124/93 116/111/93
f 118/113/94 129/125/94 117/112/94
f 119/114/95 130/126/95 118/113/95
f 120/116/96 131/127/96 119/114/96
f 109/128/97 132/129/97 120/116/97
f 9/130/49 5/131/49 1/132/49
f 124/133/98 128/134/98 132/135/98
f 2/1/1 14/5/1 13/2/1
f 2/1/2 3/7/2 15/4/2
f 4/6/3 16/9/3 15/4/3
f 5/8/4 17/11/4 16/9/4
f 5/8/5 6/13/5 18/10/5
f 7/12/6 19/15/6 18/10/6
f 8/14/7 20/17/7 19/15/7
f 8/14/8 9/19/8 21/16/8
f 10/18/9 22/21/9 21/16/9
f 11/20/10 23/23/10 22/21/10
f 11/20/11 12/25/11 24/22/11
f 1/24/12 13/37/12 24/22/12
f 14/5/13 26/27/13 25/26/13
f 15/4/14 27/28/14 26/27/14
f 16/9/15 28/29/15 27/28/15
f 17/11/16 29/30/16 28/29/16
f 18/10/17 30/31/17 29/30/17
f 19/15/18 31/32/18 30/31/18
f 20/17/19 32/33/19 31/32/19
f 21/16/20 33/34/20 32/33/20
f 22/21/21 34/35/21 33/34/21
f 23/23/22 35/36/22 34/35/22
f 24/22/23 36/38/23 35/36/23
f 13/37/24 25/50/24 36/38/24
f 26/27/25 38/40/25 37/39/25
f 27/28/26 39/41/26 38/40/26
f 28/29/27 40/42/27 39/41/27
f 29/30/28 41/43/28 40/42/28
f 30/31/29 42/44/29 41/43/29
f 31/32/30 43/45/30 42/44/30
f 32/33/31 44/46/31 43/45/31
f 33/34/32 45/47/32 44/46/32
f 34/35/33 46/48/33 45/47/33
f 35/36/34 47/49/34 46/48/34
f 36/38/35 48/51/35 47/49/35
f 25/50/36 37/63/36 48/51/36
f 38/40/37 50/53/37 49/52/37
f 39/41/38 51/54/38 50/53/38
f 40/42/39 52/55/39 51/54/39
f 41/43/40 53/56/40 52/55/40
f 42/44/41 54/57/41 53/56/41
f 43/45/42 55/58/42 54/57/42
f 44/46/43 56/59/43 55/58/43
f 45/47/44 57/60/44 56/59/44
f 46/48/45 58/61/45 57/60/45
f 47/49/46 59/62/46 58/61/46
f 48/51/47 60/64/47 59/62/47
f 37/63/48 49/76/48 60/64/48
f 50/53/13 62/66/13 61/65/13
f 51/54/14 63/67/14 62/66/14
f 52/55/15 64/68/15 63/67/15
f 53/56/16 65/69/16 64/68/16
f 54/57/17 66/70/17 65/69/17
f 55/58/18 67/71/18 66/70/18
f 56/59/19 68/72/19 67/71/19
f 57/60/20 69/73/20 68/72/20
f 58/61/21 70/74/21 69/73/21
f 59/62/22 71/75/22 70/74/22
f 60/64/23 72/77/23 71/75/23
f 49/76/24 61/78/24 72/77/24
f 62/66/49 74/66/49 73/65/49
f 63/67/49 75/67/49 74/66/49
f 64/68/49 76/68/49 75/67/49
f 65/69/49 77/69/49 76/68/49
f 66/70/49 78/70/49 77/69/49
f 67/71/49 79/71/49 78/70/49
f 68/72/49 80/72/49 79/71/49
f 69/73/49 81/73/49 80/72/49
f 70/74/49 82/74/49 81/73/49
f 71/75/49 83/75/49 82/74/49
f 72/77/49 84/77/49 83/75/49
f 61/78/49 73/78/49 84/77/49
f 74/66/50 86/80/50 85/79/50
f 75/67/51 87/81/51 86/80/51
f 76/68/52 88/82/52 87/81/52
f 77/69/53 89/83/53 88/82/53
f 78/70/54 90/84/54 89/83/54
f 79/71/55 91/85/55 90/84/55
f 80/72/56 92/86/56 91/85/56
f 81/73/57 93/87/57 92/86/57
f 82/74/58 94/88/58 93/87/58
f 83/75/59 95/89/59 94/88/59
f 84/77/60 96/90/60 95/89/60
f 73/78/61 85/102/61 96/90/61
f 86/80/62 98/92/62 97/91/62
f 87/81/63 99/93/63 98/92/63
f 88/82/64 100/94/64 99/93/64
f 89/83/65 101/95/65 100/94/65
f 90/84/66 102/96/66 101/95/66
f 91/85/67 103/97/67 102/96/67
f 92/86/68 104/98/68 103/97/68
f 93/87/69 105/99/69 104/98/69
f 94/88/70 106/100/70 105/99/70
f 95/89/71 107/101/71 106/100/71
f 96/90/72 108/103/72 107/101/72
f 85/102/73 97/115/73 108/103/73
f 98/92/74 110/105/74 109/104/74
f 99/93/75 111/106/75 110/105/75
f 100/94/76 112/107/76 111/106/76
f 101/95/77 113/108/77 112/107/77
f 102/96/78 114/109/78 113/108/78
f 103/97/79 115/110/79 114/109/79
f 104/98/80 116/111/80 115/110/80
f 105/99/81 117/112/81 116/111/81
f 106/100/82 118/113/82 117/112/82
f 107/101/83 119/114/83 118/113/83
f 108/103/84 120/116/84 119/114/84
f 97/115/85 109/128/85 120/116/85
f 110/105/86 122/118/86 121/117/86
f 111/106/87 123/119/87 122/118/87
f 112/107/88 124/120/88 123/119/88
f 113/108/89 125/121/89 124/120/89
f 114/109/90 126/122/90 125/121/90
f 115/110/91 127/123/91 126/122/91
f 116/111/92 128/124/92 127/123/92
f 117/112/93 129/125/93 128/124/93
f 118/113/94 130/126/94 129/125/94
f 119/114/95 131/127/95 130/126/95
f 120/116/96 132/129/96 131/127/96
f 109/128/97 121/136/97 132/129/97
f 1/132/49 12/137/49 11/138/49
f 11/138/49 10/139/49 9/130/49
f 9/130/49 8/140/49 7/141/49
f 7/141/49 6/142/49 5/131/49
f 5/131/49 4/143/49 3/144/49
f 3/144/49 2/145/49 1/132/49
f 1/132/49 11/138/49 9/130/49
f 9/130/49 7/141/49 5/131/49
f 5/131/49 3/144/49 1/132/49
f 132/135/98 121/146/98 122/147/98
f 122/147/98 123/148/98 124/133/98
f 124/133/98 125/149/98 126/150/98
f 126/150/98 127/151/98 128/134/98
f 128/134/98 129/152/98 130/153/98
f 130/153/98 131/154/98 132/135/98
f 132/135/98 122/147/98 124/133/98
f 124/133/98 126/150/98 128/134/98
f 128/134/98 130/153/98 132/135/98
