# Blender 5.2.1 LTS
# www.blender.org
mtllib board.mtl
o board
v -2.100000 -0.100000 3.900000
v -2.100000 0.100000 3.900000
v -2.100000 -0.100000 -3.900000
v -2.100000 0.100000 -3.900000
v 2.100000 -0.100000 3.900000
v 2.100000 0.100000 3.900000
v 2.100000 -0.100000 -3.900000
v 2.100000 0.100000 -3.900000
vn -1.0000 -0.0000 -0.0000
vn -0.0000 -0.0000 -1.0000
vn 1.0000 -0.0000 -0.0000
vn -0.0000 -0.0000 1.0000
vn -0.0000 -1.0000 -0.0000
vn -0.0000 1.0000 -0.0000
vt 0.001000 0.001000
vt 0.000000 1.000000
vt 1.000000 -0.000000
vt 1.000000 1.000000
vt 0.000000 -0.000000
s 0
usemtl board_Surface
f 2/1/1 3/1/1 1/1/1
f 4/1/2 7/1/2 3/1/2
f 8/1/3 5/1/3 7/1/3
f 6/1/4 1/1/4 5/1/4
f 7/1/5 1/1/5 3/1/5
f 4/2/6 6/3/6 8/4/6
f 2/1/1 4/1/1 3/1/1
f 4/1/2 8/1/2 7/1/2
f 8/1/3 6/1/3 5/1/3
f 6/1/4 2/1/4 1/1/4
f 7/1/5 5/1/5 1/1/5
f 4/2/6 2/5/6 6/3/6
