# Blender 5.2.1 LTS
# www.blender.org
mtllib chair.mtl
o chair
v -0.925000 -0.250000 0.925000
v -0.925000 -0.175000 1.000000
v -1.000000 -0.175000 0.925000
v -0.925000 -0.228033 0.978033
v -0.968301 -0.218301 0.968301
v -0.978033 -0.175000 0.978033
v -0.978033 -0.228033 0.925000
v -0.925000 -0.065000 1.000000
v -0.925000 0.010000 0.925000
v -1.000000 -0.065000 0.925000
v -0.925000 -0.011967 0.978033
v -0.968301 -0.021699 0.968301
v -0.978033 -0.011967 0.925000
v -0.978033 -0.065000 0.978033
v -0.925000 -0.250000 -0.925000
v -1.000000 -0.175000 -0.925000
v -0.925000 -0.175000 -1.000000
v -0.978033 -0.228033 -0.925000
v -0.968301 -0.218301 -0.968301
v -0.978033 -0.175000 -0.978033
v -0.925000 -0.228033 -0.978033
v -0.925000 0.010000 -0.925000
v -0.925000 -0.065000 -1.000000
v -1.000000 -0.065000 -0.925000
v -0.925000 -0.011967 -0.978033
v -0.968301 -0.021699 -0.968301
v -0.978033 -0.065000 -0.978033
v -0.978033 -0.011967 -0.925000
v 0.925000 -0.250000 0.925000
v 1.000000 -0.175000 0.925000
v 0.925000 -0.175000 1.000000
v 0.978033 -0.228033 0.925000
v 0.968301 -0.218301 0.968301
v 0.978033 -0.175000 0.978033
v 0.925000 -0.228033 0.978033
v 0.925000 0.010000 0.925000
v 0.925000 -0.065000 1.000000
v 1.000000 -0.065000 0.925000
v 0.925000 -0.011967 0.978033
v 0.968301 -0.021699 0.968301
v 0.978033 -0.065000 0.978033
v 0.978033 -0.011967 0.925000
v 0.925000 -0.250000 -0.925000
v 0.925000 -0.175000 -1.000000
v 1.000000 -0.175000 -0.925000
v 0.925000 -0.228033 -0.978033
v 0.968301 -0.218301 -0.968301
v 0.978033 -0.175000 -0.978033
v 0.978033 -0.228033 -0.925000
v 0.925000 0.010000 -0.925000
v 1.000000 -0.065000 -0.925000
v 0.925000 -0.065000 -1.000000
v 0.978033 -0.011967 -0.925000
v 0.968301 -0.021699 -0.968301
v 0.978033 -0.065000 -0.978033
v 0.925000 -0.011967 -0.978033
v -0.835000 -0.010000 0.825000
v -0.835000 0.105000 0.940000
v -0.950000 0.105000 0.825000
v -0.835000 0.023683 0.906317
v -0.901395 0.038605 0.891395
v -0.916317 0.105000 0.906317
v -0.916317 0.023683 0.825000
v -0.835000 0.135000 0.940000
v -0.835000 0.250000 0.825000
v -0.950000 0.135000 0.825000
v -0.835000 0.216317 0.906317
v -0.901395 0.201395 0.891395
v -0.916317 0.216317 0.825000
v -0.916317 0.135000 0.906317
v -0.835000 -0.010000 -0.855000
v -0.950000 0.105000 -0.855000
v -0.835000 0.105000 -0.970000
v -0.916317 0.023683 -0.855000
v -0.901395 0.038605 -0.921395
v -0.916317 0.105000 -0.936317
v -0.835000 0.023683 -0.936317
v -0.835000 0.250000 -0.855000
v -0.835000 0.135000 -0.970000
v -0.950000 0.135000 -0.855000
v -0.835000 0.216317 -0.936317
v -0.901395 0.201395 -0.921395
v -0.916317 0.135000 -0.936317
v -0.916317 0.216317 -0.855000
v 0.835000 -0.010000 0.825000
v 0.950000 0.105000 0.825000
v 0.835000 0.105000 0.940000
v 0.916317 0.023683 0.825000
v 0.901395 0.038605 0.891395
v 0.916317 0.105000 0.906317
v 0.835000 0.023683 0.906317
v 0.835000 0.250000 0.825000
v 0.835000 0.135000 0.940000
v 0.950000 0.135000 0.825000
v 0.835000 0.216317 0.906317
v 0.901395 0.201395 0.891395
v 0.916317 0.135000 0.906317
v 0.916317 0.216317 0.825000
v 0.835000 -0.010000 -0.855000
v 0.835000 0.105000 -0.970000
v 0.950000 0.105000 -0.855000
v 0.835000 0.023683 -0.936317
v 0.901395 0.038605 -0.921395
v 0.916317 0.105000 -0.936317
v 0.916317 0.023683 -0.855000
v 0.835000 0.250000 -0.855000
v 0.950000 0.135000 -0.855000
v 0.835000 0.135000 -0.970000
v 0.916317 0.216317 -0.855000
v 0.901395 0.201395 -0.921395
v 0.916317 0.135000 -0.936317
v 0.835000 0.216317 -0.936317
v -0.675000 0.550000 1.165000
v -0.675000 0.650000 1.265000
v -0.775000 0.650000 1.165000
v -0.675000 0.579289 1.235711
v -0.732735 0.592265 1.222735
v -0.745711 0.650000 1.235711
v -0.745711 0.579289 1.165000
v -0.675000 2.110000 1.265000
v -0.675000 2.210000 1.165000
v -0.775000 2.110000 1.165000
v -0.675000 2.180711 1.235711
v -0.732735 2.167735 1.222735
v -0.745711 2.180711 1.165000
v -0.745711 2.110000 1.235711
v -0.675000 0.550000 1.135000
v -0.775000 0.650000 1.135000
v -0.675000 0.650000 1.035000
v -0.745711 0.579289 1.135000
v -0.732735 0.592265 1.077265
v -0.745711 0.650000 1.064289
v -0.675000 0.579289 1.064289
v -0.675000 2.210000 1.135000
v -0.675000 2.110000 1.035000
v -0.775000 2.110000 1.135000
v -0.675000 2.180711 1.064289
v -0.732735 2.167735 1.077265
v -0.745711 2.110000 1.064289
v -0.745711 2.180711 1.135000
v 0.675000 0.550000 1.165000
v 0.775000 0.650000 1.165000
v 0.675000 0.650000 1.265000
v 0.745711 0.579289 1.165000
v 0.732735 0.592265 1.222735
v 0.745711 0.650000 1.235711
v 0.675000 0.579289 1.235711
v 0.675000 2.210000 1.165000
v 0.675000 2.110000 1.265000
v 0.775000 2.110000 1.165000
v 0.675000 2.180711 1.235711
v 0.732735 2.167735 1.222735
v 0.745711 2.110000 1.235711
v 0.745711 2.180711 1.165000
v 0.675000 0.550000 1.135000
v 0.675000 0.650000 1.035000
v 0.775000 0.650000 1.135000
v 0.675000 0.579289 1.064289
v 0.732735 0.592265 1.077265
v 0.745711 0.650000 1.064289
v 0.745711 0.579289 1.135000
v 0.675000 2.210000 1.135000
v 0.775000 2.110000 1.135000
v 0.675000 2.110000 1.035000
v 0.745711 2.180711 1.135000
v 0.732735 2.167735 1.077265
v 0.745711 2.110000 1.064289
v 0.675000 2.180711 1.064289
v -0.955000 -0.390000 1.255000
v -0.955000 -0.345000 1.300000
v -1.000000 -0.345000 1.255000
v -0.955000 -0.376820 1.286820
v -0.980981 -0.370981 1.280981
v -0.986820 -0.345000 1.286820
v -0.986820 -0.376820 1.255000
v -0.955000 2.405000 1.300000
v -0.955000 2.450000 1.255000
v -1.000000 2.405000 1.255000
v -0.955000 2.436820 1.286820
v -0.980981 2.430981 1.280981
v -0.986820 2.436820 1.255000
v -0.986820 2.405000 1.286820
v -0.955000 -0.390000 1.045000
v -1.000000 -0.345000 1.045000
v -0.955000 -0.345000 1.000000
v -0.986820 -0.376820 1.045000
v -0.980981 -0.370981 1.019019
v -0.986820 -0.345000 1.013180
v -0.955000 -0.376820 1.013180
v -0.955000 2.450000 1.045000
v -0.955000 2.405000 1.000000
v -1.000000 2.405000 1.045000
v -0.955000 2.436820 1.013180
v -0.980981 2.430981 1.019019
v -0.986820 2.405000 1.013180
v -0.986820 2.436820 1.045000
v -0.805000 -0.390000 1.255000
v -0.760000 -0.345000 1.255000
v -0.805000 -0.345000 1.300000
v -0.773180 -0.376820 1.255000
v -0.779019 -0.370981 1.280981
v -0.773180 -0.345000 1.286820
v -0.805000 -0.376820 1.286820
v -0.805000 2.450000 1.255000
v -0.805000 2.405000 1.300000
v -0.760000 2.405000 1.255000
v -0.805000 2.436820 1.286820
v -0.779019 2.430981 1.280981
v -0.773180 2.405000 1.286820
v -0.773180 2.436820 1.255000
v -0.805000 -0.390000 1.045000
v -0.805000 -0.345000 1.000000
v -0.760000 -0.345000 1.045000
v -0.805000 -0.376820 1.013180
v -0.779019 -0.370981 1.019019
v -0.773180 -0.345000 1.013180
v -0.773180 -0.376820 1.045000
v -0.805000 2.450000 1.045000
v -0.760000 2.405000 1.045000
v -0.805000 2.405000 1.000000
v -0.773180 2.436820 1.045000
v -0.779019 2.430981 1.019019
v -0.773180 2.405000 1.013180
v -0.805000 2.436820 1.013180
v -0.880000 -1.250000 -0.910000
v -0.880000 -0.200000 -0.950000
v -0.816360 -1.250000 -0.883640
v -0.788076 -0.200000 -0.911924
v -0.790000 -1.250000 -0.820000
v -0.750000 -0.200000 -0.820000
v -0.816360 -1.250000 -0.756360
v -0.788076 -0.200000 -0.728076
v -0.880000 -1.250000 -0.730000
v -0.880000 -0.200000 -0.690000
v -0.943640 -1.250000 -0.756360
v -0.971924 -0.200000 -0.728076
v -0.970000 -1.250000 -0.820000
v -1.010000 -0.200000 -0.820000
v -0.943640 -1.250000 -0.883640
v -0.971924 -0.200000 -0.911924
v -0.880000 -1.250000 0.730000
v -0.880000 -0.200000 0.690000
v -0.816360 -1.250000 0.756360
v -0.788076 -0.200000 0.728076
v -0.790000 -1.250000 0.820000
v -0.750000 -0.200000 0.820000
v -0.816360 -1.250000 0.883640
v -0.788076 -0.200000 0.911924
v -0.880000 -1.250000 0.910000
v -0.880000 -0.200000 0.950000
v -0.943640 -1.250000 0.883640
v -0.971924 -0.200000 0.911924
v -0.970000 -1.250000 0.820000
v -1.010000 -0.200000 0.820000
v -0.943640 -1.250000 0.756360
v -0.971924 -0.200000 0.728076
v 0.805000 -0.390000 1.255000
v 0.805000 -0.345000 1.300000
v 0.760000 -0.345000 1.255000
v 0.805000 -0.376820 1.286820
v 0.779019 -0.370981 1.280981
v 0.773180 -0.345000 1.286820
v 0.773180 -0.376820 1.255000
v 0.805000 2.405000 1.300000
v 0.805000 2.450000 1.255000
v 0.760000 2.405000 1.255000
v 0.805000 2.436820 1.286820
v 0.779019 2.430981 1.280981
v 0.773180 2.436820 1.255000
v 0.773180 2.405000 1.286820
v 0.805000 -0.390000 1.045000
v 0.760000 -0.345000 1.045000
v 0.805000 -0.345000 1.000000
v 0.773180 -0.376820 1.045000
v 0.779019 -0.370981 1.019019
v 0.773180 -0.345000 1.013180
v 0.805000 -0.376820 1.013180
v 0.805000 2.450000 1.045000
v 0.805000 2.405000 1.000000
v 0.760000 2.405000 1.045000
v 0.805000 2.436820 1.013180
v 0.779019 2.430981 1.019019
v 0.773180 2.405000 1.013180
v 0.773180 2.436820 1.045000
v 0.955000 -0.390000 1.255000
v 1.000000 -0.345000 1.255000
v 0.955000 -0.345000 1.300000
v 0.986820 -0.376820 1.255000
v 0.980981 -0.370981 1.280981
v 0.986820 -0.345000 1.286820
v 0.955000 -0.376820 1.286820
v 0.955000 2.450000 1.255000
v 0.955000 2.405000 1.300000
v 1.000000 2.405000 1.255000
v 0.955000 2.436820 1.286820
v 0.980981 2.430981 1.280981
v 0.986820 2.405000 1.286820
v 0.986820 2.436820 1.255000
v 0.955000 -0.390000 1.045000
v 0.955000 -0.345000 1.000000
v 1.000000 -0.345000 1.045000
v 0.955000 -0.376820 1.013180
v 0.980981 -0.370981 1.019019
v 0.986820 -0.345000 1.013180
v 0.986820 -0.376820 1.045000
v 0.955000 2.450000 1.045000
v 1.000000 2.405000 1.045000
v 0.955000 2.405000 1.000000
v 0.986820 2.436820 1.045000
v 0.980981 2.430981 1.019019
v 0.986820 2.405000 1.013180
v 0.955000 2.436820 1.013180
v 0.880000 -1.250000 -0.910000
v 0.880000 -0.200000 -0.950000
v 0.943640 -1.250000 -0.883640
v 0.971924 -0.200000 -0.911924
v 0.970000 -1.250000 -0.820000
v 1.010000 -0.200000 -0.820000
v 0.943640 -1.250000 -0.756360
v 0.971924 -0.200000 -0.728076
v 0.880000 -1.250000 -0.730000
v 0.880000 -0.200000 -0.690000
v 0.816360 -1.250000 -0.756360
v 0.788076 -0.200000 -0.728076
v 0.790000 -1.250000 -0.820000
v 0.750000 -0.200000 -0.820000
v 0.816360 -1.250000 -0.883640
v 0.788076 -0.200000 -0.911924
v 0.880000 -1.250000 0.730000
v 0.880000 -0.200000 0.690000
v 0.943640 -1.250000 0.756360
v 0.971924 -0.200000 0.728076
v 0.970000 -1.250000 0.820000
v 1.010000 -0.200000 0.820000
v 0.943640 -1.250000 0.883640
v 0.971924 -0.200000 0.911924
v 0.880000 -1.250000 0.910000
v 0.880000 -0.200000 0.950000
v 0.816360 -1.250000 0.883640
v 0.788076 -0.200000 0.911924
v 0.790000 -1.250000 0.820000
v 0.750000 -0.200000 0.820000
v 0.816360 -1.250000 0.756360
v 0.788076 -0.200000 0.728076
v -0.935000 2.150000 1.235000
v -0.935000 2.215000 1.300000
v -1.000000 2.215000 1.235000
v -0.935000 2.169038 1.280962
v -0.972528 2.177472 1.272528
v -0.980962 2.215000 1.280962
v -0.980962 2.169038 1.235000
v -0.935000 2.385000 1.300000
v -0.935000 2.450000 1.235000
v -1.000000 2.385000 1.235000
v -0.935000 2.430962 1.280962
v -0.972528 2.422528 1.272528
v -0.980962 2.430962 1.235000
v -0.980962 2.385000 1.280962
v -0.935000 2.150000 1.065000
v -1.000000 2.215000 1.065000
v -0.935000 2.215000 1.000000
v -0.980962 2.169038 1.065000
v -0.972528 2.177472 1.027472
v -0.980962 2.215000 1.019038
v -0.935000 2.169038 1.019038
v -0.935000 2.450000 1.065000
v -0.935000 2.385000 1.000000
v -1.000000 2.385000 1.065000
v -0.935000 2.430962 1.019038
v -0.972528 2.422528 1.027472
v -0.980962 2.385000 1.019038
v -0.980962 2.430962 1.065000
v 0.935000 2.150000 1.235000
v 1.000000 2.215000 1.235000
v 0.935000 2.215000 1.300000
v 0.980962 2.169038 1.235000
v 0.972528 2.177472 1.272528
v 0.980962 2.215000 1.280962
v 0.935000 2.169038 1.280962
v 0.935000 2.450000 1.235000
v 0.935000 2.385000 1.300000
v 1.000000 2.385000 1.235000
v 0.935000 2.430962 1.280962
v 0.972528 2.422528 1.272528
v 0.980962 2.385000 1.280962
v 0.980962 2.430962 1.235000
v 0.935000 2.150000 1.065000
v 0.935000 2.215000 1.000000
v 1.000000 2.215000 1.065000
v 0.935000 2.169038 1.019038
v 0.972528 2.177472 1.027472
v 0.980962 2.215000 1.019038
v 0.980962 2.169038 1.065000
v 0.935000 2.450000 1.065000
v 1.000000 2.385000 1.065000
v 0.935000 2.385000 1.000000
v 0.980962 2.430962 1.065000
v 0.972528 2.422528 1.027472
v 0.980962 2.385000 1.019038
v 0.935000 2.430962 1.019038
v -0.815000 0.290000 1.265000
v -0.815000 0.325000 1.300000
v -0.850000 0.325000 1.265000
v -0.815000 0.300251 1.289749
v -0.835207 0.304793 1.285207
v -0.839749 0.325000 1.289749
v -0.839749 0.300251 1.265000
v -0.815000 0.455000 1.300000
v -0.815000 0.490000 1.265000
v -0.850000 0.455000 1.265000
v -0.815000 0.479749 1.289749
v -0.835207 0.475207 1.285207
v -0.839749 0.479749 1.265000
v -0.839749 0.455000 1.289749
v -0.815000 0.290000 1.035000
v -0.850000 0.325000 1.035000
v -0.815000 0.325000 1.000000
v -0.839749 0.300251 1.035000
v -0.835207 0.304793 1.014793
v -0.839749 0.325000 1.010251
v -0.815000 0.300251 1.010251
v -0.815000 0.490000 1.035000
v -0.815000 0.455000 1.000000
v -0.850000 0.455000 1.035000
v -0.815000 0.479749 1.010251
v -0.835207 0.475207 1.014793
v -0.839749 0.455000 1.010251
v -0.839749 0.479749 1.035000
v 0.815000 0.290000 1.265000
v 0.850000 0.325000 1.265000
v 0.815000 0.325000 1.300000
v 0.839749 0.300251 1.265000
v 0.835207 0.304793 1.285207
v 0.839749 0.325000 1.289749
v 0.815000 0.300251 1.289749
v 0.815000 0.490000 1.265000
v 0.815000 0.455000 1.300000
v 0.850000 0.455000 1.265000
v 0.815000 0.479749 1.289749
v 0.835207 0.475207 1.285207
v 0.839749 0.455000 1.289749
v 0.839749 0.479749 1.265000
v 0.815000 0.290000 1.035000
v 0.815000 0.325000 1.000000
v 0.850000 0.325000 1.035000
v 0.815000 0.300251 1.010251
v 0.835207 0.304793 1.014793
v 0.839749 0.325000 1.010251
v 0.839749 0.300251 1.035000
v 0.815000 0.490000 1.035000
v 0.850000 0.455000 1.035000
v 0.815000 0.455000 1.000000
v 0.839749 0.479749 1.035000
v 0.835207 0.475207 1.014793
v 0.839749 0.455000 1.010251
v 0.815000 0.479749 1.010251
vn -0.3672 -0.8865 0.2817
vn -0.2817 -0.3672 0.8865
vn -0.8865 -0.2817 0.3672
vn -0.3672 0.2817 0.8865
vn -0.2817 0.8865 0.3672
vn -0.8865 0.3672 0.2817
vn -0.2817 -0.8865 -0.3672
vn -0.8865 -0.3672 -0.2817
vn -0.3672 -0.2817 -0.8865
vn -0.3672 0.8865 -0.2817
vn -0.2817 0.3672 -0.8865
vn -0.8865 0.2817 -0.3672
vn 0.2817 -0.8865 0.3672
vn 0.8865 -0.3672 0.2817
vn 0.3672 -0.2817 0.8865
vn 0.3672 0.8865 0.2817
vn 0.2817 0.3672 0.8865
vn 0.8865 0.2817 0.3672
vn 0.3672 -0.8865 -0.2817
vn 0.2817 -0.3672 -0.8865
vn 0.8865 -0.2817 -0.3672
vn 0.2817 0.8865 -0.3672
vn 0.8865 0.3672 -0.2817
vn 0.3672 0.2817 -0.8865
vn -0.3827 -0.9239 -0.0000
vn -0.9239 -0.3827 -0.0000
vn -0.3827 -0.0000 0.9239
vn -0.9239 -0.0000 0.3827
vn -0.3827 0.9239 -0.0000
vn -0.9239 0.3827 -0.0000
vn -0.3827 -0.0000 -0.9239
vn -0.9239 -0.0000 -0.3827
vn -0.0000 -0.9239 -0.3827
vn -0.0000 -0.3827 -0.9239
vn -0.0000 0.9239 -0.3827
vn -0.0000 0.3827 -0.9239
vn 0.9239 -0.0000 -0.3827
vn 0.3827 -0.0000 -0.9239
vn 0.3827 -0.9239 -0.0000
vn 0.9239 -0.3827 -0.0000
vn 0.3827 0.9239 -0.0000
vn 0.9239 0.3827 -0.0000
vn 0.3827 -0.0000 0.9239
vn 0.9239 -0.0000 0.3827
vn -0.0000 -0.9239 0.3827
vn -0.0000 -0.3827 0.9239
vn -0.0000 0.9239 0.3827
vn -0.0000 0.3827 0.9239
vn -0.0000 -1.0000 -0.0000
vn -1.0000 -0.0000 -0.0000
vn -0.0000 -0.0000 1.0000
vn -0.0000 1.0000 -0.0000
vn -0.0000 -0.0000 -1.0000
vn 1.0000 -0.0000 -0.0000
vn -0.2818 -0.3672 0.8865
vn -0.8865 -0.2818 0.3672
vn -0.2818 0.8865 0.3672
vn -0.8865 0.3672 0.2818
vn -0.2818 -0.8865 -0.3672
vn -0.3672 0.8865 -0.2818
vn -0.2818 0.3672 -0.8864
vn 0.2818 -0.8865 0.3672
vn 0.3672 0.8865 0.2818
vn 0.2818 0.3672 0.8865
vn 0.8865 0.2818 0.3672
vn 0.2818 0.8865 -0.3672
vn 0.8865 0.3672 -0.2818
vn 0.3824 -0.0352 -0.9233
vn 0.9233 -0.0352 -0.3824
vn 0.9233 -0.0352 0.3824
vn 0.3824 -0.0352 0.9233
vn -0.3824 -0.0352 0.9233
vn -0.9233 -0.0352 0.3824
vn -0.9233 -0.0352 -0.3824
vn -0.3824 -0.0352 -0.9233
vn 0.2817 -0.3672 -0.8864
vn -0.3672 0.2818 0.8865
vn -0.3672 -0.2818 -0.8865
vn -0.3672 0.8864 -0.2818
vn -0.2818 0.3672 -0.8865
vn 0.3672 0.8864 0.2818
vn 0.2818 0.3672 0.8864
vn 0.8864 0.2817 0.3672
vn 0.3672 0.2818 -0.8865
vn -0.3672 -0.8864 0.2817
vn -0.8865 -0.3672 -0.2818
vn 0.8865 -0.3672 0.2818
vn 0.3672 0.8864 0.2817
vn -0.2817 -0.8865 0.3672
vn -0.3672 -0.2817 0.8865
vn -0.8865 -0.3672 0.2817
vn -0.2817 0.3672 0.8865
vn -0.3672 0.8865 0.2817
vn -0.8865 0.2817 0.3672
vn -0.3672 -0.8865 -0.2817
vn -0.8865 -0.2817 -0.3672
vn -0.2817 -0.3672 -0.8865
vn -0.2817 0.8865 -0.3672
vn -0.3672 0.2817 -0.8865
vn -0.8865 0.3672 -0.2817
vn 0.3672 -0.8865 0.2817
vn 0.8865 -0.2817 0.3672
vn 0.2817 -0.3672 0.8865
vn 0.2817 0.8865 0.3672
vn 0.3672 0.2817 0.8865
vn 0.8865 0.3672 0.2817
vn 0.2817 -0.8865 -0.3672
vn 0.3672 -0.2817 -0.8865
vn 0.8865 -0.3672 -0.2817
vn 0.3672 0.8865 -0.2817
vn 0.8865 0.2817 -0.3672
vn 0.2817 0.3672 -0.8865
vn -0.2818 -0.8865 0.3672
vn -0.2818 0.3672 0.8865
vn -0.3672 0.8865 0.2818
vn -0.8865 0.2818 0.3672
vn -0.2817 -0.3672 -0.8864
vn -0.2818 0.8865 -0.3672
vn -0.8865 0.3672 -0.2818
vn 0.8865 -0.2818 0.3672
vn 0.2818 0.8865 0.3672
vn 0.8865 0.3672 0.2818
vn 0.2818 -0.8865 -0.3672
vn 0.3672 0.8865 -0.2818
vn 0.2818 0.3672 -0.8864
vn 0.2818 -0.3672 0.8865
vn -0.2818 0.3672 0.8864
vn -0.3672 0.8864 0.2818
vn -0.8864 0.2817 0.3672
vn -0.3672 0.2818 -0.8865
vn 0.3672 0.2818 0.8865
vn 0.3672 -0.2818 -0.8865
vn 0.3672 0.8864 -0.2818
vn 0.8864 0.2817 -0.3672
vn 0.2818 0.3672 -0.8865
vn -0.8865 -0.3672 0.2818
vn -0.3672 0.8864 0.2817
vn 0.3672 -0.8864 0.2817
vn 0.8865 -0.3672 -0.2818
vt 0.016378 0.016378
vt 0.010715 0.010715
vt 0.016378 0.009442
vt 0.235921 0.566253
vt 0.241598 0.559873
vt 0.242866 0.565678
vt 0.141631 0.807763
vt 0.147313 0.813426
vt 0.141644 0.814699
vt 0.221534 0.566243
vt 0.215885 0.559856
vt 0.221544 0.558870
vt 0.016378 0.533049
vt 0.010715 0.538713
vt 0.009442 0.533049
vt 0.127245 0.807763
vt 0.121600 0.813426
vt 0.120321 0.807763
vt 0.258335 0.016378
vt 0.263999 0.010715
vt 0.265271 0.016378
vt 0.141632 0.565806
vt 0.147313 0.560143
vt 0.148580 0.565806
vt 0.860531 0.016825
vt 0.854854 0.010446
vt 0.860522 0.009452
vt 0.258335 0.533049
vt 0.263999 0.538713
vt 0.258335 0.539985
vt 0.874918 0.016815
vt 0.880567 0.010428
vt 0.881844 0.016231
vt 0.127245 0.565806
vt 0.121600 0.560143
vt 0.127257 0.558870
vt 0.016378 0.258335
vt 0.010715 0.263999
vt 0.009442 0.258335
vt 0.188775 0.565806
vt 0.194456 0.560143
vt 0.195723 0.565806
vt 0.235921 0.803235
vt 0.241598 0.807949
vt 0.235930 0.809449
vt 0.016378 0.291092
vt 0.010715 0.285429
vt 0.016378 0.284156
vt 0.221534 0.803225
vt 0.215885 0.807932
vt 0.214608 0.802641
vt 0.174388 0.565806
vt 0.168743 0.560143
vt 0.174401 0.558870
vt 0.258335 0.258335
vt 0.263999 0.263999
vt 0.258335 0.265271
vt 0.860531 0.253807
vt 0.854854 0.258522
vt 0.853586 0.253233
vt 0.188775 0.807763
vt 0.194456 0.813426
vt 0.188787 0.814699
vt 0.258335 0.291092
vt 0.263999 0.285429
vt 0.265271 0.291092
vt 0.174388 0.807763
vt 0.168743 0.813426
vt 0.167465 0.807763
vt 0.874918 0.253798
vt 0.880567 0.258505
vt 0.874908 0.260012
vt 0.258335 0.009442
vt 0.148580 0.807763
vt 0.235930 0.558880
vt 0.127257 0.814699
vt 0.016378 0.539985
vt 0.120321 0.565806
vt 0.874908 0.009442
vt 0.141644 0.558870
vt 0.265271 0.258335
vt 0.853586 0.016250
vt 0.265271 0.533049
vt 0.881844 0.253214
vt 0.174401 0.814699
vt 0.860522 0.260021
vt 0.016378 0.265271
vt 0.195723 0.807763
vt 0.258335 0.284156
vt 0.167465 0.565806
vt 0.221544 0.809439
vt 0.188787 0.558870
vt 0.009442 0.016378
vt 0.242866 0.802660
vt 0.009442 0.291092
vt 0.214608 0.565659
vt 0.513207 0.020078
vt 0.521890 0.011394
vt 0.523842 0.020078
vt 0.868130 0.550093
vt 0.876834 0.540311
vt 0.878780 0.549211
vt 0.511260 0.759558
vt 0.519971 0.768241
vt 0.511279 0.770193
vt 0.864206 0.550090
vt 0.855544 0.540297
vt 0.864221 0.538785
vt 0.294791 0.279956
vt 0.286108 0.271272
vt 0.294791 0.269321
vt 0.507336 0.759558
vt 0.498680 0.768241
vt 0.496720 0.759558
vt 0.513207 0.239801
vt 0.521890 0.248484
vt 0.513207 0.250436
vt 0.511260 0.539834
vt 0.519971 0.531151
vt 0.521914 0.539834
vt 0.908314 0.290214
vt 0.899609 0.280432
vt 0.908299 0.278909
vt 0.294791 0.499679
vt 0.286108 0.508363
vt 0.284156 0.499679
vt 0.912238 0.290211
vt 0.920900 0.280418
vt 0.922858 0.289316
vt 0.507337 0.539834
vt 0.498680 0.531151
vt 0.507356 0.529199
vt 0.294791 0.020078
vt 0.286108 0.011394
vt 0.294791 0.009442
vt 0.868125 0.289541
vt 0.876836 0.280858
vt 0.878779 0.289541
vt 0.868130 0.764017
vt 0.876834 0.771246
vt 0.868144 0.773545
vt 0.513207 0.279956
vt 0.521890 0.271272
vt 0.523842 0.279956
vt 0.864206 0.764015
vt 0.855544 0.771232
vt 0.853586 0.763119
vt 0.864202 0.289541
vt 0.855546 0.280858
vt 0.864221 0.278906
vt 0.294791 0.239801
vt 0.286108 0.248484
vt 0.284156 0.239801
vt 0.908314 0.504139
vt 0.899609 0.511367
vt 0.897664 0.503257
vt 0.868125 0.509265
vt 0.876836 0.517948
vt 0.868144 0.519900
vt 0.513207 0.499679
vt 0.521890 0.508363
vt 0.513207 0.510314
vt 0.864202 0.509265
vt 0.855546 0.517948
vt 0.853585 0.509265
vt 0.912238 0.504136
vt 0.920900 0.511353
vt 0.912223 0.513664
vt 0.523842 0.239801
vt 0.521914 0.759558
vt 0.868144 0.538787
vt 0.507356 0.770193
vt 0.284156 0.279956
vt 0.496720 0.539834
vt 0.912223 0.278906
vt 0.511279 0.529199
vt 0.294791 0.250436
vt 0.897664 0.289332
vt 0.294791 0.510314
vt 0.922858 0.503240
vt 0.864221 0.519900
vt 0.908299 0.513667
vt 0.284156 0.020078
vt 0.878779 0.509265
vt 0.523842 0.499679
vt 0.853585 0.289541
vt 0.864221 0.773543
vt 0.868144 0.278906
vt 0.513207 0.009442
vt 0.878780 0.763136
vt 0.513207 0.269321
vt 0.853586 0.549194
vt 0.909687 0.770128
vt 0.902136 0.762577
vt 0.909687 0.760880
vt 0.723945 0.209627
vt 0.732456 0.217191
vt 0.724718 0.218887
vt 0.950991 0.713123
vt 0.943440 0.720698
vt 0.941743 0.713140
vt 0.723945 0.018678
vt 0.732456 0.011140
vt 0.733776 0.018684
vt 0.950991 0.927084
vt 0.943440 0.934635
vt 0.941743 0.927084
vt 0.950991 0.522175
vt 0.943440 0.514648
vt 0.950991 0.512944
vt 0.913610 0.770128
vt 0.921161 0.762577
vt 0.922858 0.770128
vt 0.954915 0.713123
vt 0.962466 0.720698
vt 0.954915 0.722388
vt 0.552557 0.438072
vt 0.544047 0.445636
vt 0.542727 0.438078
vt 0.954915 0.927084
vt 0.962466 0.934635
vt 0.954915 0.936332
vt 0.552557 0.247123
vt 0.544047 0.239585
vt 0.551785 0.237887
vt 0.954915 0.522175
vt 0.962466 0.514648
vt 0.964163 0.522192
vt 0.909687 0.946691
vt 0.902136 0.954242
vt 0.900438 0.946691
vt 0.913610 0.732731
vt 0.921161 0.740306
vt 0.913610 0.741995
vt 0.551012 0.209743
vt 0.544731 0.217316
vt 0.542727 0.209761
vt 0.950991 0.750520
vt 0.943440 0.742969
vt 0.950991 0.741272
vt 0.551012 0.018794
vt 0.544731 0.011265
vt 0.551785 0.009558
vt 0.913610 0.541783
vt 0.921161 0.534256
vt 0.922858 0.541799
vt 0.913610 0.946691
vt 0.921161 0.954242
vt 0.913610 0.955940
vt 0.725491 0.438187
vt 0.731771 0.445761
vt 0.724718 0.447448
vt 0.909687 0.732731
vt 0.902135 0.740306
vt 0.900438 0.732747
vt 0.954915 0.750520
vt 0.962466 0.742969
vt 0.964163 0.750520
vt 0.909687 0.541783
vt 0.902135 0.534256
vt 0.909687 0.532551
vt 0.725491 0.247239
vt 0.731771 0.239710
vt 0.733776 0.247257
vt 0.913610 0.760880
vt 0.950991 0.722388
vt 0.733776 0.209633
vt 0.941743 0.522192
vt 0.950991 0.936332
vt 0.954915 0.512944
vt 0.542727 0.247129
vt 0.964163 0.713140
vt 0.922858 0.946691
vt 0.551785 0.447332
vt 0.964163 0.927084
vt 0.724718 0.238003
vt 0.900438 0.541799
vt 0.733776 0.438206
vt 0.909687 0.955940
vt 0.909687 0.741995
vt 0.954915 0.741272
vt 0.913610 0.532551
vt 0.542727 0.018812
vt 0.922858 0.732747
vt 0.900438 0.770128
vt 0.551785 0.219003
vt 0.941743 0.750520
vt 0.724718 0.009442
vt 0.728994 0.857379
vt 0.732392 0.853981
vt 0.733156 0.857379
vt 0.830277 0.373262
vt 0.834107 0.376666
vt 0.830625 0.377430
vt 0.756822 0.373259
vt 0.753424 0.376668
vt 0.752660 0.373266
vt 0.830277 0.013599
vt 0.834107 0.010206
vt 0.834701 0.013601
vt 0.709376 0.912052
vt 0.705978 0.908654
vt 0.709376 0.907890
vt 0.756822 0.013596
vt 0.753424 0.010209
vt 0.756822 0.009442
vt 0.728994 0.884844
vt 0.732392 0.888242
vt 0.728994 0.889006
vt 0.784288 0.373259
vt 0.787685 0.376668
vt 0.784288 0.377428
vt 0.811758 0.760147
vt 0.807928 0.763551
vt 0.807334 0.760150
vt 0.709376 0.939517
vt 0.705978 0.942915
vt 0.705214 0.939517
vt 0.811758 0.400483
vt 0.807928 0.397091
vt 0.811410 0.396327
vt 0.784288 0.013596
vt 0.787685 0.010209
vt 0.788449 0.013604
vt 0.709376 0.857379
vt 0.705978 0.853981
vt 0.709376 0.853217
vt 0.784287 0.760129
vt 0.787685 0.763538
vt 0.784287 0.764298
vt 0.811062 0.373275
vt 0.808236 0.376683
vt 0.807334 0.373283
vt 0.728994 0.912052
vt 0.732392 0.908654
vt 0.733156 0.912052
vt 0.811062 0.013611
vt 0.808236 0.010224
vt 0.811410 0.009455
vt 0.784287 0.400467
vt 0.787685 0.397080
vt 0.788449 0.400474
vt 0.709376 0.884844
vt 0.705978 0.888242
vt 0.705214 0.884844
vt 0.830972 0.760160
vt 0.833799 0.763568
vt 0.830625 0.764327
vt 0.756822 0.760129
vt 0.753424 0.763538
vt 0.752660 0.760137
vt 0.728994 0.939517
vt 0.732392 0.942915
vt 0.728994 0.943679
vt 0.756822 0.400467
vt 0.753424 0.397080
vt 0.756822 0.396313
vt 0.830972 0.400496
vt 0.833799 0.397108
vt 0.834701 0.400504
vt 0.733156 0.884844
vt 0.756822 0.377428
vt 0.834701 0.373265
vt 0.752660 0.013604
vt 0.705214 0.912052
vt 0.784288 0.009442
vt 0.807334 0.400486
vt 0.788449 0.373266
vt 0.709376 0.889006
vt 0.811410 0.764314
vt 0.709376 0.943679
vt 0.830625 0.396340
vt 0.752660 0.400474
vt 0.834701 0.760168
vt 0.705214 0.857379
vt 0.756822 0.764298
vt 0.733156 0.939517
vt 0.784287 0.396313
vt 0.807334 0.013620
vt 0.788449 0.760137
vt 0.728994 0.853217
vt 0.811410 0.377442
vt 0.728994 0.907890
vt 0.830625 0.009442
vt 0.133101 0.833584
vt 0.139594 0.970939
vt 0.132138 0.970927
vt 0.752661 0.783205
vt 0.764683 0.920531
vt 0.756360 0.920546
vt 0.764683 0.783183
vt 0.773006 0.920546
vt 0.585162 0.853219
vt 0.596896 0.990546
vt 0.589440 0.990558
vt 0.595933 0.853203
vt 0.605744 0.990558
vt 0.500420 0.926441
vt 0.508743 0.789078
vt 0.508743 0.926426
vt 0.752660 0.961646
vt 0.761862 0.939431
vt 0.784077 0.948633
vt 0.517066 0.926441
vt 0.120321 0.833600
vt 0.123290 0.970939
vt 0.941743 0.970596
vt 0.948113 0.955216
vt 0.963493 0.961587
vt 0.227388 0.828334
vt 0.233881 0.965689
vt 0.226424 0.965677
vt 0.857285 0.929793
vt 0.865608 0.792430
vt 0.865608 0.929778
vt 0.873931 0.929793
vt 0.326592 0.804696
vt 0.338326 0.942023
vt 0.330869 0.942034
vt 0.337362 0.804679
vt 0.347174 0.942034
vt 0.009442 0.797434
vt 0.021465 0.934760
vt 0.013142 0.934775
vt 0.489349 0.954527
vt 0.511564 0.945325
vt 0.520765 0.967540
vt 0.021465 0.797412
vt 0.029788 0.934775
vt 0.214608 0.828350
vt 0.217576 0.965689
vt 0.405818 0.955666
vt 0.412188 0.971046
vt 0.396809 0.977416
vt 0.966869 0.169844
vt 0.970267 0.166446
vt 0.971031 0.169844
vt 0.675017 0.830153
vt 0.678846 0.833556
vt 0.675364 0.834320
vt 0.546888 0.830149
vt 0.543490 0.833558
vt 0.542727 0.830157
vt 0.675017 0.470489
vt 0.678846 0.467096
vt 0.679440 0.470491
vt 0.947251 0.224517
vt 0.943853 0.221119
vt 0.947251 0.220355
vt 0.546888 0.470487
vt 0.543490 0.467099
vt 0.546888 0.466332
vt 0.966869 0.197309
vt 0.970267 0.200707
vt 0.966869 0.201471
vt 0.574354 0.830149
vt 0.577752 0.833558
vt 0.574354 0.834318
vt 0.702749 0.830153
vt 0.698919 0.833556
vt 0.698325 0.830155
vt 0.947251 0.251982
vt 0.943853 0.255380
vt 0.943089 0.251982
vt 0.702749 0.470489
vt 0.698919 0.467096
vt 0.702401 0.466332
vt 0.574354 0.470487
vt 0.577752 0.467099
vt 0.578515 0.470494
vt 0.947251 0.169844
vt 0.943853 0.166446
vt 0.947251 0.165682
vt 0.629027 0.830149
vt 0.632425 0.833558
vt 0.629027 0.834318
vt 0.655802 0.830165
vt 0.652975 0.833573
vt 0.652073 0.830174
vt 0.966869 0.224517
vt 0.970267 0.221119
vt 0.971031 0.224517
vt 0.655802 0.470501
vt 0.652975 0.467114
vt 0.656150 0.466345
vt 0.629027 0.470487
vt 0.632425 0.467099
vt 0.633189 0.470494
vt 0.947251 0.197309
vt 0.943853 0.200707
vt 0.943089 0.197309
vt 0.721964 0.830165
vt 0.724790 0.833573
vt 0.721616 0.834332
vt 0.601562 0.830149
vt 0.598164 0.833558
vt 0.597400 0.830157
vt 0.966869 0.251982
vt 0.970267 0.255380
vt 0.966869 0.256144
vt 0.601562 0.470487
vt 0.598164 0.467099
vt 0.601562 0.466332
vt 0.721964 0.470501
vt 0.724790 0.467114
vt 0.725692 0.470510
vt 0.971031 0.197309
vt 0.546888 0.834318
vt 0.679440 0.830155
vt 0.542727 0.470494
vt 0.943089 0.224517
vt 0.574354 0.466332
vt 0.698325 0.470491
vt 0.578515 0.830157
vt 0.947251 0.201471
vt 0.702401 0.834320
vt 0.947251 0.256144
vt 0.721616 0.466345
vt 0.597400 0.470494
vt 0.725692 0.830174
vt 0.943089 0.169844
vt 0.601562 0.834318
vt 0.971031 0.251982
vt 0.629027 0.466332
vt 0.652073 0.470510
vt 0.633189 0.830157
vt 0.966869 0.165682
vt 0.656150 0.834332
vt 0.966869 0.220355
vt 0.675364 0.466332
vt 0.955869 0.009442
vt 0.962362 0.146797
vt 0.954906 0.146786
vt 0.052372 0.797434
vt 0.064395 0.934760
vt 0.056071 0.934775
vt 0.064395 0.797412
vt 0.072718 0.934775
vt 0.162757 0.833600
vt 0.174491 0.970927
vt 0.167035 0.970939
vt 0.173528 0.833584
vt 0.183339 0.970939
vt 0.394138 0.936782
vt 0.402461 0.799419
vt 0.402461 0.936767
vt 0.803285 0.957879
vt 0.825499 0.948678
vt 0.834701 0.970892
vt 0.410784 0.936782
vt 0.943089 0.009459
vt 0.946058 0.146797
vt 0.446452 0.955666
vt 0.452823 0.971046
vt 0.437443 0.977416
vt 0.555507 0.853203
vt 0.562000 0.990558
vt 0.554543 0.990546
vt 0.437067 0.936782
vt 0.445391 0.799419
vt 0.445391 0.936767
vt 0.453714 0.936782
vt 0.284156 0.804696
vt 0.295891 0.942023
vt 0.288434 0.942034
vt 0.294927 0.804679
vt 0.304738 0.942034
vt 0.807334 0.783233
vt 0.819356 0.920560
vt 0.811033 0.920575
vt 0.009442 0.975875
vt 0.018644 0.953660
vt 0.040859 0.962862
vt 0.819356 0.783212
vt 0.827680 0.920575
vt 0.542727 0.853219
vt 0.545695 0.990558
vt 0.652073 0.974879
vt 0.658444 0.959499
vt 0.673823 0.965870
vt 0.290167 0.535210
vt 0.285259 0.530302
vt 0.290167 0.529199
vt 0.418675 0.535604
vt 0.423595 0.530075
vt 0.424695 0.535106
vt 0.680308 0.881462
vt 0.685231 0.886370
vt 0.680318 0.887474
vt 0.396441 0.535589
vt 0.391545 0.530054
vt 0.396450 0.529199
vt 0.343309 0.779783
vt 0.338400 0.784691
vt 0.337297 0.779783
vt 0.658074 0.881462
vt 0.653181 0.886370
vt 0.652073 0.881462
vt 0.312401 0.535210
vt 0.317310 0.530302
vt 0.318413 0.535210
vt 0.680308 0.859228
vt 0.685231 0.854320
vt 0.686329 0.859228
vt 0.449599 0.535604
vt 0.444679 0.530075
vt 0.449591 0.529214
vt 0.365542 0.779783
vt 0.370451 0.784691
vt 0.365542 0.785794
vt 0.471833 0.535589
vt 0.476729 0.530054
vt 0.477836 0.535083
vt 0.658074 0.859228
vt 0.653181 0.854320
vt 0.658085 0.853217
vt 0.290167 0.779783
vt 0.285259 0.784691
vt 0.284156 0.779783
vt 0.680308 0.912369
vt 0.685231 0.907461
vt 0.686329 0.912369
vt 0.418675 0.775149
vt 0.423595 0.779234
vt 0.418683 0.780534
vt 0.343309 0.535210
vt 0.338400 0.530302
vt 0.343309 0.529199
vt 0.396441 0.775134
vt 0.391545 0.779213
vt 0.390438 0.774627
vt 0.658074 0.912369
vt 0.653181 0.907461
vt 0.658085 0.906358
vt 0.312401 0.779783
vt 0.317310 0.784691
vt 0.312401 0.785794
vt 0.449599 0.775148
vt 0.444679 0.779234
vt 0.443579 0.774650
vt 0.680308 0.934603
vt 0.685231 0.939511
vt 0.680318 0.940615
vt 0.365543 0.535210
vt 0.370451 0.530302
vt 0.371554 0.535210
vt 0.658074 0.934603
vt 0.653181 0.939511
vt 0.652073 0.934603
vt 0.471833 0.775134
vt 0.476729 0.779213
vt 0.471824 0.780519
vt 0.312401 0.529199
vt 0.686329 0.881462
vt 0.418683 0.529214
vt 0.658085 0.887474
vt 0.343309 0.785794
vt 0.652073 0.859228
vt 0.471824 0.529199
vt 0.680318 0.853217
vt 0.318413 0.779783
vt 0.443579 0.535106
vt 0.371554 0.779783
vt 0.477836 0.774627
vt 0.658085 0.940615
vt 0.449591 0.780534
vt 0.290167 0.785794
vt 0.686329 0.934603
vt 0.365543 0.529199
vt 0.652073 0.912369
vt 0.396450 0.780519
vt 0.680318 0.906358
vt 0.284156 0.535210
vt 0.424695 0.774650
vt 0.337297 0.535210
vt 0.390438 0.535083
vt 0.012679 0.562107
vt 0.010036 0.559464
vt 0.012679 0.558870
vt 0.920963 0.012894
vt 0.923613 0.009917
vt 0.924205 0.012626
vt 0.873819 0.981996
vt 0.876470 0.984639
vt 0.873825 0.985233
vt 0.903961 0.012883
vt 0.901325 0.009903
vt 0.903966 0.009442
vt 0.068119 0.775291
vt 0.065476 0.777933
vt 0.064882 0.775291
vt 0.856817 0.981996
vt 0.854182 0.984639
vt 0.853586 0.981996
vt 0.042760 0.562107
vt 0.045403 0.559464
vt 0.045997 0.562107
vt 0.873819 0.951915
vt 0.876470 0.949272
vt 0.877061 0.951915
vt 0.944984 0.282358
vt 0.942335 0.279381
vt 0.944980 0.278917
vt 0.098200 0.775291
vt 0.100843 0.777933
vt 0.098200 0.778527
vt 0.961987 0.282347
vt 0.964623 0.279366
vt 0.965219 0.282074
vt 0.856817 0.951915
vt 0.854182 0.949272
vt 0.856822 0.948678
vt 0.012679 0.775291
vt 0.010036 0.777933
vt 0.009442 0.775291
vt 0.079977 0.956897
vt 0.082628 0.954254
vt 0.083219 0.956897
vt 0.920963 0.221695
vt 0.923613 0.223895
vt 0.920968 0.224595
vt 0.068119 0.562107
vt 0.065476 0.559464
vt 0.068119 0.558870
vt 0.903961 0.221684
vt 0.901325 0.223880
vt 0.900729 0.221411
vt 0.062974 0.956897
vt 0.060340 0.954254
vt 0.062980 0.953660
vt 0.042760 0.775291
vt 0.045403 0.777933
vt 0.042760 0.778527
vt 0.944984 0.491159
vt 0.942335 0.493359
vt 0.941743 0.490891
vt 0.079977 0.986978
vt 0.082628 0.989621
vt 0.079982 0.990215
vt 0.098200 0.562107
vt 0.100843 0.559464
vt 0.101437 0.562107
vt 0.062974 0.986978
vt 0.060340 0.989621
vt 0.059743 0.986978
vt 0.961987 0.491148
vt 0.964623 0.493344
vt 0.961982 0.494047
vt 0.042760 0.558870
vt 0.877061 0.981996
vt 0.920968 0.009454
vt 0.856822 0.985233
vt 0.068119 0.778527
vt 0.853586 0.951915
vt 0.961982 0.278906
vt 0.873825 0.948678
vt 0.045997 0.775291
vt 0.941743 0.282090
vt 0.101437 0.775291
vt 0.965219 0.490875
vt 0.062980 0.990215
vt 0.944980 0.494059
vt 0.012679 0.778527
vt 0.083219 0.986978
vt 0.098200 0.558870
vt 0.059743 0.956897
vt 0.903966 0.224584
vt 0.079982 0.953660
vt 0.009442 0.562107
vt 0.924205 0.221427
vt 0.064882 0.562107
vt 0.900729 0.012610
vt 0.143872 0.833600
vt 0.776706 0.783205
vt 0.608713 0.853219
vt 0.496720 0.789099
vt 0.784077 0.961646
vt 0.774875 0.970847
vt 0.761862 0.970847
vt 0.752660 0.948633
vt 0.774875 0.939431
vt 0.520765 0.789099
vt 0.963493 0.970596
vt 0.957122 0.976966
vt 0.948113 0.976966
vt 0.941743 0.961587
vt 0.957122 0.955216
vt 0.238158 0.828350
vt 0.853586 0.792451
vt 0.877631 0.792451
vt 0.350142 0.804696
vt 0.511564 0.976742
vt 0.498551 0.976742
vt 0.489349 0.967540
vt 0.498551 0.945325
vt 0.520765 0.954527
vt 0.033487 0.797434
vt 0.390438 0.971046
vt 0.390438 0.962037
vt 0.396809 0.955666
vt 0.412188 0.962037
vt 0.405818 0.977416
vt 0.966640 0.009459
vt 0.076417 0.797434
vt 0.186307 0.833600
vt 0.390438 0.799440
vt 0.825499 0.980094
vt 0.812486 0.980094
vt 0.803285 0.970892
vt 0.812486 0.948678
vt 0.834701 0.957879
vt 0.414483 0.799440
vt 0.431073 0.971046
vt 0.431073 0.962037
vt 0.437443 0.955666
vt 0.452823 0.962037
vt 0.446452 0.977416
vt 0.566277 0.853219
vt 0.433368 0.799440
vt 0.457413 0.799440
vt 0.307707 0.804696
vt 0.040859 0.975875
vt 0.031657 0.985076
vt 0.018644 0.985076
vt 0.009442 0.962861
vt 0.031657 0.953660
vt 0.831379 0.783233
vt 0.673823 0.974879
vt 0.667453 0.981249
vt 0.658444 0.981249
vt 0.652073 0.965870
vt 0.667453 0.959499
s 0
usemtl chair_Surface
f 1/1/1 5/2/1 7/3/1
f 2/4/2 5/5/2 4/6/2
f 3/7/3 5/8/3 6/9/3
f 8/10/4 12/11/4 14/12/4
f 9/13/5 12/14/5 11/15/5
f 10/16/6 12/17/6 13/18/6
f 15/19/7 19/20/7 21/21/7
f 16/22/8 19/23/8 18/24/8
f 17/25/9 19/26/9 20/27/9
f 22/28/10 26/29/10 28/30/10
f 23/31/11 26/32/11 25/33/11
f 24/34/12 26/35/12 27/36/12
f 29/37/13 33/38/13 35/39/13
f 30/40/14 33/41/14 32/42/14
f 31/43/15 33/44/15 34/45/15
f 36/46/16 40/47/16 42/48/16
f 37/49/17 40/50/17 39/51/17
f 38/52/18 40/53/18 41/54/18
f 43/55/19 47/56/19 49/57/19
f 44/58/20 47/59/20 46/60/20
f 45/61/21 47/62/21 48/63/21
f 50/64/22 54/65/22 56/66/22
f 51/67/23 54/68/23 53/69/23
f 52/70/24 54/71/24 55/72/24
f 15/19/25 7/3/25 18/73/25
f 7/74/26 16/22/26 18/24/26
f 8/10/27 6/75/27 2/4/27
f 14/76/28 3/7/28 6/9/28
f 9/13/29 28/30/29 13/77/29
f 28/78/30 10/16/30 13/18/30
f 17/25/31 27/79/31 23/31/31
f 20/80/32 24/34/32 27/36/32
f 43/55/33 21/21/33 46/81/33
f 21/82/34 44/58/34 46/60/34
f 22/28/35 56/66/35 25/83/35
f 56/84/36 23/31/36 25/33/36
f 45/61/37 55/85/37 51/67/37
f 48/86/38 52/70/38 55/72/38
f 29/37/39 49/57/39 32/87/39
f 49/88/40 30/40/40 32/42/40
f 50/64/41 42/48/41 53/89/41
f 42/90/42 51/67/42 53/69/42
f 31/43/43 41/91/43 37/49/43
f 34/92/44 38/52/44 41/54/44
f 1/1/45 35/39/45 4/93/45
f 35/94/46 2/4/46 4/6/46
f 36/46/47 11/15/47 39/95/47
f 11/96/48 37/49/48 39/51/48
f 43/55/49 1/1/49 15/19/49
f 10/16/50 16/22/50 3/7/50
f 37/49/51 2/4/51 31/43/51
f 22/28/52 36/46/52 50/64/52
f 23/31/53 44/58/53 17/25/53
f 51/67/54 30/40/54 45/61/54
f 57/97/1 61/98/1 63/99/1
f 58/100/2 61/101/2 60/102/2
f 59/103/3 61/104/3 62/105/3
f 64/106/4 68/107/4 70/108/4
f 65/109/5 68/110/5 67/111/5
f 66/112/6 68/113/6 69/114/6
f 71/115/7 75/116/7 77/117/7
f 72/118/8 75/119/8 74/120/8
f 73/121/9 75/122/9 76/123/9
f 78/124/10 82/125/10 84/126/10
f 79/127/11 82/128/11 81/129/11
f 80/130/12 82/131/12 83/132/12
f 85/133/13 89/134/13 91/135/13
f 86/136/14 89/137/14 88/138/14
f 87/139/15 89/140/15 90/141/15
f 92/142/16 96/143/16 98/144/16
f 93/145/17 96/146/17 95/147/17
f 94/148/18 96/149/18 97/150/18
f 99/151/19 103/152/19 105/153/19
f 100/154/20 103/155/20 102/156/20
f 101/157/21 103/158/21 104/159/21
f 106/160/22 110/161/22 112/162/22
f 107/163/23 110/164/23 109/165/23
f 108/166/24 110/167/24 111/168/24
f 57/97/25 74/169/25 71/115/25
f 63/170/26 72/118/26 74/120/26
f 64/106/27 62/171/27 58/100/27
f 70/172/28 59/103/28 62/105/28
f 78/124/29 69/173/29 65/109/29
f 84/174/30 66/112/30 69/114/30
f 73/121/31 83/175/31 79/127/31
f 76/176/32 80/130/32 83/132/32
f 71/115/33 102/177/33 99/151/33
f 77/178/34 100/154/34 102/156/34
f 106/160/35 81/179/35 78/124/35
f 112/180/36 79/127/36 81/129/36
f 101/157/37 111/181/37 107/163/37
f 104/182/38 108/166/38 111/168/38
f 99/151/39 88/183/39 85/133/39
f 105/184/40 86/136/40 88/138/40
f 92/142/41 109/185/41 106/160/41
f 98/186/42 107/163/42 109/165/42
f 87/139/43 97/187/43 93/145/43
f 90/188/44 94/148/44 97/150/44
f 85/133/45 60/189/45 57/97/45
f 91/190/46 58/100/46 60/102/46
f 65/109/47 95/191/47 92/142/47
f 67/192/48 93/145/48 95/147/48
f 99/151/49 57/97/49 71/115/49
f 66/112/50 72/118/50 59/103/50
f 93/145/51 58/100/51 87/139/51
f 78/124/52 92/142/52 106/160/52
f 79/127/53 100/154/53 73/121/53
f 107/163/54 86/136/54 101/157/54
f 113/193/1 117/194/1 119/195/1
f 114/196/2 117/197/2 116/198/2
f 115/199/3 117/200/3 118/201/3
f 120/202/4 124/203/4 126/204/4
f 121/205/5 124/206/5 123/207/5
f 122/208/6 124/209/6 125/210/6
f 127/211/7 131/212/7 133/213/7
f 128/214/8 131/215/8 130/216/8
f 129/217/9 131/218/9 132/219/9
f 134/220/10 138/221/10 140/222/10
f 135/223/11 138/224/11 137/225/11
f 136/226/12 138/227/12 139/228/12
f 141/229/13 145/230/13 147/231/13
f 142/232/14 145/233/14 144/234/14
f 143/235/15 145/236/15 146/237/15
f 148/238/16 152/239/16 154/240/16
f 149/241/17 152/242/17 151/243/17
f 150/244/18 152/245/18 153/246/18
f 155/247/19 159/248/19 161/249/19
f 156/250/20 159/251/20 158/252/20
f 157/253/21 159/254/21 160/255/21
f 162/256/22 166/257/22 168/258/22
f 163/259/23 166/260/23 165/261/23
f 164/262/24 166/263/24 167/264/24
f 113/193/25 130/265/25 127/211/25
f 119/266/26 128/214/26 130/216/26
f 120/202/27 118/267/27 114/196/27
f 126/268/28 115/199/28 118/201/28
f 134/220/29 125/269/29 121/205/29
f 140/270/30 122/208/30 125/210/30
f 129/217/31 139/271/31 135/223/31
f 132/272/32 136/226/32 139/228/32
f 127/211/33 158/273/33 155/247/33
f 133/274/34 156/250/34 158/252/34
f 134/220/35 168/258/35 137/275/35
f 168/276/36 135/223/36 137/225/36
f 157/253/37 167/277/37 163/259/37
f 160/278/38 164/262/38 167/264/38
f 155/247/39 144/279/39 141/229/39
f 161/280/40 142/232/40 144/234/40
f 148/238/41 165/281/41 162/256/41
f 154/282/42 163/259/42 165/261/42
f 143/235/43 153/283/43 149/241/43
f 146/284/44 150/244/44 153/246/44
f 141/229/45 116/285/45 113/193/45
f 147/286/46 114/196/46 116/198/46
f 121/205/47 151/287/47 148/238/47
f 123/288/48 149/241/48 151/243/48
f 155/247/49 113/193/49 127/211/49
f 122/208/50 128/214/50 115/199/50
f 149/241/51 114/196/51 143/235/51
f 134/220/52 148/238/52 162/256/52
f 135/223/53 156/250/53 129/217/53
f 163/259/54 142/232/54 157/253/54
f 169/289/1 173/290/1 175/291/1
f 170/292/55 173/293/55 172/294/55
f 171/295/56 173/296/56 174/297/56
f 176/298/4 180/299/4 182/300/4
f 177/301/57 180/302/57 179/303/57
f 178/304/58 180/305/58 181/306/58
f 183/307/59 187/308/59 189/309/59
f 184/310/8 187/311/8 186/312/8
f 185/313/9 187/314/9 188/315/9
f 190/316/60 194/317/60 196/318/60
f 191/319/61 194/320/61 193/321/61
f 192/322/12 194/323/12 195/324/12
f 197/325/62 201/326/62 203/327/62
f 198/328/14 201/329/14 200/330/14
f 199/331/15 201/332/15 202/333/15
f 204/334/63 208/335/63 210/336/63
f 205/337/64 208/338/64 207/339/64
f 206/340/65 208/341/65 209/342/65
f 211/343/19 215/344/19 217/345/19
f 212/346/20 215/347/20 214/348/20
f 213/349/21 215/350/21 216/351/21
f 218/352/66 222/353/66 224/354/66
f 219/355/67 222/356/67 221/357/67
f 220/358/24 222/359/24 223/360/24
f 169/289/25 186/361/25 183/307/25
f 175/362/26 184/310/26 186/312/26
f 176/298/27 174/363/27 170/292/27
f 182/364/28 171/295/28 174/297/28
f 190/316/29 181/365/29 177/301/29
f 196/366/30 178/304/30 181/306/30
f 185/313/31 195/367/31 191/319/31
f 188/368/32 192/322/32 195/324/32
f 183/307/33 214/369/33 211/343/33
f 189/370/34 212/346/34 214/348/34
f 218/352/35 193/371/35 190/316/35
f 224/372/36 191/319/36 193/321/36
f 213/349/37 223/373/37 219/355/37
f 216/374/38 220/358/38 223/360/38
f 211/343/39 200/375/39 197/325/39
f 217/376/40 198/328/40 200/330/40
f 204/334/41 221/377/41 218/352/41
f 210/378/42 219/355/42 221/357/42
f 199/331/43 209/379/43 205/337/43
f 202/380/44 206/340/44 209/342/44
f 197/325/45 172/381/45 169/289/45
f 203/382/46 170/292/46 172/294/46
f 177/301/47 207/383/47 204/334/47
f 179/384/48 205/337/48 207/339/48
f 211/343/49 169/289/49 183/307/49
f 178/304/50 184/310/50 171/295/50
f 205/337/51 170/292/51 199/331/51
f 190/316/52 204/334/52 218/352/52
f 191/319/53 212/346/53 185/313/53
f 219/355/54 198/328/54 213/349/54
f 226/385/68 227/386/68 225/387/68
f 228/388/69 229/389/69 227/390/69
f 230/391/70 231/392/70 229/389/70
f 232/393/71 233/394/71 231/395/71
f 234/396/72 235/397/72 233/394/72
f 235/398/73 238/399/73 237/400/73
f 238/401/52 234/402/52 230/403/52
f 238/399/74 239/404/74 237/400/74
f 240/405/75 225/387/75 239/406/75
f 231/407/49 235/408/49 239/409/49
f 242/410/68 243/411/68 241/412/68
f 243/413/69 246/414/69 245/415/69
f 246/414/70 247/416/70 245/415/70
f 248/417/71 249/418/71 247/419/71
f 250/420/72 251/421/72 249/418/72
f 252/422/73 253/423/73 251/424/73
f 254/425/52 250/426/52 246/427/52
f 254/428/74 255/429/74 253/423/74
f 256/430/75 241/412/75 255/431/75
f 247/432/49 251/433/49 255/434/49
f 257/435/1 261/436/1 263/437/1
f 258/438/2 261/439/2 260/440/2
f 259/441/56 261/442/56 262/443/56
f 264/444/4 268/445/4 270/446/4
f 265/447/57 268/448/57 267/449/57
f 266/450/58 268/451/58 269/452/58
f 271/453/59 275/454/59 277/455/59
f 272/456/8 275/457/8 274/458/8
f 273/459/9 275/460/9 276/461/9
f 278/462/60 282/463/60 284/464/60
f 279/465/61 282/466/61 281/467/61
f 280/468/12 282/469/12 283/470/12
f 285/471/62 289/472/62 291/473/62
f 286/474/14 289/475/14 288/476/14
f 287/477/15 289/478/15 290/479/15
f 292/480/63 296/481/63 298/482/63
f 293/483/64 296/484/64 295/485/64
f 294/486/65 296/487/65 297/488/65
f 299/489/19 303/490/19 305/491/19
f 300/492/76 303/493/76 302/494/76
f 301/495/21 303/496/21 304/497/21
f 306/498/66 310/499/66 312/500/66
f 307/501/67 310/502/67 309/503/67
f 308/504/24 310/505/24 311/506/24
f 257/435/25 274/507/25 271/453/25
f 263/508/26 272/456/26 274/458/26
f 264/444/27 262/509/27 258/438/27
f 270/510/28 259/441/28 262/443/28
f 278/462/29 269/511/29 265/447/29
f 284/512/30 266/450/30 269/452/30
f 273/459/31 283/513/31 279/465/31
f 276/514/32 280/468/32 283/470/32
f 271/453/33 302/515/33 299/489/33
f 277/516/34 300/492/34 302/494/34
f 306/498/35 281/517/35 278/462/35
f 312/518/36 279/465/36 281/467/36
f 301/495/37 311/519/37 307/501/37
f 304/520/38 308/504/38 311/506/38
f 299/489/39 288/521/39 285/471/39
f 305/522/40 286/474/40 288/476/40
f 292/480/41 309/523/41 306/498/41
f 298/524/42 307/501/42 309/503/42
f 287/477/43 297/525/43 293/483/43
f 290/526/44 294/486/44 297/488/44
f 285/471/45 260/527/45 257/435/45
f 291/528/46 258/438/46 260/440/46
f 265/447/47 295/529/47 292/480/47
f 267/530/48 293/483/48 295/485/48
f 299/489/49 257/435/49 271/453/49
f 266/450/50 272/456/50 259/441/50
f 293/483/51 258/438/51 287/477/51
f 278/462/52 292/480/52 306/498/52
f 279/465/53 300/492/53 273/459/53
f 307/501/54 286/474/54 301/495/54
f 314/531/68 315/532/68 313/533/68
f 316/534/69 317/535/69 315/536/69
f 318/537/70 319/538/70 317/535/70
f 320/539/71 321/540/71 319/541/71
f 322/542/72 323/543/72 321/540/72
f 323/544/73 326/545/73 325/546/73
f 326/547/52 322/548/52 318/549/52
f 326/545/74 327/550/74 325/546/74
f 328/551/75 313/533/75 327/552/75
f 319/553/49 323/554/49 327/555/49
f 330/556/68 331/557/68 329/558/68
f 331/559/69 334/560/69 333/561/69
f 334/560/70 335/562/70 333/561/70
f 336/563/71 337/564/71 335/565/71
f 338/566/72 339/567/72 337/564/72
f 340/568/73 341/569/73 339/570/73
f 342/571/52 338/572/52 334/573/52
f 342/574/74 343/575/74 341/569/74
f 344/576/75 329/558/75 343/577/75
f 335/578/49 339/579/49 343/580/49
f 345/581/1 349/582/1 351/583/1
f 346/584/2 349/585/2 348/586/2
f 347/587/3 349/588/3 350/589/3
f 352/590/77 356/591/77 358/592/77
f 353/593/57 356/594/57 355/595/57
f 354/596/6 356/597/6 357/598/6
f 359/599/7 363/600/7 365/601/7
f 360/602/8 363/603/8 362/604/8
f 361/605/78 363/606/78 364/607/78
f 366/608/79 370/609/79 372/610/79
f 367/611/80 370/612/80 369/613/80
f 368/614/12 370/615/12 371/616/12
f 373/617/13 377/618/13 379/619/13
f 374/620/14 377/621/14 376/622/14
f 375/623/15 377/624/15 378/625/15
f 380/626/81 384/627/81 386/628/81
f 381/629/82 384/630/82 383/631/82
f 382/632/83 384/633/83 385/634/83
f 387/635/19 391/636/19 393/637/19
f 388/638/20 391/639/20 390/640/20
f 389/641/21 391/642/21 392/643/21
f 394/644/66 398/645/66 400/646/66
f 395/647/23 398/648/23 397/649/23
f 396/650/84 398/651/84 399/652/84
f 345/581/25 362/653/25 359/599/25
f 351/654/26 360/602/26 362/604/26
f 352/590/27 350/655/27 346/584/27
f 358/656/28 347/587/28 350/589/28
f 366/608/29 357/657/29 353/593/29
f 372/658/30 354/596/30 357/598/30
f 361/605/31 371/659/31 367/611/31
f 364/660/32 368/614/32 371/616/32
f 359/599/33 390/661/33 387/635/33
f 365/662/34 388/638/34 390/640/34
f 394/644/35 369/663/35 366/608/35
f 400/664/36 367/611/36 369/613/36
f 389/641/37 399/665/37 395/647/37
f 392/666/38 396/650/38 399/652/38
f 387/635/39 376/667/39 373/617/39
f 393/668/40 374/620/40 376/622/40
f 380/626/41 397/669/41 394/644/41
f 386/670/42 395/647/42 397/649/42
f 375/623/43 385/671/43 381/629/43
f 378/672/44 382/632/44 385/634/44
f 373/617/45 348/673/45 345/581/45
f 379/674/46 346/584/46 348/586/46
f 353/593/47 383/675/47 380/626/47
f 355/676/48 381/629/48 383/631/48
f 387/635/49 345/581/49 359/599/49
f 354/596/50 360/602/50 347/587/50
f 381/629/51 346/584/51 375/623/51
f 366/608/52 380/626/52 394/644/52
f 367/611/53 388/638/53 361/605/53
f 395/647/54 374/620/54 389/641/54
f 401/677/85 405/678/85 407/679/85
f 402/680/2 405/681/2 404/682/2
f 403/683/3 405/684/3 406/685/3
f 408/686/4 412/687/4 414/688/4
f 409/689/5 412/690/5 411/691/5
f 410/692/6 412/693/6 413/694/6
f 415/695/7 419/696/7 421/697/7
f 416/698/86 419/699/86 418/700/86
f 417/701/9 419/702/9 420/703/9
f 422/704/10 426/705/10 428/706/10
f 423/707/11 426/708/11 425/709/11
f 424/710/12 426/711/12 427/712/12
f 429/713/13 433/714/13 435/715/13
f 430/716/87 433/717/87 432/718/87
f 431/719/15 433/720/15 434/721/15
f 436/722/88 440/723/88 442/724/88
f 437/725/17 440/726/17 439/727/17
f 438/728/18 440/729/18 441/730/18
f 443/731/19 447/732/19 449/733/19
f 444/734/20 447/735/20 446/736/20
f 445/737/21 447/738/21 448/739/21
f 450/740/22 454/741/22 456/742/22
f 451/743/23 454/744/23 453/745/23
f 452/746/24 454/747/24 455/748/24
f 401/677/25 418/749/25 415/695/25
f 407/750/26 416/698/26 418/700/26
f 408/686/27 406/751/27 402/680/27
f 414/752/28 403/683/28 406/685/28
f 422/704/29 413/753/29 409/689/29
f 428/754/30 410/692/30 413/694/30
f 417/701/31 427/755/31 423/707/31
f 420/756/32 424/710/32 427/712/32
f 415/695/33 446/757/33 443/731/33
f 421/758/34 444/734/34 446/736/34
f 450/740/35 425/759/35 422/704/35
f 456/760/36 423/707/36 425/709/36
f 445/737/37 455/761/37 451/743/37
f 448/762/38 452/746/38 455/748/38
f 443/731/39 432/763/39 429/713/39
f 449/764/40 430/716/40 432/718/40
f 436/722/41 453/765/41 450/740/41
f 442/766/42 451/743/42 453/745/42
f 431/719/43 441/767/43 437/725/43
f 434/768/44 438/728/44 441/730/44
f 429/713/45 404/769/45 401/677/45
f 435/770/46 402/680/46 404/682/46
f 409/689/47 439/771/47 436/722/47
f 411/772/48 437/725/48 439/727/48
f 443/731/49 401/677/49 415/695/49
f 410/692/50 416/698/50 403/683/50
f 437/725/51 402/680/51 431/719/51
f 422/704/52 436/722/52 450/740/52
f 423/707/53 444/734/53 417/701/53
f 451/743/54 430/716/54 445/737/54
f 1/1/89 4/93/89 5/2/89
f 2/4/90 6/75/90 5/5/90
f 3/7/91 7/74/91 5/8/91
f 8/10/92 11/96/92 12/11/92
f 9/13/93 13/77/93 12/14/93
f 10/16/94 14/76/94 12/17/94
f 15/19/95 18/73/95 19/20/95
f 16/22/96 20/80/96 19/23/96
f 17/25/97 21/82/97 19/26/97
f 22/28/98 25/83/98 26/29/98
f 23/31/99 27/79/99 26/32/99
f 24/34/100 28/78/100 26/35/100
f 29/37/101 32/87/101 33/38/101
f 30/40/102 34/92/102 33/41/102
f 31/43/103 35/94/103 33/44/103
f 36/46/104 39/95/104 40/47/104
f 37/49/105 41/91/105 40/50/105
f 38/52/106 42/90/106 40/53/106
f 43/55/107 46/81/107 47/56/107
f 44/58/108 48/86/108 47/59/108
f 45/61/109 49/88/109 47/62/109
f 50/64/110 53/89/110 54/65/110
f 51/67/111 55/85/111 54/68/111
f 52/70/112 56/84/112 54/71/112
f 15/19/25 1/1/25 7/3/25
f 7/74/26 3/7/26 16/22/26
f 8/10/27 14/12/27 6/75/27
f 14/76/28 10/16/28 3/7/28
f 9/13/29 22/28/29 28/30/29
f 28/78/30 24/34/30 10/16/30
f 17/25/31 20/27/31 27/79/31
f 20/80/32 16/22/32 24/34/32
f 43/55/33 15/19/33 21/21/33
f 21/82/34 17/25/34 44/58/34
f 22/28/35 50/64/35 56/66/35
f 56/84/36 52/70/36 23/31/36
f 45/61/37 48/63/37 55/85/37
f 48/86/38 44/58/38 52/70/38
f 29/37/39 43/55/39 49/57/39
f 49/88/40 45/61/40 30/40/40
f 50/64/41 36/46/41 42/48/41
f 42/90/42 38/52/42 51/67/42
f 31/43/43 34/45/43 41/91/43
f 34/92/44 30/40/44 38/52/44
f 1/1/45 29/37/45 35/39/45
f 35/94/46 31/43/46 2/4/46
f 36/46/47 9/13/47 11/15/47
f 11/96/48 8/10/48 37/49/48
f 43/55/49 29/37/49 1/1/49
f 10/16/50 24/34/50 16/22/50
f 37/49/51 8/10/51 2/4/51
f 22/28/52 9/13/52 36/46/52
f 23/31/53 52/70/53 44/58/53
f 51/67/54 38/52/54 30/40/54
f 57/97/89 60/189/89 61/98/89
f 58/100/90 62/171/90 61/101/90
f 59/103/91 63/170/91 61/104/91
f 64/106/92 67/192/92 68/107/92
f 65/109/93 69/173/93 68/110/93
f 66/112/94 70/172/94 68/113/94
f 71/115/95 74/169/95 75/116/95
f 72/118/96 76/176/96 75/119/96
f 73/121/97 77/178/97 75/122/97
f 78/124/98 81/179/98 82/125/98
f 79/127/99 83/175/99 82/128/99
f 80/130/100 84/174/100 82/131/100
f 85/133/101 88/183/101 89/134/101
f 86/136/102 90/188/102 89/137/102
f 87/139/103 91/190/103 89/140/103
f 92/142/104 95/191/104 96/143/104
f 93/145/105 97/187/105 96/146/105
f 94/148/106 98/186/106 96/149/106
f 99/151/107 102/177/107 103/152/107
f 100/154/108 104/182/108 103/155/108
f 101/157/109 105/184/109 103/158/109
f 106/160/110 109/185/110 110/161/110
f 107/163/111 111/181/111 110/164/111
f 108/166/112 112/180/112 110/167/112
f 57/97/25 63/99/25 74/169/25
f 63/170/26 59/103/26 72/118/26
f 64/106/27 70/108/27 62/171/27
f 70/172/28 66/112/28 59/103/28
f 78/124/29 84/126/29 69/173/29
f 84/174/30 80/130/30 66/112/30
f 73/121/31 76/123/31 83/175/31
f 76/176/32 72/118/32 80/130/32
f 71/115/33 77/117/33 102/177/33
f 77/178/34 73/121/34 100/154/34
f 106/160/35 112/162/35 81/179/35
f 112/180/36 108/166/36 79/127/36
f 101/157/37 104/159/37 111/181/37
f 104/182/38 100/154/38 108/166/38
f 99/151/39 105/153/39 88/183/39
f 105/184/40 101/157/40 86/136/40
f 92/142/41 98/144/41 109/185/41
f 98/186/42 94/148/42 107/163/42
f 87/139/43 90/141/43 97/187/43
f 90/188/44 86/136/44 94/148/44
f 85/133/45 91/135/45 60/189/45
f 91/190/46 87/139/46 58/100/46
f 65/109/47 67/111/47 95/191/47
f 67/192/48 64/106/48 93/145/48
f 99/151/49 85/133/49 57/97/49
f 66/112/50 80/130/50 72/118/50
f 93/145/51 64/106/51 58/100/51
f 78/124/52 65/109/52 92/142/52
f 79/127/53 108/166/53 100/154/53
f 107/163/54 94/148/54 86/136/54
f 113/193/89 116/285/89 117/194/89
f 114/196/90 118/267/90 117/197/90
f 115/199/91 119/266/91 117/200/91
f 120/202/92 123/288/92 124/203/92
f 121/205/93 125/269/93 124/206/93
f 122/208/94 126/268/94 124/209/94
f 127/211/95 130/265/95 131/212/95
f 128/214/96 132/272/96 131/215/96
f 129/217/97 133/274/97 131/218/97
f 134/220/98 137/275/98 138/221/98
f 135/223/99 139/271/99 138/224/99
f 136/226/100 140/270/100 138/227/100
f 141/229/101 144/279/101 145/230/101
f 142/232/102 146/284/102 145/233/102
f 143/235/103 147/286/103 145/236/103
f 148/238/104 151/287/104 152/239/104
f 149/241/105 153/283/105 152/242/105
f 150/244/106 154/282/106 152/245/106
f 155/247/107 158/273/107 159/248/107
f 156/250/108 160/278/108 159/251/108
f 157/253/109 161/280/109 159/254/109
f 162/256/110 165/281/110 166/257/110
f 163/259/111 167/277/111 166/260/111
f 164/262/112 168/276/112 166/263/112
f 113/193/25 119/195/25 130/265/25
f 119/266/26 115/199/26 128/214/26
f 120/202/27 126/204/27 118/267/27
f 126/268/28 122/208/28 115/199/28
f 134/220/29 140/222/29 125/269/29
f 140/270/30 136/226/30 122/208/30
f 129/217/31 132/219/31 139/271/31
f 132/272/32 128/214/32 136/226/32
f 127/211/33 133/213/33 158/273/33
f 133/274/34 129/217/34 156/250/34
f 134/220/35 162/256/35 168/258/35
f 168/276/36 164/262/36 135/223/36
f 157/253/37 160/255/37 167/277/37
f 160/278/38 156/250/38 164/262/38
f 155/247/39 161/249/39 144/279/39
f 161/280/40 157/253/40 142/232/40
f 148/238/41 154/240/41 165/281/41
f 154/282/42 150/244/42 163/259/42
f 143/235/43 146/237/43 153/283/43
f 146/284/44 142/232/44 150/244/44
f 141/229/45 147/231/45 116/285/45
f 147/286/46 143/235/46 114/196/46
f 121/205/47 123/207/47 151/287/47
f 123/288/48 120/202/48 149/241/48
f 155/247/49 141/229/49 113/193/49
f 122/208/50 136/226/50 128/214/50
f 149/241/51 120/202/51 114/196/51
f 134/220/52 121/205/52 148/238/52
f 135/223/53 164/262/53 156/250/53
f 163/259/54 150/244/54 142/232/54
f 169/289/113 172/381/113 173/290/113
f 170/292/90 174/363/90 173/293/90
f 171/295/91 175/362/91 173/296/91
f 176/298/114 179/384/114 180/299/114
f 177/301/115 181/365/115 180/302/115
f 178/304/116 182/364/116 180/305/116
f 183/307/95 186/361/95 187/308/95
f 184/310/96 188/368/96 187/311/96
f 185/313/117 189/370/117 187/314/117
f 190/316/118 193/371/118 194/317/118
f 191/319/99 195/367/99 194/320/99
f 192/322/119 196/366/119 194/323/119
f 197/325/101 200/375/101 201/326/101
f 198/328/120 202/380/120 201/329/120
f 199/331/103 203/382/103 201/332/103
f 204/334/121 207/383/121 208/335/121
f 205/337/105 209/379/105 208/338/105
f 206/340/122 210/378/122 208/341/122
f 211/343/123 214/369/123 215/344/123
f 212/346/108 216/374/108 215/347/108
f 213/349/109 217/376/109 215/350/109
f 218/352/124 221/377/124 222/353/124
f 219/355/111 223/373/111 222/356/111
f 220/358/125 224/372/125 222/359/125
f 169/289/25 175/291/25 186/361/25
f 175/362/26 171/295/26 184/310/26
f 176/298/27 182/300/27 174/363/27
f 182/364/28 178/304/28 171/295/28
f 190/316/29 196/318/29 181/365/29
f 196/366/30 192/322/30 178/304/30
f 185/313/31 188/315/31 195/367/31
f 188/368/32 184/310/32 192/322/32
f 183/307/33 189/309/33 214/369/33
f 189/370/34 185/313/34 212/346/34
f 218/352/35 224/354/35 193/371/35
f 224/372/36 220/358/36 191/319/36
f 213/349/37 216/351/37 223/373/37
f 216/374/38 212/346/38 220/358/38
f 211/343/39 217/345/39 200/375/39
f 217/376/40 213/349/40 198/328/40
f 204/334/41 210/336/41 221/377/41
f 210/378/42 206/340/42 219/355/42
f 199/331/43 202/333/43 209/379/43
f 202/380/44 198/328/44 206/340/44
f 197/325/45 203/327/45 172/381/45
f 203/382/46 199/331/46 170/292/46
f 177/301/47 179/303/47 207/383/47
f 179/384/48 176/298/48 205/337/48
f 211/343/49 197/325/49 169/289/49
f 178/304/50 192/322/50 184/310/50
f 205/337/51 176/298/51 170/292/51
f 190/316/52 177/301/52 204/334/52
f 191/319/53 220/358/53 212/346/53
f 219/355/54 206/340/54 198/328/54
f 226/385/68 228/773/68 227/386/68
f 228/388/69 230/391/69 229/389/69
f 230/391/70 232/774/70 231/392/70
f 232/393/71 234/396/71 233/394/71
f 234/396/72 236/775/72 235/397/72
f 235/398/73 236/776/73 238/399/73
f 230/403/52 228/777/52 226/778/52
f 226/778/52 240/779/52 238/401/52
f 238/401/52 236/780/52 234/402/52
f 234/402/52 232/781/52 230/403/52
f 230/403/52 226/778/52 238/401/52
f 238/399/74 240/782/74 239/404/74
f 240/405/75 226/385/75 225/387/75
f 239/409/49 225/783/49 227/784/49
f 227/784/49 229/785/49 231/407/49
f 231/407/49 233/786/49 235/408/49
f 235/408/49 237/787/49 239/409/49
f 239/409/49 227/784/49 231/407/49
f 242/410/68 244/788/68 243/411/68
f 243/413/69 244/789/69 246/414/69
f 246/414/70 248/790/70 247/416/70
f 248/417/71 250/420/71 249/418/71
f 250/420/72 252/791/72 251/421/72
f 252/422/73 254/428/73 253/423/73
f 246/427/52 244/792/52 242/793/52
f 242/793/52 256/794/52 254/425/52
f 254/425/52 252/795/52 250/426/52
f 250/426/52 248/796/52 246/427/52
f 246/427/52 242/793/52 254/425/52
f 254/428/74 256/797/74 255/429/74
f 256/430/75 242/410/75 241/412/75
f 255/434/49 241/798/49 243/799/49
f 243/799/49 245/800/49 247/432/49
f 247/432/49 249/801/49 251/433/49
f 251/433/49 253/802/49 255/434/49
f 255/434/49 243/799/49 247/432/49
f 257/435/113 260/527/113 261/436/113
f 258/438/90 262/509/90 261/439/90
f 259/441/91 263/508/91 261/442/91
f 264/444/114 267/530/114 268/445/114
f 265/447/115 269/511/115 268/448/115
f 266/450/116 270/510/116 268/451/116
f 271/453/95 274/507/95 275/454/95
f 272/456/96 276/514/96 275/457/96
f 273/459/97 277/516/97 275/460/97
f 278/462/118 281/517/118 282/463/118
f 279/465/99 283/513/99 282/466/99
f 280/468/119 284/512/119 282/469/119
f 285/471/101 288/521/101 289/472/101
f 286/474/120 290/526/120 289/475/120
f 287/477/126 291/528/126 289/478/126
f 292/480/121 295/529/121 296/481/121
f 293/483/105 297/525/105 296/484/105
f 294/486/122 298/524/122 296/487/122
f 299/489/123 302/515/123 303/490/123
f 300/492/108 304/520/108 303/493/108
f 301/495/109 305/522/109 303/496/109
f 306/498/124 309/523/124 310/499/124
f 307/501/111 311/519/111 310/502/111
f 308/504/125 312/518/125 310/505/125
f 257/435/25 263/437/25 274/507/25
f 263/508/26 259/441/26 272/456/26
f 264/444/27 270/446/27 262/509/27
f 270/510/28 266/450/28 259/441/28
f 278/462/29 284/464/29 269/511/29
f 284/512/30 280/468/30 266/450/30
f 273/459/31 276/461/31 283/513/31
f 276/514/32 272/456/32 280/468/32
f 271/453/33 277/455/33 302/515/33
f 277/516/34 273/459/34 300/492/34
f 306/498/35 312/500/35 281/517/35
f 312/518/36 308/504/36 279/465/36
f 301/495/37 304/497/37 311/519/37
f 304/520/38 300/492/38 308/504/38
f 299/489/39 305/491/39 288/521/39
f 305/522/40 301/495/40 286/474/40
f 292/480/41 298/482/41 309/523/41
f 298/524/42 294/486/42 307/501/42
f 287/477/43 290/479/43 297/525/43
f 290/526/44 286/474/44 294/486/44
f 285/471/45 291/473/45 260/527/45
f 291/528/46 287/477/46 258/438/46
f 265/447/47 267/449/47 295/529/47
f 267/530/48 264/444/48 293/483/48
f 299/489/49 285/471/49 257/435/49
f 266/450/50 280/468/50 272/456/50
f 293/483/51 264/444/51 258/438/51
f 278/462/52 265/447/52 292/480/52
f 279/465/53 308/504/53 300/492/53
f 307/501/54 294/486/54 286/474/54
f 314/531/68 316/803/68 315/532/68
f 316/534/69 318/537/69 317/535/69
f 318/537/70 320/804/70 319/538/70
f 320/539/71 322/542/71 321/540/71
f 322/542/72 324/805/72 323/543/72
f 323/544/73 324/806/73 326/545/73
f 318/549/52 316/807/52 314/808/52
f 314/808/52 328/809/52 326/547/52
f 326/547/52 324/810/52 322/548/52
f 322/548/52 320/811/52 318/549/52
f 318/549/52 314/808/52 326/547/52
f 326/545/74 328/812/74 327/550/74
f 328/551/75 314/531/75 313/533/75
f 327/555/49 313/813/49 315/814/49
f 315/814/49 317/815/49 319/553/49
f 319/553/49 321/816/49 323/554/49
f 323/554/49 325/817/49 327/555/49
f 327/555/49 315/814/49 319/553/49
f 330/556/68 332/818/68 331/557/68
f 331/559/69 332/819/69 334/560/69
f 334/560/70 336/820/70 335/562/70
f 336/563/71 338/566/71 337/564/71
f 338/566/72 340/821/72 339/567/72
f 340/568/73 342/574/73 341/569/73
f 334/573/52 332/822/52 330/823/52
f 330/823/52 344/824/52 342/571/52
f 342/571/52 340/825/52 338/572/52
f 338/572/52 336/826/52 334/573/52
f 334/573/52 330/823/52 342/571/52
f 342/574/74 344/827/74 343/575/74
f 344/576/75 330/556/75 329/558/75
f 343/580/49 329/828/49 331/829/49
f 331/829/49 333/830/49 335/578/49
f 335/578/49 337/831/49 339/579/49
f 339/579/49 341/832/49 343/580/49
f 343/580/49 331/829/49 335/578/49
f 345/581/89 348/673/89 349/582/89
f 346/584/90 350/655/90 349/585/90
f 347/587/91 351/654/91 349/588/91
f 352/590/127 355/676/127 356/591/127
f 353/593/128 357/657/128 356/594/128
f 354/596/129 358/656/129 356/597/129
f 359/599/95 362/653/95 363/600/95
f 360/602/96 364/660/96 363/603/96
f 361/605/97 365/662/97 363/606/97
f 366/608/118 369/663/118 370/609/118
f 367/611/130 371/659/130 370/612/130
f 368/614/100 372/658/100 370/615/100
f 373/617/101 376/667/101 377/618/101
f 374/620/102 378/672/102 377/621/102
f 375/623/103 379/674/103 377/624/103
f 380/626/121 383/675/121 384/627/121
f 381/629/131 385/671/131 384/630/131
f 382/632/106 386/670/106 384/633/106
f 387/635/107 390/661/107 391/636/107
f 388/638/132 392/666/132 391/639/132
f 389/641/109 393/668/109 391/642/109
f 394/644/133 397/669/133 398/645/133
f 395/647/134 399/665/134 398/648/134
f 396/650/135 400/664/135 398/651/135
f 345/581/25 351/583/25 362/653/25
f 351/654/26 347/587/26 360/602/26
f 352/590/27 358/592/27 350/655/27
f 358/656/28 354/596/28 347/587/28
f 366/608/29 372/610/29 357/657/29
f 372/658/30 368/614/30 354/596/30
f 361/605/31 364/607/31 371/659/31
f 364/660/32 360/602/32 368/614/32
f 359/599/33 365/601/33 390/661/33
f 365/662/34 361/605/34 388/638/34
f 394/644/35 400/646/35 369/663/35
f 400/664/36 396/650/36 367/611/36
f 389/641/37 392/643/37 399/665/37
f 392/666/38 388/638/38 396/650/38
f 387/635/39 393/637/39 376/667/39
f 393/668/40 389/641/40 374/620/40
f 380/626/41 386/628/41 397/669/41
f 386/670/42 382/632/42 395/647/42
f 375/623/43 378/625/43 385/671/43
f 378/672/44 374/620/44 382/632/44
f 373/617/45 379/619/45 348/673/45
f 379/674/46 375/623/46 346/584/46
f 353/593/47 355/595/47 383/675/47
f 355/676/48 352/590/48 381/629/48
f 387/635/49 373/617/49 345/581/49
f 354/596/50 368/614/50 360/602/50
f 381/629/51 352/590/51 346/584/51
f 366/608/52 353/593/52 380/626/52
f 367/611/53 396/650/53 388/638/53
f 395/647/54 382/632/54 374/620/54
f 401/677/89 404/769/89 405/678/89
f 402/680/90 406/751/90 405/681/90
f 403/683/136 407/750/136 405/684/136
f 408/686/92 411/772/92 412/687/92
f 409/689/137 413/753/137 412/690/137
f 410/692/94 414/752/94 412/693/94
f 415/695/95 418/749/95 419/696/95
f 416/698/96 420/756/96 419/699/96
f 417/701/97 421/758/97 419/702/97
f 422/704/98 425/759/98 426/705/98
f 423/707/99 427/755/99 426/708/99
f 424/710/100 428/754/100 426/711/100
f 429/713/138 432/763/138 433/714/138
f 430/716/102 434/768/102 433/717/102
f 431/719/103 435/770/103 433/720/103
f 436/722/104 439/771/104 440/723/104
f 437/725/105 441/767/105 440/726/105
f 438/728/106 442/766/106 440/729/106
f 443/731/107 446/757/107 447/732/107
f 444/734/108 448/762/108 447/735/108
f 445/737/139 449/764/139 447/738/139
f 450/740/110 453/765/110 454/741/110
f 451/743/111 455/761/111 454/744/111
f 452/746/112 456/760/112 454/747/112
f 401/677/25 407/679/25 418/749/25
f 407/750/26 403/683/26 416/698/26
f 408/686/27 414/688/27 406/751/27
f 414/752/28 410/692/28 403/683/28
f 422/704/29 428/706/29 413/753/29
f 428/754/30 424/710/30 410/692/30
f 417/701/31 420/703/31 427/755/31
f 420/756/32 416/698/32 424/710/32
f 415/695/33 421/697/33 446/757/33
f 421/758/34 417/701/34 444/734/34
f 450/740/35 456/742/35 425/759/35
f 456/760/36 452/746/36 423/707/36
f 445/737/37 448/739/37 455/761/37
f 448/762/38 444/734/38 452/746/38
f 443/731/39 449/733/39 432/763/39
f 449/764/40 445/737/40 430/716/40
f 436/722/41 442/724/41 453/765/41
f 442/766/42 438/728/42 451/743/42
f 431/719/43 434/721/43 441/767/43
f 434/768/44 430/716/44 438/728/44
f 429/713/45 435/715/45 404/769/45
f 435/770/46 431/719/46 402/680/46
f 409/689/47 411/691/47 439/771/47
f 411/772/48 408/686/48 437/725/48
f 443/731/49 429/713/49 401/677/49
f 410/692/50 424/710/50 416/698/50
f 437/725/51 408/686/51 402/680/51
f 422/704/52 409/689/52 436/722/52
f 423/707/53 452/746/53 444/734/53
f 451/743/54 438/728/54 430/716/54
