# Blender 5.2.1 LTS
# www.blender.org
mtllib desk.mtl
o desk
v -4.380000 -0.300000 3.380000
v -4.380000 -0.180000 3.500000
v -4.500000 -0.180000 3.380000
v -4.380000 -0.264853 3.464853
v -4.449282 -0.249282 3.449282
v -4.464853 -0.180000 3.464853
v -4.464853 -0.264853 3.380000
v -4.380000 0.180000 3.500000
v -4.380000 0.300000 3.380000
v -4.500000 0.180000 3.380000
v -4.380000 0.264853 3.464853
v -4.449282 0.249282 3.449282
v -4.464853 0.264853 3.380000
v -4.464853 0.180000 3.464853
v -4.380000 -0.300000 -3.380000
v -4.500000 -0.180000 -3.380000
v -4.380000 -0.180000 -3.500000
v -4.464853 -0.264853 -3.380000
v -4.449282 -0.249282 -3.449282
v -4.464853 -0.180000 -3.464853
v -4.380000 -0.264853 -3.464853
v -4.380000 0.300000 -3.380000
v -4.380000 0.180000 -3.500000
v -4.500000 0.180000 -3.380000
v -4.380000 0.264853 -3.464853
v -4.449282 0.249282 -3.449282
v -4.464853 0.180000 -3.464853
v -4.464853 0.264853 -3.380000
v 4.380000 -0.300000 3.380000
v 4.500000 -0.180000 3.380000
v 4.380000 -0.180000 3.500000
v 4.464853 -0.264853 3.380000
v 4.449282 -0.249282 3.449282
v 4.464853 -0.180000 3.464853
v 4.380000 -0.264853 3.464853
v 4.380000 0.300000 3.380000
v 4.380000 0.180000 3.500000
v 4.500000 0.180000 3.380000
v 4.380000 0.264853 3.464853
v 4.449282 0.249282 3.449282
v 4.464853 0.180000 3.464853
v 4.464853 0.264853 3.380000
v 4.380000 -0.300000 -3.380000
v 4.380000 -0.180000 -3.500000
v 4.500000 -0.180000 -3.380000
v 4.380000 -0.264853 -3.464853
v 4.449282 -0.249282 -3.449282
v 4.464853 -0.180000 -3.464853
v 4.464853 -0.264853 -3.380000
v 4.380000 0.300000 -3.380000
v 4.500000 0.180000 -3.380000
v 4.380000 0.180000 -3.500000
v 4.464853 0.264853 -3.380000
v 4.449282 0.249282 -3.449282
v 4.464853 0.180000 -3.464853
v 4.380000 0.264853 -3.464853
v -4.290000 -0.365000 3.290000
v -4.290000 -0.325000 3.330000
v -4.330000 -0.325000 3.290000
v -4.290000 -0.353284 3.318284
v -4.313094 -0.348094 3.313094
v -4.318284 -0.325000 3.318284
v -4.318284 -0.353284 3.290000
v -4.290000 -0.295000 3.330000
v -4.290000 -0.255000 3.290000
v -4.330000 -0.295000 3.290000
v -4.290000 -0.266716 3.318284
v -4.313094 -0.271906 3.313094
v -4.318284 -0.266716 3.290000
v -4.318284 -0.295000 3.318284
v -4.290000 -0.365000 -3.290000
v -4.330000 -0.325000 -3.290000
v -4.290000 -0.325000 -3.330000
v -4.318284 -0.353284 -3.290000
v -4.313094 -0.348094 -3.313094
v -4.318284 -0.325000 -3.318284
v -4.290000 -0.353284 -3.318284
v -4.290000 -0.255000 -3.290000
v -4.290000 -0.295000 -3.330000
v -4.330000 -0.295000 -3.290000
v -4.290000 -0.266716 -3.318284
v -4.313094 -0.271906 -3.313094
v -4.318284 -0.295000 -3.318284
v -4.318284 -0.266716 -3.290000
v 4.290000 -0.365000 3.290000
v 4.330000 -0.325000 3.290000
v 4.290000 -0.325000 3.330000
v 4.318284 -0.353284 3.290000
v 4.313094 -0.348094 3.313094
v 4.318284 -0.325000 3.318284
v 4.290000 -0.353284 3.318284
v 4.290000 -0.255000 3.290000
v 4.290000 -0.295000 3.330000
v 4.330000 -0.295000 3.290000
v 4.290000 -0.266716 3.318284
v 4.313094 -0.271906 3.313094
v 4.318284 -0.295000 3.318284
v 4.318284 -0.266716 3.290000
v 4.290000 -0.365000 -3.290000
v 4.290000 -0.325000 -3.330000
v 4.330000 -0.325000 -3.290000
v 4.290000 -0.353284 -3.318284
v 4.313094 -0.348094 -3.313094
v 4.318284 -0.325000 -3.318284
v 4.318284 -0.353284 -3.290000
v 4.290000 -0.255000 -3.290000
v 4.330000 -0.295000 -3.290000
v 4.290000 -0.295000 -3.330000
v 4.318284 -0.266716 -3.290000
v 4.313094 -0.271906 -3.313094
v 4.318284 -0.295000 -3.318284
v 4.290000 -0.266716 -3.318284
v -4.000000 -2.660000 -3.190000
v -4.000000 -0.300000 -3.255000
v -3.865650 -2.660000 -3.134350
v -3.819688 -0.300000 -3.180312
v -3.810000 -2.660000 -3.000000
v -3.745000 -0.300000 -3.000000
v -3.865650 -2.660000 -2.865650
v -3.819688 -0.300000 -2.819688
v -4.000000 -2.660000 -2.810000
v -4.000000 -0.300000 -2.745000
v -4.134350 -2.660000 -2.865650
v -4.180312 -0.300000 -2.819688
v -4.190000 -2.660000 -3.000000
v -4.255000 -0.300000 -3.000000
v -4.134350 -2.660000 -3.134350
v -4.180312 -0.300000 -3.180312
v -4.000000 -2.700000 -3.192000
v -4.000000 -2.550000 -3.195000
v -3.864235 -2.700000 -3.135765
v -3.862114 -2.550000 -3.137886
v -3.808000 -2.700000 -3.000000
v -3.805000 -2.550000 -3.000000
v -3.864235 -2.700000 -2.864235
v -3.862114 -2.550000 -2.862114
v -4.000000 -2.700000 -2.808000
v -4.000000 -2.550000 -2.805000
v -4.135765 -2.700000 -2.864235
v -4.137886 -2.550000 -2.862114
v -4.192000 -2.700000 -3.000000
v -4.195000 -2.550000 -3.000000
v -4.135765 -2.700000 -3.135765
v -4.137886 -2.550000 -3.137886
v -4.000000 -2.660000 2.810000
v -4.000000 -0.300000 2.745000
v -3.865650 -2.660000 2.865650
v -3.819688 -0.300000 2.819688
v -3.810000 -2.660000 3.000000
v -3.745000 -0.300000 3.000000
v -3.865650 -2.660000 3.134350
v -3.819688 -0.300000 3.180312
v -4.000000 -2.660000 3.190000
v -4.000000 -0.300000 3.255000
v -4.134350 -2.660000 3.134350
v -4.180312 -0.300000 3.180312
v -4.190000 -2.660000 3.000000
v -4.255000 -0.300000 3.000000
v -4.134350 -2.660000 2.865650
v -4.180312 -0.300000 2.819688
v -4.000000 -2.700000 2.808000
v -4.000000 -2.550000 2.805000
v -3.864235 -2.700000 2.864235
v -3.862114 -2.550000 2.862114
v -3.808000 -2.700000 3.000000
v -3.805000 -2.550000 3.000000
v -3.864235 -2.700000 3.135765
v -3.862114 -2.550000 3.137886
v -4.000000 -2.700000 3.192000
v -4.000000 -2.550000 3.195000
v -4.135765 -2.700000 3.135765
v -4.137886 -2.550000 3.137886
v -4.192000 -2.700000 3.000000
v -4.195000 -2.550000 3.000000
v -4.135765 -2.700000 2.864235
v -4.137886 -2.550000 2.862114
v 4.000000 -2.660000 -3.190000
v 4.000000 -0.300000 -3.255000
v 4.134350 -2.660000 -3.134350
v 4.180312 -0.300000 -3.180312
v 4.190000 -2.660000 -3.000000
v 4.255000 -0.300000 -3.000000
v 4.134350 -2.660000 -2.865650
v 4.180312 -0.300000 -2.819688
v 4.000000 -2.660000 -2.810000
v 4.000000 -0.300000 -2.745000
v 3.865650 -2.660000 -2.865650
v 3.819688 -0.300000 -2.819688
v 3.810000 -2.660000 -3.000000
v 3.745000 -0.300000 -3.000000
v 3.865650 -2.660000 -3.134350
v 3.819688 -0.300000 -3.180312
v 4.000000 -2.700000 -3.192000
v 4.000000 -2.550000 -3.195000
v 4.135765 -2.700000 -3.135765
v 4.137886 -2.550000 -3.137886
v 4.192000 -2.700000 -3.000000
v 4.195000 -2.550000 -3.000000
v 4.135765 -2.700000 -2.864235
v 4.137886 -2.550000 -2.862114
v 4.000000 -2.700000 -2.808000
v 4.000000 -2.550000 -2.805000
v 3.864235 -2.700000 -2.864235
v 3.862114 -2.550000 -2.862114
v 3.808000 -2.700000 -3.000000
v 3.805000 -2.550000 -3.000000
v 3.864235 -2.700000 -3.135765
v 3.862114 -2.550000 -3.137886
v 4.000000 -2.660000 2.810000
v 4.000000 -0.300000 2.745000
v 4.134350 -2.660000 2.865650
v 4.180312 -0.300000 2.819688
v 4.190000 -2.660000 3.000000
v 4.255000 -0.300000 3.000000
v 4.134350 -2.660000 3.134350
v 4.180312 -0.300000 3.180312
v 4.000000 -2.660000 3.190000
v 4.000000 -0.300000 3.255000
v 3.865650 -2.660000 3.134350
v 3.819688 -0.300000 3.180312
v 3.810000 -2.660000 3.000000
v 3.745000 -0.300000 3.000000
v 3.865650 -2.660000 2.865650
v 3.819688 -0.300000 2.819688
v 4.000000 -2.700000 2.808000
v 4.000000 -2.550000 2.805000
v 4.135765 -2.700000 2.864235
v 4.137886 -2.550000 2.862114
v 4.192000 -2.700000 3.000000
v 4.195000 -2.550000 3.000000
v 4.135765 -2.700000 3.135765
v 4.137886 -2.550000 3.137886
v 4.000000 -2.700000 3.192000
v 4.000000 -2.550000 3.195000
v 3.864235 -2.700000 3.135765
v 3.862114 -2.550000 3.137886
v 3.808000 -2.700000 3.000000
v 3.805000 -2.550000 3.000000
v 3.864235 -2.700000 2.864235
v 3.862114 -2.550000 2.862114
v -3.790000 -0.730000 -2.925000
v -3.790000 -0.695000 -2.890000
v -3.825000 -0.695000 -2.925000
v -3.790000 -0.719749 -2.900251
v -3.810207 -0.715207 -2.904793
v -3.814749 -0.695000 -2.900251
v -3.814749 -0.719749 -2.925000
v -3.790000 -0.345000 -2.890000
v -3.790000 -0.310000 -2.925000
v -3.825000 -0.345000 -2.925000
v -3.790000 -0.320251 -2.900251
v -3.810207 -0.324793 -2.904793
v -3.814749 -0.320251 -2.925000
v -3.814749 -0.345000 -2.900251
v -3.790000 -0.730000 -3.075000
v -3.825000 -0.695000 -3.075000
v -3.790000 -0.695000 -3.110000
v -3.814749 -0.719749 -3.075000
v -3.810207 -0.715207 -3.095207
v -3.814749 -0.695000 -3.099749
v -3.790000 -0.719749 -3.099749
v -3.790000 -0.310000 -3.075000
v -3.790000 -0.345000 -3.110000
v -3.825000 -0.345000 -3.075000
v -3.790000 -0.320251 -3.099749
v -3.810207 -0.324793 -3.095207
v -3.814749 -0.345000 -3.099749
v -3.814749 -0.320251 -3.075000
v 3.790000 -0.730000 -2.925000
v 3.825000 -0.695000 -2.925000
v 3.790000 -0.695000 -2.890000
v 3.814749 -0.719749 -2.925000
v 3.810207 -0.715207 -2.904793
v 3.814749 -0.695000 -2.900251
v 3.790000 -0.719749 -2.900251
v 3.790000 -0.310000 -2.925000
v 3.790000 -0.345000 -2.890000
v 3.825000 -0.345000 -2.925000
v 3.790000 -0.320251 -2.900251
v 3.810207 -0.324793 -2.904793
v 3.814749 -0.345000 -2.900251
v 3.814749 -0.320251 -2.925000
v 3.790000 -0.730000 -3.075000
v 3.790000 -0.695000 -3.110000
v 3.825000 -0.695000 -3.075000
v 3.790000 -0.719749 -3.099749
v 3.810207 -0.715207 -3.095207
v 3.814749 -0.695000 -3.099749
v 3.814749 -0.719749 -3.075000
v 3.790000 -0.310000 -3.075000
v 3.825000 -0.345000 -3.075000
v 3.790000 -0.345000 -3.110000
v 3.814749 -0.320251 -3.075000
v 3.810207 -0.324793 -3.095207
v 3.814749 -0.345000 -3.099749
v 3.790000 -0.320251 -3.099749
v -3.790000 -0.730000 3.075000
v -3.790000 -0.695000 3.110000
v -3.825000 -0.695000 3.075000
v -3.790000 -0.719749 3.099749
v -3.810207 -0.715207 3.095207
v -3.814749 -0.695000 3.099749
v -3.814749 -0.719749 3.075000
v -3.790000 -0.345000 3.110000
v -3.790000 -0.310000 3.075000
v -3.825000 -0.345000 3.075000
v -3.790000 -0.320251 3.099749
v -3.810207 -0.324793 3.095207
v -3.814749 -0.320251 3.075000
v -3.814749 -0.345000 3.099749
v -3.790000 -0.730000 2.925000
v -3.825000 -0.695000 2.925000
v -3.790000 -0.695000 2.890000
v -3.814749 -0.719749 2.925000
v -3.810207 -0.715207 2.904793
v -3.814749 -0.695000 2.900251
v -3.790000 -0.719749 2.900251
v -3.790000 -0.310000 2.925000
v -3.790000 -0.345000 2.890000
v -3.825000 -0.345000 2.925000
v -3.790000 -0.320251 2.900251
v -3.810207 -0.324793 2.904793
v -3.814749 -0.345000 2.900251
v -3.814749 -0.320251 2.925000
v 3.790000 -0.730000 3.075000
v 3.825000 -0.695000 3.075000
v 3.790000 -0.695000 3.110000
v 3.814749 -0.719749 3.075000
v 3.810207 -0.715207 3.095207
v 3.814749 -0.695000 3.099749
v 3.790000 -0.719749 3.099749
v 3.790000 -0.310000 3.075000
v 3.790000 -0.345000 3.110000
v 3.825000 -0.345000 3.075000
v 3.790000 -0.320251 3.099749
v 3.810207 -0.324793 3.095207
v 3.814749 -0.345000 3.099749
v 3.814749 -0.320251 3.075000
v 3.790000 -0.730000 2.925000
v 3.790000 -0.695000 2.890000
v 3.825000 -0.695000 2.925000
v 3.790000 -0.719749 2.900251
v 3.810207 -0.715207 2.904793
v 3.814749 -0.695000 2.900251
v 3.814749 -0.719749 2.925000
v 3.790000 -0.310000 2.925000
v 3.825000 -0.345000 2.925000
v 3.790000 -0.345000 2.890000
v 3.814749 -0.320251 2.925000
v 3.810207 -0.324793 2.904793
v 3.814749 -0.345000 2.900251
v 3.790000 -0.320251 2.900251
v -4.075000 -0.730000 2.865000
v -4.075000 -0.695000 2.900000
v -4.110000 -0.695000 2.865000
v -4.075000 -0.719749 2.889749
v -4.095207 -0.715207 2.885207
v -4.099749 -0.695000 2.889749
v -4.099749 -0.719749 2.865000
v -4.075000 -0.345000 2.900000
v -4.075000 -0.310000 2.865000
v -4.110000 -0.345000 2.865000
v -4.075000 -0.320251 2.889749
v -4.095207 -0.324793 2.885207
v -4.099749 -0.320251 2.865000
v -4.099749 -0.345000 2.889749
v -4.075000 -0.730000 -2.865000
v -4.110000 -0.695000 -2.865000
v -4.075000 -0.695000 -2.900000
v -4.099749 -0.719749 -2.865000
v -4.095207 -0.715207 -2.885207
v -4.099749 -0.695000 -2.889749
v -4.075000 -0.719749 -2.889749
v -4.075000 -0.310000 -2.865000
v -4.075000 -0.345000 -2.900000
v -4.110000 -0.345000 -2.865000
v -4.075000 -0.320251 -2.889749
v -4.095207 -0.324793 -2.885207
v -4.099749 -0.345000 -2.889749
v -4.099749 -0.320251 -2.865000
v -3.925000 -0.730000 2.865000
v -3.890000 -0.695000 2.865000
v -3.925000 -0.695000 2.900000
v -3.900251 -0.719749 2.865000
v -3.904793 -0.715207 2.885207
v -3.900251 -0.695000 2.889749
v -3.925000 -0.719749 2.889749
v -3.925000 -0.310000 2.865000
v -3.925000 -0.345000 2.900000
v -3.890000 -0.345000 2.865000
v -3.925000 -0.320251 2.889749
v -3.904793 -0.324793 2.885207
v -3.900251 -0.345000 2.889749
v -3.900251 -0.320251 2.865000
v -3.925000 -0.730000 -2.865000
v -3.925000 -0.695000 -2.900000
v -3.890000 -0.695000 -2.865000
v -3.925000 -0.719749 -2.889749
v -3.904793 -0.715207 -2.885207
v -3.900251 -0.695000 -2.889749
v -3.900251 -0.719749 -2.865000
v -3.925000 -0.310000 -2.865000
v -3.890000 -0.345000 -2.865000
v -3.925000 -0.345000 -2.900000
v -3.900251 -0.320251 -2.865000
v -3.904793 -0.324793 -2.885207
v -3.900251 -0.345000 -2.889749
v -3.925000 -0.320251 -2.889749
v 3.925000 -0.730000 2.865000
v 3.925000 -0.695000 2.900000
v 3.890000 -0.695000 2.865000
v 3.925000 -0.719749 2.889749
v 3.904793 -0.715207 2.885207
v 3.900251 -0.695000 2.889749
v 3.900251 -0.719749 2.865000
v 3.925000 -0.345000 2.900000
v 3.925000 -0.310000 2.865000
v 3.890000 -0.345000 2.865000
v 3.925000 -0.320251 2.889749
v 3.904793 -0.324793 2.885207
v 3.900251 -0.320251 2.865000
v 3.900251 -0.345000 2.889749
v 3.925000 -0.730000 -2.865000
v 3.890000 -0.695000 -2.865000
v 3.925000 -0.695000 -2.900000
v 3.900251 -0.719749 -2.865000
v 3.904793 -0.715207 -2.885207
v 3.900251 -0.695000 -2.889749
v 3.925000 -0.719749 -2.889749
v 3.925000 -0.310000 -2.865000
v 3.925000 -0.345000 -2.900000
v 3.890000 -0.345000 -2.865000
v 3.925000 -0.320251 -2.889749
v 3.904793 -0.324793 -2.885207
v 3.900251 -0.345000 -2.889749
v 3.900251 -0.320251 -2.865000
v 4.075000 -0.730000 2.865000
v 4.110000 -0.695000 2.865000
v 4.075000 -0.695000 2.900000
v 4.099749 -0.719749 2.865000
v 4.095207 -0.715207 2.885207
v 4.099749 -0.695000 2.889749
v 4.075000 -0.719749 2.889749
v 4.075000 -0.310000 2.865000
v 4.075000 -0.345000 2.900000
v 4.110000 -0.345000 2.865000
v 4.075000 -0.320251 2.889749
v 4.095207 -0.324793 2.885207
v 4.099749 -0.345000 2.889749
v 4.099749 -0.320251 2.865000
v 4.075000 -0.730000 -2.865000
v 4.075000 -0.695000 -2.900000
v 4.110000 -0.695000 -2.865000
v 4.075000 -0.719749 -2.889749
v 4.095207 -0.715207 -2.885207
v 4.099749 -0.695000 -2.889749
v 4.099749 -0.719749 -2.865000
v 4.075000 -0.310000 -2.865000
v 4.110000 -0.345000 -2.865000
v 4.075000 -0.345000 -2.900000
v 4.099749 -0.320251 -2.865000
v 4.095207 -0.324793 -2.885207
v 4.099749 -0.345000 -2.889749
v 4.075000 -0.320251 -2.889749
vn -0.3672 -0.8865 0.2817
vn -0.2817 -0.3672 0.8865
vn -0.8865 -0.2817 0.3672
vn -0.3672 0.2817 0.8865
vn -0.2817 0.8865 0.3672
vn -0.8865 0.3672 0.2818
vn -0.2817 -0.8865 -0.3672
vn -0.8865 -0.3672 -0.2818
vn -0.3672 -0.2817 -0.8865
vn -0.3672 0.8865 -0.2817
vn -0.2817 0.3672 -0.8865
vn -0.8865 0.2817 -0.3672
vn 0.2817 -0.8865 0.3672
vn 0.8865 -0.3672 0.2818
vn 0.3672 -0.2817 0.8865
vn 0.3672 0.8865 0.2817
vn 0.2817 0.3672 0.8865
vn 0.8865 0.2817 0.3672
vn 0.3672 -0.8865 -0.2817
vn 0.2817 -0.3672 -0.8865
vn 0.8865 -0.2817 -0.3672
vn 0.2817 0.8865 -0.3672
vn 0.8865 0.3672 -0.2818
vn 0.3672 0.2817 -0.8865
vn -0.3827 -0.9239 -0.0000
vn -0.9239 -0.3827 -0.0000
vn -0.3827 -0.0000 0.9239
vn -0.9239 -0.0000 0.3827
vn -0.3827 0.9239 -0.0000
vn -0.9239 0.3827 -0.0000
vn -0.3827 -0.0000 -0.9239
vn -0.9239 -0.0000 -0.3827
vn -0.0000 -0.9239 -0.3827
vn -0.0000 -0.3827 -0.9239
vn -0.0000 0.9239 -0.3827
vn -0.0000 0.3827 -0.9239
vn 0.9239 -0.0000 -0.3827
vn 0.3827 -0.0000 -0.9239
vn 0.3827 -0.9239 -0.0000
vn 0.9239 -0.3827 -0.0000
vn 0.3827 0.9239 -0.0000
vn 0.9239 0.3827 -0.0000
vn 0.3827 -0.0000 0.9239
vn 0.9239 -0.0000 0.3827
vn -0.0000 -0.9239 0.3827
vn -0.0000 -0.3827 0.9239
vn -0.0000 0.9239 0.3827
vn -0.0000 0.3827 0.9239
vn -0.0000 -1.0000 -0.0000
vn -1.0000 -0.0000 -0.0000
vn -0.0000 -0.0000 1.0000
vn -0.0000 1.0000 -0.0000
vn -0.0000 -0.0000 -1.0000
vn 1.0000 -0.0000 -0.0000
vn -0.2817 -0.3672 0.8864
vn -0.2818 0.8864 0.3672
vn -0.8864 0.3672 0.2817
vn -0.2817 -0.8864 -0.3672
vn -0.8864 -0.3672 -0.2817
vn -0.2817 0.3672 -0.8864
vn 0.2817 -0.8864 0.3672
vn 0.8864 -0.3672 0.2817
vn 0.2817 0.3672 0.8864
vn 0.2817 -0.3672 -0.8864
vn 0.2818 0.8864 -0.3672
vn 0.8864 0.3672 -0.2817
vn 0.3826 -0.0254 -0.9236
vn 0.9236 -0.0254 -0.3826
vn 0.9236 -0.0254 0.3826
vn 0.3826 -0.0254 0.9236
vn -0.3826 -0.0254 0.9236
vn -0.9236 -0.0254 0.3826
vn -0.9236 -0.0254 -0.3826
vn -0.3826 -0.0254 -0.9236
vn 0.3826 -0.0185 -0.9237
vn 0.9237 -0.0185 -0.3826
vn 0.9237 -0.0185 0.3826
vn 0.3826 -0.0185 0.9237
vn -0.3826 -0.0185 0.9237
vn -0.9237 -0.0185 0.3826
vn -0.9237 -0.0185 -0.3826
vn -0.3826 -0.0185 -0.9237
vn -0.3672 -0.8864 0.2818
vn -0.8865 0.3672 0.2817
vn -0.3672 0.8864 -0.2818
vn -0.8864 0.2817 -0.3672
vn 0.8864 -0.3672 0.2818
vn 0.3672 0.8864 0.2818
vn 0.8864 0.2817 0.3672
vn 0.3672 -0.8864 -0.2818
vn 0.8865 0.3672 -0.2817
vn -0.8864 -0.3672 -0.2818
vn -0.8864 -0.2817 0.3672
vn -0.8864 0.3672 0.2818
vn -0.2818 -0.8865 -0.3672
vn -0.3672 -0.2818 -0.8864
vn 0.2818 -0.8865 0.3672
vn 0.8864 0.3672 -0.2818
vn 0.3672 -0.2818 0.8864
vn 0.8864 -0.2817 -0.3672
vn -0.2817 -0.8865 0.3672
vn -0.3672 -0.2817 0.8865
vn -0.8865 -0.3672 0.2818
vn -0.2817 0.3672 0.8865
vn -0.3672 0.8865 0.2817
vn -0.8865 0.2817 0.3672
vn -0.3672 -0.8865 -0.2817
vn -0.8865 -0.2817 -0.3672
vn -0.2817 -0.3672 -0.8865
vn -0.2817 0.8865 -0.3672
vn -0.3672 0.2817 -0.8865
vn -0.8865 0.3672 -0.2818
vn 0.3672 -0.8865 0.2817
vn 0.8865 -0.2817 0.3672
vn 0.2817 -0.3672 0.8865
vn 0.2817 0.8865 0.3672
vn 0.3672 0.2817 0.8865
vn 0.8865 0.3672 0.2818
vn 0.2817 -0.8865 -0.3672
vn 0.3672 -0.2817 -0.8865
vn 0.8865 -0.3672 -0.2818
vn 0.3672 0.8865 -0.2817
vn 0.8865 0.2817 -0.3672
vn 0.2817 0.3672 -0.8865
vn -0.2817 -0.8864 0.3672
vn -0.8864 -0.3672 0.2817
vn -0.2817 0.3672 0.8864
vn -0.2817 -0.3672 -0.8864
vn -0.2818 0.8864 -0.3672
vn -0.8864 0.3672 -0.2817
vn 0.2817 -0.3672 0.8864
vn 0.2818 0.8864 0.3672
vn 0.8864 0.3672 0.2817
vn 0.2817 -0.8864 -0.3672
vn 0.8864 -0.3672 -0.2817
vn 0.2817 0.3672 -0.8864
vn -0.8864 -0.3672 0.2818
vn -0.3672 0.8864 0.2818
vn -0.8864 0.2817 0.3672
vn -0.3672 -0.8864 -0.2818
vn -0.8865 0.3672 -0.2817
vn 0.3672 -0.8864 0.2818
vn 0.8865 0.3672 0.2817
vn 0.3672 0.8864 -0.2818
vn 0.8864 0.2817 -0.3672
vn 0.8864 -0.3672 -0.2818
vn -0.2818 -0.8865 0.3672
vn -0.3672 -0.2818 0.8864
vn -0.8864 -0.2817 -0.3672
vn -0.8864 0.3672 -0.2818
vn 0.8864 0.3672 0.2818
vn 0.2818 -0.8865 -0.3672
vn 0.8864 -0.2817 0.3672
vn 0.3672 -0.2818 -0.8864
vt 0.011813 0.011813
vt 0.008516 0.008516
vt 0.011813 0.007774
vt 0.743374 0.418671
vt 0.740065 0.421354
vt 0.739327 0.418303
vt 0.674706 0.452694
vt 0.671397 0.448946
vt 0.674698 0.448384
vt 0.760509 0.418654
vt 0.763796 0.421331
vt 0.760502 0.422221
vt 0.357209 0.428780
vt 0.353911 0.432078
vt 0.353170 0.428780
vt 0.691841 0.452677
vt 0.695128 0.448923
vt 0.695873 0.452302
vt 0.333582 0.011813
vt 0.336880 0.008516
vt 0.337621 0.011813
vt 0.674706 0.766440
vt 0.671397 0.769123
vt 0.670659 0.766072
vt 0.719731 0.428780
vt 0.723042 0.432078
vt 0.719740 0.432819
vt 0.678978 0.428780
vt 0.682276 0.432078
vt 0.678978 0.432819
vt 0.702595 0.428780
vt 0.699311 0.432078
vt 0.698566 0.428780
vt 0.691841 0.766423
vt 0.695128 0.769100
vt 0.691834 0.769990
vt 0.011813 0.428780
vt 0.008516 0.432078
vt 0.007774 0.428780
vt 0.760493 0.441825
vt 0.763803 0.438527
vt 0.764541 0.441825
vt 0.743374 0.012100
vt 0.740065 0.008352
vt 0.743366 0.007791
vt 0.357209 0.011813
vt 0.353911 0.008516
vt 0.357209 0.007774
vt 0.760509 0.012084
vt 0.763796 0.008329
vt 0.764541 0.011709
vt 0.743357 0.441825
vt 0.740073 0.438527
vt 0.743366 0.437786
vt 0.333582 0.428780
vt 0.336880 0.432078
vt 0.333582 0.432819
vt 0.719731 0.011813
vt 0.723042 0.008516
vt 0.723779 0.011813
vt 0.760493 0.763594
vt 0.763803 0.766892
vt 0.760502 0.767633
vt 0.678978 0.011813
vt 0.682276 0.008516
vt 0.683017 0.011813
vt 0.743357 0.763594
vt 0.740073 0.766892
vt 0.739327 0.763594
vt 0.702595 0.011813
vt 0.699311 0.008516
vt 0.702604 0.007774
vt 0.333582 0.007774
vt 0.670659 0.452326
vt 0.743366 0.422237
vt 0.691834 0.448368
vt 0.357209 0.432819
vt 0.695873 0.766048
vt 0.702604 0.432819
vt 0.674698 0.770007
vt 0.337621 0.428780
vt 0.723779 0.428780
vt 0.683017 0.428780
vt 0.698566 0.011813
vt 0.743366 0.767633
vt 0.719740 0.007774
vt 0.011813 0.432819
vt 0.764541 0.763594
vt 0.678978 0.007774
vt 0.739328 0.441825
vt 0.760502 0.007774
vt 0.760502 0.437786
vt 0.007774 0.011813
vt 0.739327 0.011733
vt 0.353170 0.011813
vt 0.764541 0.418279
vt 0.009121 0.449714
vt 0.008021 0.448615
vt 0.009121 0.448368
vt 0.944740 0.834069
vt 0.943637 0.834963
vt 0.943391 0.833946
vt 0.989454 0.340655
vt 0.988351 0.339405
vt 0.989451 0.339218
vt 0.946168 0.834067
vt 0.947263 0.834960
vt 0.946165 0.835256
vt 0.340563 0.858113
vt 0.339464 0.859213
vt 0.339217 0.858113
vt 0.990882 0.340653
vt 0.991978 0.339402
vt 0.992226 0.340528
vt 0.322322 0.449714
vt 0.323421 0.448615
vt 0.323668 0.449714
vt 0.989454 0.646047
vt 0.988351 0.646941
vt 0.988105 0.645924
vt 0.946162 0.417520
vt 0.947266 0.418619
vt 0.946165 0.418866
vt 0.653764 0.858113
vt 0.654864 0.859213
vt 0.653764 0.859460
vt 0.944734 0.417520
vt 0.943639 0.418619
vt 0.943391 0.417520
vt 0.990882 0.646045
vt 0.991978 0.646937
vt 0.990879 0.647234
vt 0.009121 0.858113
vt 0.008021 0.859213
vt 0.007774 0.858113
vt 0.990876 0.009121
vt 0.991980 0.008021
vt 0.992226 0.009121
vt 0.944740 0.435853
vt 0.943637 0.434603
vt 0.944737 0.434416
vt 0.340563 0.449714
vt 0.339464 0.448615
vt 0.340563 0.448368
vt 0.946168 0.435851
vt 0.947263 0.434600
vt 0.947512 0.435726
vt 0.989448 0.009121
vt 0.988353 0.008021
vt 0.989451 0.007774
vt 0.322322 0.858113
vt 0.323421 0.859213
vt 0.322322 0.859460
vt 0.946162 0.009121
vt 0.947266 0.008021
vt 0.947512 0.009121
vt 0.990876 0.322322
vt 0.991980 0.323421
vt 0.990879 0.323668
vt 0.653764 0.449714
vt 0.654864 0.448615
vt 0.655111 0.449714
vt 0.989448 0.322322
vt 0.988353 0.323421
vt 0.988105 0.322322
vt 0.944734 0.009121
vt 0.943639 0.008021
vt 0.944737 0.007774
vt 0.322322 0.448368
vt 0.988105 0.340532
vt 0.944737 0.835258
vt 0.990879 0.339217
vt 0.340563 0.859460
vt 0.992226 0.645920
vt 0.944737 0.418866
vt 0.989451 0.647236
vt 0.323668 0.858113
vt 0.947512 0.417520
vt 0.655111 0.858113
vt 0.943391 0.009121
vt 0.989451 0.323668
vt 0.946165 0.007774
vt 0.009121 0.859460
vt 0.992226 0.322322
vt 0.653764 0.448368
vt 0.988105 0.009121
vt 0.946165 0.434415
vt 0.990879 0.007774
vt 0.007774 0.449714
vt 0.943391 0.435730
vt 0.339217 0.449714
vt 0.947512 0.833942
vt 0.823236 0.747106
vt 0.829631 0.859470
vt 0.823236 0.859455
vt 0.930346 0.850826
vt 0.938929 0.963155
vt 0.932534 0.963170
vt 0.938929 0.850807
vt 0.945324 0.963170
vt 0.169633 0.875024
vt 0.178212 0.987354
vt 0.171388 0.987366
vt 0.178791 0.875008
vt 0.183859 0.987366
vt 0.040489 0.875024
vt 0.049067 0.987354
vt 0.042244 0.987366
vt 0.374730 0.881577
vt 0.390589 0.875008
vt 0.397158 0.890867
vt 0.049646 0.875008
vt 0.054715 0.987366
vt 0.814654 0.747126
vt 0.816841 0.859470
vt 0.586375 0.907444
vt 0.598191 0.912338
vt 0.593297 0.924155
vt 0.646366 0.881572
vt 0.653492 0.888135
vt 0.646351 0.888034
vt 0.378238 0.912985
vt 0.371112 0.919548
vt 0.371097 0.913086
vt 0.378238 0.926111
vt 0.371097 0.926010
vt 0.653492 0.932359
vt 0.646363 0.939337
vt 0.646351 0.932442
vt 0.653503 0.939362
vt 0.646351 0.945044
vt 0.565657 0.936383
vt 0.558528 0.943361
vt 0.558516 0.936466
vt 0.455706 0.892159
vt 0.450683 0.880032
vt 0.462810 0.875008
vt 0.565657 0.949182
vt 0.558516 0.949068
vt 0.646351 0.875109
vt 0.653507 0.881572
vt 0.593421 0.875008
vt 0.598367 0.886949
vt 0.586426 0.891895
vt 0.788672 0.765184
vt 0.795067 0.877548
vt 0.788672 0.877533
vt 0.849218 0.872891
vt 0.857801 0.985220
vt 0.851406 0.985235
vt 0.857801 0.872872
vt 0.864196 0.985235
vt 0.072775 0.875024
vt 0.081353 0.987354
vt 0.074530 0.987366
vt 0.081932 0.875008
vt 0.087001 0.987366
vt 0.201919 0.875024
vt 0.210498 0.987354
vt 0.203675 0.987366
vt 0.305347 0.875008
vt 0.321205 0.881577
vt 0.314636 0.897436
vt 0.211077 0.875008
vt 0.216146 0.987366
vt 0.780089 0.765204
vt 0.782277 0.877548
vt 0.625732 0.907444
vt 0.630627 0.919260
vt 0.618810 0.924155
vt 0.653507 0.910247
vt 0.646351 0.916709
vt 0.646366 0.910247
vt 0.400942 0.912985
vt 0.393816 0.919548
vt 0.393801 0.913086
vt 0.400956 0.919548
vt 0.393801 0.926010
vt 0.787230 0.925532
vt 0.780101 0.932510
vt 0.780089 0.925615
vt 0.787241 0.932535
vt 0.780089 0.938217
vt 0.457823 0.939967
vt 0.450695 0.946945
vt 0.450683 0.940050
vt 0.488406 0.875008
vt 0.500533 0.880032
vt 0.495510 0.892159
vt 0.457823 0.952766
vt 0.450683 0.952652
vt 0.646351 0.903785
vt 0.625857 0.875008
vt 0.630803 0.886949
vt 0.618862 0.891895
vt 0.747910 0.783182
vt 0.754305 0.895545
vt 0.747910 0.895531
vt 0.007774 0.875028
vt 0.016357 0.987357
vt 0.009962 0.987372
vt 0.016357 0.875008
vt 0.022752 0.987372
vt 0.105061 0.875024
vt 0.113639 0.987354
vt 0.106816 0.987366
vt 0.114218 0.875008
vt 0.119287 0.987366
vt 0.137347 0.875024
vt 0.145926 0.987354
vt 0.139102 0.987366
vt 0.343323 0.875008
vt 0.359182 0.881577
vt 0.352613 0.897436
vt 0.146505 0.875008
vt 0.151573 0.987366
vt 0.739327 0.783201
vt 0.741515 0.895545
vt 0.826470 0.907454
vt 0.831364 0.919270
vt 0.819548 0.924165
vt 0.423660 0.919548
vt 0.416505 0.926010
vt 0.416520 0.919548
vt 0.565657 0.907708
vt 0.558531 0.914271
vt 0.558516 0.907809
vt 0.565657 0.920834
vt 0.558516 0.920733
vt 0.581480 0.939786
vt 0.588632 0.946706
vt 0.581492 0.946681
vt 0.581480 0.952389
vt 0.611321 0.939703
vt 0.604193 0.946681
vt 0.604181 0.939786
vt 0.521105 0.875008
vt 0.533232 0.880032
vt 0.528209 0.892159
vt 0.611333 0.946706
vt 0.604181 0.952389
vt 0.423646 0.912985
vt 0.416505 0.913086
vt 0.826594 0.875018
vt 0.831540 0.886959
vt 0.819600 0.891905
vt 0.679242 0.785555
vt 0.685637 0.897919
vt 0.679242 0.897904
vt 0.703752 0.827092
vt 0.712335 0.939422
vt 0.705940 0.939436
vt 0.712335 0.827073
vt 0.718730 0.939436
vt 0.234205 0.875024
vt 0.242784 0.987354
vt 0.235961 0.987366
vt 0.243363 0.875008
vt 0.248432 0.987366
vt 0.266492 0.875024
vt 0.275070 0.987354
vt 0.268247 0.987366
vt 0.412707 0.881577
vt 0.428566 0.875008
vt 0.435134 0.890867
vt 0.275649 0.875008
vt 0.280718 0.987366
vt 0.670660 0.785575
vt 0.672847 0.897919
vt 0.455578 0.907708
vt 0.467394 0.912602
vt 0.462499 0.924419
vt 0.677815 0.920031
vt 0.670659 0.926493
vt 0.670674 0.920031
vt 0.355534 0.912985
vt 0.348408 0.919548
vt 0.348393 0.913086
vt 0.355534 0.926111
vt 0.348393 0.926010
vt 0.814654 0.939796
vt 0.821806 0.946716
vt 0.814665 0.946691
vt 0.821794 0.952513
vt 0.814654 0.952399
vt 0.355534 0.941660
vt 0.348405 0.948638
vt 0.348393 0.941743
vt 0.553804 0.892159
vt 0.548781 0.880032
vt 0.560908 0.875008
vt 0.355534 0.954459
vt 0.348393 0.954345
vt 0.677800 0.913468
vt 0.670659 0.913568
vt 0.792030 0.893096
vt 0.796976 0.905037
vt 0.785035 0.909983
vt 0.712600 0.449546
vt 0.711638 0.448584
vt 0.712600 0.448368
vt 0.815834 0.360851
vt 0.814869 0.361634
vt 0.814654 0.360744
vt 0.919603 0.817584
vt 0.918509 0.818548
vt 0.918346 0.817585
vt 0.832493 0.360835
vt 0.833452 0.361616
vt 0.832491 0.361876
vt 0.919524 0.369753
vt 0.918563 0.370714
vt 0.918346 0.369753
vt 0.919603 0.800924
vt 0.918509 0.799964
vt 0.919495 0.799748
vt 0.719739 0.449546
vt 0.720701 0.448584
vt 0.720917 0.449546
vt 0.926565 0.817591
vt 0.927347 0.818556
vt 0.926457 0.818771
vt 0.797924 0.369753
vt 0.798890 0.370714
vt 0.797927 0.370931
vt 0.926664 0.369753
vt 0.927626 0.370714
vt 0.926664 0.370931
vt 0.781265 0.369753
vt 0.780307 0.370714
vt 0.780089 0.369753
vt 0.926565 0.800931
vt 0.927347 0.799973
vt 0.927606 0.800934
vt 0.712600 0.810346
vt 0.711638 0.811308
vt 0.711421 0.810346
vt 0.491700 0.925542
vt 0.492662 0.926508
vt 0.491700 0.926723
vt 0.815834 0.009047
vt 0.814869 0.007954
vt 0.815832 0.007790
vt 0.919524 0.008952
vt 0.918563 0.007991
vt 0.919524 0.007774
vt 0.832493 0.009031
vt 0.833452 0.007936
vt 0.833669 0.008922
vt 0.491700 0.908883
vt 0.492662 0.907925
vt 0.492878 0.908886
vt 0.719739 0.810346
vt 0.720701 0.811308
vt 0.719739 0.811524
vt 0.797924 0.008952
vt 0.798890 0.007991
vt 0.799105 0.008952
vt 0.484560 0.925542
vt 0.483599 0.926508
vt 0.483382 0.925545
vt 0.926664 0.008952
vt 0.927626 0.007991
vt 0.927842 0.008952
vt 0.484560 0.908883
vt 0.483599 0.907925
vt 0.484560 0.907708
vt 0.781265 0.008952
vt 0.780307 0.007991
vt 0.781268 0.007774
vt 0.719739 0.448368
vt 0.919495 0.818764
vt 0.815832 0.361892
vt 0.918346 0.800925
vt 0.919524 0.370931
vt 0.926457 0.799755
vt 0.781267 0.370931
vt 0.927606 0.817594
vt 0.720917 0.810346
vt 0.799105 0.369753
vt 0.927842 0.369753
vt 0.780089 0.008952
vt 0.483382 0.908886
vt 0.797927 0.007774
vt 0.712600 0.811524
vt 0.484560 0.926723
vt 0.926664 0.007774
vt 0.491700 0.907708
vt 0.832491 0.007774
vt 0.492878 0.925545
vt 0.711422 0.449546
vt 0.814654 0.008940
vt 0.918346 0.008952
vt 0.833669 0.360726
vt 0.894480 0.292756
vt 0.893518 0.291794
vt 0.894480 0.291578
vt 0.815834 0.730517
vt 0.814869 0.731300
vt 0.814654 0.730410
vt 0.740584 0.928929
vt 0.739490 0.929893
vt 0.739327 0.928930
vt 0.832493 0.730501
vt 0.833452 0.731282
vt 0.832491 0.731542
vt 0.919524 0.748457
vt 0.918563 0.749419
vt 0.918346 0.748457
vt 0.740584 0.912270
vt 0.739490 0.911310
vt 0.740476 0.911094
vt 0.901620 0.292756
vt 0.902582 0.291794
vt 0.902798 0.292756
vt 0.747546 0.928936
vt 0.748328 0.929902
vt 0.747438 0.930116
vt 0.797924 0.748457
vt 0.798890 0.749419
vt 0.797927 0.749635
vt 0.926664 0.748457
vt 0.927626 0.749419
vt 0.926664 0.749635
vt 0.781265 0.748457
vt 0.780307 0.749419
vt 0.780089 0.748457
vt 0.747546 0.912277
vt 0.748328 0.911319
vt 0.748587 0.912280
vt 0.894480 0.653556
vt 0.893518 0.654518
vt 0.893302 0.653556
vt 0.516745 0.925542
vt 0.517707 0.926508
vt 0.516745 0.926723
vt 0.815834 0.378713
vt 0.814869 0.377620
vt 0.815832 0.377456
vt 0.919524 0.387657
vt 0.918563 0.386695
vt 0.919524 0.386479
vt 0.832493 0.378697
vt 0.833452 0.377602
vt 0.833669 0.378588
vt 0.516745 0.908883
vt 0.517707 0.907925
vt 0.517923 0.908886
vt 0.901620 0.653556
vt 0.902581 0.654518
vt 0.901620 0.654734
vt 0.797924 0.387657
vt 0.798890 0.386696
vt 0.799105 0.387657
vt 0.509605 0.925542
vt 0.508643 0.926508
vt 0.508427 0.925545
vt 0.926664 0.387657
vt 0.927626 0.386695
vt 0.927842 0.387657
vt 0.509605 0.908883
vt 0.508643 0.907925
vt 0.509605 0.907708
vt 0.781265 0.387657
vt 0.780307 0.386696
vt 0.781268 0.386479
vt 0.901620 0.291578
vt 0.740476 0.930109
vt 0.815832 0.731558
vt 0.739327 0.912271
vt 0.919524 0.749635
vt 0.747438 0.911101
vt 0.781267 0.749635
vt 0.748587 0.928939
vt 0.902798 0.653556
vt 0.799105 0.748457
vt 0.927842 0.748457
vt 0.780089 0.387657
vt 0.508427 0.908886
vt 0.797927 0.386479
vt 0.894480 0.654734
vt 0.509605 0.926723
vt 0.926664 0.386479
vt 0.516745 0.907708
vt 0.832491 0.377440
vt 0.517923 0.925545
vt 0.893302 0.292756
vt 0.814654 0.378606
vt 0.918346 0.387657
vt 0.833669 0.730392
vt 0.901620 0.671461
vt 0.902582 0.670499
vt 0.902798 0.671461
vt 0.331804 0.930827
vt 0.332586 0.931792
vt 0.331696 0.932007
vt 0.850398 0.590341
vt 0.849433 0.589248
vt 0.850396 0.589084
vt 0.331804 0.914167
vt 0.332586 0.913209
vt 0.332845 0.914171
vt 0.964238 0.008952
vt 0.963277 0.007991
vt 0.964238 0.007774
vt 0.867058 0.590325
vt 0.868016 0.589230
vt 0.868233 0.590216
vt 0.901620 0.944203
vt 0.902582 0.945165
vt 0.901620 0.945381
vt 0.850398 0.856283
vt 0.849433 0.857065
vt 0.849218 0.856175
vt 0.534650 0.925542
vt 0.533688 0.926508
vt 0.533472 0.925545
vt 0.964238 0.281694
vt 0.963277 0.282656
vt 0.963060 0.281694
vt 0.534650 0.908883
vt 0.533688 0.907925
vt 0.534650 0.907708
vt 0.867058 0.856267
vt 0.868016 0.857047
vt 0.867055 0.857307
vt 0.894480 0.671461
vt 0.893518 0.670499
vt 0.894480 0.670283
vt 0.867053 0.008952
vt 0.868018 0.007991
vt 0.868233 0.008952
vt 0.324842 0.930820
vt 0.323748 0.931784
vt 0.323585 0.930821
vt 0.971378 0.008952
vt 0.972340 0.007991
vt 0.972556 0.008952
vt 0.324842 0.914161
vt 0.323748 0.913201
vt 0.324734 0.912985
vt 0.850393 0.008952
vt 0.849435 0.007991
vt 0.850396 0.007774
vt 0.894480 0.944203
vt 0.893518 0.945165
vt 0.893302 0.944203
vt 0.541790 0.925542
vt 0.542751 0.926508
vt 0.541790 0.926723
vt 0.867053 0.281694
vt 0.868018 0.282656
vt 0.867055 0.282872
vt 0.971378 0.281694
vt 0.972340 0.282656
vt 0.971378 0.282872
vt 0.850393 0.281694
vt 0.849435 0.282656
vt 0.849218 0.281694
vt 0.541790 0.908883
vt 0.542751 0.907925
vt 0.542968 0.908886
vt 0.902798 0.944203
vt 0.849218 0.590234
vt 0.332845 0.930830
vt 0.867055 0.589068
vt 0.963060 0.008952
vt 0.868233 0.856157
vt 0.533472 0.908886
vt 0.850396 0.857323
vt 0.894480 0.945381
vt 0.534650 0.926723
vt 0.964238 0.282872
vt 0.541790 0.907708
vt 0.850396 0.282872
vt 0.542968 0.925545
vt 0.893302 0.671461
vt 0.868233 0.281694
vt 0.972556 0.281694
vt 0.849218 0.008952
vt 0.323585 0.914162
vt 0.867055 0.007774
vt 0.901620 0.670283
vt 0.324734 0.932000
vt 0.971378 0.007774
vt 0.331696 0.912991
vt 0.971378 0.299599
vt 0.972340 0.298637
vt 0.972556 0.299599
vt 0.306996 0.930827
vt 0.307778 0.931792
vt 0.306888 0.932007
vt 0.884962 0.009047
vt 0.883997 0.007954
vt 0.884960 0.007790
vt 0.306996 0.914167
vt 0.307778 0.913209
vt 0.308037 0.914171
vt 0.964238 0.590246
vt 0.963277 0.589284
vt 0.964238 0.589068
vt 0.901622 0.009031
vt 0.902580 0.007936
vt 0.902798 0.008922
vt 0.971378 0.572341
vt 0.972340 0.573303
vt 0.971378 0.573519
vt 0.884962 0.274989
vt 0.883997 0.275771
vt 0.883782 0.274882
vt 0.919524 0.783019
vt 0.918563 0.783985
vt 0.918346 0.783022
vt 0.964238 0.862988
vt 0.963277 0.863950
vt 0.963060 0.862988
vt 0.919524 0.766360
vt 0.918563 0.765402
vt 0.919524 0.765184
vt 0.901622 0.274973
vt 0.902580 0.275753
vt 0.901620 0.276013
vt 0.964238 0.299599
vt 0.963277 0.298637
vt 0.964238 0.298421
vt 0.867053 0.299599
vt 0.868018 0.298637
vt 0.868233 0.299599
vt 0.300035 0.930820
vt 0.298940 0.931784
vt 0.298778 0.930821
vt 0.971378 0.590246
vt 0.972340 0.589284
vt 0.972556 0.590246
vt 0.300035 0.914161
vt 0.298940 0.913201
vt 0.299926 0.912985
vt 0.850393 0.299599
vt 0.849435 0.298637
vt 0.850396 0.298421
vt 0.964238 0.572341
vt 0.963277 0.573303
vt 0.963060 0.572341
vt 0.926664 0.783019
vt 0.927626 0.783985
vt 0.926664 0.784200
vt 0.867053 0.572341
vt 0.868018 0.573303
vt 0.867055 0.573519
vt 0.971378 0.862988
vt 0.972340 0.863950
vt 0.971378 0.864166
vt 0.850393 0.572341
vt 0.849435 0.573303
vt 0.849218 0.572341
vt 0.926664 0.766360
vt 0.927626 0.765402
vt 0.927842 0.766362
vt 0.972556 0.572341
vt 0.883782 0.008940
vt 0.308037 0.930830
vt 0.901620 0.007774
vt 0.963060 0.590246
vt 0.902798 0.274863
vt 0.918346 0.766362
vt 0.884960 0.276029
vt 0.964238 0.573519
vt 0.919524 0.784200
vt 0.964238 0.864166
vt 0.926664 0.765184
vt 0.850396 0.573519
vt 0.927842 0.783022
vt 0.963060 0.299599
vt 0.868233 0.572341
vt 0.972556 0.862988
vt 0.849218 0.299599
vt 0.298778 0.914162
vt 0.867055 0.298421
vt 0.971378 0.298421
vt 0.299926 0.932000
vt 0.971378 0.589068
vt 0.306888 0.912991
vt 0.831819 0.747126
vt 0.947512 0.850826
vt 0.186370 0.875024
vt 0.390589 0.897436
vt 0.381299 0.897436
vt 0.374730 0.890867
vt 0.381299 0.875008
vt 0.397158 0.881577
vt 0.057226 0.875024
vt 0.586375 0.924155
vt 0.581480 0.919260
vt 0.581480 0.912338
vt 0.593297 0.907444
vt 0.598191 0.919260
vt 0.378252 0.919548
vt 0.653492 0.945158
vt 0.565668 0.943386
vt 0.467834 0.880032
vt 0.467834 0.887136
vt 0.462810 0.892159
vt 0.450683 0.887136
vt 0.455706 0.875008
vt 0.653492 0.875008
vt 0.581480 0.886949
vt 0.581480 0.879954
vt 0.586426 0.875008
vt 0.598367 0.879954
vt 0.593421 0.891895
vt 0.797255 0.765204
vt 0.866383 0.872891
vt 0.089512 0.875024
vt 0.305347 0.897436
vt 0.298778 0.890867
vt 0.298778 0.881577
vt 0.314636 0.875008
vt 0.321205 0.890867
vt 0.218657 0.875024
vt 0.613916 0.919260
vt 0.613916 0.912338
vt 0.618810 0.907444
vt 0.630627 0.912338
vt 0.625732 0.924155
vt 0.653492 0.916810
vt 0.400942 0.926111
vt 0.787230 0.938331
vt 0.457835 0.946970
vt 0.488406 0.892159
vt 0.483382 0.887136
vt 0.483382 0.880032
vt 0.495510 0.875008
vt 0.500533 0.887136
vt 0.653492 0.903684
vt 0.613916 0.886949
vt 0.613916 0.879954
vt 0.618862 0.875008
vt 0.630803 0.879954
vt 0.625857 0.891895
vt 0.756493 0.783201
vt 0.024940 0.875028
vt 0.121798 0.875024
vt 0.343323 0.897436
vt 0.336754 0.890867
vt 0.336754 0.881577
vt 0.352613 0.875008
vt 0.359182 0.890867
vt 0.154084 0.875024
vt 0.814654 0.919270
vt 0.814654 0.912348
vt 0.819548 0.907454
vt 0.831364 0.912348
vt 0.826470 0.924165
vt 0.423646 0.926111
vt 0.565672 0.914271
vt 0.588621 0.939703
vt 0.588621 0.952503
vt 0.521105 0.892159
vt 0.516082 0.887136
vt 0.516082 0.880032
vt 0.528209 0.875008
vt 0.533232 0.887136
vt 0.611321 0.952503
vt 0.814654 0.886959
vt 0.814654 0.879964
vt 0.819600 0.875018
vt 0.831540 0.879964
vt 0.826594 0.891905
vt 0.687825 0.785575
vt 0.720917 0.827092
vt 0.250943 0.875024
vt 0.428566 0.897436
vt 0.419276 0.897436
vt 0.412707 0.890867
vt 0.419276 0.875008
vt 0.435134 0.881577
vt 0.283229 0.875024
vt 0.455578 0.924419
vt 0.450683 0.919524
vt 0.450683 0.912602
vt 0.462499 0.907708
vt 0.467394 0.919524
vt 0.677800 0.926594
vt 0.355549 0.919548
vt 0.821794 0.939713
vt 0.355545 0.948663
vt 0.565932 0.880032
vt 0.565932 0.887136
vt 0.560908 0.892159
vt 0.548781 0.887136
vt 0.553804 0.875008
vt 0.780089 0.905037
vt 0.780089 0.898042
vt 0.785035 0.893096
vt 0.796976 0.898042
vt 0.792030 0.909983
s 0
usemtl desk_Surface
f 1/1/1 5/2/1 7/3/1
f 2/4/2 5/5/2 4/6/2
f 3/7/3 5/8/3 6/9/3
f 8/10/4 12/11/4 14/12/4
f 9/13/5 12/14/5 11/15/5
f 10/16/6 12/17/6 13/18/6
f 15/19/7 19/20/7 21/21/7
f 16/22/8 19/23/8 18/24/8
f 17/25/9 19/26/9 20/27/9
f 22/28/10 26/29/10 28/30/10
f 23/31/11 26/32/11 25/33/11
f 24/34/12 26/35/12 27/36/12
f 29/37/13 33/38/13 35/39/13
f 30/40/14 33/41/14 32/42/14
f 31/43/15 33/44/15 34/45/15
f 36/46/16 40/47/16 42/48/16
f 37/49/17 40/50/17 39/51/17
f 38/52/18 40/53/18 41/54/18
f 43/55/19 47/56/19 49/57/19
f 44/58/20 47/59/20 46/60/20
f 45/61/21 47/62/21 48/63/21
f 50/64/22 54/65/22 56/66/22
f 51/67/23 54/68/23 53/69/23
f 52/70/24 54/71/24 55/72/24
f 1/1/25 18/73/25 15/19/25
f 7/74/26 16/22/26 18/24/26
f 8/10/27 6/75/27 2/4/27
f 14/76/28 3/7/28 6/9/28
f 22/28/29 13/77/29 9/13/29
f 28/78/30 10/16/30 13/18/30
f 17/25/31 27/79/31 23/31/31
f 20/80/32 24/34/32 27/36/32
f 15/19/33 46/81/33 43/55/33
f 21/82/34 44/58/34 46/60/34
f 50/64/35 25/83/35 22/28/35
f 56/84/36 23/31/36 25/33/36
f 45/61/37 55/85/37 51/67/37
f 48/86/38 52/70/38 55/72/38
f 43/55/39 32/87/39 29/37/39
f 49/88/40 30/40/40 32/42/40
f 36/46/41 53/89/41 50/64/41
f 42/90/42 51/67/42 53/69/42
f 31/43/43 41/91/43 37/49/43
f 34/92/44 38/52/44 41/54/44
f 29/37/45 4/93/45 1/1/45
f 35/94/46 2/4/46 4/6/46
f 9/13/47 39/95/47 36/46/47
f 11/96/48 37/49/48 39/51/48
f 43/55/49 1/1/49 15/19/49
f 10/16/50 16/22/50 3/7/50
f 37/49/51 2/4/51 31/43/51
f 22/28/52 36/46/52 50/64/52
f 23/31/53 44/58/53 17/25/53
f 51/67/54 30/40/54 45/61/54
f 57/97/1 61/98/1 63/99/1
f 58/100/55 61/101/55 60/102/55
f 59/103/3 61/104/3 62/105/3
f 64/106/4 68/107/4 70/108/4
f 65/109/56 68/110/56 67/111/56
f 66/112/57 68/113/57 69/114/57
f 71/115/58 75/116/58 77/117/58
f 72/118/59 75/119/59 74/120/59
f 73/121/9 75/122/9 76/123/9
f 78/124/10 82/125/10 84/126/10
f 79/127/60 82/128/60 81/129/60
f 80/130/12 82/131/12 83/132/12
f 85/133/61 89/134/61 91/135/61
f 86/136/62 89/137/62 88/138/62
f 87/139/15 89/140/15 90/141/15
f 92/142/16 96/143/16 98/144/16
f 93/145/63 96/146/63 95/147/63
f 94/148/18 96/149/18 97/150/18
f 99/151/19 103/152/19 105/153/19
f 100/154/64 103/155/64 102/156/64
f 101/157/21 103/158/21 104/159/21
f 106/160/65 110/161/65 112/162/65
f 107/163/66 110/164/66 109/165/66
f 108/166/24 110/167/24 111/168/24
f 57/97/25 74/169/25 71/115/25
f 63/170/26 72/118/26 74/120/26
f 64/106/27 62/171/27 58/100/27
f 70/172/28 59/103/28 62/105/28
f 78/124/29 69/173/29 65/109/29
f 84/174/30 66/112/30 69/114/30
f 73/121/31 83/175/31 79/127/31
f 76/176/32 80/130/32 83/132/32
f 71/115/33 102/177/33 99/151/33
f 77/178/34 100/154/34 102/156/34
f 106/160/35 81/179/35 78/124/35
f 112/180/36 79/127/36 81/129/36
f 101/157/37 111/181/37 107/163/37
f 104/182/38 108/166/38 111/168/38
f 99/151/39 88/183/39 85/133/39
f 105/184/40 86/136/40 88/138/40
f 92/142/41 109/185/41 106/160/41
f 98/186/42 107/163/42 109/165/42
f 87/139/43 97/187/43 93/145/43
f 90/188/44 94/148/44 97/150/44
f 85/133/45 60/189/45 57/97/45
f 91/190/46 58/100/46 60/102/46
f 65/109/47 95/191/47 92/142/47
f 67/192/48 93/145/48 95/147/48
f 99/151/49 57/97/49 71/115/49
f 66/112/50 72/118/50 59/103/50
f 93/145/51 58/100/51 87/139/51
f 78/124/52 92/142/52 106/160/52
f 79/127/53 100/154/53 73/121/53
f 107/163/54 86/136/54 101/157/54
f 114/193/67 115/194/67 113/195/67
f 116/196/68 117/197/68 115/198/68
f 118/199/69 119/200/69 117/197/69
f 120/201/70 121/202/70 119/203/70
f 122/204/71 123/205/71 121/202/71
f 124/206/72 125/207/72 123/208/72
f 126/209/52 122/210/52 118/211/52
f 126/212/73 127/213/73 125/207/73
f 128/214/74 113/195/74 127/215/74
f 119/216/49 123/217/49 127/218/49
f 129/219/75 132/220/75 131/221/75
f 132/222/76 133/223/76 131/224/76
f 133/223/77 136/225/77 135/226/77
f 136/227/78 137/228/78 135/229/78
f 138/230/79 139/231/79 137/228/79
f 140/232/80 141/233/80 139/234/80
f 142/235/52 138/236/52 134/237/52
f 141/233/81 144/238/81 143/239/81
f 143/240/82 130/241/82 129/219/82
f 135/242/49 139/243/49 143/244/49
f 146/245/67 147/246/67 145/247/67
f 148/248/68 149/249/68 147/250/68
f 150/251/69 151/252/69 149/249/69
f 152/253/70 153/254/70 151/255/70
f 154/256/71 155/257/71 153/254/71
f 156/258/72 157/259/72 155/260/72
f 158/261/52 154/262/52 150/263/52
f 158/264/73 159/265/73 157/259/73
f 160/266/74 145/247/74 159/267/74
f 151/268/49 155/269/49 159/270/49
f 162/271/75 163/272/75 161/273/75
f 164/274/76 165/275/76 163/276/76
f 166/277/77 167/278/77 165/275/77
f 168/279/78 169/280/78 167/281/78
f 170/282/79 171/283/79 169/280/79
f 172/284/80 173/285/80 171/286/80
f 174/287/52 170/288/52 166/289/52
f 173/285/81 176/290/81 175/291/81
f 175/292/82 162/271/82 161/273/82
f 167/293/49 171/294/49 175/295/49
f 178/296/67 179/297/67 177/298/67
f 180/299/68 181/300/68 179/301/68
f 182/302/69 183/303/69 181/300/69
f 184/304/70 185/305/70 183/306/70
f 186/307/71 187/308/71 185/305/71
f 188/309/72 189/310/72 187/311/72
f 190/312/52 186/313/52 182/314/52
f 190/315/73 191/316/73 189/310/73
f 192/317/74 177/298/74 191/318/74
f 183/319/49 187/320/49 191/321/49
f 194/322/75 195/323/75 193/324/75
f 196/325/76 197/326/76 195/327/76
f 197/326/77 200/328/77 199/329/77
f 199/330/78 202/331/78 201/332/78
f 202/331/79 203/333/79 201/332/79
f 204/334/80 205/335/80 203/336/80
f 206/337/52 202/338/52 198/339/52
f 206/340/81 207/341/81 205/335/81
f 208/342/82 193/324/82 207/343/82
f 199/344/49 203/345/49 207/346/49
f 210/347/67 211/348/67 209/349/67
f 212/350/68 213/351/68 211/352/68
f 214/353/69 215/354/69 213/351/69
f 216/355/70 217/356/70 215/357/70
f 218/358/71 219/359/71 217/356/71
f 220/360/72 221/361/72 219/362/72
f 222/363/52 218/364/52 214/365/52
f 222/366/73 223/367/73 221/361/73
f 224/368/74 209/349/74 223/369/74
f 215/370/49 219/371/49 223/372/49
f 226/373/75 227/374/75 225/375/75
f 228/376/76 229/377/76 227/378/76
f 229/377/77 232/379/77 231/380/77
f 231/381/78 234/382/78 233/383/78
f 233/383/79 236/384/79 235/385/79
f 236/386/80 237/387/80 235/388/80
f 238/389/52 234/390/52 230/391/52
f 237/387/81 240/392/81 239/393/81
f 240/394/82 225/375/82 239/395/82
f 231/396/49 235/397/49 239/398/49
f 241/399/83 245/400/83 247/401/83
f 242/402/2 245/403/2 244/404/2
f 243/405/3 245/406/3 246/407/3
f 248/408/4 252/409/4 254/410/4
f 249/411/5 252/412/5 251/413/5
f 250/414/84 252/415/84 253/416/84
f 255/417/7 259/418/7 261/419/7
f 256/420/8 259/421/8 258/422/8
f 257/423/9 259/424/9 260/425/9
f 262/426/85 266/427/85 268/428/85
f 263/429/11 266/430/11 265/431/11
f 264/432/86 266/433/86 267/434/86
f 269/435/13 273/436/13 275/437/13
f 270/438/87 273/439/87 272/440/87
f 271/441/15 273/442/15 274/443/15
f 276/444/88 280/445/88 282/446/88
f 277/447/17 280/448/17 279/449/17
f 278/450/89 280/451/89 281/452/89
f 283/453/90 287/454/90 289/455/90
f 284/456/20 287/457/20 286/458/20
f 285/459/21 287/460/21 288/461/21
f 290/462/22 294/463/22 296/464/22
f 291/465/91 294/466/91 293/467/91
f 292/468/24 294/469/24 295/470/24
f 241/399/25 258/471/25 255/417/25
f 247/472/26 256/420/26 258/422/26
f 248/408/27 246/473/27 242/402/27
f 254/474/28 243/405/28 246/407/28
f 262/426/29 253/475/29 249/411/29
f 268/476/30 250/414/30 253/416/30
f 257/423/31 267/477/31 263/429/31
f 260/478/32 264/432/32 267/434/32
f 255/417/33 286/479/33 283/453/33
f 261/480/34 284/456/34 286/458/34
f 290/462/35 265/481/35 262/426/35
f 296/482/36 263/429/36 265/431/36
f 285/459/37 295/483/37 291/465/37
f 288/484/38 292/468/38 295/470/38
f 283/453/39 272/485/39 269/435/39
f 289/486/40 270/438/40 272/440/40
f 276/444/41 293/487/41 290/462/41
f 282/488/42 291/465/42 293/467/42
f 271/441/43 281/489/43 277/447/43
f 274/490/44 278/450/44 281/452/44
f 269/435/45 244/491/45 241/399/45
f 275/492/46 242/402/46 244/404/46
f 249/411/47 279/493/47 276/444/47
f 251/494/48 277/447/48 279/449/48
f 283/453/49 241/399/49 255/417/49
f 250/414/50 256/420/50 243/405/50
f 277/447/51 242/402/51 271/441/51
f 262/426/52 276/444/52 290/462/52
f 263/429/53 284/456/53 257/423/53
f 291/465/54 270/438/54 285/459/54
f 297/495/83 301/496/83 303/497/83
f 298/498/2 301/499/2 300/500/2
f 299/501/3 301/502/3 302/503/3
f 304/504/4 308/505/4 310/506/4
f 305/507/5 308/508/5 307/509/5
f 306/510/84 308/511/84 309/512/84
f 311/513/7 315/514/7 317/515/7
f 312/516/92 315/517/92 314/518/92
f 313/519/9 315/520/9 316/521/9
f 318/522/85 322/523/85 324/524/85
f 319/525/11 322/526/11 321/527/11
f 320/528/86 322/529/86 323/530/86
f 325/531/13 329/532/13 331/533/13
f 326/534/14 329/535/14 328/536/14
f 327/537/15 329/538/15 330/539/15
f 332/540/88 336/541/88 338/542/88
f 333/543/17 336/544/17 335/545/17
f 334/546/89 336/547/89 337/548/89
f 339/549/90 343/550/90 345/551/90
f 340/552/20 343/553/20 342/554/20
f 341/555/21 343/556/21 344/557/21
f 346/558/22 350/559/22 352/560/22
f 347/561/91 350/562/91 349/563/91
f 348/564/24 350/565/24 351/566/24
f 297/495/25 314/567/25 311/513/25
f 303/568/26 312/516/26 314/518/26
f 304/504/27 302/569/27 298/498/27
f 310/570/28 299/501/28 302/503/28
f 318/522/29 309/571/29 305/507/29
f 324/572/30 306/510/30 309/512/30
f 313/519/31 323/573/31 319/525/31
f 316/574/32 320/528/32 323/530/32
f 311/513/33 342/575/33 339/549/33
f 317/576/34 340/552/34 342/554/34
f 346/558/35 321/577/35 318/522/35
f 352/578/36 319/525/36 321/527/36
f 341/555/37 351/579/37 347/561/37
f 344/580/38 348/564/38 351/566/38
f 339/549/39 328/581/39 325/531/39
f 345/582/40 326/534/40 328/536/40
f 332/540/41 349/583/41 346/558/41
f 338/584/42 347/561/42 349/563/42
f 327/537/43 337/585/43 333/543/43
f 330/586/44 334/546/44 337/548/44
f 325/531/45 300/587/45 297/495/45
f 331/588/46 298/498/46 300/500/46
f 305/507/47 335/589/47 332/540/47
f 307/590/48 333/543/48 335/545/48
f 339/549/49 297/495/49 311/513/49
f 306/510/50 312/516/50 299/501/50
f 333/543/51 298/498/51 327/537/51
f 318/522/52 332/540/52 346/558/52
f 319/525/53 340/552/53 313/519/53
f 347/561/54 326/534/54 341/555/54
f 353/591/1 357/592/1 359/593/1
f 354/594/2 357/595/2 356/596/2
f 355/597/93 357/598/93 358/599/93
f 360/600/4 364/601/4 366/602/4
f 361/603/5 364/604/5 363/605/5
f 362/606/94 364/607/94 365/608/94
f 367/609/95 371/610/95 373/611/95
f 368/612/92 371/613/92 370/614/92
f 369/615/96 371/616/96 372/617/96
f 374/618/10 378/619/10 380/620/10
f 375/621/11 378/622/11 377/623/11
f 376/624/12 378/625/12 379/626/12
f 381/627/97 385/628/97 387/629/97
f 382/630/87 385/631/87 384/632/87
f 383/633/15 385/634/15 386/635/15
f 388/636/16 392/637/16 394/638/16
f 389/639/63 392/640/63 391/641/63
f 390/642/18 392/643/18 393/644/18
f 395/645/19 399/646/19 401/647/19
f 396/648/64 399/649/64 398/650/64
f 397/651/21 399/652/21 400/653/21
f 402/654/22 406/655/22 408/656/22
f 403/657/98 406/658/98 405/659/98
f 404/660/24 406/661/24 407/662/24
f 353/591/25 370/663/25 367/609/25
f 359/664/26 368/612/26 370/614/26
f 360/600/27 358/665/27 354/594/27
f 366/666/28 355/597/28 358/599/28
f 374/618/29 365/667/29 361/603/29
f 380/668/30 362/606/30 365/608/30
f 369/615/31 379/669/31 375/621/31
f 372/670/32 376/624/32 379/626/32
f 367/609/33 398/671/33 395/645/33
f 373/672/34 396/648/34 398/650/34
f 402/654/35 377/673/35 374/618/35
f 408/674/36 375/621/36 377/623/36
f 397/651/37 407/675/37 403/657/37
f 400/676/38 404/660/38 407/662/38
f 395/645/39 384/677/39 381/627/39
f 401/678/40 382/630/40 384/632/40
f 388/636/41 405/679/41 402/654/41
f 394/680/42 403/657/42 405/659/42
f 383/633/43 393/681/43 389/639/43
f 386/682/44 390/642/44 393/644/44
f 381/627/45 356/683/45 353/591/45
f 387/684/46 354/594/46 356/596/46
f 361/603/47 391/685/47 388/636/47
f 363/686/48 389/639/48 391/641/48
f 395/645/49 353/591/49 367/609/49
f 362/606/50 368/612/50 355/597/50
f 389/639/51 354/594/51 383/633/51
f 374/618/52 388/636/52 402/654/52
f 375/621/53 396/648/53 369/615/53
f 403/657/54 382/630/54 397/651/54
f 409/687/1 413/688/1 415/689/1
f 410/690/55 413/691/55 412/692/55
f 411/693/3 413/694/3 414/695/3
f 416/696/4 420/697/4 422/698/4
f 417/699/5 420/700/5 419/701/5
f 418/702/94 420/703/94 421/704/94
f 423/705/95 427/706/95 429/707/95
f 424/708/92 427/709/92 426/710/92
f 425/711/9 427/712/9 428/713/9
f 430/714/10 434/715/10 436/716/10
f 431/717/60 434/718/60 433/719/60
f 432/720/12 434/721/12 435/722/12
f 437/723/97 441/724/97 443/725/97
f 438/726/87 441/727/87 440/728/87
f 439/729/99 441/730/99 442/731/99
f 444/732/16 448/733/16 450/734/16
f 445/735/17 448/736/17 447/737/17
f 446/738/18 448/739/18 449/740/18
f 451/741/19 455/742/19 457/743/19
f 452/744/20 455/745/20 454/746/20
f 453/747/100 455/748/100 456/749/100
f 458/750/22 462/751/22 464/752/22
f 459/753/98 462/754/98 461/755/98
f 460/756/24 462/757/24 463/758/24
f 409/687/25 426/759/25 423/705/25
f 415/760/26 424/708/26 426/710/26
f 416/696/27 414/761/27 410/690/27
f 422/762/28 411/693/28 414/695/28
f 430/714/29 421/763/29 417/699/29
f 436/764/30 418/702/30 421/704/30
f 425/711/31 435/765/31 431/717/31
f 428/766/32 432/720/32 435/722/32
f 423/705/33 454/767/33 451/741/33
f 429/768/34 452/744/34 454/746/34
f 458/750/35 433/769/35 430/714/35
f 464/770/36 431/717/36 433/719/36
f 453/747/37 463/771/37 459/753/37
f 456/772/38 460/756/38 463/758/38
f 451/741/39 440/773/39 437/723/39
f 457/774/40 438/726/40 440/728/40
f 444/732/41 461/775/41 458/750/41
f 450/776/42 459/753/42 461/755/42
f 439/729/43 449/777/43 445/735/43
f 442/778/44 446/738/44 449/740/44
f 437/723/45 412/779/45 409/687/45
f 443/780/46 410/690/46 412/692/46
f 417/699/47 447/781/47 444/732/47
f 419/782/48 445/735/48 447/737/48
f 451/741/49 409/687/49 423/705/49
f 418/702/50 424/708/50 411/693/50
f 445/735/51 410/690/51 439/729/51
f 430/714/52 444/732/52 458/750/52
f 431/717/53 452/744/53 425/711/53
f 459/753/54 438/726/54 453/747/54
f 1/1/101 4/93/101 5/2/101
f 2/4/102 6/75/102 5/5/102
f 3/7/103 7/74/103 5/8/103
f 8/10/104 11/96/104 12/11/104
f 9/13/105 13/77/105 12/14/105
f 10/16/106 14/76/106 12/17/106
f 15/19/107 18/73/107 19/20/107
f 16/22/108 20/80/108 19/23/108
f 17/25/109 21/82/109 19/26/109
f 22/28/110 25/83/110 26/29/110
f 23/31/111 27/79/111 26/32/111
f 24/34/112 28/78/112 26/35/112
f 29/37/113 32/87/113 33/38/113
f 30/40/114 34/92/114 33/41/114
f 31/43/115 35/94/115 33/44/115
f 36/46/116 39/95/116 40/47/116
f 37/49/117 41/91/117 40/50/117
f 38/52/118 42/90/118 40/53/118
f 43/55/119 46/81/119 47/56/119
f 44/58/120 48/86/120 47/59/120
f 45/61/121 49/88/121 47/62/121
f 50/64/122 53/89/122 54/65/122
f 51/67/123 55/85/123 54/68/123
f 52/70/124 56/84/124 54/71/124
f 1/1/25 7/3/25 18/73/25
f 7/74/26 3/7/26 16/22/26
f 8/10/27 14/12/27 6/75/27
f 14/76/28 10/16/28 3/7/28
f 22/28/29 28/30/29 13/77/29
f 28/78/30 24/34/30 10/16/30
f 17/25/31 20/27/31 27/79/31
f 20/80/32 16/22/32 24/34/32
f 15/19/33 21/21/33 46/81/33
f 21/82/34 17/25/34 44/58/34
f 50/64/35 56/66/35 25/83/35
f 56/84/36 52/70/36 23/31/36
f 45/61/37 48/63/37 55/85/37
f 48/86/38 44/58/38 52/70/38
f 43/55/39 49/57/39 32/87/39
f 49/88/40 45/61/40 30/40/40
f 36/46/41 42/48/41 53/89/41
f 42/90/42 38/52/42 51/67/42
f 31/43/43 34/45/43 41/91/43
f 34/92/44 30/40/44 38/52/44
f 29/37/45 35/39/45 4/93/45
f 35/94/46 31/43/46 2/4/46
f 9/13/47 11/15/47 39/95/47
f 11/96/48 8/10/48 37/49/48
f 43/55/49 29/37/49 1/1/49
f 10/16/50 24/34/50 16/22/50
f 37/49/51 8/10/51 2/4/51
f 22/28/52 9/13/52 36/46/52
f 23/31/53 52/70/53 44/58/53
f 51/67/54 38/52/54 30/40/54
f 57/97/125 60/189/125 61/98/125
f 58/100/102 62/171/102 61/101/102
f 59/103/126 63/170/126 61/104/126
f 64/106/127 67/192/127 68/107/127
f 65/109/105 69/173/105 68/110/105
f 66/112/106 70/172/106 68/113/106
f 71/115/107 74/169/107 75/116/107
f 72/118/108 76/176/108 75/119/108
f 73/121/128 77/178/128 75/122/128
f 78/124/129 81/179/129 82/125/129
f 79/127/111 83/175/111 82/128/111
f 80/130/130 84/174/130 82/131/130
f 85/133/113 88/183/113 89/134/113
f 86/136/114 90/188/114 89/137/114
f 87/139/131 91/190/131 89/140/131
f 92/142/132 95/191/132 96/143/132
f 93/145/117 97/187/117 96/146/117
f 94/148/133 98/186/133 96/149/133
f 99/151/134 102/177/134 103/152/134
f 100/154/120 104/182/120 103/155/120
f 101/157/135 105/184/135 103/158/135
f 106/160/122 109/185/122 110/161/122
f 107/163/123 111/181/123 110/164/123
f 108/166/136 112/180/136 110/167/136
f 57/97/25 63/99/25 74/169/25
f 63/170/26 59/103/26 72/118/26
f 64/106/27 70/108/27 62/171/27
f 70/172/28 66/112/28 59/103/28
f 78/124/29 84/126/29 69/173/29
f 84/174/30 80/130/30 66/112/30
f 73/121/31 76/123/31 83/175/31
f 76/176/32 72/118/32 80/130/32
f 71/115/33 77/117/33 102/177/33
f 77/178/34 73/121/34 100/154/34
f 106/160/35 112/162/35 81/179/35
f 112/180/36 108/166/36 79/127/36
f 101/157/37 104/159/37 111/181/37
f 104/182/38 100/154/38 108/166/38
f 99/151/39 105/153/39 88/183/39
f 105/184/40 101/157/40 86/136/40
f 92/142/41 98/144/41 109/185/41
f 98/186/42 94/148/42 107/163/42
f 87/139/43 90/141/43 97/187/43
f 90/188/44 86/136/44 94/148/44
f 85/133/45 91/135/45 60/189/45
f 91/190/46 87/139/46 58/100/46
f 65/109/47 67/111/47 95/191/47
f 67/192/48 64/106/48 93/145/48
f 99/151/49 85/133/49 57/97/49
f 66/112/50 80/130/50 72/118/50
f 93/145/51 64/106/51 58/100/51
f 78/124/52 65/109/52 92/142/52
f 79/127/53 108/166/53 100/154/53
f 107/163/54 94/148/54 86/136/54
f 114/193/67 116/783/67 115/194/67
f 116/196/68 118/199/68 117/197/68
f 118/199/69 120/784/69 119/200/69
f 120/201/70 122/204/70 121/202/70
f 122/204/71 124/785/71 123/205/71
f 124/206/72 126/212/72 125/207/72
f 118/211/52 116/786/52 114/787/52
f 114/787/52 128/788/52 126/209/52
f 126/209/52 124/789/52 122/210/52
f 122/210/52 120/790/52 118/211/52
f 118/211/52 114/787/52 126/209/52
f 126/212/73 128/791/73 127/213/73
f 128/214/74 114/193/74 113/195/74
f 127/218/49 113/792/49 115/793/49
f 115/793/49 117/794/49 119/216/49
f 119/216/49 121/795/49 123/217/49
f 123/217/49 125/796/49 127/218/49
f 127/218/49 115/793/49 119/216/49
f 129/219/75 130/241/75 132/220/75
f 132/222/76 134/797/76 133/223/76
f 133/223/77 134/797/77 136/225/77
f 136/227/78 138/230/78 137/228/78
f 138/230/79 140/798/79 139/231/79
f 140/232/80 142/799/80 141/233/80
f 134/237/52 132/800/52 130/801/52
f 130/801/52 144/802/52 142/235/52
f 142/235/52 140/803/52 138/236/52
f 138/236/52 136/804/52 134/237/52
f 134/237/52 130/801/52 142/235/52
f 141/233/81 142/799/81 144/238/81
f 143/240/82 144/805/82 130/241/82
f 143/244/49 129/806/49 131/807/49
f 131/807/49 133/808/49 135/242/49
f 135/242/49 137/809/49 139/243/49
f 139/243/49 141/810/49 143/244/49
f 143/244/49 131/807/49 135/242/49
f 146/245/67 148/811/67 147/246/67
f 148/248/68 150/251/68 149/249/68
f 150/251/69 152/812/69 151/252/69
f 152/253/70 154/256/70 153/254/70
f 154/256/71 156/813/71 155/257/71
f 156/258/72 158/264/72 157/259/72
f 150/263/52 148/814/52 146/815/52
f 146/815/52 160/816/52 158/261/52
f 158/261/52 156/817/52 154/262/52
f 154/262/52 152/818/52 150/263/52
f 150/263/52 146/815/52 158/261/52
f 158/264/73 160/819/73 159/265/73
f 160/266/74 146/245/74 145/247/74
f 159/270/49 145/820/49 147/821/49
f 147/821/49 149/822/49 151/268/49
f 151/268/49 153/823/49 155/269/49
f 155/269/49 157/824/49 159/270/49
f 159/270/49 147/821/49 151/268/49
f 162/271/75 164/825/75 163/272/75
f 164/274/76 166/277/76 165/275/76
f 166/277/77 168/826/77 167/278/77
f 168/279/78 170/282/78 169/280/78
f 170/282/79 172/827/79 171/283/79
f 172/284/80 174/828/80 173/285/80
f 166/289/52 164/829/52 162/830/52
f 162/830/52 176/831/52 174/287/52
f 174/287/52 172/832/52 170/288/52
f 170/288/52 168/833/52 166/289/52
f 166/289/52 162/830/52 174/287/52
f 173/285/81 174/828/81 176/290/81
f 175/292/82 176/834/82 162/271/82
f 175/295/49 161/835/49 163/836/49
f 163/836/49 165/837/49 167/293/49
f 167/293/49 169/838/49 171/294/49
f 171/294/49 173/839/49 175/295/49
f 175/295/49 163/836/49 167/293/49
f 178/296/67 180/840/67 179/297/67
f 180/299/68 182/302/68 181/300/68
f 182/302/69 184/841/69 183/303/69
f 184/304/70 186/307/70 185/305/70
f 186/307/71 188/842/71 187/308/71
f 188/309/72 190/315/72 189/310/72
f 182/314/52 180/843/52 178/844/52
f 178/844/52 192/845/52 190/312/52
f 190/312/52 188/846/52 186/313/52
f 186/313/52 184/847/52 182/314/52
f 182/314/52 178/844/52 190/312/52
f 190/315/73 192/848/73 191/316/73
f 192/317/74 178/296/74 177/298/74
f 191/321/49 177/849/49 179/850/49
f 179/850/49 181/851/49 183/319/49
f 183/319/49 185/852/49 187/320/49
f 187/320/49 189/853/49 191/321/49
f 191/321/49 179/850/49 183/319/49
f 194/322/75 196/854/75 195/323/75
f 196/325/76 198/855/76 197/326/76
f 197/326/77 198/855/77 200/328/77
f 199/330/78 200/856/78 202/331/78
f 202/331/79 204/857/79 203/333/79
f 204/334/80 206/340/80 205/335/80
f 198/339/52 196/858/52 194/859/52
f 194/859/52 208/860/52 206/337/52
f 206/337/52 204/861/52 202/338/52
f 202/338/52 200/862/52 198/339/52
f 198/339/52 194/859/52 206/337/52
f 206/340/81 208/863/81 207/341/81
f 208/342/82 194/322/82 193/324/82
f 207/346/49 193/864/49 195/865/49
f 195/865/49 197/866/49 199/344/49
f 199/344/49 201/867/49 203/345/49
f 203/345/49 205/868/49 207/346/49
f 207/346/49 195/865/49 199/344/49
f 210/347/67 212/869/67 211/348/67
f 212/350/68 214/353/68 213/351/68
f 214/353/69 216/870/69 215/354/69
f 216/355/70 218/358/70 217/356/70
f 218/358/71 220/871/71 219/359/71
f 220/360/72 222/366/72 221/361/72
f 214/365/52 212/872/52 210/873/52
f 210/873/52 224/874/52 222/363/52
f 222/363/52 220/875/52 218/364/52
f 218/364/52 216/876/52 214/365/52
f 214/365/52 210/873/52 222/363/52
f 222/366/73 224/877/73 223/367/73
f 224/368/74 210/347/74 209/349/74
f 223/372/49 209/878/49 211/879/49
f 211/879/49 213/880/49 215/370/49
f 215/370/49 217/881/49 219/371/49
f 219/371/49 221/882/49 223/372/49
f 223/372/49 211/879/49 215/370/49
f 226/373/75 228/883/75 227/374/75
f 228/376/76 230/884/76 229/377/76
f 229/377/77 230/884/77 232/379/77
f 231/381/78 232/885/78 234/382/78
f 233/383/79 234/382/79 236/384/79
f 236/386/80 238/886/80 237/387/80
f 230/391/52 228/887/52 226/888/52
f 226/888/52 240/889/52 238/389/52
f 238/389/52 236/890/52 234/390/52
f 234/390/52 232/891/52 230/391/52
f 230/391/52 226/888/52 238/389/52
f 237/387/81 238/886/81 240/392/81
f 240/394/82 226/373/82 225/375/82
f 239/398/49 225/892/49 227/893/49
f 227/893/49 229/894/49 231/396/49
f 231/396/49 233/895/49 235/397/49
f 235/397/49 237/896/49 239/398/49
f 239/398/49 227/893/49 231/396/49
f 241/399/101 244/491/101 245/400/101
f 242/402/102 246/473/102 245/403/102
f 243/405/137 247/472/137 245/406/137
f 248/408/104 251/494/104 252/409/104
f 249/411/138 253/475/138 252/412/138
f 250/414/139 254/474/139 252/415/139
f 255/417/140 258/471/140 259/418/140
f 256/420/108 260/478/108 259/421/108
f 257/423/109 261/480/109 259/424/109
f 262/426/110 265/481/110 266/427/110
f 263/429/111 267/477/111 266/430/111
f 264/432/141 268/476/141 266/433/141
f 269/435/142 272/485/142 273/436/142
f 270/438/114 274/490/114 273/439/114
f 271/441/115 275/492/115 273/442/115
f 276/444/116 279/493/116 280/445/116
f 277/447/117 281/489/117 280/448/117
f 278/450/143 282/488/143 280/451/143
f 283/453/119 286/479/119 287/454/119
f 284/456/120 288/484/120 287/457/120
f 285/459/121 289/486/121 287/460/121
f 290/462/144 293/487/144 294/463/144
f 291/465/145 295/483/145 294/466/145
f 292/468/124 296/482/124 294/469/124
f 241/399/25 247/401/25 258/471/25
f 247/472/26 243/405/26 256/420/26
f 248/408/27 254/410/27 246/473/27
f 254/474/28 250/414/28 243/405/28
f 262/426/29 268/428/29 253/475/29
f 268/476/30 264/432/30 250/414/30
f 257/423/31 260/425/31 267/477/31
f 260/478/32 256/420/32 264/432/32
f 255/417/33 261/419/33 286/479/33
f 261/480/34 257/423/34 284/456/34
f 290/462/35 296/464/35 265/481/35
f 296/482/36 292/468/36 263/429/36
f 285/459/37 288/461/37 295/483/37
f 288/484/38 284/456/38 292/468/38
f 283/453/39 289/455/39 272/485/39
f 289/486/40 285/459/40 270/438/40
f 276/444/41 282/446/41 293/487/41
f 282/488/42 278/450/42 291/465/42
f 271/441/43 274/443/43 281/489/43
f 274/490/44 270/438/44 278/450/44
f 269/435/45 275/437/45 244/491/45
f 275/492/46 271/441/46 242/402/46
f 249/411/47 251/413/47 279/493/47
f 251/494/48 248/408/48 277/447/48
f 283/453/49 269/435/49 241/399/49
f 250/414/50 264/432/50 256/420/50
f 277/447/51 248/408/51 242/402/51
f 262/426/52 249/411/52 276/444/52
f 263/429/53 292/468/53 284/456/53
f 291/465/54 278/450/54 270/438/54
f 297/495/101 300/587/101 301/496/101
f 298/498/102 302/569/102 301/499/102
f 299/501/103 303/568/103 301/502/103
f 304/504/104 307/590/104 308/505/104
f 305/507/138 309/571/138 308/508/138
f 306/510/139 310/570/139 308/511/139
f 311/513/140 314/567/140 315/514/140
f 312/516/108 316/574/108 315/517/108
f 313/519/109 317/576/109 315/520/109
f 318/522/110 321/577/110 322/523/110
f 319/525/111 323/573/111 322/526/111
f 320/528/141 324/572/141 322/529/141
f 325/531/142 328/581/142 329/532/142
f 326/534/114 330/586/114 329/535/114
f 327/537/115 331/588/115 329/538/115
f 332/540/116 335/589/116 336/541/116
f 333/543/117 337/585/117 336/544/117
f 334/546/143 338/584/143 336/547/143
f 339/549/119 342/575/119 343/550/119
f 340/552/120 344/580/120 343/553/120
f 341/555/146 345/582/146 343/556/146
f 346/558/144 349/583/144 350/559/144
f 347/561/145 351/579/145 350/562/145
f 348/564/124 352/578/124 350/565/124
f 297/495/25 303/497/25 314/567/25
f 303/568/26 299/501/26 312/516/26
f 304/504/27 310/506/27 302/569/27
f 310/570/28 306/510/28 299/501/28
f 318/522/29 324/524/29 309/571/29
f 324/572/30 320/528/30 306/510/30
f 313/519/31 316/521/31 323/573/31
f 316/574/32 312/516/32 320/528/32
f 311/513/33 317/515/33 342/575/33
f 317/576/34 313/519/34 340/552/34
f 346/558/35 352/560/35 321/577/35
f 352/578/36 348/564/36 319/525/36
f 341/555/37 344/557/37 351/579/37
f 344/580/38 340/552/38 348/564/38
f 339/549/39 345/551/39 328/581/39
f 345/582/40 341/555/40 326/534/40
f 332/540/41 338/542/41 349/583/41
f 338/584/42 334/546/42 347/561/42
f 327/537/43 330/539/43 337/585/43
f 330/586/44 326/534/44 334/546/44
f 325/531/45 331/533/45 300/587/45
f 331/588/46 327/537/46 298/498/46
f 305/507/47 307/509/47 335/589/47
f 307/590/48 304/504/48 333/543/48
f 339/549/49 325/531/49 297/495/49
f 306/510/50 320/528/50 312/516/50
f 333/543/51 304/504/51 298/498/51
f 318/522/52 305/507/52 332/540/52
f 319/525/53 348/564/53 340/552/53
f 347/561/54 334/546/54 326/534/54
f 353/591/147 356/683/147 357/592/147
f 354/594/148 358/665/148 357/595/148
f 355/597/137 359/664/137 357/598/137
f 360/600/104 363/686/104 364/601/104
f 361/603/105 365/667/105 364/604/105
f 362/606/106 366/666/106 364/607/106
f 367/609/107 370/663/107 371/610/107
f 368/612/149 372/670/149 371/613/149
f 369/615/109 373/672/109 371/616/109
f 374/618/110 377/673/110 378/619/110
f 375/621/111 379/669/111 378/622/111
f 376/624/150 380/668/150 378/625/150
f 381/627/113 384/677/113 385/628/113
f 382/630/114 386/682/114 385/631/114
f 383/633/131 387/684/131 385/634/131
f 388/636/116 391/685/116 392/637/116
f 389/639/117 393/681/117 392/640/117
f 390/642/151 394/680/151 392/643/151
f 395/645/152 398/671/152 399/646/152
f 396/648/120 400/676/120 399/649/120
f 397/651/146 401/678/146 399/652/146
f 402/654/122 405/679/122 406/655/122
f 403/657/123 407/675/123 406/658/123
f 404/660/136 408/674/136 406/661/136
f 353/591/25 359/593/25 370/663/25
f 359/664/26 355/597/26 368/612/26
f 360/600/27 366/602/27 358/665/27
f 366/666/28 362/606/28 355/597/28
f 374/618/29 380/620/29 365/667/29
f 380/668/30 376/624/30 362/606/30
f 369/615/31 372/617/31 379/669/31
f 372/670/32 368/612/32 376/624/32
f 367/609/33 373/611/33 398/671/33
f 373/672/34 369/615/34 396/648/34
f 402/654/35 408/656/35 377/673/35
f 408/674/36 404/660/36 375/621/36
f 397/651/37 400/653/37 407/675/37
f 400/676/38 396/648/38 404/660/38
f 395/645/39 401/647/39 384/677/39
f 401/678/40 397/651/40 382/630/40
f 388/636/41 394/638/41 405/679/41
f 394/680/42 390/642/42 403/657/42
f 383/633/43 386/635/43 393/681/43
f 386/682/44 382/630/44 390/642/44
f 381/627/45 387/629/45 356/683/45
f 387/684/46 383/633/46 354/594/46
f 361/603/47 363/605/47 391/685/47
f 363/686/48 360/600/48 389/639/48
f 395/645/49 381/627/49 353/591/49
f 362/606/50 376/624/50 368/612/50
f 389/639/51 360/600/51 354/594/51
f 374/618/52 361/603/52 388/636/52
f 375/621/53 404/660/53 396/648/53
f 403/657/54 390/642/54 382/630/54
f 409/687/147 412/779/147 413/688/147
f 410/690/102 414/761/102 413/691/102
f 411/693/137 415/760/137 413/694/137
f 416/696/127 419/782/127 420/697/127
f 417/699/105 421/763/105 420/700/105
f 418/702/106 422/762/106 420/703/106
f 423/705/107 426/759/107 427/706/107
f 424/708/108 428/766/108 427/709/108
f 425/711/128 429/768/128 427/712/128
f 430/714/110 433/769/110 434/715/110
f 431/717/111 435/765/111 434/718/111
f 432/720/150 436/764/150 434/721/150
f 437/723/113 440/773/113 441/724/113
f 438/726/153 442/778/153 441/727/153
f 439/729/115 443/780/115 441/730/115
f 444/732/116 447/781/116 448/733/116
f 445/735/117 449/777/117 448/736/117
f 446/738/151 450/776/151 448/739/151
f 451/741/152 454/767/152 455/742/152
f 452/744/154 456/772/154 455/745/154
f 453/747/146 457/774/146 455/748/146
f 458/750/122 461/775/122 462/751/122
f 459/753/123 463/771/123 462/754/123
f 460/756/124 464/770/124 462/757/124
f 409/687/25 415/689/25 426/759/25
f 415/760/26 411/693/26 424/708/26
f 416/696/27 422/698/27 414/761/27
f 422/762/28 418/702/28 411/693/28
f 430/714/29 436/716/29 421/763/29
f 436/764/30 432/720/30 418/702/30
f 425/711/31 428/713/31 435/765/31
f 428/766/32 424/708/32 432/720/32
f 423/705/33 429/707/33 454/767/33
f 429/768/34 425/711/34 452/744/34
f 458/750/35 464/752/35 433/769/35
f 464/770/36 460/756/36 431/717/36
f 453/747/37 456/749/37 463/771/37
f 456/772/38 452/744/38 460/756/38
f 451/741/39 457/743/39 440/773/39
f 457/774/40 453/747/40 438/726/40
f 444/732/41 450/734/41 461/775/41
f 450/776/42 446/738/42 459/753/42
f 439/729/43 442/731/43 449/777/43
f 442/778/44 438/726/44 446/738/44
f 437/723/45 443/725/45 412/779/45
f 443/780/46 439/729/46 410/690/46
f 417/699/47 419/701/47 447/781/47
f 419/782/48 416/696/48 445/735/48
f 451/741/49 437/723/49 409/687/49
f 418/702/50 432/720/50 424/708/50
f 445/735/51 416/696/51 410/690/51
f 430/714/52 417/699/52 444/732/52
f 431/717/53 460/756/53 452/744/53
f 459/753/54 446/738/54 438/726/54
