# Blender 5.2.1 LTS
# www.blender.org
mtllib floor.mtl
o floor
v -70.000000 -0.500000 70.000000
v -70.000000 0.500000 70.000000
v -70.000000 -0.500000 -70.000000
v -70.000000 0.500000 -70.000000
v 70.000000 -0.500000 70.000000
v 70.000000 0.500000 70.000000
v 70.000000 -0.500000 -70.000000
v 70.000000 0.500000 -70.000000
vn -1.0000 -0.0000 -0.0000
vn -0.0000 -0.0000 -1.0000
vn 1.0000 -0.0000 -0.0000
vn -0.0000 -0.0000 1.0000
vn -0.0000 -1.0000 -0.0000
vn -0.0000 1.0000 -0.0000
vt 0.000000 1.000000
vt 14.000000 0.000000
vt 0.000000 0.000000
vt 14.000000 1.000000
vt 28.000000 0.000000
vt 28.000000 1.000000
vt 14.000000 14.000000
vt 0.000000 14.000000
s 0
usemtl floor_Surface
f 2/1/1 3/2/1 1/3/1
f 4/4/2 7/5/2 3/2/2
f 8/6/3 5/2/3 7/5/3
f 6/4/4 1/3/4 5/2/4
f 7/7/5 1/3/5 3/8/5
f 4/8/6 6/2/6 8/7/6
f 2/1/1 4/4/1 3/2/1
f 4/4/2 8/6/2 7/5/2
f 8/6/3 6/4/3 5/2/3
f 6/4/4 2/1/4 1/3/4
f 7/7/5 5/2/5 1/3/5
f 4/8/6 2/3/6 6/2/6
