# Blender 5.2.1 LTS
# www.blender.org
mtllib pillar.mtl
o pillar
v -0.425000 -6.000000 0.425000
v -0.425000 -5.925000 0.500000
v -0.500000 -5.925000 0.425000
v -0.425000 -5.978033 0.478033
v -0.468301 -5.968301 0.468301
v -0.478033 -5.925000 0.478033
v -0.478033 -5.978033 0.425000
v -0.425000 5.925000 0.500000
v -0.425000 6.000000 0.425000
v -0.500000 5.925000 0.425000
v -0.425000 5.978033 0.478033
v -0.468301 5.968301 0.468301
v -0.478033 5.978033 0.425000
v -0.478033 5.925000 0.478033
v -0.425000 -6.000000 -0.425000
v -0.500000 -5.925000 -0.425000
v -0.425000 -5.925000 -0.500000
v -0.478033 -5.978033 -0.425000
v -0.468301 -5.968301 -0.468301
v -0.478033 -5.925000 -0.478033
v -0.425000 -5.978033 -0.478033
v -0.425000 6.000000 -0.425000
v -0.425000 5.925000 -0.500000
v -0.500000 5.925000 -0.425000
v -0.425000 5.978033 -0.478033
v -0.468301 5.968301 -0.468301
v -0.478033 5.925000 -0.478033
v -0.478033 5.978033 -0.425000
v 0.425000 -6.000000 0.425000
v 0.500000 -5.925000 0.425000
v 0.425000 -5.925000 0.500000
v 0.478033 -5.978033 0.425000
v 0.468301 -5.968301 0.468301
v 0.478033 -5.925000 0.478033
v 0.425000 -5.978033 0.478033
v 0.425000 6.000000 0.425000
v 0.425000 5.925000 0.500000
v 0.500000 5.925000 0.425000
v 0.425000 5.978033 0.478033
v 0.468301 5.968301 0.468301
v 0.478033 5.925000 0.478033
v 0.478033 5.978033 0.425000
v 0.425000 -6.000000 -0.425000
v 0.425000 -5.925000 -0.500000
v 0.500000 -5.925000 -0.425000
v 0.425000 -5.978033 -0.478033
v 0.468301 -5.968301 -0.468301
v 0.478033 -5.925000 -0.478033
v 0.478033 -5.978033 -0.425000
v 0.425000 6.000000 -0.425000
v 0.500000 5.925000 -0.425000
v 0.425000 5.925000 -0.500000
v 0.478033 5.978033 -0.425000
v 0.468301 5.968301 -0.468301
v 0.478033 5.925000 -0.478033
v 0.425000 5.978033 -0.478033
v -0.560000 -6.000000 0.560000
v -0.560000 -5.960000 0.600000
v -0.600000 -5.960000 0.560000
v -0.560000 -5.988284 0.588284
v -0.583094 -5.983094 0.583094
v -0.588284 -5.960000 0.588284
v -0.588284 -5.988284 0.560000
v -0.560000 -5.440000 0.600000
v -0.560000 -5.400000 0.560000
v -0.600000 -5.440000 0.560000
v -0.560000 -5.411716 0.588284
v -0.583094 -5.416906 0.583094
v -0.588284 -5.411716 0.560000
v -0.588284 -5.440000 0.588284
v -0.560000 -6.000000 -0.560000
v -0.600000 -5.960000 -0.560000
v -0.560000 -5.960000 -0.600000
v -0.588284 -5.988284 -0.560000
v -0.583094 -5.983094 -0.583094
v -0.588284 -5.960000 -0.588284
v -0.560000 -5.988284 -0.588284
v -0.560000 -5.400000 -0.560000
v -0.560000 -5.440000 -0.600000
v -0.600000 -5.440000 -0.560000
v -0.560000 -5.411716 -0.588284
v -0.583094 -5.416906 -0.583094
v -0.588284 -5.440000 -0.588284
v -0.588284 -5.411716 -0.560000
v 0.560000 -6.000000 0.560000
v 0.600000 -5.960000 0.560000
v 0.560000 -5.960000 0.600000
v 0.588284 -5.988284 0.560000
v 0.583094 -5.983094 0.583094
v 0.588284 -5.960000 0.588284
v 0.560000 -5.988284 0.588284
v 0.560000 -5.400000 0.560000
v 0.560000 -5.440000 0.600000
v 0.600000 -5.440000 0.560000
v 0.560000 -5.411716 0.588284
v 0.583094 -5.416906 0.583094
v 0.588284 -5.440000 0.588284
v 0.588284 -5.411716 0.560000
v 0.560000 -6.000000 -0.560000
v 0.560000 -5.960000 -0.600000
v 0.600000 -5.960000 -0.560000
v 0.560000 -5.988284 -0.588284
v 0.583094 -5.983094 -0.583094
v 0.588284 -5.960000 -0.588284
v 0.588284 -5.988284 -0.560000
v 0.560000 -5.400000 -0.560000
v 0.600000 -5.440000 -0.560000
v 0.560000 -5.440000 -0.600000
v 0.588284 -5.411716 -0.560000
v 0.583094 -5.416906 -0.583094
v 0.588284 -5.440000 -0.588284
v 0.560000 -5.411716 -0.588284
v -0.555000 5.400000 0.555000
v -0.555000 5.445000 0.600000
v -0.600000 5.445000 0.555000
v -0.555000 5.413180 0.586820
v -0.580981 5.419019 0.580981
v -0.586820 5.445000 0.586820
v -0.586820 5.413180 0.555000
v -0.555000 5.955000 0.600000
v -0.555000 6.000000 0.555000
v -0.600000 5.955000 0.555000
v -0.555000 5.986820 0.586820
v -0.580981 5.980980 0.580981
v -0.586820 5.986820 0.555000
v -0.586820 5.955000 0.586820
v -0.555000 5.400000 -0.555000
v -0.600000 5.445000 -0.555000
v -0.555000 5.445000 -0.600000
v -0.586820 5.413180 -0.555000
v -0.580981 5.419019 -0.580981
v -0.586820 5.445000 -0.586820
v -0.555000 5.413180 -0.586820
v -0.555000 6.000000 -0.555000
v -0.555000 5.955000 -0.600000
v -0.600000 5.955000 -0.555000
v -0.555000 5.986820 -0.586820
v -0.580981 5.980980 -0.580981
v -0.586820 5.955000 -0.586820
v -0.586820 5.986820 -0.555000
v 0.555000 5.400000 0.555000
v 0.600000 5.445000 0.555000
v 0.555000 5.445000 0.600000
v 0.586820 5.413180 0.555000
v 0.580981 5.419019 0.580981
v 0.586820 5.445000 0.586820
v 0.555000 5.413180 0.586820
v 0.555000 6.000000 0.555000
v 0.555000 5.955000 0.600000
v 0.600000 5.955000 0.555000
v 0.555000 5.986820 0.586820
v 0.580981 5.980980 0.580981
v 0.586820 5.955000 0.586820
v 0.586820 5.986820 0.555000
v 0.555000 5.400000 -0.555000
v 0.555000 5.445000 -0.600000
v 0.600000 5.445000 -0.555000
v 0.555000 5.413180 -0.586820
v 0.580981 5.419019 -0.580981
v 0.586820 5.445000 -0.586820
v 0.586820 5.413180 -0.555000
v 0.555000 6.000000 -0.555000
v 0.600000 5.955000 -0.555000
v 0.555000 5.955000 -0.600000
v 0.586820 5.986820 -0.555000
v 0.580981 5.980980 -0.580981
v 0.586820 5.955000 -0.586820
v 0.555000 5.986820 -0.586820
v -0.528000 -2.380000 0.528000
v -0.528000 -2.368000 0.540000
v -0.540000 -2.368000 0.528000
v -0.528000 -2.376485 0.536485
v -0.534928 -2.374928 0.534928
v -0.536485 -2.368000 0.536485
v -0.536485 -2.376485 0.528000
v -0.528000 -2.232000 0.540000
v -0.528000 -2.220000 0.528000
v -0.540000 -2.232000 0.528000
v -0.528000 -2.223515 0.536485
v -0.534928 -2.225072 0.534928
v -0.536485 -2.223515 0.528000
v -0.536485 -2.232000 0.536485
v -0.528000 -2.380000 -0.528000
v -0.540000 -2.368000 -0.528000
v -0.528000 -2.368000 -0.540000
v -0.536485 -2.376485 -0.528000
v -0.534928 -2.374928 -0.534928
v -0.536485 -2.368000 -0.536485
v -0.528000 -2.376485 -0.536485
v -0.528000 -2.220000 -0.528000
v -0.528000 -2.232000 -0.540000
v -0.540000 -2.232000 -0.528000
v -0.528000 -2.223515 -0.536485
v -0.534928 -2.225072 -0.534928
v -0.536485 -2.232000 -0.536485
v -0.536485 -2.223515 -0.528000
v 0.528000 -2.380000 0.528000
v 0.540000 -2.368000 0.528000
v 0.528000 -2.368000 0.540000
v 0.536485 -2.376485 0.528000
v 0.534928 -2.374928 0.534928
v 0.536485 -2.368000 0.536485
v 0.528000 -2.376485 0.536485
v 0.528000 -2.220000 0.528000
v 0.528000 -2.232000 0.540000
v 0.540000 -2.232000 0.528000
v 0.528000 -2.223515 0.536485
v 0.534928 -2.225072 0.534928
v 0.536485 -2.232000 0.536485
v 0.536485 -2.223515 0.528000
v 0.528000 -2.380000 -0.528000
v 0.528000 -2.368000 -0.540000
v 0.540000 -2.368000 -0.528000
v 0.528000 -2.376485 -0.536485
v 0.534928 -2.374928 -0.534928
v 0.536485 -2.368000 -0.536485
v 0.536485 -2.376485 -0.528000
v 0.528000 -2.220000 -0.528000
v 0.540000 -2.232000 -0.528000
v 0.528000 -2.232000 -0.540000
v 0.536485 -2.223515 -0.528000
v 0.534928 -2.225072 -0.534928
v 0.536485 -2.232000 -0.536485
v 0.528000 -2.223515 -0.536485
vn -0.3672 -0.8865 0.2817
vn -0.2818 -0.3672 0.8864
vn -0.8865 -0.2817 0.3672
vn -0.3672 0.2817 0.8865
vn -0.2817 0.8865 0.3672
vn -0.8865 0.3672 0.2817
vn -0.2817 -0.8865 -0.3672
vn -0.8865 -0.3672 -0.2817
vn -0.3672 -0.2817 -0.8865
vn -0.3672 0.8865 -0.2817
vn -0.2818 0.3672 -0.8864
vn -0.8865 0.2817 -0.3672
vn 0.2817 -0.8865 0.3672
vn 0.8865 -0.3672 0.2817
vn 0.3672 -0.2817 0.8865
vn 0.3672 0.8865 0.2817
vn 0.2818 0.3672 0.8864
vn 0.8865 0.2817 0.3672
vn 0.3672 -0.8865 -0.2817
vn 0.2818 -0.3672 -0.8864
vn 0.8865 -0.2817 -0.3672
vn 0.2817 0.8865 -0.3672
vn 0.8865 0.3672 -0.2817
vn 0.3672 0.2817 -0.8865
vn -0.3827 -0.9239 -0.0000
vn -0.9239 -0.3827 -0.0000
vn -0.3827 -0.0000 0.9239
vn -0.9239 -0.0000 0.3827
vn -0.3827 0.9239 -0.0000
vn -0.9239 0.3827 -0.0000
vn -0.3827 -0.0000 -0.9239
vn -0.9239 -0.0000 -0.3827
vn -0.0000 -0.9239 -0.3827
vn -0.0000 -0.3827 -0.9239
vn -0.0000 0.9239 -0.3827
vn -0.0000 0.3827 -0.9239
vn 0.9239 -0.0000 -0.3827
vn 0.3827 -0.0000 -0.9239
vn 0.3827 -0.9239 -0.0000
vn 0.9239 -0.3827 -0.0000
vn 0.3827 0.9239 -0.0000
vn 0.9239 0.3827 -0.0000
vn 0.3827 -0.0000 0.9239
vn 0.9239 -0.0000 0.3827
vn -0.0000 -0.9239 0.3827
vn -0.0000 -0.3827 0.9239
vn -0.0000 0.9239 0.3827
vn -0.0000 0.3827 0.9239
vn -0.0000 -1.0000 -0.0000
vn -1.0000 -0.0000 -0.0000
vn -0.0000 -0.0000 1.0000
vn -0.0000 1.0000 -0.0000
vn -0.0000 -0.0000 -1.0000
vn 1.0000 -0.0000 -0.0000
vn -0.3672 -0.8865 0.2818
vn -0.2817 -0.3672 0.8865
vn -0.8865 -0.2818 0.3672
vn -0.3672 0.2818 0.8864
vn -0.2818 0.8864 0.3672
vn -0.2818 -0.8864 -0.3672
vn -0.3672 -0.2818 -0.8864
vn -0.3671 0.8865 -0.2818
vn -0.2817 0.3672 -0.8865
vn 0.2818 -0.8864 0.3672
vn 0.3672 -0.2818 0.8864
vn 0.3671 0.8865 0.2818
vn 0.2817 0.3672 0.8865
vn 0.3672 -0.8865 -0.2818
vn 0.2817 -0.3672 -0.8865
vn 0.8865 -0.2818 -0.3672
vn 0.2818 0.8864 -0.3672
vn 0.3672 0.2818 -0.8864
vn -0.3672 0.8865 -0.2818
vn -0.8864 0.2818 -0.3672
vn 0.3672 0.8865 0.2818
vn 0.8864 0.2818 0.3672
vn -0.3671 -0.8865 0.2818
vn -0.3672 0.2817 0.8864
vn -0.8864 0.3672 0.2818
vn -0.8864 -0.3672 -0.2818
vn -0.3672 -0.2817 -0.8864
vn -0.3672 0.8864 -0.2817
vn 0.8864 -0.3672 0.2818
vn 0.3672 -0.2817 0.8864
vn 0.3672 0.8864 0.2817
vn 0.3671 -0.8865 -0.2818
vn 0.8864 0.3672 -0.2818
vn 0.3672 0.2817 -0.8864
vn -0.2817 -0.8865 0.3672
vn -0.3672 -0.2817 0.8865
vn -0.8865 -0.3672 0.2817
vn -0.2818 0.3672 0.8864
vn -0.3672 0.8865 0.2817
vn -0.8865 0.2817 0.3672
vn -0.3672 -0.8865 -0.2817
vn -0.8865 -0.2817 -0.3672
vn -0.2818 -0.3672 -0.8864
vn -0.2817 0.8865 -0.3672
vn -0.3672 0.2817 -0.8865
vn -0.8865 0.3672 -0.2817
vn 0.3672 -0.8865 0.2817
vn 0.8865 -0.2817 0.3672
vn 0.2818 -0.3672 0.8864
vn 0.2817 0.8865 0.3672
vn 0.3672 0.2817 0.8865
vn 0.8865 0.3672 0.2817
vn 0.2817 -0.8865 -0.3672
vn 0.3672 -0.2817 -0.8865
vn 0.8865 -0.3672 -0.2817
vn 0.3672 0.8865 -0.2817
vn 0.8865 0.2817 -0.3672
vn 0.2818 0.3672 -0.8864
vn -0.2818 -0.8864 0.3672
vn -0.3672 -0.2818 0.8864
vn -0.2817 0.3672 0.8865
vn -0.3671 0.8865 0.2818
vn -0.3672 -0.8865 -0.2818
vn -0.8865 -0.2818 -0.3672
vn -0.2817 -0.3672 -0.8865
vn -0.2818 0.8864 -0.3672
vn -0.3672 0.2818 -0.8864
vn 0.3672 -0.8865 0.2818
vn 0.8865 -0.2818 0.3672
vn 0.2817 -0.3672 0.8865
vn 0.2818 0.8864 0.3672
vn 0.3672 0.2818 0.8864
vn 0.2818 -0.8864 -0.3672
vn 0.3672 -0.2818 -0.8864
vn 0.3671 0.8865 -0.2818
vn 0.2817 0.3672 -0.8865
vn -0.3672 0.8865 0.2818
vn -0.8864 0.2818 0.3672
vn 0.3672 0.8865 -0.2818
vn 0.8864 0.2818 -0.3672
vn -0.3672 -0.2817 0.8864
vn -0.8864 -0.3672 0.2818
vn -0.3672 0.8864 0.2817
vn -0.3671 -0.8865 -0.2818
vn -0.3672 0.2817 -0.8864
vn -0.8864 0.3672 -0.2818
vn 0.3671 -0.8865 0.2818
vn 0.3672 0.2817 0.8864
vn 0.8864 0.3672 0.2818
vn 0.3672 -0.2817 -0.8864
vn 0.8864 -0.3672 -0.2818
vn 0.3672 0.8864 -0.2817
vn -0.3826 0.9239 -0.0000
vn 0.3826 0.9239 -0.0000
vt 0.431695 0.701244
vt 0.434742 0.704832
vt 0.431362 0.705639
vt 0.079380 0.991069
vt 0.082969 0.994657
vt 0.079380 0.995464
vt 0.097243 0.991069
vt 0.093654 0.994657
vt 0.092847 0.991069
vt 0.079380 0.008931
vt 0.082969 0.005343
vt 0.083775 0.008931
vt 0.361770 0.789555
vt 0.358723 0.793144
vt 0.357782 0.789555
vt 0.097243 0.008931
vt 0.093654 0.005343
vt 0.097243 0.004536
vt 0.362436 0.701244
vt 0.358427 0.704832
vt 0.357782 0.701244
vt 0.167692 0.991069
vt 0.171280 0.994657
vt 0.167692 0.995464
vt 0.185554 0.991069
vt 0.181966 0.994657
vt 0.181159 0.991069
vt 0.431029 0.789555
vt 0.435038 0.793144
vt 0.431362 0.793950
vt 0.185554 0.008931
vt 0.181966 0.005343
vt 0.185554 0.004536
vt 0.167692 0.008931
vt 0.171280 0.005343
vt 0.172087 0.008931
vt 0.431695 0.630795
vt 0.434742 0.627206
vt 0.435683 0.630795
vt 0.344315 0.991069
vt 0.347903 0.994657
vt 0.344315 0.995464
vt 0.008931 0.991069
vt 0.005343 0.994657
vt 0.004536 0.991069
vt 0.361770 0.719106
vt 0.358723 0.715517
vt 0.362103 0.714711
vt 0.008931 0.008931
vt 0.005343 0.005343
vt 0.008931 0.004536
vt 0.344315 0.008931
vt 0.347903 0.005343
vt 0.348710 0.008931
vt 0.362436 0.630795
vt 0.358427 0.627206
vt 0.362103 0.626399
vt 0.256003 0.991069
vt 0.259592 0.994657
vt 0.256003 0.995464
vt 0.273866 0.991069
vt 0.270277 0.994657
vt 0.269470 0.991069
vt 0.431029 0.719106
vt 0.435038 0.715517
vt 0.435683 0.719106
vt 0.273866 0.008931
vt 0.270277 0.005343
vt 0.273866 0.004536
vt 0.256003 0.008931
vt 0.259592 0.005343
vt 0.260398 0.008931
vt 0.362103 0.705639
vt 0.097243 0.995464
vt 0.083775 0.991069
vt 0.092847 0.008931
vt 0.362103 0.793950
vt 0.167692 0.004536
vt 0.181159 0.008931
vt 0.172087 0.991069
vt 0.357782 0.630795
vt 0.185554 0.995464
vt 0.435683 0.789555
vt 0.256003 0.004536
vt 0.269470 0.008931
vt 0.260398 0.991069
vt 0.431362 0.626399
vt 0.273866 0.995464
vt 0.431362 0.714711
vt 0.344315 0.004536
vt 0.004536 0.008931
vt 0.348710 0.991069
vt 0.435683 0.701244
vt 0.008931 0.995464
vt 0.357782 0.719106
vt 0.079380 0.004536
vt 0.451523 0.099707
vt 0.453148 0.101621
vt 0.451345 0.102051
vt 0.403224 0.805367
vt 0.405138 0.803453
vt 0.405568 0.805367
vt 0.508164 0.099707
vt 0.510078 0.101621
vt 0.508164 0.102051
vt 0.360126 0.805367
vt 0.358212 0.803453
vt 0.360126 0.803022
vt 0.359909 0.206294
vt 0.358284 0.208208
vt 0.357782 0.206294
vt 0.465066 0.099707
vt 0.463152 0.101621
vt 0.462722 0.099707
vt 0.360264 0.099707
vt 0.358126 0.101621
vt 0.357782 0.099707
vt 0.508164 0.006880
vt 0.510078 0.004966
vt 0.510508 0.006880
vt 0.508164 0.206294
vt 0.510078 0.208208
vt 0.508164 0.208638
vt 0.451167 0.206294
vt 0.453306 0.208208
vt 0.451345 0.208638
vt 0.465066 0.206294
vt 0.463152 0.208208
vt 0.462722 0.206294
vt 0.465066 0.006880
vt 0.463152 0.004966
vt 0.465066 0.004536
vt 0.451523 0.006880
vt 0.453148 0.004966
vt 0.453650 0.006880
vt 0.508164 0.220054
vt 0.510078 0.218140
vt 0.510508 0.220054
vt 0.403224 0.898193
vt 0.405138 0.900107
vt 0.403224 0.900537
vt 0.359909 0.113467
vt 0.358284 0.111553
vt 0.360087 0.111123
vt 0.360126 0.898193
vt 0.358212 0.900107
vt 0.357782 0.898193
vt 0.465066 0.220054
vt 0.463152 0.218140
vt 0.465066 0.217710
vt 0.360264 0.006880
vt 0.358126 0.004966
vt 0.360087 0.004536
vt 0.508164 0.113467
vt 0.510078 0.111553
vt 0.510508 0.113467
vt 0.508164 0.312881
vt 0.510078 0.314795
vt 0.508164 0.315225
vt 0.451167 0.113467
vt 0.453306 0.111553
vt 0.453650 0.113467
vt 0.465066 0.312881
vt 0.463152 0.314795
vt 0.462722 0.312881
vt 0.465066 0.113467
vt 0.463152 0.111553
vt 0.465066 0.111123
vt 0.360087 0.102051
vt 0.510508 0.099707
vt 0.403224 0.803022
vt 0.465066 0.102051
vt 0.360087 0.208638
vt 0.462722 0.006880
vt 0.465066 0.208638
vt 0.508164 0.004536
vt 0.357782 0.006880
vt 0.510508 0.206294
vt 0.453650 0.206294
vt 0.462722 0.113467
vt 0.465066 0.315225
vt 0.508164 0.111123
vt 0.451345 0.004536
vt 0.510508 0.312881
vt 0.451345 0.111123
vt 0.462722 0.220054
vt 0.360126 0.900537
vt 0.508164 0.217710
vt 0.453650 0.099707
vt 0.405568 0.898193
vt 0.357782 0.113467
vt 0.357782 0.805367
vt 0.451018 0.312345
vt 0.452847 0.314498
vt 0.450818 0.314982
vt 0.507628 0.326934
vt 0.509781 0.324781
vt 0.510265 0.326934
vt 0.507628 0.525276
vt 0.509781 0.527429
vt 0.507628 0.527913
vt 0.465359 0.326934
vt 0.463206 0.324781
vt 0.465359 0.324297
vt 0.360175 0.418689
vt 0.358346 0.420842
vt 0.357782 0.418689
vt 0.465359 0.525276
vt 0.463206 0.527429
vt 0.462722 0.525276
vt 0.360575 0.312345
vt 0.358169 0.314498
vt 0.357782 0.312345
vt 0.507628 0.433278
vt 0.509781 0.431125
vt 0.510265 0.433278
vt 0.507628 0.631620
vt 0.509782 0.633773
vt 0.507628 0.634257
vt 0.450618 0.418689
vt 0.453024 0.420842
vt 0.450818 0.421326
vt 0.465359 0.631620
vt 0.463206 0.633773
vt 0.462722 0.631620
vt 0.465359 0.433278
vt 0.463206 0.431125
vt 0.465359 0.430641
vt 0.451018 0.220347
vt 0.452847 0.218194
vt 0.453411 0.220347
vt 0.507628 0.645967
vt 0.509782 0.643813
vt 0.510265 0.645967
vt 0.507628 0.418932
vt 0.509781 0.421085
vt 0.507628 0.421569
vt 0.360175 0.326691
vt 0.358346 0.324538
vt 0.360375 0.324054
vt 0.465359 0.418932
vt 0.463206 0.421085
vt 0.462722 0.418932
vt 0.465359 0.645967
vt 0.463206 0.643813
vt 0.465359 0.643329
vt 0.360575 0.220347
vt 0.358169 0.218194
vt 0.360375 0.217710
vt 0.507628 0.539622
vt 0.509782 0.537469
vt 0.510266 0.539622
vt 0.507628 0.737964
vt 0.509782 0.740117
vt 0.507628 0.740601
vt 0.450618 0.326691
vt 0.453024 0.324538
vt 0.453411 0.326691
vt 0.465359 0.737964
vt 0.463206 0.740117
vt 0.462722 0.737964
vt 0.465359 0.539622
vt 0.463206 0.537469
vt 0.465359 0.536985
vt 0.360375 0.314982
vt 0.510265 0.525276
vt 0.507628 0.324297
vt 0.465359 0.527913
vt 0.360375 0.421326
vt 0.462722 0.433278
vt 0.465359 0.634257
vt 0.507628 0.430641
vt 0.357782 0.220347
vt 0.510265 0.631620
vt 0.453411 0.418689
vt 0.462722 0.539622
vt 0.465359 0.740601
vt 0.507628 0.536985
vt 0.450818 0.217710
vt 0.510265 0.737964
vt 0.450818 0.324054
vt 0.462722 0.645967
vt 0.465359 0.421569
vt 0.507628 0.643329
vt 0.453411 0.312345
vt 0.510265 0.418932
vt 0.357782 0.326691
vt 0.462722 0.326934
vt 0.444570 0.518623
vt 0.445058 0.519198
vt 0.444517 0.519327
vt 0.474697 0.750377
vt 0.475271 0.749803
vt 0.475400 0.750377
vt 0.474697 0.935899
vt 0.475271 0.936474
vt 0.474697 0.936603
vt 0.463425 0.750377
vt 0.462851 0.749803
vt 0.463425 0.749673
vt 0.358420 0.616624
vt 0.357932 0.617198
vt 0.357782 0.616624
vt 0.463425 0.935899
vt 0.462851 0.936474
vt 0.462722 0.935899
vt 0.358527 0.518623
vt 0.357885 0.519198
vt 0.357782 0.518623
vt 0.474697 0.848377
vt 0.475271 0.847803
vt 0.475400 0.848377
vt 0.531555 0.092761
vt 0.532129 0.093336
vt 0.531555 0.093465
vt 0.444464 0.616624
vt 0.445105 0.617198
vt 0.444517 0.617327
vt 0.520283 0.092761
vt 0.519709 0.093336
vt 0.519580 0.092761
vt 0.463425 0.848377
vt 0.462851 0.847803
vt 0.463425 0.847674
vt 0.444570 0.431101
vt 0.445058 0.430527
vt 0.445209 0.431101
vt 0.531555 0.103240
vt 0.532129 0.102666
vt 0.532259 0.103240
vt 0.474697 0.837899
vt 0.475271 0.838473
vt 0.474697 0.838602
vt 0.358420 0.529102
vt 0.357932 0.528528
vt 0.358473 0.528399
vt 0.463425 0.837899
vt 0.462851 0.838473
vt 0.462722 0.837899
vt 0.520283 0.103240
vt 0.519709 0.102666
vt 0.520283 0.102537
vt 0.358527 0.431101
vt 0.357885 0.430527
vt 0.358473 0.430398
vt 0.531555 0.005239
vt 0.532129 0.004665
vt 0.532259 0.005239
vt 0.531555 0.190762
vt 0.532129 0.191336
vt 0.531555 0.191465
vt 0.444464 0.529102
vt 0.445105 0.528528
vt 0.445209 0.529102
vt 0.520283 0.190762
vt 0.519709 0.191336
vt 0.519580 0.190762
vt 0.520283 0.005239
vt 0.519709 0.004665
vt 0.520283 0.004536
vt 0.358473 0.519327
vt 0.475400 0.935899
vt 0.474697 0.749673
vt 0.463425 0.936603
vt 0.358473 0.617327
vt 0.462722 0.848377
vt 0.520283 0.093465
vt 0.474697 0.847674
vt 0.357782 0.431101
vt 0.532259 0.092761
vt 0.445209 0.616624
vt 0.519580 0.005239
vt 0.520283 0.191465
vt 0.531555 0.004536
vt 0.444517 0.430398
vt 0.532259 0.190762
vt 0.444517 0.528399
vt 0.519580 0.103240
vt 0.463425 0.838602
vt 0.531555 0.102537
vt 0.445209 0.518623
vt 0.475400 0.837899
vt 0.357782 0.529102
vt 0.462722 0.750377
s 0
usemtl pillar_Surface
f 1/1/1 5/2/1 7/3/1
f 2/4/2 5/5/2 4/6/2
f 3/7/3 5/8/3 6/9/3
f 8/10/4 12/11/4 14/12/4
f 9/13/5 12/14/5 11/15/5
f 10/16/6 12/17/6 13/18/6
f 15/19/7 19/20/7 21/21/7
f 16/22/8 19/23/8 18/24/8
f 17/25/9 19/26/9 20/27/9
f 22/28/10 26/29/10 28/30/10
f 23/31/11 26/32/11 25/33/11
f 24/34/12 26/35/12 27/36/12
f 29/37/13 33/38/13 35/39/13
f 30/40/14 33/41/14 32/42/14
f 31/43/15 33/44/15 34/45/15
f 36/46/16 40/47/16 42/48/16
f 37/49/17 40/50/17 39/51/17
f 38/52/18 40/53/18 41/54/18
f 43/55/19 47/56/19 49/57/19
f 44/58/20 47/59/20 46/60/20
f 45/61/21 47/62/21 48/63/21
f 50/64/22 54/65/22 56/66/22
f 51/67/23 54/68/23 53/69/23
f 52/70/24 54/71/24 55/72/24
f 1/1/25 18/73/25 15/19/25
f 7/74/26 16/22/26 18/24/26
f 8/10/27 6/75/27 2/4/27
f 14/76/28 3/7/28 6/9/28
f 22/28/29 13/77/29 9/13/29
f 28/78/30 10/16/30 13/18/30
f 17/25/31 27/79/31 23/31/31
f 20/80/32 24/34/32 27/36/32
f 15/19/33 46/81/33 43/55/33
f 21/82/34 44/58/34 46/60/34
f 50/64/35 25/83/35 22/28/35
f 56/84/36 23/31/36 25/33/36
f 45/61/37 55/85/37 51/67/37
f 48/86/38 52/70/38 55/72/38
f 43/55/39 32/87/39 29/37/39
f 49/88/40 30/40/40 32/42/40
f 36/46/41 53/89/41 50/64/41
f 42/90/42 51/67/42 53/69/42
f 31/43/43 41/91/43 37/49/43
f 34/92/44 38/52/44 41/54/44
f 29/37/45 4/93/45 1/1/45
f 35/94/46 2/4/46 4/6/46
f 9/13/47 39/95/47 36/46/47
f 11/96/48 37/49/48 39/51/48
f 43/55/49 1/1/49 15/19/49
f 10/16/50 16/22/50 3/7/50
f 37/49/51 2/4/51 31/43/51
f 22/28/52 36/46/52 50/64/52
f 23/31/53 44/58/53 17/25/53
f 51/67/54 30/40/54 45/61/54
f 57/97/55 61/98/55 63/99/55
f 58/100/56 61/101/56 60/102/56
f 59/103/57 61/104/57 62/105/57
f 64/106/58 68/107/58 70/108/58
f 65/109/59 68/110/59 67/111/59
f 66/112/6 68/113/6 69/114/6
f 71/115/60 75/116/60 77/117/60
f 72/118/8 75/119/8 74/120/8
f 73/121/61 75/122/61 76/123/61
f 78/124/62 82/125/62 84/126/62
f 79/127/63 82/128/63 81/129/63
f 80/130/12 82/131/12 83/132/12
f 85/133/64 89/134/64 91/135/64
f 86/136/14 89/137/14 88/138/14
f 87/139/65 89/140/65 90/141/65
f 92/142/66 96/143/66 98/144/66
f 93/145/67 96/146/67 95/147/67
f 94/148/18 96/149/18 97/150/18
f 99/151/68 103/152/68 105/153/68
f 100/154/69 103/155/69 102/156/69
f 101/157/70 103/158/70 104/159/70
f 106/160/71 110/161/71 112/162/71
f 107/163/23 110/164/23 109/165/23
f 108/166/72 110/167/72 111/168/72
f 57/97/25 74/169/25 71/115/25
f 63/170/26 72/118/26 74/120/26
f 64/106/27 62/171/27 58/100/27
f 70/172/28 59/103/28 62/105/28
f 78/124/29 69/173/29 65/109/29
f 84/174/30 66/112/30 69/114/30
f 73/121/31 83/175/31 79/127/31
f 76/176/32 80/130/32 83/132/32
f 71/115/33 102/177/33 99/151/33
f 77/178/34 100/154/34 102/156/34
f 106/160/35 81/179/35 78/124/35
f 112/180/36 79/127/36 81/129/36
f 101/157/37 111/181/37 107/163/37
f 104/182/38 108/166/38 111/168/38
f 99/151/39 88/183/39 85/133/39
f 105/184/40 86/136/40 88/138/40
f 92/142/41 109/185/41 106/160/41
f 98/186/42 107/163/42 109/165/42
f 87/139/43 97/187/43 93/145/43
f 90/188/44 94/148/44 97/150/44
f 85/133/45 60/189/45 57/97/45
f 91/190/46 58/100/46 60/102/46
f 65/109/47 95/191/47 92/142/47
f 67/192/48 93/145/48 95/147/48
f 99/151/49 57/97/49 71/115/49
f 66/112/50 72/118/50 59/103/50
f 93/145/51 58/100/51 87/139/51
f 78/124/52 92/142/52 106/160/52
f 79/127/53 100/154/53 73/121/53
f 107/163/54 86/136/54 101/157/54
f 113/193/55 117/194/55 119/195/55
f 114/196/2 117/197/2 116/198/2
f 115/199/3 117/200/3 118/201/3
f 120/202/4 124/203/4 126/204/4
f 121/205/59 124/206/59 123/207/59
f 122/208/6 124/209/6 125/210/6
f 127/211/60 131/212/60 133/213/60
f 128/214/8 131/215/8 130/216/8
f 129/217/9 131/218/9 132/219/9
f 134/220/73 138/221/73 140/222/73
f 135/223/11 138/224/11 137/225/11
f 136/226/74 138/227/74 139/228/74
f 141/229/64 145/230/64 147/231/64
f 142/232/14 145/233/14 144/234/14
f 143/235/15 145/236/15 146/237/15
f 148/238/75 152/239/75 154/240/75
f 149/241/17 152/242/17 151/243/17
f 150/244/76 152/245/76 153/246/76
f 155/247/68 159/248/68 161/249/68
f 156/250/20 159/251/20 158/252/20
f 157/253/21 159/254/21 160/255/21
f 162/256/71 166/257/71 168/258/71
f 163/259/23 166/260/23 165/261/23
f 164/262/24 166/263/24 167/264/24
f 113/193/25 130/265/25 127/211/25
f 119/266/26 128/214/26 130/216/26
f 120/202/27 118/267/27 114/196/27
f 126/268/28 115/199/28 118/201/28
f 134/220/29 125/269/29 121/205/29
f 140/270/30 122/208/30 125/210/30
f 129/217/31 139/271/31 135/223/31
f 132/272/32 136/226/32 139/228/32
f 127/211/33 158/273/33 155/247/33
f 133/274/34 156/250/34 158/252/34
f 162/256/35 137/275/35 134/220/35
f 168/276/36 135/223/36 137/225/36
f 157/253/37 167/277/37 163/259/37
f 160/278/38 164/262/38 167/264/38
f 155/247/39 144/279/39 141/229/39
f 161/280/40 142/232/40 144/234/40
f 148/238/41 165/281/41 162/256/41
f 154/282/42 163/259/42 165/261/42
f 143/235/43 153/283/43 149/241/43
f 146/284/44 150/244/44 153/246/44
f 141/229/45 116/285/45 113/193/45
f 147/286/46 114/196/46 116/198/46
f 121/205/47 151/287/47 148/238/47
f 123/288/48 149/241/48 151/243/48
f 155/247/49 113/193/49 127/211/49
f 122/208/50 128/214/50 115/199/50
f 149/241/51 114/196/51 143/235/51
f 134/220/52 148/238/52 162/256/52
f 135/223/53 156/250/53 129/217/53
f 163/259/54 142/232/54 157/253/54
f 169/289/77 173/290/77 175/291/77
f 170/292/56 173/293/56 172/294/56
f 171/295/3 173/296/3 174/297/3
f 176/298/78 180/299/78 182/300/78
f 177/301/5 180/302/5 179/303/5
f 178/304/79 180/305/79 181/306/79
f 183/307/7 187/308/7 189/309/7
f 184/310/80 187/311/80 186/312/80
f 185/313/81 187/314/81 188/315/81
f 190/316/82 194/317/82 196/318/82
f 191/319/63 194/320/63 193/321/63
f 192/322/12 194/323/12 195/324/12
f 197/325/13 201/326/13 203/327/13
f 198/328/83 201/329/83 200/330/83
f 199/331/84 201/332/84 202/333/84
f 204/334/85 208/335/85 210/336/85
f 205/337/67 208/338/67 207/339/67
f 206/340/18 208/341/18 209/342/18
f 211/343/86 215/344/86 217/345/86
f 212/346/69 215/347/69 214/348/69
f 213/349/21 215/350/21 216/351/21
f 218/352/22 222/353/22 224/354/22
f 219/355/87 222/356/87 221/357/87
f 220/358/88 222/359/88 223/360/88
f 169/289/25 186/361/25 183/307/25
f 175/362/26 184/310/26 186/312/26
f 176/298/27 174/363/27 170/292/27
f 182/364/28 171/295/28 174/297/28
f 190/316/29 181/365/29 177/301/29
f 196/366/30 178/304/30 181/306/30
f 185/313/31 195/367/31 191/319/31
f 188/368/32 192/322/32 195/324/32
f 183/307/33 214/369/33 211/343/33
f 189/370/34 212/346/34 214/348/34
f 218/352/35 193/371/35 190/316/35
f 224/372/36 191/319/36 193/321/36
f 213/349/37 223/373/37 219/355/37
f 216/374/38 220/358/38 223/360/38
f 211/343/39 200/375/39 197/325/39
f 217/376/40 198/328/40 200/330/40
f 204/334/41 221/377/41 218/352/41
f 210/378/42 219/355/42 221/357/42
f 199/331/43 209/379/43 205/337/43
f 202/380/44 206/340/44 209/342/44
f 197/325/45 172/381/45 169/289/45
f 203/382/46 170/292/46 172/294/46
f 177/301/47 207/383/47 204/334/47
f 179/384/48 205/337/48 207/339/48
f 211/343/49 169/289/49 183/307/49
f 178/304/50 184/310/50 171/295/50
f 205/337/51 170/292/51 199/331/51
f 190/316/52 204/334/52 218/352/52
f 191/319/53 212/346/53 185/313/53
f 219/355/54 198/328/54 213/349/54
f 1/1/89 4/93/89 5/2/89
f 2/4/90 6/75/90 5/5/90
f 3/7/91 7/74/91 5/8/91
f 8/10/92 11/96/92 12/11/92
f 9/13/93 13/77/93 12/14/93
f 10/16/94 14/76/94 12/17/94
f 15/19/95 18/73/95 19/20/95
f 16/22/96 20/80/96 19/23/96
f 17/25/97 21/82/97 19/26/97
f 22/28/98 25/83/98 26/29/98
f 23/31/99 27/79/99 26/32/99
f 24/34/100 28/78/100 26/35/100
f 29/37/101 32/87/101 33/38/101
f 30/40/102 34/92/102 33/41/102
f 31/43/103 35/94/103 33/44/103
f 36/46/104 39/95/104 40/47/104
f 37/49/105 41/91/105 40/50/105
f 38/52/106 42/90/106 40/53/106
f 43/55/107 46/81/107 47/56/107
f 44/58/108 48/86/108 47/59/108
f 45/61/109 49/88/109 47/62/109
f 50/64/110 53/89/110 54/65/110
f 51/67/111 55/85/111 54/68/111
f 52/70/112 56/84/112 54/71/112
f 1/1/25 7/3/25 18/73/25
f 7/74/26 3/7/26 16/22/26
f 8/10/27 14/12/27 6/75/27
f 14/76/28 10/16/28 3/7/28
f 22/28/29 28/30/29 13/77/29
f 28/78/30 24/34/30 10/16/30
f 17/25/31 20/27/31 27/79/31
f 20/80/32 16/22/32 24/34/32
f 15/19/33 21/21/33 46/81/33
f 21/82/34 17/25/34 44/58/34
f 50/64/35 56/66/35 25/83/35
f 56/84/36 52/70/36 23/31/36
f 45/61/37 48/63/37 55/85/37
f 48/86/38 44/58/38 52/70/38
f 43/55/39 49/57/39 32/87/39
f 49/88/40 45/61/40 30/40/40
f 36/46/41 42/48/41 53/89/41
f 42/90/42 38/52/42 51/67/42
f 31/43/43 34/45/43 41/91/43
f 34/92/44 30/40/44 38/52/44
f 29/37/45 35/39/45 4/93/45
f 35/94/46 31/43/46 2/4/46
f 9/13/47 11/15/47 39/95/47
f 11/96/48 8/10/48 37/49/48
f 43/55/49 29/37/49 1/1/49
f 10/16/50 24/34/50 16/22/50
f 37/49/51 8/10/51 2/4/51
f 22/28/52 9/13/52 36/46/52
f 23/31/53 52/70/53 44/58/53
f 51/67/54 38/52/54 30/40/54
f 57/97/113 60/189/113 61/98/113
f 58/100/114 62/171/114 61/101/114
f 59/103/91 63/170/91 61/104/91
f 64/106/115 67/192/115 68/107/115
f 65/109/116 69/173/116 68/110/116
f 66/112/94 70/172/94 68/113/94
f 71/115/117 74/169/117 75/116/117
f 72/118/118 76/176/118 75/119/118
f 73/121/119 77/178/119 75/122/119
f 78/124/120 81/179/120 82/125/120
f 79/127/121 83/175/121 82/128/121
f 80/130/100 84/174/100 82/131/100
f 85/133/122 88/183/122 89/134/122
f 86/136/123 90/188/123 89/137/123
f 87/139/124 91/190/124 89/140/124
f 92/142/125 95/191/125 96/143/125
f 93/145/126 97/187/126 96/146/126
f 94/148/106 98/186/106 96/149/106
f 99/151/127 102/177/127 103/152/127
f 100/154/128 104/182/128 103/155/128
f 101/157/109 105/184/109 103/158/109
f 106/160/129 109/185/129 110/161/129
f 107/163/111 111/181/111 110/164/111
f 108/166/130 112/180/130 110/167/130
f 57/97/25 63/99/25 74/169/25
f 63/170/26 59/103/26 72/118/26
f 64/106/27 70/108/27 62/171/27
f 70/172/28 66/112/28 59/103/28
f 78/124/29 84/126/29 69/173/29
f 84/174/30 80/130/30 66/112/30
f 73/121/31 76/123/31 83/175/31
f 76/176/32 72/118/32 80/130/32
f 71/115/33 77/117/33 102/177/33
f 77/178/34 73/121/34 100/154/34
f 106/160/35 112/162/35 81/179/35
f 112/180/36 108/166/36 79/127/36
f 101/157/37 104/159/37 111/181/37
f 104/182/38 100/154/38 108/166/38
f 99/151/39 105/153/39 88/183/39
f 105/184/40 101/157/40 86/136/40
f 92/142/41 98/144/41 109/185/41
f 98/186/42 94/148/42 107/163/42
f 87/139/43 90/141/43 97/187/43
f 90/188/44 86/136/44 94/148/44
f 85/133/45 91/135/45 60/189/45
f 91/190/46 87/139/46 58/100/46
f 65/109/47 67/111/47 95/191/47
f 67/192/48 64/106/48 93/145/48
f 99/151/49 85/133/49 57/97/49
f 66/112/50 80/130/50 72/118/50
f 93/145/51 64/106/51 58/100/51
f 78/124/52 65/109/52 92/142/52
f 79/127/53 108/166/53 100/154/53
f 107/163/54 94/148/54 86/136/54
f 113/193/113 116/285/113 117/194/113
f 114/196/90 118/267/90 117/197/90
f 115/199/91 119/266/91 117/200/91
f 120/202/92 123/288/92 124/203/92
f 121/205/131 125/269/131 124/206/131
f 122/208/132 126/268/132 124/209/132
f 127/211/117 130/265/117 131/212/117
f 128/214/96 132/272/96 131/215/96
f 129/217/97 133/274/97 131/218/97
f 134/220/120 137/275/120 138/221/120
f 135/223/99 139/271/99 138/224/99
f 136/226/100 140/270/100 138/227/100
f 141/229/122 144/279/122 145/230/122
f 142/232/102 146/284/102 145/233/102
f 143/235/103 147/286/103 145/236/103
f 148/238/125 151/287/125 152/239/125
f 149/241/105 153/283/105 152/242/105
f 150/244/106 154/282/106 152/245/106
f 155/247/127 158/273/127 159/248/127
f 156/250/108 160/278/108 159/251/108
f 157/253/109 161/280/109 159/254/109
f 162/256/133 165/281/133 166/257/133
f 163/259/134 167/277/134 166/260/134
f 164/262/112 168/276/112 166/263/112
f 113/193/25 119/195/25 130/265/25
f 119/266/26 115/199/26 128/214/26
f 120/202/27 126/204/27 118/267/27
f 126/268/28 122/208/28 115/199/28
f 134/220/29 140/222/29 125/269/29
f 140/270/30 136/226/30 122/208/30
f 129/217/31 132/219/31 139/271/31
f 132/272/32 128/214/32 136/226/32
f 127/211/33 133/213/33 158/273/33
f 133/274/34 129/217/34 156/250/34
f 162/256/35 168/258/35 137/275/35
f 168/276/36 164/262/36 135/223/36
f 157/253/37 160/255/37 167/277/37
f 160/278/38 156/250/38 164/262/38
f 155/247/39 161/249/39 144/279/39
f 161/280/40 157/253/40 142/232/40
f 148/238/41 154/240/41 165/281/41
f 154/282/42 150/244/42 163/259/42
f 143/235/43 146/237/43 153/283/43
f 146/284/44 142/232/44 150/244/44
f 141/229/45 147/231/45 116/285/45
f 147/286/46 143/235/46 114/196/46
f 121/205/47 123/207/47 151/287/47
f 123/288/48 120/202/48 149/241/48
f 155/247/49 141/229/49 113/193/49
f 122/208/50 136/226/50 128/214/50
f 149/241/51 120/202/51 114/196/51
f 134/220/52 121/205/52 148/238/52
f 135/223/53 164/262/53 156/250/53
f 163/259/54 150/244/54 142/232/54
f 169/289/89 172/381/89 173/290/89
f 170/292/135 174/363/135 173/293/135
f 171/295/136 175/362/136 173/296/136
f 176/298/115 179/384/115 180/299/115
f 177/301/137 181/365/137 180/302/137
f 178/304/94 182/364/94 180/305/94
f 183/307/138 186/361/138 187/308/138
f 184/310/96 188/368/96 187/311/96
f 185/313/119 189/370/119 187/314/119
f 190/316/98 193/371/98 194/317/98
f 191/319/139 195/367/139 194/320/139
f 192/322/140 196/366/140 194/323/140
f 197/325/141 200/375/141 201/326/141
f 198/328/102 202/380/102 201/329/102
f 199/331/124 203/382/124 201/332/124
f 204/334/104 207/383/104 208/335/104
f 205/337/142 209/379/142 208/338/142
f 206/340/143 210/378/143 208/341/143
f 211/343/107 214/369/107 215/344/107
f 212/346/144 216/374/144 215/347/144
f 213/349/145 217/376/145 215/350/145
f 218/352/146 221/377/146 222/353/146
f 219/355/111 223/373/111 222/356/111
f 220/358/130 224/372/130 222/359/130
f 169/289/25 175/291/25 186/361/25
f 175/362/26 171/295/26 184/310/26
f 176/298/27 182/300/27 174/363/27
f 182/364/28 178/304/28 171/295/28
f 190/316/147 196/318/147 181/365/147
f 196/366/30 192/322/30 178/304/30
f 185/313/31 188/315/31 195/367/31
f 188/368/32 184/310/32 192/322/32
f 183/307/33 189/309/33 214/369/33
f 189/370/34 185/313/34 212/346/34
f 218/352/35 224/354/35 193/371/35
f 224/372/36 220/358/36 191/319/36
f 213/349/37 216/351/37 223/373/37
f 216/374/38 212/346/38 220/358/38
f 211/343/39 217/345/39 200/375/39
f 217/376/40 213/349/40 198/328/40
f 204/334/148 210/336/148 221/377/148
f 210/378/42 206/340/42 219/355/42
f 199/331/43 202/333/43 209/379/43
f 202/380/44 198/328/44 206/340/44
f 197/325/45 203/327/45 172/381/45
f 203/382/46 199/331/46 170/292/46
f 177/301/47 179/303/47 207/383/47
f 179/384/48 176/298/48 205/337/48
f 211/343/49 197/325/49 169/289/49
f 178/304/50 192/322/50 184/310/50
f 205/337/51 176/298/51 170/292/51
f 190/316/52 177/301/52 204/334/52
f 191/319/53 220/358/53 212/346/53
f 219/355/54 206/340/54 198/328/54
