# Blender 5.2.1 LTS
# www.blender.org
mtllib signpost.mtl
o signpost
v -1.982000 2.400000 0.107000
v -1.982000 2.418000 0.125000
v -2.000000 2.418000 0.107000
v -1.982000 4.582000 0.125000
v -1.982000 4.600000 0.107000
v -2.000000 4.582000 0.107000
v -1.982000 2.400000 -0.107000
v -2.000000 2.418000 -0.107000
v -1.982000 2.418000 -0.125000
v -1.982000 4.600000 -0.107000
v -1.982000 4.582000 -0.125000
v -2.000000 4.582000 -0.107000
v 1.982000 2.400000 0.107000
v 2.000000 2.418000 0.107000
v 1.982000 2.418000 0.125000
v 1.982000 4.600000 0.107000
v 1.982000 4.582000 0.125000
v 2.000000 4.582000 0.107000
v 1.982000 2.400000 -0.107000
v 1.982000 2.418000 -0.125000
v 2.000000 2.418000 -0.107000
v 1.982000 4.600000 -0.107000
v 2.000000 4.582000 -0.107000
v 1.982000 4.582000 -0.125000
v -0.163000 0.000000 0.163000
v -0.163000 0.012000 0.175000
v -0.175000 0.012000 0.163000
v -0.163000 2.428000 0.175000
v -0.163000 2.440000 0.163000
v -0.175000 2.428000 0.163000
v -0.163000 0.000000 -0.163000
v -0.175000 0.012000 -0.163000
v -0.163000 0.012000 -0.175000
v -0.163000 2.440000 -0.163000
v -0.163000 2.428000 -0.175000
v -0.175000 2.428000 -0.163000
v 0.163000 0.000000 0.163000
v 0.175000 0.012000 0.163000
v 0.163000 0.012000 0.175000
v 0.163000 2.440000 0.163000
v 0.163000 2.428000 0.175000
v 0.175000 2.428000 0.163000
v 0.163000 0.000000 -0.163000
v 0.163000 0.012000 -0.175000
v 0.175000 0.012000 -0.163000
v 0.163000 2.440000 -0.163000
v 0.175000 2.428000 -0.163000
v 0.163000 2.428000 -0.175000
vn -0.5774 -0.5774 0.5773
vn -0.5773 0.5774 0.5774
vn -0.5774 -0.5774 -0.5773
vn -0.5773 0.5774 -0.5774
vn 0.5774 -0.5774 0.5773
vn 0.5773 0.5774 0.5774
vn 0.5774 -0.5774 -0.5773
vn 0.5773 0.5774 -0.5774
vn -0.7071 -0.7071 -0.0000
vn -0.7071 -0.0000 0.7071
vn -0.7071 0.7071 -0.0000
vn -0.7071 -0.0000 -0.7071
vn -0.0000 -0.7071 -0.7071
vn -0.0000 0.7071 -0.7071
vn 0.7071 -0.0000 -0.7071
vn 0.7071 -0.7071 -0.0000
vn 0.7071 0.7071 -0.0000
vn 0.7071 -0.0000 0.7071
vn -0.0000 -0.7071 0.7071
vn -0.0000 0.7071 0.7071
vn -0.0000 -1.0000 -0.0000
vn -1.0000 -0.0000 -0.0000
vn -0.0000 -0.0000 1.0000
vn -0.0000 1.0000 -0.0000
vn -0.0000 -0.0000 -1.0000
vn 1.0000 -0.0000 -0.0000
vn -0.5774 -0.5773 0.5774
vn -0.5774 0.5773 0.5774
vn -0.5774 -0.5773 -0.5774
vn -0.5774 0.5773 -0.5774
vn 0.5774 -0.5773 0.5774
vn 0.5774 0.5773 0.5774
vn 0.5774 -0.5773 -0.5774
vn 0.5774 0.5773 -0.5774
vt 0.144562 0.031250
vt 0.140625 0.033232
vt 0.144562 0.033232
vt 0.140625 0.271456
vt 0.144562 0.273438
vt 0.144562 0.271456
vt 0.191375 0.031250
vt 0.191375 0.033232
vt 0.195312 0.033232
vt 0.191375 0.273438
vt 0.195312 0.271456
vt 0.191375 0.271456
vt 0.980578 0.402875
vt 0.144422 0.362750
vt 0.144422 0.402875
vt 0.980016 0.980028
vt 0.019984 0.457472
vt 0.980016 0.457472
vt 0.980578 0.362750
vt 0.019984 0.980028
vt 0.018304 0.031250
vt 0.018304 0.033094
vt 0.015625 0.033094
vt 0.018304 0.404406
vt 0.018304 0.406250
vt 0.015625 0.404406
vt 0.091071 0.031250
vt 0.093750 0.033094
vt 0.091071 0.033094
vt 0.091071 0.406250
vt 0.091071 0.404406
vt 0.093750 0.404406
vt 0.317634 0.262946
vt 0.244866 0.190179
vt 0.244866 0.262946
vt 0.317634 0.190179
s 0
usemtl Signpost_Walnut
f 1/1/1 2/2/1 3/3/1
f 4/4/2 5/5/2 6/6/2
f 7/7/3 8/8/3 9/9/3
f 10/10/4 11/11/4 12/12/4
f 13/1/5 14/3/5 15/2/5
f 16/5/6 17/4/6 18/6/6
f 19/7/7 20/9/7 21/8/7
f 22/10/8 23/12/8 24/11/8
f 1/1/9 8/8/9 7/7/9
f 4/4/10 3/3/10 2/2/10
f 10/10/11 6/6/11 5/5/11
f 9/9/12 12/12/12 11/11/12
f 7/7/13 20/9/13 19/7/13
f 22/10/14 11/11/14 10/10/14
f 21/8/15 24/11/15 23/12/15
f 19/7/16 14/3/16 13/1/16
f 16/5/17 23/12/17 22/10/17
f 15/2/18 18/6/18 17/4/18
f 13/1/19 2/2/19 1/1/19
f 5/5/20 17/4/20 16/5/20
f 19/13/21 1/14/21 7/15/21
f 6/6/22 8/8/22 3/3/22
f 17/16/23 2/17/23 15/18/23
f 10/15/24 16/19/24 22/13/24
f 11/20/25 20/18/25 9/17/25
f 23/12/26 14/3/26 21/8/26
f 25/21/27 26/22/27 27/23/27
f 28/24/28 29/25/28 30/26/28
f 31/21/29 32/23/29 33/22/29
f 34/25/30 35/24/30 36/26/30
f 37/27/31 38/28/31 39/29/31
f 40/30/32 41/31/32 42/32/32
f 43/27/33 44/29/33 45/28/33
f 46/30/34 47/32/34 48/31/34
f 25/21/9 32/29/9 31/27/9
f 28/24/10 27/23/10 26/22/10
f 34/30/11 30/24/11 29/25/11
f 33/22/12 36/26/12 35/24/12
f 31/21/13 44/29/13 43/27/13
f 46/30/14 35/24/14 34/25/14
f 45/28/15 48/31/15 47/32/15
f 43/27/16 38/22/16 37/21/16
f 40/25/17 47/31/17 46/30/17
f 39/29/18 42/32/18 41/31/18
f 37/27/19 26/22/19 25/21/19
f 29/25/20 41/31/20 40/30/20
f 43/33/21 25/34/21 31/35/21
f 30/24/22 32/29/22 27/22/22
f 41/31/23 26/22/23 39/29/23
f 34/35/24 40/36/24 46/33/24
f 35/24/25 44/29/25 33/22/25
f 47/31/26 38/22/26 45/29/26
f 1/1/9 3/3/9 8/8/9
f 4/4/10 6/6/10 3/3/10
f 10/10/11 12/12/11 6/6/11
f 9/9/12 8/8/12 12/12/12
f 7/7/13 9/9/13 20/9/13
f 22/10/14 24/11/14 11/11/14
f 21/8/15 20/9/15 24/11/15
f 19/7/16 21/8/16 14/3/16
f 16/5/17 18/6/17 23/12/17
f 15/2/18 14/3/18 18/6/18
f 13/1/19 15/2/19 2/2/19
f 5/5/20 4/4/20 17/4/20
f 19/13/21 13/19/21 1/14/21
f 6/6/22 12/12/22 8/8/22
f 17/16/23 4/20/23 2/17/23
f 10/15/24 5/14/24 16/19/24
f 11/20/25 24/16/25 20/18/25
f 23/12/26 18/6/26 14/3/26
f 25/21/9 27/22/9 32/29/9
f 28/24/10 30/26/10 27/23/10
f 34/30/11 36/31/11 30/24/11
f 33/22/12 32/23/12 36/26/12
f 31/21/13 33/22/13 44/29/13
f 46/30/14 48/31/14 35/24/14
f 45/28/15 44/29/15 48/31/15
f 43/27/16 45/29/16 38/22/16
f 40/25/17 42/24/17 47/31/17
f 39/29/18 38/28/18 42/32/18
f 37/27/19 39/29/19 26/22/19
f 29/25/20 28/24/20 41/31/20
f 43/33/21 37/36/21 25/34/21
f 30/24/22 36/31/22 32/29/22
f 41/31/23 28/24/23 26/22/23
f 34/35/24 29/34/24 40/36/24
f 35/24/25 48/31/25 44/29/25
f 47/31/26 42/24/26 38/22/26
