# Blender 5.2.1 LTS
# www.blender.org
mtllib wall.mtl
o wall
v -69.980003 -6.000000 0.370000
v -69.980003 -5.980000 0.390000
v -70.000000 -5.980000 0.370000
v -69.980003 -5.994142 0.384142
v -69.991547 -5.991547 0.381547
v -69.994141 -5.980000 0.384142
v -69.994141 -5.994142 0.370000
v -69.980003 5.980000 0.390000
v -69.980003 6.000000 0.370000
v -70.000000 5.980000 0.370000
v -69.980003 5.994142 0.384142
v -69.991547 5.991547 0.381547
v -69.994141 5.994142 0.370000
v -69.994141 5.980000 0.384142
v -69.980003 -6.000000 -0.370000
v -70.000000 -5.980000 -0.370000
v -69.980003 -5.980000 -0.390000
v -69.994148 -5.994142 -0.370000
v -69.991554 -5.991547 -0.381547
v -69.994148 -5.980000 -0.384142
v -69.980011 -5.994142 -0.384142
v -69.980003 6.000000 -0.370000
v -69.980003 5.980000 -0.390000
v -70.000000 5.980000 -0.370000
v -69.980003 5.994142 -0.384142
v -69.991547 5.991547 -0.381547
v -69.994141 5.980000 -0.384142
v -69.994141 5.994142 -0.370000
v 69.980003 -6.000000 0.370000
v 70.000000 -5.980000 0.370000
v 69.980003 -5.980000 0.390000
v 69.994148 -5.994142 0.370000
v 69.991554 -5.991547 0.381547
v 69.994148 -5.980000 0.384142
v 69.980011 -5.994142 0.384142
v 69.980003 6.000000 0.370000
v 69.980003 5.980000 0.390000
v 70.000000 5.980000 0.370000
v 69.980003 5.994142 0.384142
v 69.991547 5.991547 0.381547
v 69.994141 5.980000 0.384142
v 69.994141 5.994142 0.370000
v 69.980003 -6.000000 -0.370000
v 69.980003 -5.980000 -0.390000
v 70.000000 -5.980000 -0.370000
v 69.980003 -5.994142 -0.384142
v 69.991547 -5.991547 -0.381547
v 69.994141 -5.980000 -0.384142
v 69.994141 -5.994142 -0.370000
v 69.980003 6.000000 -0.370000
v 70.000000 5.980000 -0.370000
v 69.980003 5.980000 -0.390000
v 69.994148 5.994142 -0.370000
v 69.991554 5.991547 -0.381547
v 69.994148 5.980000 -0.384142
v 69.980011 5.994142 -0.384142
v -69.964996 -6.000000 -0.415000
v -69.964996 -5.965000 -0.380000
v -70.000000 -5.965000 -0.415000
v -69.964996 -5.989748 -0.390251
v -69.985207 -5.985207 -0.394793
v -69.989746 -5.965000 -0.390251
v -69.989746 -5.989748 -0.415000
v -69.964996 -5.475000 -0.380000
v -69.964996 -5.440000 -0.415000
v -70.000000 -5.475000 -0.415000
v -69.964996 -5.450251 -0.390251
v -69.985207 -5.454792 -0.394793
v -69.989746 -5.450251 -0.415000
v -69.989746 -5.475000 -0.390251
v -69.964996 -6.000000 -0.465000
v -70.000000 -5.965000 -0.465000
v -69.964996 -5.965000 -0.500000
v -69.989746 -5.989748 -0.465000
v -69.985207 -5.985207 -0.485207
v -69.989746 -5.965000 -0.489749
v -69.964996 -5.989748 -0.489749
v -69.964996 -5.440000 -0.465000
v -69.964996 -5.475000 -0.500000
v -70.000000 -5.475000 -0.465000
v -69.964996 -5.450251 -0.489749
v -69.985207 -5.454792 -0.485207
v -69.989746 -5.475000 -0.489749
v -69.989746 -5.450251 -0.465000
v 69.964996 -6.000000 -0.415000
v 70.000000 -5.965000 -0.415000
v 69.964996 -5.965000 -0.380000
v 69.989746 -5.989748 -0.415000
v 69.985207 -5.985207 -0.394793
v 69.989746 -5.965000 -0.390251
v 69.964996 -5.989748 -0.390251
v 69.964996 -5.440000 -0.415000
v 69.964996 -5.475000 -0.380000
v 70.000000 -5.475000 -0.415000
v 69.964996 -5.450251 -0.390251
v 69.985207 -5.454792 -0.394793
v 69.989746 -5.475000 -0.390251
v 69.989746 -5.450251 -0.415000
v 69.964996 -6.000000 -0.465000
v 69.964996 -5.965000 -0.500000
v 70.000000 -5.965000 -0.465000
v 69.964996 -5.989748 -0.489749
v 69.985207 -5.985207 -0.485207
v 69.989746 -5.965000 -0.489749
v 69.989746 -5.989748 -0.465000
v 69.964996 -5.440000 -0.465000
v 70.000000 -5.475000 -0.465000
v 69.964996 -5.475000 -0.500000
v 69.989746 -5.450251 -0.465000
v 69.985207 -5.454792 -0.485207
v 69.989746 -5.475000 -0.489749
v 69.964996 -5.450251 -0.489749
v -69.982002 -2.390000 -0.398000
v -69.982002 -2.372000 -0.380000
v -70.000000 -2.372000 -0.398000
v -69.982002 -2.384728 -0.385272
v -69.992393 -2.382392 -0.387608
v -69.994728 -2.372000 -0.385272
v -69.994728 -2.384728 -0.398000
v -69.982002 -2.228000 -0.380000
v -69.982002 -2.210000 -0.398000
v -70.000000 -2.228000 -0.398000
v -69.982002 -2.215272 -0.385272
v -69.992393 -2.217608 -0.387608
v -69.994728 -2.215272 -0.398000
v -69.994728 -2.228000 -0.385272
v -69.982002 -2.390000 -0.482000
v -70.000000 -2.372000 -0.482000
v -69.982002 -2.372000 -0.500000
v -69.994720 -2.384728 -0.482000
v -69.992386 -2.382392 -0.492392
v -69.994720 -2.372000 -0.494728
v -69.981995 -2.384728 -0.494728
v -69.982002 -2.210000 -0.482000
v -69.982002 -2.228000 -0.500000
v -70.000000 -2.228000 -0.482000
v -69.982002 -2.215272 -0.494728
v -69.992393 -2.217608 -0.492392
v -69.994728 -2.228000 -0.494728
v -69.994728 -2.215272 -0.482000
v 69.982002 -2.390000 -0.398000
v 70.000000 -2.372000 -0.398000
v 69.982002 -2.372000 -0.380000
v 69.994720 -2.384728 -0.398000
v 69.992386 -2.382392 -0.387608
v 69.994720 -2.372000 -0.385272
v 69.981995 -2.384728 -0.385272
v 69.982002 -2.210000 -0.398000
v 69.982002 -2.228000 -0.380000
v 70.000000 -2.228000 -0.398000
v 69.982002 -2.215272 -0.385272
v 69.992393 -2.217608 -0.387608
v 69.994728 -2.228000 -0.385272
v 69.994728 -2.215272 -0.398000
v 69.982002 -2.390000 -0.482000
v 69.982002 -2.372000 -0.500000
v 70.000000 -2.372000 -0.482000
v 69.982002 -2.384728 -0.494728
v 69.992393 -2.382392 -0.492392
v 69.994728 -2.372000 -0.494728
v 69.994728 -2.384728 -0.482000
v 69.982002 -2.210000 -0.482000
v 70.000000 -2.228000 -0.482000
v 69.982002 -2.228000 -0.500000
v 69.994720 -2.215272 -0.482000
v 69.992386 -2.217608 -0.492392
v 69.994720 -2.228000 -0.494728
v 69.981995 -2.215272 -0.494728
v -69.959999 5.540000 -0.420000
v -69.959999 5.580000 -0.380000
v -70.000000 5.580000 -0.420000
v -69.959999 5.551716 -0.391716
v -69.983093 5.556906 -0.396906
v -69.988281 5.580000 -0.391716
v -69.988281 5.551716 -0.420000
v -69.959999 5.960000 -0.380000
v -69.959999 6.000000 -0.420000
v -70.000000 5.960000 -0.420000
v -69.959999 5.988284 -0.391716
v -69.983093 5.983094 -0.396906
v -69.988281 5.988284 -0.420000
v -69.988281 5.960000 -0.391716
v -69.959999 5.540000 -0.460000
v -70.000000 5.580000 -0.460000
v -69.959999 5.580000 -0.500000
v -69.988274 5.551716 -0.460000
v -69.983086 5.556906 -0.483094
v -69.988274 5.580000 -0.488284
v -69.959991 5.551716 -0.488284
v -69.959999 6.000000 -0.460000
v -69.959999 5.960000 -0.500000
v -70.000000 5.960000 -0.460000
v -69.959999 5.988284 -0.488284
v -69.983093 5.983094 -0.483094
v -69.988281 5.960000 -0.488284
v -69.988281 5.988284 -0.460000
v 69.959999 5.540000 -0.420000
v 70.000000 5.580000 -0.420000
v 69.959999 5.580000 -0.380000
v 69.988274 5.551716 -0.420000
v 69.983086 5.556906 -0.396906
v 69.988274 5.580000 -0.391716
v 69.959991 5.551716 -0.391716
v 69.959999 6.000000 -0.420000
v 69.959999 5.960000 -0.380000
v 70.000000 5.960000 -0.420000
v 69.959999 5.988284 -0.391716
v 69.983093 5.983094 -0.396906
v 69.988281 5.960000 -0.391716
v 69.988281 5.988284 -0.420000
v 69.959999 5.540000 -0.460000
v 69.959999 5.580000 -0.500000
v 70.000000 5.580000 -0.460000
v 69.959999 5.551716 -0.488284
v 69.983093 5.556906 -0.483094
v 69.988281 5.580000 -0.488284
v 69.988281 5.551716 -0.460000
v 69.959999 6.000000 -0.460000
v 70.000000 5.960000 -0.460000
v 69.959999 5.960000 -0.500000
v 69.988274 5.988284 -0.460000
v 69.983086 5.983094 -0.483094
v 69.988274 5.960000 -0.488284
v 69.959991 5.988284 -0.488284
v -69.889999 -5.510000 -0.409000
v -69.889999 -5.490000 -0.389000
v -69.910004 -5.490000 -0.409000
v -69.889999 -5.504142 -0.394858
v -69.901550 -5.501547 -0.397453
v -69.904144 -5.490000 -0.394858
v -69.904144 -5.504142 -0.409000
v -69.889999 -2.610000 -0.389000
v -69.889999 -2.590000 -0.409000
v -69.910004 -2.610000 -0.409000
v -69.889999 -2.595858 -0.394858
v -69.901550 -2.598453 -0.397453
v -69.904144 -2.595858 -0.409000
v -69.904144 -2.610000 -0.394858
v -69.889999 -5.490000 -0.429000
v -69.901550 -5.501547 -0.420547
v -69.904144 -5.490000 -0.423142
v -69.889999 -5.504142 -0.423142
v -69.889999 -2.610000 -0.429000
v -69.889999 -2.595858 -0.423142
v -69.901550 -2.598453 -0.420547
v -69.904144 -2.610000 -0.423142
v -60.110001 -5.510000 -0.409000
v -60.090000 -5.490000 -0.409000
v -60.110001 -5.490000 -0.389000
v -60.095860 -5.504142 -0.409000
v -60.098454 -5.501547 -0.397453
v -60.095860 -5.490000 -0.394858
v -60.110001 -5.504142 -0.394858
v -60.110001 -2.590000 -0.409000
v -60.110001 -2.610000 -0.389000
v -60.090000 -2.610000 -0.409000
v -60.110001 -2.595858 -0.394858
v -60.098454 -2.598453 -0.397453
v -60.095860 -2.610000 -0.394858
v -60.095860 -2.595858 -0.409000
v -60.110001 -5.490000 -0.429000
v -60.110001 -5.504142 -0.423142
v -60.098454 -5.501547 -0.420547
v -60.095860 -5.490000 -0.423142
v -60.110001 -2.610000 -0.429000
v -60.098454 -2.598453 -0.420547
v -60.095860 -2.610000 -0.423142
v -60.110001 -2.595858 -0.423142
v -59.889999 -5.510000 -0.409000
v -59.889999 -5.490000 -0.389000
v -59.910000 -5.490000 -0.409000
v -59.889999 -5.504142 -0.394858
v -59.901546 -5.501547 -0.397453
v -59.904140 -5.490000 -0.394858
v -59.904140 -5.504142 -0.409000
v -59.889999 -2.610000 -0.389000
v -59.889999 -2.590000 -0.409000
v -59.910000 -2.610000 -0.409000
v -59.889999 -2.595858 -0.394858
v -59.901546 -2.598453 -0.397453
v -59.904140 -2.595858 -0.409000
v -59.904140 -2.610000 -0.394858
v -59.889999 -5.490000 -0.429000
v -59.901546 -5.501547 -0.420547
v -59.904140 -5.490000 -0.423142
v -59.889999 -5.504142 -0.423142
v -59.889999 -2.610000 -0.429000
v -59.889999 -2.595858 -0.423142
v -59.901546 -2.598453 -0.420547
v -59.904140 -2.610000 -0.423142
v -50.110001 -5.510000 -0.409000
v -50.090000 -5.490000 -0.409000
v -50.110001 -5.490000 -0.389000
v -50.095860 -5.504142 -0.409000
v -50.098454 -5.501547 -0.397453
v -50.095860 -5.490000 -0.394858
v -50.110001 -5.504142 -0.394858
v -50.110001 -2.590000 -0.409000
v -50.110001 -2.610000 -0.389000
v -50.090000 -2.610000 -0.409000
v -50.110001 -2.595858 -0.394858
v -50.098454 -2.598453 -0.397453
v -50.095860 -2.610000 -0.394858
v -50.095860 -2.595858 -0.409000
v -50.110001 -5.490000 -0.429000
v -50.110001 -5.504142 -0.423142
v -50.098454 -5.501547 -0.420547
v -50.095860 -5.490000 -0.423142
v -50.110001 -2.610000 -0.429000
v -50.098454 -2.598453 -0.420547
v -50.095860 -2.610000 -0.423142
v -50.110001 -2.595858 -0.423142
v -49.889999 -5.510000 -0.409000
v -49.889999 -5.490000 -0.389000
v -49.910000 -5.490000 -0.409000
v -49.889999 -5.504142 -0.394858
v -49.901546 -5.501547 -0.397453
v -49.904140 -5.490000 -0.394858
v -49.904140 -5.504142 -0.409000
v -49.889999 -2.610000 -0.389000
v -49.889999 -2.590000 -0.409000
v -49.910000 -2.610000 -0.409000
v -49.889999 -2.595858 -0.394858
v -49.901546 -2.598453 -0.397453
v -49.904140 -2.595858 -0.409000
v -49.904140 -2.610000 -0.394858
v -49.889999 -5.490000 -0.429000
v -49.901546 -5.501547 -0.420547
v -49.904140 -5.490000 -0.423142
v -49.889999 -5.504142 -0.423142
v -49.889999 -2.610000 -0.429000
v -49.889999 -2.595858 -0.423142
v -49.901546 -2.598453 -0.420547
v -49.904140 -2.610000 -0.423142
v -40.110001 -5.510000 -0.409000
v -40.090000 -5.490000 -0.409000
v -40.110001 -5.490000 -0.389000
v -40.095860 -5.504142 -0.409000
v -40.098454 -5.501547 -0.397453
v -40.095860 -5.490000 -0.394858
v -40.110001 -5.504142 -0.394858
v -40.110001 -2.590000 -0.409000
v -40.110001 -2.610000 -0.389000
v -40.090000 -2.610000 -0.409000
v -40.110001 -2.595858 -0.394858
v -40.098454 -2.598453 -0.397453
v -40.095860 -2.610000 -0.394858
v -40.095860 -2.595858 -0.409000
v -40.110001 -5.490000 -0.429000
v -40.110001 -5.504142 -0.423142
v -40.098454 -5.501547 -0.420547
v -40.095860 -5.490000 -0.423142
v -40.110001 -2.610000 -0.429000
v -40.098454 -2.598453 -0.420547
v -40.095860 -2.610000 -0.423142
v -40.110001 -2.595858 -0.423142
v -39.889999 -5.510000 -0.409000
v -39.889999 -5.490000 -0.389000
v -39.910000 -5.490000 -0.409000
v -39.889999 -5.504142 -0.394858
v -39.901546 -5.501547 -0.397453
v -39.904140 -5.490000 -0.394858
v -39.904140 -5.504142 -0.409000
v -39.889999 -2.610000 -0.389000
v -39.889999 -2.590000 -0.409000
v -39.910000 -2.610000 -0.409000
v -39.889999 -2.595858 -0.394858
v -39.901546 -2.598453 -0.397453
v -39.904140 -2.595858 -0.409000
v -39.904140 -2.610000 -0.394858
v -39.889999 -5.490000 -0.429000
v -39.901546 -5.501547 -0.420547
v -39.904140 -5.490000 -0.423142
v -39.889999 -5.504142 -0.423142
v -39.889999 -2.610000 -0.429000
v -39.889999 -2.595858 -0.423142
v -39.901546 -2.598453 -0.420547
v -39.904140 -2.610000 -0.423142
v -30.110001 -5.510000 -0.409000
v -30.090000 -5.490000 -0.409000
v -30.110001 -5.490000 -0.389000
v -30.095860 -5.504142 -0.409000
v -30.098454 -5.501547 -0.397453
v -30.095860 -5.490000 -0.394858
v -30.110001 -5.504142 -0.394858
v -30.110001 -2.590000 -0.409000
v -30.110001 -2.610000 -0.389000
v -30.090000 -2.610000 -0.409000
v -30.110001 -2.595858 -0.394858
v -30.098454 -2.598453 -0.397453
v -30.095858 -2.610000 -0.394858
v -30.095858 -2.595858 -0.409000
v -30.110001 -5.490000 -0.429000
v -30.110001 -5.504142 -0.423142
v -30.098454 -5.501547 -0.420547
v -30.095858 -5.490000 -0.423142
v -30.110001 -2.610000 -0.429000
v -30.098454 -2.598453 -0.420547
v -30.095860 -2.610000 -0.423142
v -30.110001 -2.595858 -0.423142
v -29.889999 -5.510000 -0.409000
v -29.889999 -5.490000 -0.389000
v -29.910000 -5.490000 -0.409000
v -29.889999 -5.504142 -0.394858
v -29.901546 -5.501547 -0.397453
v -29.904142 -5.490000 -0.394858
v -29.904142 -5.504142 -0.409000
v -29.889999 -2.610000 -0.389000
v -29.889999 -2.590000 -0.409000
v -29.910000 -2.610000 -0.409000
v -29.889999 -2.595858 -0.394858
v -29.901546 -2.598453 -0.397453
v -29.904142 -2.595858 -0.409000
v -29.904142 -2.610000 -0.394858
v -29.889999 -5.490000 -0.429000
v -29.901546 -5.501547 -0.420547
v -29.904140 -5.490000 -0.423142
v -29.889999 -5.504142 -0.423142
v -29.889999 -2.610000 -0.429000
v -29.889999 -2.595858 -0.423142
v -29.901546 -2.598453 -0.420547
v -29.904142 -2.610000 -0.423142
v -20.110001 -5.510000 -0.409000
v -20.090000 -5.490000 -0.409000
v -20.110001 -5.490000 -0.389000
v -20.095860 -5.504142 -0.409000
v -20.098454 -5.501547 -0.397453
v -20.095860 -5.490000 -0.394858
v -20.110001 -5.504142 -0.394858
v -20.110001 -2.590000 -0.409000
v -20.110001 -2.610000 -0.389000
v -20.090000 -2.610000 -0.409000
v -20.110001 -2.595858 -0.394858
v -20.098454 -2.598453 -0.397453
v -20.095858 -2.610000 -0.394858
v -20.110001 -5.490000 -0.429000
v -20.110001 -5.504142 -0.423142
v -20.098454 -5.501547 -0.420547
v -20.095858 -5.490000 -0.423142
v -20.110001 -2.610000 -0.429000
v -20.095860 -2.595858 -0.409000
v -20.098454 -2.598453 -0.420547
v -20.095860 -2.610000 -0.423142
v -20.110001 -2.595858 -0.423142
v -19.889999 -5.510000 -0.409000
v -19.889999 -5.490000 -0.389000
v -19.910000 -5.490000 -0.409000
v -19.889999 -5.504142 -0.394858
v -19.901546 -5.501547 -0.397453
v -19.904142 -5.490000 -0.394858
v -19.889999 -2.610000 -0.389000
v -19.889999 -2.590000 -0.409000
v -19.910000 -2.610000 -0.409000
v -19.889999 -2.595858 -0.394858
v -19.901546 -2.598453 -0.397453
v -19.904142 -2.595858 -0.409000
v -19.904142 -2.610000 -0.394858
v -19.889999 -5.490000 -0.429000
v -19.904140 -5.504142 -0.409000
v -19.901546 -5.501547 -0.420547
v -19.904140 -5.490000 -0.423142
v -19.889999 -5.504142 -0.423142
v -19.889999 -2.610000 -0.429000
v -19.889999 -2.595858 -0.423142
v -19.901546 -2.598453 -0.420547
v -19.904142 -2.610000 -0.423142
v -10.110001 -5.510000 -0.409000
v -10.090000 -5.490000 -0.409000
v -10.110001 -5.490000 -0.389000
v -10.098454 -5.501547 -0.397453
v -10.095859 -5.490000 -0.394858
v -10.110001 -5.504142 -0.394858
v -10.110001 -2.590000 -0.409000
v -10.110001 -2.610000 -0.389000
v -10.090000 -2.610000 -0.409000
v -10.110001 -2.595858 -0.394858
v -10.098454 -2.598453 -0.397453
v -10.095858 -2.610000 -0.394858
v -10.095858 -2.595858 -0.409000
v -10.110001 -5.490000 -0.429000
v -10.110001 -5.504142 -0.423142
v -10.098454 -5.501547 -0.420547
v -10.095858 -5.490000 -0.423142
v -10.095858 -5.504142 -0.409000
v -10.110001 -2.610000 -0.429000
v -10.098454 -2.598453 -0.420547
v -10.095859 -2.610000 -0.423142
v -10.110001 -2.595858 -0.423142
v -9.889999 -5.510000 -0.409000
v -9.889999 -5.490000 -0.389000
v -9.910000 -5.490000 -0.409000
v -9.889999 -5.504142 -0.394858
v -9.901546 -5.501547 -0.397453
v -9.904142 -5.490000 -0.394858
v -9.904142 -5.504142 -0.409000
v -9.889999 -2.610000 -0.389000
v -9.889999 -2.590000 -0.409000
v -9.910000 -2.610000 -0.409000
v -9.889999 -2.595858 -0.394858
v -9.901546 -2.598453 -0.397453
v -9.904142 -2.595858 -0.409000
v -9.904142 -2.610000 -0.394858
v -9.889999 -5.490000 -0.429000
v -9.901546 -5.501547 -0.420547
v -9.904141 -5.490000 -0.423142
v -9.889999 -5.504142 -0.423142
v -9.889999 -2.610000 -0.429000
v -9.889999 -2.595858 -0.423142
v -9.901546 -2.598453 -0.420547
v -9.904142 -2.610000 -0.423142
v -0.110000 -5.510000 -0.409000
v -0.090000 -5.490000 -0.409000
v -0.110000 -5.490000 -0.389000
v -0.098454 -5.501547 -0.397453
v -0.095859 -5.490000 -0.394858
v -0.110001 -5.504142 -0.394858
v -0.110000 -2.590000 -0.409000
v -0.110000 -2.610000 -0.389000
v -0.090000 -2.610000 -0.409000
v -0.110000 -2.595858 -0.394858
v -0.098453 -2.598453 -0.397453
v -0.095858 -2.610000 -0.394858
v -0.095858 -2.595858 -0.409000
v -0.110000 -5.490000 -0.429000
v -0.110000 -5.504142 -0.423142
v -0.098453 -5.501547 -0.420547
v -0.095858 -5.490000 -0.423142
v -0.095858 -5.504142 -0.409000
v -0.110000 -2.610000 -0.429000
v -0.098454 -2.598453 -0.420547
v -0.095859 -2.610000 -0.423142
v -0.110001 -2.595858 -0.423142
v 0.110000 -5.510000 -0.409000
v 0.110000 -5.490000 -0.389000
v 0.090000 -5.490000 -0.409000
v 0.110000 -5.504142 -0.394858
v 0.098453 -5.501547 -0.397453
v 0.095858 -5.490000 -0.394858
v 0.110000 -2.610000 -0.389000
v 0.110000 -2.590000 -0.409000
v 0.090000 -2.610000 -0.409000
v 0.110000 -2.595858 -0.394858
v 0.098453 -2.598453 -0.397453
v 0.095858 -2.595858 -0.409000
v 0.095858 -2.610000 -0.394858
v 0.110000 -5.490000 -0.429000
v 0.095859 -5.504142 -0.409000
v 0.098454 -5.501547 -0.420547
v 0.095859 -5.490000 -0.423142
v 0.110001 -5.504142 -0.423142
v 0.110000 -2.610000 -0.429000
v 0.110000 -2.595858 -0.423142
v 0.098453 -2.598453 -0.420547
v 0.095858 -2.610000 -0.423142
v 9.889999 -5.510000 -0.409000
v 9.910000 -5.490000 -0.409000
v 9.889999 -5.490000 -0.389000
v 9.901546 -5.501547 -0.397453
v 9.904141 -5.490000 -0.394858
v 9.889999 -5.504142 -0.394858
v 9.889999 -2.590000 -0.409000
v 9.889999 -2.610000 -0.389000
v 9.910000 -2.610000 -0.409000
v 9.889999 -2.595858 -0.394858
v 9.901546 -2.598453 -0.397453
v 9.904142 -2.610000 -0.394858
v 9.889999 -5.490000 -0.429000
v 9.889999 -5.504142 -0.423142
v 9.901546 -5.501547 -0.420547
v 9.904142 -5.490000 -0.423142
v 9.904142 -5.504142 -0.409000
v 9.889999 -2.610000 -0.429000
v 9.904141 -2.595858 -0.409000
v 9.901546 -2.598453 -0.420547
v 9.904141 -2.610000 -0.423142
v 9.889999 -2.595858 -0.423142
v 10.110001 -5.510000 -0.409000
v 10.110001 -5.490000 -0.389000
v 10.090000 -5.490000 -0.409000
v 10.110001 -5.504142 -0.394858
v 10.098454 -5.501547 -0.397453
v 10.095858 -5.490000 -0.394858
v 10.095858 -5.504142 -0.409000
v 10.110001 -2.610000 -0.389000
v 10.110001 -2.590000 -0.409000
v 10.090000 -2.610000 -0.409000
v 10.110001 -2.595858 -0.394858
v 10.098454 -2.598453 -0.397453
v 10.095858 -2.595858 -0.409000
v 10.095858 -2.610000 -0.394858
v 10.110001 -5.490000 -0.429000
v 10.098454 -5.501547 -0.420547
v 10.095859 -5.490000 -0.423142
v 10.110001 -5.504142 -0.423142
v 10.110001 -2.610000 -0.429000
v 10.110001 -2.595858 -0.423142
v 10.098454 -2.598453 -0.420547
v 10.095858 -2.610000 -0.423142
v 19.889999 -5.510000 -0.409000
v 19.910000 -5.490000 -0.409000
v 19.889999 -5.490000 -0.389000
v 19.904140 -5.504142 -0.409000
v 19.901546 -5.501547 -0.397453
v 19.904140 -5.490000 -0.394858
v 19.889999 -5.504142 -0.394858
v 19.889999 -2.590000 -0.409000
v 19.889999 -2.610000 -0.389000
v 19.910000 -2.610000 -0.409000
v 19.889999 -2.595858 -0.394858
v 19.901546 -2.598453 -0.397453
v 19.904142 -2.610000 -0.394858
v 19.904142 -2.595858 -0.409000
v 19.889999 -5.490000 -0.429000
v 19.889999 -5.504142 -0.423142
v 19.901546 -5.501547 -0.420547
v 19.904142 -5.490000 -0.423142
v 19.889999 -2.610000 -0.429000
v 19.901546 -2.598453 -0.420547
v 19.904140 -2.610000 -0.423142
v 19.889999 -2.595858 -0.423142
v 20.110001 -5.510000 -0.409000
v 20.110001 -5.490000 -0.389000
v 20.090000 -5.490000 -0.409000
v 20.110001 -5.504142 -0.394858
v 20.098454 -5.501547 -0.397453
v 20.095858 -5.490000 -0.394858
v 20.095858 -5.504142 -0.409000
v 20.110001 -2.610000 -0.389000
v 20.110001 -2.590000 -0.409000
v 20.090000 -2.610000 -0.409000
v 20.110001 -2.595858 -0.394858
v 20.098454 -2.598453 -0.397453
v 20.095858 -2.595858 -0.409000
v 20.095858 -2.610000 -0.394858
v 20.110001 -5.490000 -0.429000
v 20.098454 -5.501547 -0.420547
v 20.095860 -5.490000 -0.423142
v 20.110001 -5.504142 -0.423142
v 20.110001 -2.610000 -0.429000
v 20.110001 -2.595858 -0.423142
v 20.098454 -2.598453 -0.420547
v 20.095858 -2.610000 -0.423142
v 29.889999 -5.510000 -0.409000
v 29.910000 -5.490000 -0.409000
v 29.889999 -5.490000 -0.389000
v 29.904140 -5.504142 -0.409000
v 29.901546 -5.501547 -0.397453
v 29.904140 -5.490000 -0.394858
v 29.889999 -5.504142 -0.394858
v 29.889999 -2.590000 -0.409000
v 29.889999 -2.610000 -0.389000
v 29.910000 -2.610000 -0.409000
v 29.889999 -2.595858 -0.394858
v 29.901546 -2.598453 -0.397453
v 29.904142 -2.610000 -0.394858
v 29.889999 -5.490000 -0.429000
v 29.889999 -5.504142 -0.423142
v 29.901546 -5.501547 -0.420547
v 29.904142 -5.490000 -0.423142
v 29.889999 -2.610000 -0.429000
v 29.904140 -2.595858 -0.409000
v 29.901546 -2.598453 -0.420547
v 29.904140 -2.610000 -0.423142
v 29.889999 -2.595858 -0.423142
v 30.110001 -5.510000 -0.409000
v 30.110001 -5.490000 -0.389000
v 30.090000 -5.490000 -0.409000
v 30.110001 -5.504142 -0.394858
v 30.098454 -5.501547 -0.397453
v 30.095858 -5.490000 -0.394858
v 30.095858 -5.504142 -0.409000
v 30.110001 -2.610000 -0.389000
v 30.110001 -2.590000 -0.409000
v 30.090000 -2.610000 -0.409000
v 30.110001 -2.595858 -0.394858
v 30.098454 -2.598453 -0.397453
v 30.095858 -2.595858 -0.409000
v 30.095858 -2.610000 -0.394858
v 30.110001 -5.490000 -0.429000
v 30.098454 -5.501547 -0.420547
v 30.095860 -5.490000 -0.423142
v 30.110001 -5.504142 -0.423142
v 30.110001 -2.610000 -0.429000
v 30.110001 -2.595858 -0.423142
v 30.098454 -2.598453 -0.420547
v 30.095858 -2.610000 -0.423142
v 39.889999 -5.510000 -0.409000
v 39.910000 -5.490000 -0.409000
v 39.889999 -5.490000 -0.389000
v 39.904140 -5.504142 -0.409000
v 39.901546 -5.501547 -0.397453
v 39.904140 -5.490000 -0.394858
v 39.889999 -5.504142 -0.394858
v 39.889999 -2.590000 -0.409000
v 39.889999 -2.610000 -0.389000
v 39.910000 -2.610000 -0.409000
v 39.889999 -2.595858 -0.394858
v 39.901546 -2.598453 -0.397453
v 39.904140 -2.610000 -0.394858
v 39.904140 -2.595858 -0.409000
v 39.889999 -5.490000 -0.429000
v 39.889999 -5.504142 -0.423142
v 39.901546 -5.501547 -0.420547
v 39.904140 -5.490000 -0.423142
v 39.889999 -2.610000 -0.429000
v 39.901546 -2.598453 -0.420547
v 39.904140 -2.610000 -0.423142
v 39.889999 -2.595858 -0.423142
v 40.110001 -5.510000 -0.409000
v 40.110001 -5.490000 -0.389000
v 40.090000 -5.490000 -0.409000
v 40.110001 -5.504142 -0.394858
v 40.098454 -5.501547 -0.397453
v 40.095860 -5.490000 -0.394858
v 40.095860 -5.504142 -0.409000
v 40.110001 -2.610000 -0.389000
v 40.110001 -2.590000 -0.409000
v 40.090000 -2.610000 -0.409000
v 40.110001 -2.595858 -0.394858
v 40.098454 -2.598453 -0.397453
v 40.095860 -2.595858 -0.409000
v 40.095860 -2.610000 -0.394858
v 40.110001 -5.490000 -0.429000
v 40.098454 -5.501547 -0.420547
v 40.095860 -5.490000 -0.423142
v 40.110001 -5.504142 -0.423142
v 40.110001 -2.610000 -0.429000
v 40.110001 -2.595858 -0.423142
v 40.098454 -2.598453 -0.420547
v 40.095860 -2.610000 -0.423142
v 49.889999 -5.510000 -0.409000
v 49.910000 -5.490000 -0.409000
v 49.889999 -5.490000 -0.389000
v 49.904140 -5.504142 -0.409000
v 49.901546 -5.501547 -0.397453
v 49.904140 -5.490000 -0.394858
v 49.889999 -5.504142 -0.394858
v 49.889999 -2.590000 -0.409000
v 49.889999 -2.610000 -0.389000
v 49.910000 -2.610000 -0.409000
v 49.889999 -2.595858 -0.394858
v 49.901546 -2.598453 -0.397453
v 49.904140 -2.610000 -0.394858
v 49.904140 -2.595858 -0.409000
v 49.889999 -5.490000 -0.429000
v 49.889999 -5.504142 -0.423142
v 49.901546 -5.501547 -0.420547
v 49.904140 -5.490000 -0.423142
v 49.889999 -2.610000 -0.429000
v 49.901546 -2.598453 -0.420547
v 49.904140 -2.610000 -0.423142
v 49.889999 -2.595858 -0.423142
v 50.110001 -5.510000 -0.409000
v 50.110001 -5.490000 -0.389000
v 50.090000 -5.490000 -0.409000
v 50.110001 -5.504142 -0.394858
v 50.098454 -5.501547 -0.397453
v 50.095860 -5.490000 -0.394858
v 50.095860 -5.504142 -0.409000
v 50.110001 -2.610000 -0.389000
v 50.110001 -2.590000 -0.409000
v 50.090000 -2.610000 -0.409000
v 50.110001 -2.595858 -0.394858
v 50.098454 -2.598453 -0.397453
v 50.095860 -2.595858 -0.409000
v 50.095860 -2.610000 -0.394858
v 50.110001 -5.490000 -0.429000
v 50.098454 -5.501547 -0.420547
v 50.095860 -5.490000 -0.423142
v 50.110001 -5.504142 -0.423142
v 50.110001 -2.610000 -0.429000
v 50.110001 -2.595858 -0.423142
v 50.098454 -2.598453 -0.420547
v 50.095860 -2.610000 -0.423142
v 59.889999 -5.510000 -0.409000
v 59.910000 -5.490000 -0.409000
v 59.889999 -5.490000 -0.389000
v 59.904140 -5.504142 -0.409000
v 59.901546 -5.501547 -0.397453
v 59.904140 -5.490000 -0.394858
v 59.889999 -5.504142 -0.394858
v 59.889999 -2.590000 -0.409000
v 59.889999 -2.610000 -0.389000
v 59.910000 -2.610000 -0.409000
v 59.889999 -2.595858 -0.394858
v 59.901546 -2.598453 -0.397453
v 59.904140 -2.610000 -0.394858
v 59.904140 -2.595858 -0.409000
v 59.889999 -5.490000 -0.429000
v 59.889999 -5.504142 -0.423142
v 59.901546 -5.501547 -0.420547
v 59.904140 -5.490000 -0.423142
v 59.889999 -2.610000 -0.429000
v 59.901546 -2.598453 -0.420547
v 59.904140 -2.610000 -0.423142
v 59.889999 -2.595858 -0.423142
v 60.110001 -5.510000 -0.409000
v 60.110001 -5.490000 -0.389000
v 60.090000 -5.490000 -0.409000
v 60.110001 -5.504142 -0.394858
v 60.098454 -5.501547 -0.397453
v 60.095860 -5.490000 -0.394858
v 60.095860 -5.504142 -0.409000
v 60.110001 -2.610000 -0.389000
v 60.110001 -2.590000 -0.409000
v 60.090000 -2.610000 -0.409000
v 60.110001 -2.595858 -0.394858
v 60.098454 -2.598453 -0.397453
v 60.095860 -2.595858 -0.409000
v 60.095860 -2.610000 -0.394858
v 60.110001 -5.490000 -0.429000
v 60.098454 -5.501547 -0.420547
v 60.095860 -5.490000 -0.423142
v 60.110001 -5.504142 -0.423142
v 60.110001 -2.610000 -0.429000
v 60.110001 -2.595858 -0.423142
v 60.098454 -2.598453 -0.420547
v 60.095860 -2.610000 -0.423142
v 69.889999 -5.510000 -0.409000
v 69.910004 -5.490000 -0.409000
v 69.889999 -5.490000 -0.389000
v 69.904144 -5.504142 -0.409000
v 69.901550 -5.501547 -0.397453
v 69.904144 -5.490000 -0.394858
v 69.889999 -5.504142 -0.394858
v 69.889999 -2.590000 -0.409000
v 69.889999 -2.610000 -0.389000
v 69.910004 -2.610000 -0.409000
v 69.889999 -2.595858 -0.394858
v 69.901550 -2.598453 -0.397453
v 69.904144 -2.610000 -0.394858
v 69.904144 -2.595858 -0.409000
v 69.889999 -5.490000 -0.429000
v 69.889999 -5.504142 -0.423142
v 69.901550 -5.501547 -0.420547
v 69.904144 -5.490000 -0.423142
v 69.889999 -2.610000 -0.429000
v 69.901550 -2.598453 -0.420547
v 69.904144 -2.610000 -0.423142
v 69.889999 -2.595858 -0.423142
vn -0.3673 -0.8865 0.2816
vn -0.2818 -0.3671 0.8865
vn -0.8866 -0.2817 0.3669
vn -0.3674 0.2818 0.8864
vn -0.2818 0.8863 0.3675
vn -0.8864 0.3672 0.2818
vn -0.2819 -0.8865 -0.3669
vn -0.8866 -0.3669 -0.2817
vn -0.3672 -0.2817 -0.8865
vn -0.3673 0.8865 -0.2816
vn -0.2818 0.3671 -0.8865
vn -0.8866 0.2817 -0.3669
vn 0.2819 -0.8865 0.3669
vn 0.8866 -0.3669 0.2817
vn 0.3672 -0.2817 0.8865
vn 0.3673 0.8865 0.2816
vn 0.2818 0.3671 0.8865
vn 0.8866 0.2817 0.3669
vn 0.3673 -0.8865 -0.2816
vn 0.2818 -0.3671 -0.8865
vn 0.8866 -0.2817 -0.3669
vn 0.2819 0.8865 -0.3669
vn 0.8866 0.3669 -0.2817
vn 0.3672 0.2817 -0.8865
vn -0.3827 -0.9239 -0.0000
vn -0.9240 -0.3824 -0.0000
vn -0.3826 -0.0000 0.9239
vn -0.9240 -0.0000 0.3824
vn -0.3828 0.9238 -0.0000
vn -0.9238 0.3828 -0.0000
vn -0.3826 -0.0000 -0.9239
vn -0.9240 -0.0000 -0.3824
vn -0.0000 -0.9239 -0.3827
vn -0.0000 -0.3827 -0.9239
vn -0.0000 0.9239 -0.3827
vn -0.0000 0.3827 -0.9239
vn 0.9238 -0.0000 -0.3830
vn 0.3827 -0.0000 -0.9239
vn 0.3827 -0.9239 -0.0000
vn 0.9240 -0.3824 -0.0000
vn 0.3827 0.9239 -0.0000
vn 0.9240 0.3824 -0.0000
vn 0.3826 -0.0000 0.9239
vn 0.9240 -0.0000 0.3824
vn -0.0000 -0.9239 0.3827
vn -0.0000 -0.3827 0.9239
vn -0.0000 0.9239 0.3827
vn -0.0000 0.3827 0.9239
vn -0.0000 -1.0000 -0.0000
vn -1.0000 -0.0000 -0.0000
vn -0.0000 -0.0000 1.0000
vn -0.0000 1.0000 -0.0000
vn -0.0000 -0.0000 -1.0000
vn 1.0000 -0.0000 -0.0000
vn -0.3672 -0.8865 0.2818
vn -0.2818 -0.3673 0.8864
vn -0.8863 -0.2816 0.3676
vn -0.3673 0.2818 0.8864
vn -0.2817 0.8865 0.3671
vn -0.8864 0.3672 0.2820
vn -0.2817 -0.8865 -0.3671
vn -0.8864 -0.3672 -0.2820
vn -0.3673 -0.2818 -0.8864
vn -0.3672 0.8865 -0.2818
vn -0.2818 0.3673 -0.8864
vn -0.8863 0.2816 -0.3676
vn 0.2817 -0.8865 0.3671
vn 0.8864 -0.3672 0.2820
vn 0.3673 -0.2818 0.8864
vn 0.3672 0.8865 0.2818
vn 0.2818 0.3673 0.8864
vn 0.8863 0.2816 0.3676
vn 0.3672 -0.8865 -0.2818
vn 0.2818 -0.3673 -0.8864
vn 0.8863 -0.2816 -0.3676
vn 0.2817 0.8865 -0.3671
vn 0.8864 0.3672 -0.2820
vn 0.3673 0.2818 -0.8864
vn -0.9238 -0.3828 -0.0000
vn -0.3828 -0.0000 0.9238
vn -0.9240 -0.0000 0.3825
vn -0.3827 0.9239 -0.0000
vn -0.3828 -0.0000 -0.9238
vn -0.9240 -0.0000 -0.3825
vn 0.3826 -0.0000 -0.9239
vn 0.9238 -0.3828 -0.0000
vn 0.9238 0.3828 -0.0000
vn 0.3828 -0.0000 0.9238
vn 0.9240 -0.0000 0.3825
vn -0.3672 -0.8864 0.2818
vn -0.2818 -0.3672 0.8864
vn -0.8861 -0.2815 0.3682
vn -0.2818 0.8864 0.3673
vn -0.8869 0.3674 0.2800
vn -0.2817 -0.8862 -0.3679
vn -0.8863 -0.3676 -0.2818
vn -0.3676 -0.2819 -0.8862
vn -0.3672 0.8864 -0.2818
vn -0.2818 0.3672 -0.8864
vn -0.8861 0.2816 -0.3682
vn 0.2817 -0.8862 0.3679
vn 0.8863 -0.3676 0.2818
vn 0.3676 -0.2819 0.8862
vn 0.3672 0.8864 0.2818
vn 0.2818 0.3672 0.8864
vn 0.8861 0.2816 0.3682
vn 0.3672 -0.8864 -0.2818
vn 0.2818 -0.3672 -0.8864
vn 0.8861 -0.2815 -0.3682
vn 0.2817 0.8862 -0.3679
vn 0.8863 0.3676 -0.2817
vn 0.3676 0.2819 -0.8862
vn -0.3829 -0.9238 -0.0001
vn -0.9237 -0.3832 -0.0000
vn -0.3827 -0.0000 0.9239
vn -0.9242 -0.0000 0.3818
vn -0.9239 0.3827 -0.0000
vn -0.3827 -0.0000 -0.9239
vn -0.9235 -0.0000 -0.3835
vn 0.9239 -0.0000 -0.3827
vn 0.3830 -0.0000 -0.9237
vn 0.3829 -0.9238 0.0001
vn 0.9237 -0.3832 -0.0000
vn 0.3829 0.9238 -0.0001
vn 0.9237 0.3832 -0.0000
vn 0.3827 -0.0000 0.9239
vn 0.9235 -0.0000 0.3835
vn -0.8865 -0.2817 0.3672
vn -0.3672 0.2817 0.8865
vn -0.8864 0.3673 0.2818
vn -0.2817 -0.8864 -0.3672
vn -0.8863 -0.3675 -0.2819
vn -0.3673 -0.2817 -0.8864
vn -0.8864 0.2817 -0.3672
vn 0.2817 -0.8864 0.3672
vn 0.8863 -0.3675 0.2819
vn 0.3673 -0.2817 0.8864
vn 0.8864 0.2817 0.3672
vn 0.8865 -0.2817 -0.3672
vn 0.2817 0.8864 -0.3672
vn 0.8863 0.3674 -0.2819
vn 0.3673 0.2817 -0.8864
vn -0.3828 -0.9238 -0.0000
vn -0.9238 -0.3830 -0.0000
vn -0.3829 -0.0000 0.9238
vn -0.9238 -0.0000 0.3829
vn -0.9239 -0.0000 -0.3827
vn 0.9238 -0.0000 -0.3829
vn 0.3829 -0.0000 -0.9238
vn 0.3828 -0.9238 -0.0000
vn 0.9238 -0.3830 -0.0000
vn 0.3828 0.9238 -0.0000
vn 0.9238 0.3830 -0.0000
vn 0.9239 -0.0000 0.3827
vn -0.3671 -0.8865 0.2816
vn -0.2816 -0.3672 0.8865
vn -0.8866 -0.2817 0.3670
vn -0.3671 0.2817 0.8865
vn -0.8864 -0.3672 -0.2819
vn -0.3671 -0.2817 -0.8865
vn -0.3671 0.8865 -0.2816
vn -0.2816 0.3672 -0.8865
vn 0.2818 -0.8864 0.3672
vn 0.8865 -0.3673 0.2814
vn 0.3672 0.8865 0.2817
vn 0.2816 0.3670 0.8865
vn 0.8864 0.2816 0.3675
vn 0.3672 -0.8865 -0.2817
vn 0.2817 -0.3670 -0.8865
vn 0.8863 -0.2816 -0.3675
vn 0.8865 0.3673 -0.2814
vn 0.3674 0.2818 -0.8863
vn -0.9238 -0.0000 0.3828
vn -0.9238 -0.0000 -0.3828
vn 0.9238 -0.0000 -0.3828
vn 0.3828 -0.0000 -0.9238
vn 0.9238 -0.0000 0.3828
vn -0.3672 -0.8865 0.2817
vn -0.2817 -0.3670 0.8865
vn -0.8863 -0.2816 0.3675
vn -0.3674 0.2818 0.8863
vn -0.2817 0.8864 0.3672
vn -0.8865 0.3673 0.2814
vn -0.2818 -0.8864 -0.3672
vn -0.8865 -0.3673 -0.2814
vn -0.3672 0.8865 -0.2817
vn -0.2816 0.3670 -0.8865
vn -0.8864 0.2816 -0.3675
vn 0.2818 -0.8865 0.3671
vn 0.8864 -0.3673 0.2817
vn 0.3672 -0.2818 0.8864
vn 0.2817 0.3672 0.8865
vn 0.8865 0.2817 0.3672
vn 0.2817 -0.3672 -0.8865
vn 0.8864 0.3673 -0.2817
vn -0.2817 -0.3672 0.8865
vn -0.8864 0.3673 0.2817
vn -0.2818 -0.8865 -0.3671
vn -0.8864 -0.3673 -0.2817
vn -0.3672 -0.2818 -0.8864
vn -0.2817 0.3672 -0.8865
vn -0.8865 0.2817 -0.3672
vn 0.8864 0.2818 0.3672
vn 0.8864 -0.2818 -0.3672
vn 0.2817 0.8865 -0.3672
vn 0.8865 0.3672 -0.2817
vn -0.3671 -0.8865 0.2818
vn -0.8864 -0.2818 0.3672
vn -0.3672 0.2818 0.8864
vn -0.2817 0.8865 0.3672
vn -0.8865 0.3672 0.2817
vn -0.8865 -0.3672 -0.2817
vn -0.8864 0.2818 -0.3672
vn 0.3672 0.8865 0.2816
vn 0.3672 -0.8865 -0.2816
vn -0.3672 -0.8865 0.2816
vn 0.8865 -0.3672 0.2817
vn 0.8865 0.2818 0.3671
vn 0.3671 -0.8865 -0.2818
vn 0.8864 -0.2818 -0.3671
vn 0.3672 0.2818 -0.8864
vn 0.9239 -0.0000 0.3826
vn -0.8864 -0.2818 0.3671
vn -0.3671 0.2818 0.8865
vn -0.8865 0.2818 -0.3671
vn 0.8864 -0.3672 0.2818
vn 0.8864 0.3672 -0.2818
vn 0.3672 0.2817 -0.8864
vn -0.9239 -0.0000 0.3826
vn -0.9239 -0.0000 -0.3826
vn -0.8864 -0.3672 -0.2817
vn 0.8865 0.3672 -0.2816
vn -0.9239 -0.0000 0.3827
vn 0.8864 -0.3672 0.2819
vn 0.3671 -0.2817 0.8865
vn 0.3671 0.8865 0.2816
vn 0.2816 0.3672 0.8865
vn 0.3671 -0.8865 -0.2816
vn 0.2816 -0.3672 -0.8865
vn 0.8866 -0.2817 -0.3670
vn 0.3671 0.2817 -0.8865
vn -0.2818 -0.8863 0.3675
vn -0.3674 -0.2818 0.8864
vn -0.8864 -0.3672 0.2818
vn -0.2818 0.3671 0.8865
vn -0.3673 0.8865 0.2816
vn -0.8866 0.2817 0.3669
vn -0.3671 -0.8865 -0.2816
vn -0.8868 -0.2817 -0.3664
vn -0.2820 -0.3672 -0.8864
vn -0.2818 0.8863 -0.3675
vn -0.3674 0.2818 -0.8864
vn -0.8864 0.3672 -0.2818
vn 0.3671 -0.8865 0.2816
vn 0.8868 -0.2817 0.3664
vn 0.2820 -0.3672 0.8864
vn 0.2818 0.8863 0.3675
vn 0.3674 0.2818 0.8864
vn 0.8864 0.3672 0.2818
vn 0.2818 -0.8863 -0.3675
vn 0.3674 -0.2818 -0.8864
vn 0.8864 -0.3672 -0.2818
vn 0.3671 0.8865 -0.2816
vn 0.8868 0.2817 -0.3664
vn 0.2820 0.3672 -0.8864
vn 0.9241 -0.0000 -0.3822
vn -0.2817 -0.8865 0.3671
vn -0.3673 -0.2818 0.8864
vn -0.8864 -0.3672 0.2820
vn -0.2818 0.3673 0.8864
vn -0.3672 0.8865 0.2818
vn -0.8863 0.2816 0.3676
vn -0.3672 -0.8865 -0.2818
vn -0.8863 -0.2816 -0.3676
vn -0.2818 -0.3673 -0.8864
vn -0.2817 0.8865 -0.3671
vn -0.3673 0.2818 -0.8864
vn -0.8864 0.3672 -0.2820
vn 0.3672 -0.8865 0.2818
vn 0.8863 -0.2816 0.3676
vn 0.2818 -0.3673 0.8864
vn 0.2817 0.8865 0.3671
vn 0.3673 0.2818 0.8864
vn 0.8864 0.3672 0.2820
vn 0.2817 -0.8865 -0.3671
vn 0.3673 -0.2818 -0.8864
vn 0.8864 -0.3672 -0.2820
vn 0.3672 0.8865 -0.2818
vn 0.8863 0.2816 -0.3676
vn 0.2818 0.3673 -0.8864
vn -0.9238 -0.0000 0.3830
vn -0.9238 -0.0000 -0.3830
vn 0.9240 -0.0000 -0.3825
vn 0.9238 -0.0000 0.3830
vn -0.2818 -0.8864 0.3673
vn -0.8869 -0.3674 0.2800
vn -0.2818 0.3672 0.8864
vn -0.3672 0.8864 0.2818
vn -0.8861 0.2816 0.3682
vn -0.3675 -0.8866 -0.2809
vn -0.8863 -0.2817 -0.3675
vn -0.2815 -0.3669 -0.8867
vn -0.2818 0.8864 -0.3673
vn -0.8869 0.3674 -0.2800
vn 0.3675 -0.8866 0.2809
vn 0.8863 -0.2817 0.3674
vn 0.2815 -0.3669 0.8867
vn 0.2818 0.8864 0.3673
vn 0.8869 0.3674 0.2800
vn 0.2818 -0.8864 -0.3673
vn 0.8869 -0.3674 -0.2800
vn 0.3675 0.8866 -0.2809
vn 0.8863 0.2817 -0.3675
vn 0.2815 0.3669 -0.8867
vn -0.9239 -0.3827 -0.0000
vn -0.9235 -0.0000 0.3835
vn -0.3830 -0.0000 -0.9237
vn 0.9235 -0.0000 -0.3835
vn 0.9239 -0.3827 -0.0000
vn 0.9239 0.3827 -0.0000
vn 0.3830 -0.0000 0.9237
vn -0.2818 -0.8865 0.3671
vn -0.3672 -0.2817 0.8865
vn -0.8864 -0.3673 0.2818
vn -0.8864 0.2817 0.3672
vn -0.3673 -0.8864 -0.2817
vn -0.2816 -0.3671 -0.8865
vn -0.3672 0.2817 -0.8865
vn 0.3673 -0.8864 0.2817
vn 0.8863 -0.2817 0.3675
vn 0.2816 -0.3671 0.8865
vn 0.3672 0.2817 0.8865
vn 0.8864 0.3673 0.2818
vn 0.2818 -0.8865 -0.3671
vn 0.3672 -0.2817 -0.8865
vn 0.8864 -0.3673 -0.2818
vn 0.3673 0.8864 -0.2817
vn 0.2816 0.3671 -0.8865
vn -0.3829 -0.0000 -0.9238
vn -0.9238 -0.0000 -0.3829
vn 0.3829 -0.0000 0.9238
vn 0.9238 -0.0000 0.3829
vn -0.3671 -0.2817 0.8865
vn -0.8864 -0.3672 0.2819
vn -0.2816 0.3672 0.8865
vn -0.3671 0.8865 0.2816
vn -0.8866 -0.2817 -0.3670
vn -0.2816 -0.3672 -0.8865
vn -0.3671 0.2817 -0.8865
vn 0.3672 -0.8865 0.2817
vn 0.8863 -0.2816 0.3675
vn 0.2817 -0.3670 0.8865
vn 0.2817 0.8864 0.3672
vn 0.3674 0.2818 0.8863
vn 0.8865 0.3673 0.2814
vn 0.2818 -0.8864 -0.3672
vn 0.8865 -0.3673 -0.2814
vn 0.3672 0.8865 -0.2817
vn 0.8864 0.2816 -0.3675
vn 0.2816 0.3670 -0.8865
vn -0.2818 -0.8864 0.3672
vn -0.8865 -0.3673 0.2814
vn -0.2816 0.3670 0.8865
vn -0.3672 0.8865 0.2817
vn -0.8864 0.2816 0.3675
vn -0.3672 -0.8865 -0.2817
vn -0.8863 -0.2816 -0.3675
vn -0.2817 -0.3670 -0.8865
vn -0.2817 0.8864 -0.3672
vn -0.3674 0.2818 -0.8863
vn -0.8865 0.3673 -0.2814
vn 0.3672 -0.8864 0.2818
vn 0.8865 -0.2817 0.3672
vn 0.2817 -0.3672 0.8865
vn 0.8864 0.3673 0.2817
vn 0.3672 -0.2818 -0.8864
vn 0.8864 -0.3673 -0.2817
vn 0.3672 0.8864 -0.2818
vn 0.8865 0.2817 -0.3672
vn 0.2817 0.3672 -0.8865
vn -0.3672 -0.2818 0.8864
vn -0.8864 -0.3673 0.2817
vn -0.2817 0.3672 0.8865
vn -0.8865 0.2817 0.3672
vn -0.3672 -0.8864 -0.2818
vn -0.8865 -0.2817 -0.3672
vn -0.2817 -0.3672 -0.8865
vn -0.8864 0.3673 -0.2817
vn 0.2818 -0.3672 0.8864
vn 0.2817 0.8865 0.3672
vn 0.3672 0.2818 0.8864
vn 0.8865 0.3672 0.2817
vn -0.8865 -0.3672 0.2817
vn -0.8864 0.2818 0.3672
vn -0.3671 -0.8865 -0.2818
vn -0.2818 -0.3672 -0.8864
vn -0.2817 0.8865 -0.3672
vn -0.3672 0.2818 -0.8864
vn -0.8865 0.3672 -0.2817
vn 0.3672 -0.8865 0.2816
vn 0.3672 0.8865 -0.2816
vn 0.2818 0.3672 -0.8864
vn -0.3672 -0.8865 -0.2816
vn 0.3671 -0.8865 0.2818
vn 0.8864 -0.2817 0.3673
vn 0.3671 0.2818 0.8865
vn 0.3671 -0.2818 -0.8865
vn 0.8865 -0.3672 -0.2817
vn 0.8864 0.2817 -0.3673
vn 0.9239 -0.0000 -0.3826
vn -0.3671 -0.2818 0.8865
vn -0.8865 0.2818 0.3671
vn -0.8864 -0.2817 -0.3673
vn -0.3671 0.2818 -0.8865
vn 0.8864 -0.2817 0.3672
vn 0.8864 0.2817 -0.3672
vn -0.8864 -0.2817 -0.3672
vn 0.8865 0.3672 0.2816
vn 0.8866 -0.2817 0.3670
vn 0.2816 -0.3672 0.8865
vn 0.3671 0.2817 0.8865
vn 0.3671 -0.2817 -0.8865
vn 0.8864 -0.3672 -0.2819
vn 0.8866 0.2817 -0.3669
vn 0.2816 0.3672 -0.8865
vt 0.516000 0.016000
vt 0.984000 0.484000
vt 0.516000 0.484000
vt 0.984000 0.016000
vt 0.016000 0.016000
vt 0.484000 0.484000
vt 0.016000 0.484000
vt 0.484000 0.016000
vt 0.016000 0.516000
vt 0.484000 0.984000
vt 0.016000 0.984000
vt 0.484000 0.516000
vt 0.516000 0.516000
vt 0.984000 0.984000
vt 0.516000 0.984000
vt 0.984000 0.516000
s 0
usemtl wall_Surface
f 1/1/1 5/2/1 7/3/1
f 2/1/2 5/2/2 4/3/2
f 3/1/3 5/2/3 6/3/3
f 8/1/4 12/2/4 14/3/4
f 9/1/5 12/2/5 11/3/5
f 10/1/6 12/2/6 13/3/6
f 15/1/7 19/2/7 21/3/7
f 16/1/8 19/2/8 18/3/8
f 17/1/9 19/2/9 20/3/9
f 22/1/10 26/2/10 28/3/10
f 23/1/11 26/2/11 25/3/11
f 24/1/12 26/2/12 27/3/12
f 29/1/13 33/2/13 35/3/13
f 30/1/14 33/2/14 32/3/14
f 31/1/15 33/2/15 34/3/15
f 36/1/16 40/2/16 42/3/16
f 37/1/17 40/2/17 39/3/17
f 38/1/18 40/2/18 41/3/18
f 43/1/19 47/2/19 49/3/19
f 44/1/20 47/2/20 46/3/20
f 45/1/21 47/2/21 48/3/21
f 50/1/22 54/2/22 56/3/22
f 51/1/23 54/2/23 53/3/23
f 52/1/24 54/2/24 55/3/24
f 15/1/25 7/2/25 18/3/25
f 18/1/26 3/2/26 16/3/26
f 2/1/27 14/2/27 6/3/27
f 14/4/28 3/3/28 6/1/28
f 22/4/29 13/3/29 9/1/29
f 28/4/30 10/3/30 13/1/30
f 23/1/31 20/2/31 27/3/31
f 20/4/32 24/3/32 27/1/32
f 15/4/33 46/3/33 43/1/33
f 46/1/34 17/2/34 44/3/34
f 50/4/35 25/3/35 22/1/35
f 25/1/36 52/2/36 23/3/36
f 45/4/37 55/3/37 51/1/37
f 48/4/38 52/3/38 55/1/38
f 29/1/39 49/2/39 32/3/39
f 32/1/40 45/2/40 30/3/40
f 50/1/41 42/2/41 53/3/41
f 53/1/42 38/2/42 51/3/42
f 37/1/43 34/2/43 41/3/43
f 34/4/44 38/3/44 41/1/44
f 29/4/45 4/3/45 1/1/45
f 4/1/46 31/2/46 2/3/46
f 9/4/47 39/3/47 36/1/47
f 11/4/48 37/3/48 39/1/48
f 43/4/49 1/3/49 15/1/49
f 10/4/50 16/3/50 3/1/50
f 37/4/51 2/3/51 31/1/51
f 22/4/52 36/3/52 50/1/52
f 23/4/53 44/3/53 17/1/53
f 51/4/54 30/3/54 45/1/54
f 57/5/55 61/6/55 63/7/55
f 58/5/56 61/6/56 60/7/56
f 59/5/57 61/6/57 62/7/57
f 64/5/58 68/6/58 70/7/58
f 65/5/59 68/6/59 67/7/59
f 66/5/60 68/6/60 69/7/60
f 71/5/61 75/6/61 77/7/61
f 72/5/62 75/6/62 74/7/62
f 73/5/63 75/6/63 76/7/63
f 78/5/64 82/6/64 84/7/64
f 79/5/65 82/6/65 81/7/65
f 80/5/66 82/6/66 83/7/66
f 85/5/67 89/6/67 91/7/67
f 86/5/68 89/6/68 88/7/68
f 87/5/69 89/6/69 90/7/69
f 92/5/70 96/6/70 98/7/70
f 93/5/71 96/6/71 95/7/71
f 94/5/72 96/6/72 97/7/72
f 99/5/73 103/6/73 105/7/73
f 100/5/74 103/6/74 102/7/74
f 101/5/75 103/6/75 104/7/75
f 106/5/76 110/6/76 112/7/76
f 107/5/77 110/6/77 109/7/77
f 108/5/78 110/6/78 111/7/78
f 57/8/25 74/7/25 71/5/25
f 63/8/79 72/7/79 74/5/79
f 64/8/80 62/7/80 58/5/80
f 70/8/81 59/7/81 62/5/81
f 78/8/82 69/7/82 65/5/82
f 84/8/30 66/7/30 69/5/30
f 73/8/83 83/7/83 79/5/83
f 76/8/84 80/7/84 83/5/84
f 71/8/33 102/7/33 99/5/33
f 77/8/34 100/7/34 102/5/34
f 106/8/35 81/7/35 78/5/35
f 112/8/36 79/7/36 81/5/36
f 101/8/37 111/7/37 107/5/37
f 104/8/85 108/7/85 111/5/85
f 99/8/39 88/7/39 85/5/39
f 105/8/86 86/7/86 88/5/86
f 92/8/41 109/7/41 106/5/41
f 98/8/87 107/7/87 109/5/87
f 87/8/88 97/7/88 93/5/88
f 90/8/89 94/7/89 97/5/89
f 85/8/45 60/7/45 57/5/45
f 91/8/46 58/7/46 60/5/46
f 65/8/47 95/7/47 92/5/47
f 67/8/48 93/7/48 95/5/48
f 99/8/49 57/7/49 71/5/49
f 66/8/50 72/7/50 59/5/50
f 93/8/51 58/7/51 87/5/51
f 78/8/52 92/7/52 106/5/52
f 79/8/53 100/7/53 73/5/53
f 107/8/54 86/7/54 101/5/54
f 113/9/90 117/10/90 119/11/90
f 114/9/91 117/10/91 116/11/91
f 115/9/92 117/10/92 118/11/92
f 120/9/58 124/10/58 126/11/58
f 121/9/93 124/10/93 123/11/93
f 122/9/94 124/10/94 125/11/94
f 127/9/95 131/10/95 133/11/95
f 128/9/96 131/10/96 130/11/96
f 129/9/97 131/10/97 132/11/97
f 134/9/98 138/10/98 140/11/98
f 135/9/99 138/10/99 137/11/99
f 136/9/100 138/10/100 139/11/100
f 141/9/101 145/10/101 147/11/101
f 142/9/102 145/10/102 144/11/102
f 143/9/103 145/10/103 146/11/103
f 148/9/104 152/10/104 154/11/104
f 149/9/105 152/10/105 151/11/105
f 150/9/106 152/10/106 153/11/106
f 155/9/107 159/10/107 161/11/107
f 156/9/108 159/10/108 158/11/108
f 157/9/109 159/10/109 160/11/109
f 162/9/110 166/10/110 168/11/110
f 163/9/111 166/10/111 165/11/111
f 164/9/112 166/10/112 167/11/112
f 127/9/113 119/10/113 130/11/113
f 119/12/114 128/11/114 130/9/114
f 120/12/115 118/11/115 114/9/115
f 126/12/116 115/11/116 118/9/116
f 134/12/82 125/11/82 121/9/82
f 140/12/117 122/11/117 125/9/117
f 135/9/118 132/10/118 139/11/118
f 139/9/119 128/10/119 136/11/119
f 127/12/33 158/11/33 155/9/33
f 133/12/34 156/11/34 158/9/34
f 162/12/35 137/11/35 134/9/35
f 168/12/36 135/11/36 137/9/36
f 163/9/120 160/10/120 167/11/120
f 167/9/121 156/10/121 164/11/121
f 141/9/122 161/10/122 144/11/122
f 161/12/123 142/11/123 144/9/123
f 162/9/124 154/10/124 165/11/124
f 154/12/125 163/11/125 165/9/125
f 149/9/126 146/10/126 153/11/126
f 153/9/127 142/10/127 150/11/127
f 141/12/45 116/11/45 113/9/45
f 147/12/46 114/11/46 116/9/46
f 121/12/47 151/11/47 148/9/47
f 123/12/48 149/11/48 151/9/48
f 155/12/49 113/11/49 127/9/49
f 122/12/50 128/11/50 115/9/50
f 149/12/51 114/11/51 143/9/51
f 134/12/52 148/11/52 162/9/52
f 135/12/53 156/11/53 129/9/53
f 163/12/54 142/11/54 157/9/54
f 169/13/90 173/14/90 175/15/90
f 170/13/56 173/14/56 172/15/56
f 171/13/128 173/14/128 174/15/128
f 176/13/129 180/14/129 182/15/129
f 177/13/59 180/14/59 179/15/59
f 178/13/130 180/14/130 181/15/130
f 183/13/131 187/14/131 189/15/131
f 184/13/132 187/14/132 186/15/132
f 185/13/133 187/14/133 188/15/133
f 190/13/98 194/14/98 196/15/98
f 191/13/65 194/14/65 193/15/65
f 192/13/134 194/14/134 195/15/134
f 197/13/135 201/14/135 203/15/135
f 198/13/136 201/14/136 200/15/136
f 199/13/137 201/14/137 202/15/137
f 204/13/104 208/14/104 210/15/104
f 205/13/71 208/14/71 207/15/71
f 206/13/138 208/14/138 209/15/138
f 211/13/107 215/14/107 217/15/107
f 212/13/74 215/14/74 214/15/74
f 213/13/139 215/14/139 216/15/139
f 218/13/140 222/14/140 224/15/140
f 219/13/141 222/14/141 221/15/141
f 220/13/142 222/14/142 223/15/142
f 169/16/143 186/15/143 183/13/143
f 175/16/144 184/15/144 186/13/144
f 176/16/145 174/15/145 170/13/145
f 182/16/146 171/15/146 174/13/146
f 190/16/82 181/15/82 177/13/82
f 196/16/30 178/15/30 181/13/30
f 191/13/31 188/14/31 195/15/31
f 195/13/147 184/14/147 192/15/147
f 211/13/33 189/14/33 214/15/33
f 189/16/34 212/15/34 214/13/34
f 190/13/35 224/14/35 193/15/35
f 224/16/36 191/15/36 193/13/36
f 219/13/148 216/14/148 223/15/148
f 223/13/149 212/14/149 220/15/149
f 211/16/150 200/15/150 197/13/150
f 217/16/151 198/15/151 200/13/151
f 204/16/152 221/15/152 218/13/152
f 210/16/153 219/15/153 221/13/153
f 205/13/43 202/14/43 209/15/43
f 209/13/154 198/14/154 206/15/154
f 169/13/45 203/14/45 172/15/45
f 203/16/46 170/15/46 172/13/46
f 177/16/47 207/15/47 204/13/47
f 179/16/48 205/15/48 207/13/48
f 211/16/49 169/15/49 183/13/49
f 178/16/50 184/15/50 171/13/50
f 205/16/51 170/15/51 199/13/51
f 190/16/52 204/15/52 218/13/52
f 191/16/53 212/15/53 185/13/53
f 219/16/54 198/15/54 213/13/54
f 225/5/155 229/6/155 231/7/155
f 226/5/156 229/6/156 228/7/156
f 227/5/157 229/6/157 230/7/157
f 232/5/158 236/6/158 238/7/158
f 233/5/59 236/6/59 235/7/59
f 234/5/60 236/6/60 237/7/60
f 225/5/61 240/6/61 242/7/61
f 227/5/159 240/6/159 231/7/159
f 239/5/160 240/6/160 241/7/160
f 233/5/161 245/6/161 237/7/161
f 243/5/162 245/6/162 244/7/162
f 234/5/12 245/6/12 246/7/12
f 247/5/163 251/6/163 253/7/163
f 248/5/164 251/6/164 250/7/164
f 249/5/69 251/6/69 252/7/69
f 254/5/165 258/6/165 260/7/165
f 255/5/166 258/6/166 257/7/166
f 256/5/167 258/6/167 259/7/167
f 247/5/168 263/6/168 250/7/168
f 261/5/169 263/6/169 262/7/169
f 248/5/170 263/6/170 264/7/170
f 254/5/140 266/6/140 268/7/140
f 256/5/171 266/6/171 260/7/171
f 265/5/172 266/6/172 267/7/172
f 232/8/27 230/7/27 226/5/27
f 238/8/173 227/7/173 230/5/173
f 239/8/31 246/7/31 243/5/31
f 241/8/174 234/7/174 246/5/174
f 225/8/33 262/7/33 247/5/33
f 242/8/34 261/7/34 262/5/34
f 254/8/35 244/7/35 233/5/35
f 268/8/36 243/7/36 244/5/36
f 248/8/175 267/7/175 256/5/175
f 264/8/176 265/7/176 267/5/176
f 249/8/43 259/7/43 255/5/43
f 252/8/177 256/7/177 259/5/177
f 247/8/45 228/7/45 225/5/45
f 253/8/46 226/7/46 228/5/46
f 233/8/47 257/7/47 254/5/47
f 235/8/48 255/7/48 257/5/48
f 255/8/51 226/7/51 249/5/51
f 243/8/53 261/7/53 239/5/53
f 269/5/178 273/6/178 275/7/178
f 270/5/179 273/6/179 272/7/179
f 271/5/180 273/6/180 274/7/180
f 276/5/181 280/6/181 282/7/181
f 277/5/182 280/6/182 279/7/182
f 278/5/183 280/6/183 281/7/183
f 269/5/184 284/6/184 286/7/184
f 271/5/185 284/6/185 275/7/185
f 283/5/63 284/6/63 285/7/63
f 277/5/186 289/6/186 281/7/186
f 287/5/187 289/6/187 288/7/187
f 278/5/188 289/6/188 290/7/188
f 291/5/163 295/6/163 297/7/163
f 292/5/164 295/6/164 294/7/164
f 293/5/69 295/6/69 296/7/69
f 298/5/165 302/6/165 304/7/165
f 299/5/166 302/6/166 301/7/166
f 300/5/167 302/6/167 303/7/167
f 291/5/168 307/6/168 294/7/168
f 305/5/169 307/6/169 306/7/169
f 292/5/170 307/6/170 308/7/170
f 298/5/140 310/6/140 312/7/140
f 300/5/171 310/6/171 304/7/171
f 309/5/172 310/6/172 311/7/172
f 276/8/27 274/7/27 270/5/27
f 282/8/173 271/7/173 274/5/173
f 283/8/31 290/7/31 287/5/31
f 285/8/174 278/7/174 290/5/174
f 269/8/33 306/7/33 291/5/33
f 286/8/34 305/7/34 306/5/34
f 298/8/35 288/7/35 277/5/35
f 312/8/36 287/7/36 288/5/36
f 292/8/175 311/7/175 300/5/175
f 308/8/176 309/7/176 311/5/176
f 293/8/43 303/7/43 299/5/43
f 296/8/177 300/7/177 303/5/177
f 291/8/45 272/7/45 269/5/45
f 297/8/46 270/7/46 272/5/46
f 277/8/47 301/7/47 298/5/47
f 279/8/48 299/7/48 301/5/48
f 299/8/51 270/7/51 293/5/51
f 287/8/53 305/7/53 283/5/53
f 313/5/178 317/6/178 319/7/178
f 314/5/179 317/6/179 316/7/179
f 315/5/180 317/6/180 318/7/180
f 320/5/181 324/6/181 326/7/181
f 321/5/182 324/6/182 323/7/182
f 322/5/183 324/6/183 325/7/183
f 313/5/184 328/6/184 330/7/184
f 315/5/185 328/6/185 319/7/185
f 327/5/63 328/6/63 329/7/63
f 321/5/186 333/6/186 325/7/186
f 331/5/187 333/6/187 332/7/187
f 322/5/188 333/6/188 334/7/188
f 335/5/189 339/6/189 341/7/189
f 336/5/190 339/6/190 338/7/190
f 337/5/191 339/6/191 340/7/191
f 342/5/104 346/6/104 348/7/104
f 343/5/192 346/6/192 345/7/192
f 344/5/193 346/6/193 347/7/193
f 335/5/107 351/6/107 338/7/107
f 349/5/194 351/6/194 350/7/194
f 336/5/139 351/6/139 352/7/139
f 342/5/76 354/6/76 356/7/76
f 344/5/195 354/6/195 348/7/195
f 353/5/78 354/6/78 355/7/78
f 320/8/27 318/7/27 314/5/27
f 326/8/173 315/7/173 318/5/173
f 327/8/31 334/7/31 331/5/31
f 329/8/174 322/7/174 334/5/174
f 313/8/33 350/7/33 335/5/33
f 330/8/34 349/7/34 350/5/34
f 342/8/35 332/7/35 321/5/35
f 356/8/36 331/7/36 332/5/36
f 336/8/175 355/7/175 344/5/175
f 352/8/176 353/7/176 355/5/176
f 337/8/43 347/7/43 343/5/43
f 340/8/177 344/7/177 347/5/177
f 335/8/45 316/7/45 313/5/45
f 341/8/46 314/7/46 316/5/46
f 321/8/47 345/7/47 342/5/47
f 323/8/48 343/7/48 345/5/48
f 343/8/51 314/7/51 337/5/51
f 331/8/53 349/7/53 327/5/53
f 357/5/90 361/6/90 363/7/90
f 358/5/196 361/6/196 360/7/196
f 359/5/128 361/6/128 362/7/128
f 364/5/58 368/6/58 370/7/58
f 365/5/59 368/6/59 367/7/59
f 366/5/197 368/6/197 369/7/197
f 357/5/198 372/6/198 374/7/198
f 359/5/199 372/6/199 363/7/199
f 371/5/200 372/6/200 373/7/200
f 365/5/98 377/6/98 369/7/98
f 375/5/201 377/6/201 376/7/201
f 366/5/202 377/6/202 378/7/202
f 379/5/163 383/6/163 385/7/163
f 380/5/190 383/6/190 382/7/190
f 381/5/191 383/6/191 384/7/191
f 386/5/104 390/6/104 392/7/104
f 387/5/192 390/6/192 389/7/192
f 388/5/203 390/6/203 391/7/203
f 379/5/168 395/6/168 382/7/168
f 393/5/108 395/6/108 394/7/108
f 380/5/204 395/6/204 396/7/204
f 386/5/205 398/6/205 400/7/205
f 388/5/206 398/6/206 392/7/206
f 397/5/78 398/6/78 399/7/78
f 364/8/27 362/7/27 358/5/27
f 370/8/173 359/7/173 362/5/173
f 371/8/31 378/7/31 375/5/31
f 373/8/174 366/7/174 378/5/174
f 357/8/33 394/7/33 379/5/33
f 374/8/34 393/7/34 394/5/34
f 386/8/35 376/7/35 365/5/35
f 400/8/36 375/7/36 376/5/36
f 380/8/175 399/7/175 388/5/175
f 396/8/176 397/7/176 399/5/176
f 381/8/43 391/7/43 387/5/43
f 384/8/177 388/7/177 391/5/177
f 379/8/45 360/7/45 357/5/45
f 385/8/46 358/7/46 360/5/46
f 365/8/47 389/7/47 386/5/47
f 367/8/48 387/7/48 389/5/48
f 387/8/51 358/7/51 381/5/51
f 375/8/53 393/7/53 371/5/53
f 401/5/207 405/6/207 407/7/207
f 402/5/91 405/6/91 404/7/91
f 403/5/208 405/6/208 406/7/208
f 408/5/209 412/6/209 414/7/209
f 409/5/210 412/6/210 411/7/210
f 410/5/211 412/6/211 413/7/211
f 401/5/184 416/6/184 418/7/184
f 403/5/212 416/6/212 407/7/212
f 415/5/200 416/6/200 417/7/200
f 409/5/98 421/6/98 413/7/98
f 419/5/201 421/6/201 420/7/201
f 410/5/213 421/6/213 422/7/213
f 423/5/163 427/6/163 429/7/163
f 424/5/190 427/6/190 426/7/190
f 425/5/15 427/6/15 428/7/15
f 430/5/214 434/6/214 441/7/214
f 431/5/105 434/6/105 433/7/105
f 432/5/203 434/6/203 435/7/203
f 423/5/215 438/6/215 426/7/215
f 436/5/108 438/6/108 437/7/108
f 424/5/204 438/6/204 439/7/204
f 430/5/140 442/6/140 444/7/140
f 432/5/195 442/6/195 441/7/195
f 440/5/24 442/6/24 443/7/24
f 408/8/27 406/7/27 402/5/27
f 414/8/81 403/7/81 406/5/81
f 415/8/31 422/7/31 419/5/31
f 417/8/174 410/7/174 422/5/174
f 401/8/33 437/7/33 423/5/33
f 418/8/34 436/7/34 437/5/34
f 430/8/35 420/7/35 409/5/35
f 444/8/36 419/7/36 420/5/36
f 424/8/175 443/7/175 432/5/175
f 439/8/176 440/7/176 443/5/176
f 425/8/43 435/7/43 431/5/43
f 428/8/177 432/7/177 435/5/177
f 423/8/45 404/7/45 401/5/45
f 429/8/46 402/7/46 404/5/46
f 409/8/47 433/7/47 430/5/47
f 411/8/48 431/7/48 433/5/48
f 431/8/51 402/7/51 425/5/51
f 419/8/53 436/7/53 415/5/53
f 445/5/216 449/6/216 459/7/216
f 446/5/91 449/6/91 448/7/91
f 447/5/208 449/6/208 450/7/208
f 451/5/209 455/6/209 457/7/209
f 452/5/182 455/6/182 454/7/182
f 453/5/211 455/6/211 456/7/211
f 445/5/184 460/6/184 462/7/184
f 447/5/199 460/6/199 459/7/199
f 458/5/9 460/6/9 461/7/9
f 452/5/64 465/6/64 456/7/64
f 463/5/99 465/6/99 464/7/99
f 453/5/213 465/6/213 466/7/213
f 467/5/163 470/6/163 472/7/163
f 468/5/217 470/6/217 484/7/217
f 469/5/191 470/6/191 471/7/191
f 473/5/104 477/6/104 479/7/104
f 474/5/192 477/6/192 476/7/192
f 475/5/218 477/6/218 478/7/218
f 467/5/219 482/6/219 484/7/219
f 480/5/108 482/6/108 481/7/108
f 468/5/220 482/6/220 483/7/220
f 473/5/205 486/6/205 488/7/205
f 475/5/206 486/6/206 479/7/206
f 485/5/221 486/6/221 487/7/221
f 451/8/27 450/7/27 446/5/27
f 457/8/81 447/7/81 450/5/81
f 458/8/31 466/7/31 463/5/31
f 461/8/174 453/7/174 466/5/174
f 445/8/33 481/7/33 467/5/33
f 462/8/34 480/7/34 481/5/34
f 473/8/35 464/7/35 452/5/35
f 488/8/36 463/7/36 464/5/36
f 468/8/120 487/7/120 475/5/120
f 483/8/38 485/7/38 487/5/38
f 469/8/126 478/7/126 474/5/126
f 471/8/222 475/7/222 478/5/222
f 467/8/45 448/7/45 445/5/45
f 472/8/46 446/7/46 448/5/46
f 452/8/47 476/7/47 473/5/47
f 454/8/48 474/7/48 476/5/48
f 474/8/51 446/7/51 469/5/51
f 463/8/53 480/7/53 458/5/53
f 489/5/207 493/6/207 495/7/207
f 490/5/91 493/6/91 492/7/91
f 491/5/223 493/6/223 494/7/223
f 496/5/224 500/6/224 502/7/224
f 497/5/210 500/6/210 499/7/210
f 498/5/211 500/6/211 501/7/211
f 489/5/184 504/6/184 506/7/184
f 491/5/212 504/6/212 495/7/212
f 503/5/200 504/6/200 505/7/200
f 497/5/98 509/6/98 501/7/98
f 507/5/201 509/6/201 508/7/201
f 498/5/225 509/6/225 510/7/225
f 511/5/163 514/6/163 516/7/163
f 512/5/226 514/6/226 528/7/226
f 513/5/15 514/6/15 515/7/15
f 517/5/165 521/6/165 523/7/165
f 518/5/105 521/6/105 520/7/105
f 519/5/193 521/6/193 522/7/193
f 511/5/168 526/6/168 528/7/168
f 524/5/108 526/6/108 525/7/108
f 512/5/139 526/6/139 527/7/139
f 517/5/140 530/6/140 532/7/140
f 519/5/227 530/6/227 523/7/227
f 529/5/228 530/6/228 531/7/228
f 496/8/115 494/7/115 490/5/115
f 502/8/229 491/7/229 494/5/229
f 503/8/118 510/7/118 507/5/118
f 505/8/230 498/7/230 510/5/230
f 489/8/33 525/7/33 511/5/33
f 506/8/34 524/7/34 525/5/34
f 517/8/35 508/7/35 497/5/35
f 532/8/36 507/7/36 508/5/36
f 512/8/120 531/7/120 519/5/120
f 527/8/38 529/7/38 531/5/38
f 513/8/126 522/7/126 518/5/126
f 515/8/154 519/7/154 522/5/154
f 511/8/45 492/7/45 489/5/45
f 516/8/46 490/7/46 492/5/46
f 497/8/47 520/7/47 517/5/47
f 499/8/48 518/7/48 520/5/48
f 518/8/51 490/7/51 513/5/51
f 507/8/53 524/7/53 503/5/53
f 533/5/178 537/6/178 547/7/178
f 534/5/91 537/6/91 536/7/91
f 535/5/128 537/6/128 538/7/128
f 539/5/129 543/6/129 545/7/129
f 540/5/210 543/6/210 542/7/210
f 541/5/211 543/6/211 544/7/211
f 533/5/184 548/6/184 550/7/184
f 535/5/231 548/6/231 547/7/231
f 546/5/9 548/6/9 549/7/9
f 540/5/186 553/6/186 544/7/186
f 551/5/99 553/6/99 552/7/99
f 541/5/202 553/6/202 554/7/202
f 555/5/163 558/6/163 560/7/163
f 556/5/217 558/6/217 571/7/217
f 557/5/191 558/6/191 559/7/191
f 561/5/165 565/6/165 573/7/165
f 562/5/192 565/6/192 564/7/192
f 563/5/218 565/6/218 566/7/218
f 555/5/219 569/6/219 571/7/219
f 567/5/108 569/6/108 568/7/108
f 556/5/220 569/6/220 570/7/220
f 561/5/205 574/6/205 576/7/205
f 563/5/232 574/6/232 573/7/232
f 572/5/221 574/6/221 575/7/221
f 539/8/115 538/7/115 534/5/115
f 545/8/233 535/7/233 538/5/233
f 546/8/118 554/7/118 551/5/118
f 549/8/147 541/7/147 554/5/147
f 533/8/33 568/7/33 555/5/33
f 550/8/34 567/7/34 568/5/34
f 561/8/35 552/7/35 540/5/35
f 576/8/36 551/7/36 552/5/36
f 556/8/120 575/7/120 563/5/120
f 570/8/38 572/7/38 575/5/38
f 557/8/126 566/7/126 562/5/126
f 566/5/222 556/6/222 563/7/222
f 555/8/45 536/7/45 533/5/45
f 560/8/46 534/7/46 536/5/46
f 540/8/47 564/7/47 561/5/47
f 542/8/48 562/7/48 564/5/48
f 562/8/51 534/7/51 557/5/51
f 551/8/53 567/7/53 546/5/53
f 577/5/207 581/6/207 583/7/207
f 578/5/91 581/6/91 580/7/91
f 579/5/223 581/6/223 582/7/223
f 584/5/224 588/6/224 590/7/224
f 585/5/210 588/6/210 587/7/210
f 586/5/211 588/6/211 589/7/211
f 577/5/184 592/6/184 594/7/184
f 579/5/212 592/6/212 583/7/212
f 591/5/200 592/6/200 593/7/200
f 585/5/98 597/6/98 589/7/98
f 595/5/201 597/6/201 596/7/201
f 586/5/225 597/6/225 598/7/225
f 599/5/163 603/6/163 605/7/163
f 600/5/190 603/6/190 602/7/190
f 601/5/15 603/6/15 604/7/15
f 606/5/70 610/6/70 612/7/70
f 607/5/105 610/6/105 609/7/105
f 608/5/203 610/6/203 611/7/203
f 599/5/215 615/6/215 602/7/215
f 613/5/108 615/6/108 614/7/108
f 600/5/204 615/6/204 616/7/204
f 606/5/140 618/6/140 620/7/140
f 608/5/206 618/6/206 612/7/206
f 617/5/24 618/6/24 619/7/24
f 584/8/115 582/7/115 578/5/115
f 590/8/229 579/7/229 582/5/229
f 591/8/118 598/7/118 595/5/118
f 593/8/230 586/7/230 598/5/230
f 577/8/33 614/7/33 599/5/33
f 594/8/34 613/7/34 614/5/34
f 606/8/35 596/7/35 585/5/35
f 620/8/36 595/7/36 596/5/36
f 600/8/175 619/7/175 608/5/175
f 616/8/176 617/7/176 619/5/176
f 601/8/43 611/7/43 607/5/43
f 604/8/177 608/7/177 611/5/177
f 599/8/45 580/7/45 577/5/45
f 605/8/46 578/7/46 580/5/46
f 585/8/47 609/7/47 606/5/47
f 587/8/48 607/7/48 609/5/48
f 607/8/51 578/7/51 601/5/51
f 595/8/53 613/7/53 591/5/53
f 621/5/207 625/6/207 627/7/207
f 622/5/91 625/6/91 624/7/91
f 623/5/208 625/6/208 626/7/208
f 628/5/209 632/6/209 634/7/209
f 629/5/182 632/6/182 631/7/182
f 630/5/211 632/6/211 633/7/211
f 621/5/184 636/6/184 638/7/184
f 623/5/212 636/6/212 627/7/212
f 635/5/9 636/6/9 637/7/9
f 629/5/64 641/6/64 633/7/64
f 639/5/99 641/6/99 640/7/99
f 630/5/213 641/6/213 642/7/213
f 643/5/163 647/6/163 649/7/163
f 644/5/190 647/6/190 646/7/190
f 645/5/191 647/6/191 648/7/191
f 650/5/165 654/6/165 661/7/165
f 651/5/192 654/6/192 653/7/192
f 652/5/203 654/6/203 655/7/203
f 643/5/168 658/6/168 646/7/168
f 656/5/108 658/6/108 657/7/108
f 644/5/204 658/6/204 659/7/204
f 650/5/205 662/6/205 664/7/205
f 652/5/195 662/6/195 661/7/195
f 660/5/78 662/6/78 663/7/78
f 628/8/27 626/7/27 622/5/27
f 634/8/81 623/7/81 626/5/81
f 635/8/31 642/7/31 639/5/31
f 637/8/174 630/7/174 642/5/174
f 621/8/33 657/7/33 643/5/33
f 638/8/34 656/7/34 657/5/34
f 650/8/35 640/7/35 629/5/35
f 664/8/36 639/7/36 640/5/36
f 644/8/175 663/7/175 652/5/175
f 659/8/176 660/7/176 663/5/176
f 645/8/43 655/7/43 651/5/43
f 648/8/177 652/7/177 655/5/177
f 643/8/45 624/7/45 621/5/45
f 649/8/46 622/7/46 624/5/46
f 629/8/47 653/7/47 650/5/47
f 631/8/48 651/7/48 653/5/48
f 651/8/51 622/7/51 645/5/51
f 639/8/53 656/7/53 635/5/53
f 665/5/207 669/6/207 671/7/207
f 666/5/91 669/6/91 668/7/91
f 667/5/208 669/6/208 670/7/208
f 672/5/209 676/6/209 678/7/209
f 673/5/210 676/6/210 675/7/210
f 674/5/211 676/6/211 677/7/211
f 665/5/184 680/6/184 682/7/184
f 667/5/212 680/6/212 671/7/212
f 679/5/200 680/6/200 681/7/200
f 673/5/98 685/6/98 677/7/98
f 683/5/201 685/6/201 684/7/201
f 674/5/213 685/6/213 686/7/213
f 687/5/189 691/6/189 693/7/189
f 688/5/190 691/6/190 690/7/190
f 689/5/191 691/6/191 692/7/191
f 694/5/104 698/6/104 700/7/104
f 695/5/192 698/6/192 697/7/192
f 696/5/193 698/6/193 699/7/193
f 687/5/107 703/6/107 690/7/107
f 701/5/194 703/6/194 702/7/194
f 688/5/139 703/6/139 704/7/139
f 694/5/76 706/6/76 708/7/76
f 696/5/195 706/6/195 700/7/195
f 705/5/78 706/6/78 707/7/78
f 672/8/27 670/7/27 666/5/27
f 678/8/81 667/7/81 670/5/81
f 679/8/31 686/7/31 683/5/31
f 681/8/174 674/7/174 686/5/174
f 665/8/33 702/7/33 687/5/33
f 682/8/34 701/7/34 702/5/34
f 694/8/35 684/7/35 673/5/35
f 708/8/36 683/7/36 684/5/36
f 688/8/175 707/7/175 696/5/175
f 704/8/176 705/7/176 707/5/176
f 689/8/43 699/7/43 695/5/43
f 692/8/177 696/7/177 699/5/177
f 687/8/45 668/7/45 665/5/45
f 693/8/46 666/7/46 668/5/46
f 673/8/47 697/7/47 694/5/47
f 675/8/48 695/7/48 697/5/48
f 695/8/51 666/7/51 689/5/51
f 683/8/53 701/7/53 679/5/53
f 709/5/90 713/6/90 715/7/90
f 710/5/196 713/6/196 712/7/196
f 711/5/128 713/6/128 714/7/128
f 716/5/58 720/6/58 722/7/58
f 717/5/59 720/6/59 719/7/59
f 718/5/197 720/6/197 721/7/197
f 709/5/198 724/6/198 726/7/198
f 711/5/199 724/6/199 715/7/199
f 723/5/200 724/6/200 725/7/200
f 717/5/98 729/6/98 721/7/98
f 727/5/201 729/6/201 728/7/201
f 718/5/202 729/6/202 730/7/202
f 731/5/163 735/6/163 737/7/163
f 732/5/164 735/6/164 734/7/164
f 733/5/69 735/6/69 736/7/69
f 738/5/165 742/6/165 744/7/165
f 739/5/166 742/6/166 741/7/166
f 740/5/167 742/6/167 743/7/167
f 731/5/168 747/6/168 734/7/168
f 745/5/169 747/6/169 746/7/169
f 732/5/170 747/6/170 748/7/170
f 738/5/140 750/6/140 752/7/140
f 740/5/171 750/6/171 744/7/171
f 749/5/172 750/6/172 751/7/172
f 716/8/27 714/7/27 710/5/27
f 722/8/173 711/7/173 714/5/173
f 723/8/31 730/7/31 727/5/31
f 725/8/174 718/7/174 730/5/174
f 709/8/33 746/7/33 731/5/33
f 726/8/34 745/7/34 746/5/34
f 738/8/35 728/7/35 717/5/35
f 752/8/36 727/7/36 728/5/36
f 732/8/175 751/7/175 740/5/175
f 748/8/176 749/7/176 751/5/176
f 733/8/43 743/7/43 739/5/43
f 736/8/177 740/7/177 743/5/177
f 731/8/45 712/7/45 709/5/45
f 737/8/46 710/7/46 712/5/46
f 717/8/47 741/7/47 738/5/47
f 719/8/48 739/7/48 741/5/48
f 739/8/51 710/7/51 733/5/51
f 727/8/53 745/7/53 723/5/53
f 753/5/178 757/6/178 759/7/178
f 754/5/179 757/6/179 756/7/179
f 755/5/180 757/6/180 758/7/180
f 760/5/181 764/6/181 766/7/181
f 761/5/182 764/6/182 763/7/182
f 762/5/183 764/6/183 765/7/183
f 753/5/184 768/6/184 770/7/184
f 755/5/185 768/6/185 759/7/185
f 767/5/63 768/6/63 769/7/63
f 761/5/186 773/6/186 765/7/186
f 771/5/187 773/6/187 772/7/187
f 762/5/188 773/6/188 774/7/188
f 775/5/163 779/6/163 781/7/163
f 776/5/164 779/6/164 778/7/164
f 777/5/69 779/6/69 780/7/69
f 782/5/165 786/6/165 788/7/165
f 783/5/166 786/6/166 785/7/166
f 784/5/167 786/6/167 787/7/167
f 775/5/168 791/6/168 778/7/168
f 789/5/169 791/6/169 790/7/169
f 776/5/170 791/6/170 792/7/170
f 782/5/140 794/6/140 796/7/140
f 784/5/171 794/6/171 788/7/171
f 793/5/172 794/6/172 795/7/172
f 760/8/27 758/7/27 754/5/27
f 766/8/173 755/7/173 758/5/173
f 767/8/31 774/7/31 771/5/31
f 769/8/174 762/7/174 774/5/174
f 753/8/33 790/7/33 775/5/33
f 770/8/34 789/7/34 790/5/34
f 782/8/35 772/7/35 761/5/35
f 796/8/36 771/7/36 772/5/36
f 776/8/175 795/7/175 784/5/175
f 792/8/176 793/7/176 795/5/176
f 777/8/43 787/7/43 783/5/43
f 780/8/177 784/7/177 787/5/177
f 775/8/45 756/7/45 753/5/45
f 781/8/46 754/7/46 756/5/46
f 761/8/47 785/7/47 782/5/47
f 763/8/48 783/7/48 785/5/48
f 783/8/51 754/7/51 777/5/51
f 771/8/53 789/7/53 767/5/53
f 797/5/178 801/6/178 803/7/178
f 798/5/179 801/6/179 800/7/179
f 799/5/180 801/6/180 802/7/180
f 804/5/181 808/6/181 810/7/181
f 805/5/182 808/6/182 807/7/182
f 806/5/183 808/6/183 809/7/183
f 797/5/184 812/6/184 814/7/184
f 799/5/185 812/6/185 803/7/185
f 811/5/63 812/6/63 813/7/63
f 805/5/186 817/6/186 809/7/186
f 815/5/187 817/6/187 816/7/187
f 806/5/188 817/6/188 818/7/188
f 819/5/67 823/6/67 825/7/67
f 820/5/234 823/6/234 822/7/234
f 821/5/235 823/6/235 824/7/235
f 826/5/236 830/6/236 832/7/236
f 827/5/237 830/6/237 829/7/237
f 828/5/18 830/6/18 831/7/18
f 819/5/238 835/6/238 822/7/238
f 833/5/239 835/6/239 834/7/239
f 820/5/240 835/6/240 836/7/240
f 826/5/76 838/6/76 840/7/76
f 828/5/77 838/6/77 832/7/77
f 837/5/241 838/6/241 839/7/241
f 804/8/27 802/7/27 798/5/27
f 810/8/173 799/7/173 802/5/173
f 811/8/31 818/7/31 815/5/31
f 813/8/174 806/7/174 818/5/174
f 797/8/33 834/7/33 819/5/33
f 814/8/34 833/7/34 834/5/34
f 826/8/35 816/7/35 805/5/35
f 840/8/36 815/7/36 816/5/36
f 820/8/175 839/7/175 828/5/175
f 836/8/85 837/7/85 839/5/85
f 821/8/43 831/7/43 827/5/43
f 824/8/177 828/7/177 831/5/177
f 819/8/45 800/7/45 797/5/45
f 825/8/46 798/7/46 800/5/46
f 805/8/47 829/7/47 826/5/47
f 807/8/48 827/7/48 829/5/48
f 827/8/51 798/7/51 821/5/51
f 815/8/53 833/7/53 811/5/53
f 1/1/242 4/4/242 5/2/242
f 2/1/243 6/4/243 5/2/243
f 3/1/244 7/4/244 5/2/244
f 8/1/245 11/4/245 12/2/245
f 9/1/246 13/4/246 12/2/246
f 10/1/247 14/4/247 12/2/247
f 15/1/248 18/4/248 19/2/248
f 16/1/249 20/4/249 19/2/249
f 17/1/250 21/4/250 19/2/250
f 22/1/251 25/4/251 26/2/251
f 23/1/252 27/4/252 26/2/252
f 24/1/253 28/4/253 26/2/253
f 29/1/254 32/4/254 33/2/254
f 30/1/255 34/4/255 33/2/255
f 31/1/256 35/4/256 33/2/256
f 36/1/257 39/4/257 40/2/257
f 37/1/258 41/4/258 40/2/258
f 38/1/259 42/4/259 40/2/259
f 43/1/260 46/4/260 47/2/260
f 44/1/261 48/4/261 47/2/261
f 45/1/262 49/4/262 47/2/262
f 50/1/263 53/4/263 54/2/263
f 51/1/264 55/4/264 54/2/264
f 52/1/265 56/4/265 54/2/265
f 15/1/143 1/4/143 7/2/143
f 18/1/79 7/4/79 3/2/79
f 2/1/115 8/4/115 14/2/115
f 14/4/233 10/2/233 3/3/233
f 22/4/29 28/2/29 13/3/29
f 28/4/117 24/2/117 10/3/117
f 23/1/118 17/4/118 20/2/118
f 20/4/147 16/2/147 24/3/147
f 15/4/33 21/2/33 46/3/33
f 46/1/34 21/4/34 17/2/34
f 50/4/35 56/2/35 25/3/35
f 25/1/36 56/4/36 52/2/36
f 45/4/266 48/2/266 55/3/266
f 48/4/85 44/2/85 52/3/85
f 29/1/150 43/4/150 49/2/150
f 32/1/86 49/4/86 45/2/86
f 50/1/152 36/4/152 42/2/152
f 53/1/87 42/4/87 38/2/87
f 37/1/126 31/4/126 34/2/126
f 34/4/154 30/2/154 38/3/154
f 29/4/45 35/2/45 4/3/45
f 4/1/46 35/4/46 31/2/46
f 9/4/47 11/2/47 39/3/47
f 11/4/48 8/2/48 37/3/48
f 43/4/49 29/2/49 1/3/49
f 10/4/50 24/2/50 16/3/50
f 37/4/51 8/2/51 2/3/51
f 22/4/52 9/2/52 36/3/52
f 23/4/53 52/2/53 44/3/53
f 51/4/54 38/2/54 30/3/54
f 57/5/267 60/8/267 61/6/267
f 58/5/268 62/8/268 61/6/268
f 59/5/269 63/8/269 61/6/269
f 64/5/270 67/8/270 68/6/270
f 65/5/271 69/8/271 68/6/271
f 66/5/272 70/8/272 68/6/272
f 71/5/273 74/8/273 75/6/273
f 72/5/274 76/8/274 75/6/274
f 73/5/275 77/8/275 75/6/275
f 78/5/276 81/8/276 82/6/276
f 79/5/277 83/8/277 82/6/277
f 80/5/278 84/8/278 82/6/278
f 85/5/279 88/8/279 89/6/279
f 86/5/280 90/8/280 89/6/280
f 87/5/281 91/8/281 89/6/281
f 92/5/282 95/8/282 96/6/282
f 93/5/283 97/8/283 96/6/283
f 94/5/284 98/8/284 96/6/284
f 99/5/285 102/8/285 103/6/285
f 100/5/286 104/8/286 103/6/286
f 101/5/287 105/8/287 103/6/287
f 106/5/288 109/8/288 110/6/288
f 107/5/289 111/8/289 110/6/289
f 108/5/290 112/8/290 110/6/290
f 57/8/25 63/6/25 74/7/25
f 63/8/79 59/6/79 72/7/79
f 64/8/27 70/6/27 62/7/27
f 70/8/291 66/6/291 59/7/291
f 78/8/82 84/6/82 69/7/82
f 84/8/30 80/6/30 66/7/30
f 73/8/31 76/6/31 83/7/31
f 76/8/292 72/6/292 80/7/292
f 71/8/33 77/6/33 102/7/33
f 77/8/34 73/6/34 100/7/34
f 106/8/35 112/6/35 81/7/35
f 112/8/36 108/6/36 79/7/36
f 101/8/293 104/6/293 111/7/293
f 104/8/176 100/6/176 108/7/176
f 99/8/39 105/6/39 88/7/39
f 105/8/86 101/6/86 86/7/86
f 92/8/41 98/6/41 109/7/41
f 98/8/87 94/6/87 107/7/87
f 87/8/43 90/6/43 97/7/43
f 90/8/294 86/6/294 94/7/294
f 85/8/45 91/6/45 60/7/45
f 91/8/46 87/6/46 58/7/46
f 65/8/47 67/6/47 95/7/47
f 67/8/48 64/6/48 93/7/48
f 99/8/49 85/6/49 57/7/49
f 66/8/50 80/6/50 72/7/50
f 93/8/51 64/6/51 58/7/51
f 78/8/52 65/6/52 92/7/52
f 79/8/53 108/6/53 100/7/53
f 107/8/54 94/6/54 86/7/54
f 113/9/295 116/12/295 117/10/295
f 114/9/268 118/12/268 117/10/268
f 115/9/296 119/12/296 117/10/296
f 120/9/297 123/12/297 124/10/297
f 121/9/298 125/12/298 124/10/298
f 122/9/299 126/12/299 124/10/299
f 127/9/300 130/12/300 131/10/300
f 128/9/301 132/12/301 131/10/301
f 129/9/302 133/12/302 131/10/302
f 134/9/303 137/12/303 138/10/303
f 135/9/277 139/12/277 138/10/277
f 136/9/304 140/12/304 138/10/304
f 141/9/305 144/12/305 145/10/305
f 142/9/306 146/12/306 145/10/306
f 143/9/307 147/12/307 145/10/307
f 148/9/308 151/12/308 152/10/308
f 149/9/283 153/12/283 152/10/283
f 150/9/309 154/12/309 152/10/309
f 155/9/310 158/12/310 159/10/310
f 156/9/286 160/12/286 159/10/286
f 157/9/311 161/12/311 159/10/311
f 162/9/312 165/12/312 166/10/312
f 163/9/313 167/12/313 166/10/313
f 164/9/314 168/12/314 166/10/314
f 127/9/25 113/12/25 119/10/25
f 119/12/315 115/10/315 128/11/315
f 120/12/115 126/10/115 118/11/115
f 126/12/316 122/10/316 115/11/316
f 134/12/82 140/10/82 125/11/82
f 140/12/117 136/10/117 122/11/117
f 135/9/317 129/12/317 132/10/317
f 139/9/147 132/12/147 128/10/147
f 127/12/33 133/10/33 158/11/33
f 133/12/34 129/10/34 156/11/34
f 162/12/35 168/10/35 137/11/35
f 168/12/36 164/10/36 135/11/36
f 163/9/318 157/12/318 160/10/318
f 167/9/38 160/12/38 156/10/38
f 141/9/39 155/12/39 161/10/39
f 161/12/319 157/10/319 142/11/319
f 162/9/41 148/12/41 154/10/41
f 154/12/320 150/10/320 163/11/320
f 149/9/321 143/12/321 146/10/321
f 153/9/154 146/12/154 142/10/154
f 141/12/45 147/10/45 116/11/45
f 147/12/46 143/10/46 114/11/46
f 121/12/47 123/10/47 151/11/47
f 123/12/48 120/10/48 149/11/48
f 155/12/49 141/10/49 113/11/49
f 122/12/50 136/10/50 128/11/50
f 149/12/51 120/10/51 114/11/51
f 134/12/52 121/10/52 148/11/52
f 135/12/53 164/10/53 156/11/53
f 163/12/54 150/10/54 142/11/54
f 169/13/322 172/16/322 173/14/322
f 170/13/323 174/16/323 173/14/323
f 171/13/324 175/16/324 173/14/324
f 176/13/270 179/16/270 180/14/270
f 177/13/298 181/16/298 180/14/298
f 178/13/325 182/16/325 180/14/325
f 183/13/326 186/16/326 187/14/326
f 184/13/301 188/16/301 187/14/301
f 185/13/327 189/16/327 187/14/327
f 190/13/276 193/16/276 194/14/276
f 191/13/328 195/16/328 194/14/328
f 192/13/253 196/16/253 194/14/253
f 197/13/329 200/16/329 201/14/329
f 198/13/330 202/16/330 201/14/330
f 199/13/331 203/16/331 201/14/331
f 204/13/282 207/16/282 208/14/282
f 205/13/332 209/16/332 208/14/332
f 206/13/333 210/16/333 208/14/333
f 211/13/334 214/16/334 215/14/334
f 212/13/335 216/16/335 215/14/335
f 213/13/336 217/16/336 215/14/336
f 218/13/337 221/16/337 222/14/337
f 219/13/313 223/16/313 222/14/313
f 220/13/338 224/16/338 222/14/338
f 169/16/25 175/14/25 186/15/25
f 175/16/79 171/14/79 184/15/79
f 176/16/27 182/14/27 174/15/27
f 182/16/233 178/14/233 171/15/233
f 190/16/82 196/14/82 181/15/82
f 196/16/30 192/14/30 178/15/30
f 191/13/339 185/16/339 188/14/339
f 195/13/340 188/16/340 184/14/340
f 211/13/33 183/16/33 189/14/33
f 189/16/34 185/14/34 212/15/34
f 190/13/35 218/16/35 224/14/35
f 224/16/36 220/14/36 191/15/36
f 219/13/120 213/16/120 216/14/120
f 223/13/85 216/16/85 212/14/85
f 211/16/39 217/14/39 200/15/39
f 217/16/86 213/14/86 198/15/86
f 204/16/41 210/14/41 221/15/41
f 210/16/87 206/14/87 219/15/87
f 205/13/341 199/16/341 202/14/341
f 209/13/342 202/16/342 198/14/342
f 169/13/45 197/16/45 203/14/45
f 203/16/46 199/14/46 170/15/46
f 177/16/47 179/14/47 207/15/47
f 179/16/48 176/14/48 205/15/48
f 211/16/49 197/14/49 169/15/49
f 178/16/50 192/14/50 184/15/50
f 205/16/51 176/14/51 170/15/51
f 190/16/52 177/14/52 204/15/52
f 191/16/53 220/14/53 212/15/53
f 219/16/54 206/14/54 198/15/54
f 225/5/267 228/8/267 229/6/267
f 226/5/343 230/8/343 229/6/343
f 227/5/344 231/8/344 229/6/344
f 232/5/345 235/8/345 236/6/345
f 233/5/346 237/8/346 236/6/346
f 234/5/247 238/8/247 236/6/247
f 225/5/248 231/8/248 240/6/248
f 227/5/347 241/8/347 240/6/347
f 239/5/348 242/8/348 240/6/348
f 233/5/276 244/8/276 245/6/276
f 243/5/349 246/8/349 245/6/349
f 234/5/278 237/8/278 245/6/278
f 247/5/350 250/8/350 251/6/350
f 248/5/351 252/8/351 251/6/351
f 249/5/352 253/8/352 251/6/352
f 254/5/353 257/8/353 258/6/353
f 255/5/354 259/8/354 258/6/354
f 256/5/355 260/8/355 258/6/355
f 247/5/356 262/8/356 263/6/356
f 261/5/286 264/8/286 263/6/286
f 248/5/357 250/8/357 263/6/357
f 254/5/358 260/8/358 266/6/358
f 256/5/359 267/8/359 266/6/359
f 265/5/360 268/8/360 266/6/360
f 232/8/27 238/6/27 230/7/27
f 238/8/173 234/6/173 227/7/173
f 239/8/31 241/6/31 246/7/31
f 241/8/174 227/6/174 234/7/174
f 225/8/33 242/6/33 262/7/33
f 242/8/34 239/6/34 261/7/34
f 254/8/35 268/6/35 244/7/35
f 268/8/36 265/6/36 243/7/36
f 248/8/175 264/6/175 267/7/175
f 264/8/85 261/6/85 265/7/85
f 249/8/88 252/6/88 259/7/88
f 252/8/177 248/6/177 256/7/177
f 247/8/45 253/6/45 228/7/45
f 253/8/46 249/6/46 226/7/46
f 233/8/47 235/6/47 257/7/47
f 235/8/48 232/6/48 255/7/48
f 255/8/51 232/6/51 226/7/51
f 243/8/53 265/6/53 261/7/53
f 269/5/361 272/8/361 273/6/361
f 270/5/268 274/8/268 273/6/268
f 271/5/362 275/8/362 273/6/362
f 276/5/363 279/8/363 280/6/363
f 277/5/364 281/8/364 280/6/364
f 278/5/365 282/8/365 280/6/365
f 269/5/366 275/8/366 284/6/366
f 271/5/367 285/8/367 284/6/367
f 283/5/368 286/8/368 284/6/368
f 277/5/369 288/8/369 289/6/369
f 287/5/370 290/8/370 289/6/370
f 278/5/371 281/8/371 289/6/371
f 291/5/350 294/8/350 295/6/350
f 292/5/351 296/8/351 295/6/351
f 293/5/352 297/8/352 295/6/352
f 298/5/353 301/8/353 302/6/353
f 299/5/354 303/8/354 302/6/354
f 300/5/355 304/8/355 302/6/355
f 291/5/356 306/8/356 307/6/356
f 305/5/286 308/8/286 307/6/286
f 292/5/357 294/8/357 307/6/357
f 298/5/358 304/8/358 310/6/358
f 300/5/359 311/8/359 310/6/359
f 309/5/360 312/8/360 310/6/360
f 276/8/80 282/6/80 274/7/80
f 282/8/173 278/6/173 271/7/173
f 283/8/83 285/6/83 290/7/83
f 285/8/174 271/6/174 278/7/174
f 269/8/33 286/6/33 306/7/33
f 286/8/34 283/6/34 305/7/34
f 298/8/35 312/6/35 288/7/35
f 312/8/36 309/6/36 287/7/36
f 292/8/175 308/6/175 311/7/175
f 308/8/85 305/6/85 309/7/85
f 293/8/88 296/6/88 303/7/88
f 296/8/177 292/6/177 300/7/177
f 291/8/45 297/6/45 272/7/45
f 297/8/46 293/6/46 270/7/46
f 277/8/47 279/6/47 301/7/47
f 279/8/48 276/6/48 299/7/48
f 299/8/51 276/6/51 270/7/51
f 287/8/53 309/6/53 305/7/53
f 313/5/361 316/8/361 317/6/361
f 314/5/268 318/8/268 317/6/268
f 315/5/362 319/8/362 317/6/362
f 320/5/363 323/8/363 324/6/363
f 321/5/364 325/8/364 324/6/364
f 322/5/365 326/8/365 324/6/365
f 313/5/366 319/8/366 328/6/366
f 315/5/367 329/8/367 328/6/367
f 327/5/368 330/8/368 328/6/368
f 321/5/369 332/8/369 333/6/369
f 331/5/370 334/8/370 333/6/370
f 322/5/371 325/8/371 333/6/371
f 335/5/372 338/8/372 339/6/372
f 336/5/373 340/8/373 339/6/373
f 337/5/374 341/8/374 339/6/374
f 342/5/282 345/8/282 346/6/282
f 343/5/283 347/8/283 346/6/283
f 344/5/375 348/8/375 346/6/375
f 335/5/334 350/8/334 351/6/334
f 349/5/376 352/8/376 351/6/376
f 336/5/377 338/8/377 351/6/377
f 342/5/378 348/8/378 354/6/378
f 344/5/379 355/8/379 354/6/379
f 353/5/380 356/8/380 354/6/380
f 320/8/80 326/6/80 318/7/80
f 326/8/173 322/6/173 315/7/173
f 327/8/83 329/6/83 334/7/83
f 329/8/174 315/6/174 322/7/174
f 313/8/33 330/6/33 350/7/33
f 330/8/34 327/6/34 349/7/34
f 342/8/35 356/6/35 332/7/35
f 356/8/36 353/6/36 331/7/36
f 336/8/175 352/6/175 355/7/175
f 352/8/85 349/6/85 353/7/85
f 337/8/88 340/6/88 347/7/88
f 340/8/177 336/6/177 344/7/177
f 335/8/45 341/6/45 316/7/45
f 341/8/46 337/6/46 314/7/46
f 321/8/47 323/6/47 345/7/47
f 323/8/48 320/6/48 343/7/48
f 343/8/51 320/6/51 314/7/51
f 331/8/53 353/6/53 349/7/53
f 357/5/322 360/8/322 361/6/322
f 358/5/381 362/8/381 361/6/381
f 359/5/382 363/8/382 361/6/382
f 364/5/383 367/8/383 368/6/383
f 365/5/298 369/8/298 368/6/298
f 366/5/384 370/8/384 368/6/384
f 357/5/385 363/8/385 372/6/385
f 359/5/386 373/8/386 372/6/386
f 371/5/387 374/8/387 372/6/387
f 365/5/276 376/8/276 377/6/276
f 375/5/277 378/8/277 377/6/277
f 366/5/388 369/8/388 377/6/388
f 379/5/350 382/8/350 383/6/350
f 380/5/373 384/8/373 383/6/373
f 381/5/389 385/8/389 383/6/389
f 386/5/390 389/8/390 390/6/390
f 387/5/391 391/8/391 390/6/391
f 388/5/392 392/8/392 390/6/392
f 379/5/356 394/8/356 395/6/356
f 393/5/376 396/8/376 395/6/376
f 380/5/377 382/8/377 395/6/377
f 386/5/378 392/8/378 398/6/378
f 388/5/379 399/8/379 398/6/379
f 397/5/380 400/8/380 398/6/380
f 364/8/80 370/6/80 362/7/80
f 370/8/173 366/6/173 359/7/173
f 371/8/83 373/6/83 378/7/83
f 373/8/174 359/6/174 366/7/174
f 357/8/33 374/6/33 394/7/33
f 374/8/34 371/6/34 393/7/34
f 386/8/35 400/6/35 376/7/35
f 400/8/36 397/6/36 375/7/36
f 380/8/175 396/6/175 399/7/175
f 396/8/85 393/6/85 397/7/85
f 381/8/88 384/6/88 391/7/88
f 384/8/177 380/6/177 388/7/177
f 379/8/45 385/6/45 360/7/45
f 385/8/46 381/6/46 358/7/46
f 365/8/47 367/6/47 389/7/47
f 367/8/48 364/6/48 387/7/48
f 387/8/51 364/6/51 358/7/51
f 375/8/53 397/6/53 393/7/53
f 401/5/361 404/8/361 405/6/361
f 402/5/381 406/8/381 405/6/381
f 403/5/393 407/8/393 405/6/393
f 408/5/383 411/8/383 412/6/383
f 409/5/298 413/8/298 412/6/298
f 410/5/394 414/8/394 412/6/394
f 401/5/395 407/8/395 416/6/395
f 403/5/386 417/8/386 416/6/386
f 415/5/396 418/8/396 416/6/396
f 409/5/397 420/8/397 421/6/397
f 419/5/398 422/8/398 421/6/398
f 410/5/399 413/8/399 421/6/399
f 423/5/400 426/8/400 427/6/400
f 424/5/373 428/8/373 427/6/373
f 425/5/389 429/8/389 427/6/389
f 430/5/353 433/8/353 434/6/353
f 431/5/391 435/8/391 434/6/391
f 432/5/375 441/8/375 434/6/375
f 423/5/356 437/8/356 438/6/356
f 436/5/376 439/8/376 438/6/376
f 424/5/377 426/8/377 438/6/377
f 430/5/401 441/8/401 442/6/401
f 432/5/379 443/8/379 442/6/379
f 440/5/402 444/8/402 442/6/402
f 408/8/115 414/6/115 406/7/115
f 414/8/173 410/6/173 403/7/173
f 415/8/83 417/6/83 422/7/83
f 417/8/174 403/6/174 410/7/174
f 401/8/33 418/6/33 437/7/33
f 418/8/34 415/6/34 436/7/34
f 430/8/35 444/6/35 420/7/35
f 444/8/36 440/6/36 419/7/36
f 424/8/175 439/6/175 443/7/175
f 439/8/85 436/6/85 440/7/85
f 425/8/88 428/6/88 435/7/88
f 428/8/177 424/6/177 432/7/177
f 423/8/45 429/6/45 404/7/45
f 429/8/46 425/6/46 402/7/46
f 409/8/47 411/6/47 433/7/47
f 411/8/48 408/6/48 431/7/48
f 431/8/51 408/6/51 402/7/51
f 419/8/53 440/6/53 436/7/53
f 445/5/361 448/8/361 449/6/361
f 446/5/381 450/8/381 449/6/381
f 447/5/382 459/8/382 449/6/382
f 451/5/297 454/8/297 455/6/297
f 452/5/271 456/8/271 455/6/271
f 453/5/394 457/8/394 455/6/394
f 445/5/403 459/8/403 460/6/403
f 447/5/386 461/8/386 460/6/386
f 458/5/396 462/8/396 460/6/396
f 452/5/369 464/8/369 465/6/369
f 463/5/398 466/8/398 465/6/398
f 453/5/399 456/8/399 465/6/399
f 467/5/404 484/8/404 470/6/404
f 468/5/405 471/8/405 470/6/405
f 469/5/389 472/8/389 470/6/389
f 473/5/390 476/8/390 477/6/390
f 474/5/406 478/8/406 477/6/406
f 475/5/392 479/8/392 477/6/392
f 467/5/356 481/8/356 482/6/356
f 480/5/407 483/8/407 482/6/407
f 468/5/408 484/8/408 482/6/408
f 473/5/378 479/8/378 486/6/378
f 475/5/409 487/8/409 486/6/409
f 485/5/380 488/8/380 486/6/380
f 451/8/115 457/6/115 450/7/115
f 457/8/173 453/6/173 447/7/173
f 458/8/83 461/6/83 466/7/83
f 461/8/174 447/6/174 453/7/174
f 445/8/33 462/6/33 481/7/33
f 462/8/34 458/6/34 480/7/34
f 473/8/35 488/6/35 464/7/35
f 488/8/36 485/6/36 463/7/36
f 468/8/410 483/6/410 487/7/410
f 483/8/38 480/6/38 485/7/38
f 469/8/126 471/6/126 478/7/126
f 471/8/154 468/6/154 475/7/154
f 467/8/45 472/6/45 448/7/45
f 472/8/46 469/6/46 446/7/46
f 452/8/47 454/6/47 476/7/47
f 454/8/48 451/6/48 474/7/48
f 474/8/51 451/6/51 446/7/51
f 463/8/53 485/6/53 480/7/53
f 489/5/361 492/8/361 493/6/361
f 490/5/411 494/8/411 493/6/411
f 491/5/393 495/8/393 493/6/393
f 496/5/383 499/8/383 500/6/383
f 497/5/298 501/8/298 500/6/298
f 498/5/412 502/8/412 500/6/412
f 489/5/395 495/8/395 504/6/395
f 491/5/413 505/8/413 504/6/413
f 503/5/396 506/8/396 504/6/396
f 497/5/397 508/8/397 509/6/397
f 507/5/414 510/8/414 509/6/414
f 498/5/399 501/8/399 509/6/399
f 511/5/350 528/8/350 514/6/350
f 512/5/415 515/8/415 514/6/415
f 513/5/389 516/8/389 514/6/389
f 517/5/390 520/8/390 521/6/390
f 518/5/332 522/8/332 521/6/332
f 519/5/392 523/8/392 521/6/392
f 511/5/356 525/8/356 526/6/356
f 524/5/335 527/8/335 526/6/335
f 512/5/408 528/8/408 526/6/408
f 517/5/358 523/8/358 530/6/358
f 519/5/416 531/8/416 530/6/416
f 529/5/402 532/8/402 530/6/402
f 496/8/115 502/6/115 494/7/115
f 502/8/229 498/6/229 491/7/229
f 503/8/118 505/6/118 510/7/118
f 505/8/147 491/6/147 498/7/147
f 489/8/33 506/6/33 525/7/33
f 506/8/34 503/6/34 524/7/34
f 517/8/35 532/6/35 508/7/35
f 532/8/36 529/6/36 507/7/36
f 512/8/120 527/6/120 531/7/120
f 527/8/38 524/6/38 529/7/38
f 513/8/126 515/6/126 522/7/126
f 515/8/154 512/6/154 519/7/154
f 511/8/45 516/6/45 492/7/45
f 516/8/46 513/6/46 490/7/46
f 497/8/47 499/6/47 520/7/47
f 499/8/48 496/6/48 518/7/48
f 518/8/51 496/6/51 490/7/51
f 507/8/53 529/6/53 524/7/53
f 533/5/361 536/8/361 537/6/361
f 534/5/323 538/8/323 537/6/323
f 535/5/393 547/8/393 537/6/393
f 539/5/297 542/8/297 543/6/297
f 540/5/364 544/8/364 543/6/364
f 541/5/384 545/8/384 543/6/384
f 533/5/366 547/8/366 548/6/366
f 535/5/417 549/8/417 548/6/417
f 546/5/396 550/8/396 548/6/396
f 540/5/397 552/8/397 553/6/397
f 551/5/328 554/8/328 553/6/328
f 541/5/399 544/8/399 553/6/399
f 555/5/404 571/8/404 558/6/404
f 556/5/405 559/8/405 558/6/405
f 557/5/389 560/8/389 558/6/389
f 561/5/390 564/8/390 565/6/390
f 562/5/406 566/8/406 565/6/406
f 563/5/418 573/8/418 565/6/418
f 555/5/356 568/8/356 569/6/356
f 567/5/407 570/8/407 569/6/407
f 556/5/408 571/8/408 569/6/408
f 561/5/358 573/8/358 574/6/358
f 563/5/409 575/8/409 574/6/409
f 572/5/380 576/8/380 574/6/380
f 539/8/115 545/6/115 538/7/115
f 545/8/233 541/6/233 535/7/233
f 546/8/118 549/6/118 554/7/118
f 549/8/147 535/6/147 541/7/147
f 533/8/33 550/6/33 568/7/33
f 550/8/34 546/6/34 567/7/34
f 561/8/35 576/6/35 552/7/35
f 576/8/36 572/6/36 551/7/36
f 556/8/410 570/6/410 575/7/410
f 570/8/38 567/6/38 572/7/38
f 557/8/126 559/6/126 566/7/126
f 566/5/222 559/8/222 556/6/222
f 555/8/45 560/6/45 536/7/45
f 560/8/46 557/6/46 534/7/46
f 540/8/47 542/6/47 564/7/47
f 542/8/48 539/6/48 562/7/48
f 562/8/51 539/6/51 534/7/51
f 551/8/53 572/6/53 567/7/53
f 577/5/361 580/8/361 581/6/361
f 578/5/411 582/8/411 581/6/411
f 579/5/393 583/8/393 581/6/393
f 584/5/383 587/8/383 588/6/383
f 585/5/298 589/8/298 588/6/298
f 586/5/412 590/8/412 588/6/412
f 577/5/395 583/8/395 592/6/395
f 579/5/413 593/8/413 592/6/413
f 591/5/396 594/8/396 592/6/396
f 585/5/397 596/8/397 597/6/397
f 595/5/414 598/8/414 597/6/414
f 586/5/399 589/8/399 597/6/399
f 599/5/400 602/8/400 603/6/400
f 600/5/373 604/8/373 603/6/373
f 601/5/389 605/8/389 603/6/389
f 606/5/353 609/8/353 610/6/353
f 607/5/391 611/8/391 610/6/391
f 608/5/392 612/8/392 610/6/392
f 599/5/356 614/8/356 615/6/356
f 613/5/376 616/8/376 615/6/376
f 600/5/377 602/8/377 615/6/377
f 606/5/288 612/8/288 618/6/288
f 608/5/379 619/8/379 618/6/379
f 617/5/402 620/8/402 618/6/402
f 584/8/115 590/6/115 582/7/115
f 590/8/229 586/6/229 579/7/229
f 591/8/118 593/6/118 598/7/118
f 593/8/147 579/6/147 586/7/147
f 577/8/33 594/6/33 614/7/33
f 594/8/34 591/6/34 613/7/34
f 606/8/35 620/6/35 596/7/35
f 620/8/36 617/6/36 595/7/36
f 600/8/175 616/6/175 619/7/175
f 616/8/85 613/6/85 617/7/85
f 601/8/88 604/6/88 611/7/88
f 604/8/177 600/6/177 608/7/177
f 599/8/45 605/6/45 580/7/45
f 605/8/46 601/6/46 578/7/46
f 585/8/47 587/6/47 609/7/47
f 587/8/48 584/6/48 607/7/48
f 607/8/51 584/6/51 578/7/51
f 595/8/53 617/6/53 613/7/53
f 621/5/361 624/8/361 625/6/361
f 622/5/381 626/8/381 625/6/381
f 623/5/393 627/8/393 625/6/393
f 628/5/297 631/8/297 632/6/297
f 629/5/271 633/8/271 632/6/271
f 630/5/394 634/8/394 632/6/394
f 621/5/395 627/8/395 636/6/395
f 623/5/386 637/8/386 636/6/386
f 635/5/396 638/8/396 636/6/396
f 629/5/369 640/8/369 641/6/369
f 639/5/398 642/8/398 641/6/398
f 630/5/399 633/8/399 641/6/399
f 643/5/350 646/8/350 647/6/350
f 644/5/373 648/8/373 647/6/373
f 645/5/389 649/8/389 647/6/389
f 650/5/390 653/8/390 654/6/390
f 651/5/391 655/8/391 654/6/391
f 652/5/375 661/8/375 654/6/375
f 643/5/356 657/8/356 658/6/356
f 656/5/376 659/8/376 658/6/376
f 644/5/377 646/8/377 658/6/377
f 650/5/358 661/8/358 662/6/358
f 652/5/379 663/8/379 662/6/379
f 660/5/380 664/8/380 662/6/380
f 628/8/115 634/6/115 626/7/115
f 634/8/173 630/6/173 623/7/173
f 635/8/83 637/6/83 642/7/83
f 637/8/174 623/6/174 630/7/174
f 621/8/33 638/6/33 657/7/33
f 638/8/34 635/6/34 656/7/34
f 650/8/35 664/6/35 640/7/35
f 664/8/36 660/6/36 639/7/36
f 644/8/175 659/6/175 663/7/175
f 659/8/85 656/6/85 660/7/85
f 645/8/88 648/6/88 655/7/88
f 648/8/177 644/6/177 652/7/177
f 643/8/45 649/6/45 624/7/45
f 649/8/46 645/6/46 622/7/46
f 629/8/47 631/6/47 653/7/47
f 631/8/48 628/6/48 651/7/48
f 651/8/51 628/6/51 622/7/51
f 639/8/53 660/6/53 656/7/53
f 665/5/361 668/8/361 669/6/361
f 666/5/381 670/8/381 669/6/381
f 667/5/393 671/8/393 669/6/393
f 672/5/383 675/8/383 676/6/383
f 673/5/298 677/8/298 676/6/298
f 674/5/394 678/8/394 676/6/394
f 665/5/395 671/8/395 680/6/395
f 667/5/386 681/8/386 680/6/386
f 679/5/396 682/8/396 680/6/396
f 673/5/397 684/8/397 685/6/397
f 683/5/398 686/8/398 685/6/398
f 674/5/399 677/8/399 685/6/399
f 687/5/372 690/8/372 691/6/372
f 688/5/373 692/8/373 691/6/373
f 689/5/374 693/8/374 691/6/374
f 694/5/282 697/8/282 698/6/282
f 695/5/283 699/8/283 698/6/283
f 696/5/375 700/8/375 698/6/375
f 687/5/334 702/8/334 703/6/334
f 701/5/376 704/8/376 703/6/376
f 688/5/377 690/8/377 703/6/377
f 694/5/378 700/8/378 706/6/378
f 696/5/379 707/8/379 706/6/379
f 705/5/380 708/8/380 706/6/380
f 672/8/115 678/6/115 670/7/115
f 678/8/173 674/6/173 667/7/173
f 679/8/83 681/6/83 686/7/83
f 681/8/174 667/6/174 674/7/174
f 665/8/33 682/6/33 702/7/33
f 682/8/34 679/6/34 701/7/34
f 694/8/35 708/6/35 684/7/35
f 708/8/36 705/6/36 683/7/36
f 688/8/175 704/6/175 707/7/175
f 704/8/85 701/6/85 705/7/85
f 689/8/88 692/6/88 699/7/88
f 692/8/177 688/6/177 696/7/177
f 687/8/45 693/6/45 668/7/45
f 693/8/46 689/6/46 666/7/46
f 673/8/47 675/6/47 697/7/47
f 675/8/48 672/6/48 695/7/48
f 695/8/51 672/6/51 666/7/51
f 683/8/53 705/6/53 701/7/53
f 709/5/322 712/8/322 713/6/322
f 710/5/381 714/8/381 713/6/381
f 711/5/382 715/8/382 713/6/382
f 716/5/383 719/8/383 720/6/383
f 717/5/298 721/8/298 720/6/298
f 718/5/384 722/8/384 720/6/384
f 709/5/385 715/8/385 724/6/385
f 711/5/386 725/8/386 724/6/386
f 723/5/387 726/8/387 724/6/387
f 717/5/276 728/8/276 729/6/276
f 727/5/277 730/8/277 729/6/277
f 718/5/388 721/8/388 729/6/388
f 731/5/350 734/8/350 735/6/350
f 732/5/351 736/8/351 735/6/351
f 733/5/352 737/8/352 735/6/352
f 738/5/353 741/8/353 742/6/353
f 739/5/354 743/8/354 742/6/354
f 740/5/355 744/8/355 742/6/355
f 731/5/356 746/8/356 747/6/356
f 745/5/286 748/8/286 747/6/286
f 732/5/357 734/8/357 747/6/357
f 738/5/358 744/8/358 750/6/358
f 740/5/359 751/8/359 750/6/359
f 749/5/360 752/8/360 750/6/360
f 716/8/80 722/6/80 714/7/80
f 722/8/173 718/6/173 711/7/173
f 723/8/83 725/6/83 730/7/83
f 725/8/174 711/6/174 718/7/174
f 709/8/33 726/6/33 746/7/33
f 726/8/34 723/6/34 745/7/34
f 738/8/35 752/6/35 728/7/35
f 752/8/36 749/6/36 727/7/36
f 732/8/175 748/6/175 751/7/175
f 748/8/85 745/6/85 749/7/85
f 733/8/88 736/6/88 743/7/88
f 736/8/177 732/6/177 740/7/177
f 731/8/45 737/6/45 712/7/45
f 737/8/46 733/6/46 710/7/46
f 717/8/47 719/6/47 741/7/47
f 719/8/48 716/6/48 739/7/48
f 739/8/51 716/6/51 710/7/51
f 727/8/53 749/6/53 745/7/53
f 753/5/361 756/8/361 757/6/361
f 754/5/268 758/8/268 757/6/268
f 755/5/362 759/8/362 757/6/362
f 760/5/363 763/8/363 764/6/363
f 761/5/364 765/8/364 764/6/364
f 762/5/365 766/8/365 764/6/365
f 753/5/366 759/8/366 768/6/366
f 755/5/367 769/8/367 768/6/367
f 767/5/368 770/8/368 768/6/368
f 761/5/369 772/8/369 773/6/369
f 771/5/370 774/8/370 773/6/370
f 762/5/371 765/8/371 773/6/371
f 775/5/350 778/8/350 779/6/350
f 776/5/351 780/8/351 779/6/351
f 777/5/352 781/8/352 779/6/352
f 782/5/353 785/8/353 786/6/353
f 783/5/354 787/8/354 786/6/354
f 784/5/355 788/8/355 786/6/355
f 775/5/356 790/8/356 791/6/356
f 789/5/286 792/8/286 791/6/286
f 776/5/357 778/8/357 791/6/357
f 782/5/358 788/8/358 794/6/358
f 784/5/359 795/8/359 794/6/359
f 793/5/360 796/8/360 794/6/360
f 760/8/80 766/6/80 758/7/80
f 766/8/173 762/6/173 755/7/173
f 767/8/83 769/6/83 774/7/83
f 769/8/174 755/6/174 762/7/174
f 753/8/33 770/6/33 790/7/33
f 770/8/34 767/6/34 789/7/34
f 782/8/35 796/6/35 772/7/35
f 796/8/36 793/6/36 771/7/36
f 776/8/175 792/6/175 795/7/175
f 792/8/85 789/6/85 793/7/85
f 777/8/88 780/6/88 787/7/88
f 780/8/177 776/6/177 784/7/177
f 775/8/45 781/6/45 756/7/45
f 781/8/46 777/6/46 754/7/46
f 761/8/47 763/6/47 785/7/47
f 763/8/48 760/6/48 783/7/48
f 783/8/51 760/6/51 754/7/51
f 771/8/53 793/6/53 789/7/53
f 797/5/361 800/8/361 801/6/361
f 798/5/268 802/8/268 801/6/268
f 799/5/362 803/8/362 801/6/362
f 804/5/363 807/8/363 808/6/363
f 805/5/364 809/8/364 808/6/364
f 806/5/365 810/8/365 808/6/365
f 797/5/366 803/8/366 812/6/366
f 799/5/367 813/8/367 812/6/367
f 811/5/368 814/8/368 812/6/368
f 805/5/369 816/8/369 817/6/369
f 815/5/370 818/8/370 817/6/370
f 806/5/371 809/8/371 817/6/371
f 819/5/254 822/8/254 823/6/254
f 820/5/419 824/8/419 823/6/419
f 821/5/420 825/8/420 823/6/420
f 826/5/282 829/8/282 830/6/282
f 827/5/421 831/8/421 830/6/421
f 828/5/284 832/8/284 830/6/284
f 819/5/285 834/8/285 835/6/285
f 833/5/422 836/8/422 835/6/422
f 820/5/423 822/8/423 835/6/423
f 826/5/263 832/8/263 838/6/263
f 828/5/424 839/8/424 838/6/424
f 837/5/425 840/8/425 838/6/425
f 804/8/80 810/6/80 802/7/80
f 810/8/173 806/6/173 799/7/173
f 811/8/83 813/6/83 818/7/83
f 813/8/174 799/6/174 806/7/174
f 797/8/33 814/6/33 834/7/33
f 814/8/34 811/6/34 833/7/34
f 826/8/35 840/6/35 816/7/35
f 840/8/36 837/6/36 815/7/36
f 820/8/175 836/6/175 839/7/175
f 836/8/85 833/6/85 837/7/85
f 821/8/43 824/6/43 831/7/43
f 824/8/177 820/6/177 828/7/177
f 819/8/45 825/6/45 800/7/45
f 825/8/46 821/6/46 798/7/46
f 805/8/47 807/6/47 829/7/47
f 807/8/48 804/6/48 827/7/48
f 827/8/51 804/6/51 798/7/51
f 815/8/53 837/6/53 833/7/53
